<svg width="170" height="70" viewBox="0 0 170 70" fill="none" xmlns="http://www.w3.org/2000/svg">
<g id="Group 9">
<g id="Group 6">
<path id="Vector" d="M59.5415 43.0748C59.5415 40.8692 59.9778 38.913 60.8505 37.2063C61.7497 35.4995 62.9529 34.1867 64.4603 33.2677C65.9941 32.3487 67.6998 31.8892 69.5774 31.8892C71.217 31.8892 72.645 32.2174 73.8614 32.8738C75.1044 33.5303 76.0961 34.3574 76.8365 35.3551V32.2436H82.4296V54.0636H76.8365V50.8733C76.1225 51.8973 75.1308 52.7507 73.8614 53.4334C72.6185 54.0898 71.1773 54.4181 69.5377 54.4181C67.6866 54.4181 65.9941 53.9454 64.4603 53.0001C62.9529 52.0549 61.7497 50.7289 60.8505 49.0221C59.9778 47.2892 59.5415 45.3067 59.5415 43.0748ZM76.8365 43.1536C76.8365 41.8145 76.5721 40.6723 76.0432 39.727C75.5142 38.7555 74.8002 38.0203 73.9011 37.5214C73.002 36.9962 72.0367 36.7337 71.0054 36.7337C69.974 36.7337 69.022 36.9831 68.1493 37.482C67.2767 37.9809 66.5626 38.7161 66.0073 39.6876C65.4784 40.6329 65.2139 41.762 65.2139 43.0748C65.2139 44.3877 65.4784 45.543 66.0073 46.5408C66.5626 47.5123 67.2767 48.2607 68.1493 48.7858C69.0485 49.311 70.0005 49.5736 71.0054 49.5736C72.0367 49.5736 73.002 49.3241 73.9011 48.8252C74.8002 48.3001 75.5142 47.5649 76.0432 46.6196C76.5721 45.6481 76.8365 44.4927 76.8365 43.1536Z" fill="#00D1E4" stroke="white"/>
<path id="Vector_2" d="M37.1631 37.2455C36.2458 38.9259 35.7871 40.8952 35.7871 43.1534C35.7871 45.4115 36.2458 47.394 37.1631 49.1007C38.0804 50.7812 39.3515 52.094 40.9764 53.0393C41.9463 53.5879 43.0002 53.9727 44.1382 54.1938V57.8219H48.6539V54.2614C50.4183 53.9848 51.9476 53.3411 53.242 52.3304C55.0242 50.9387 56.2166 49.0613 56.8194 46.6981H50.8832C50.2018 48.6937 48.7472 49.6915 46.5195 49.6915C44.947 49.6915 43.7021 49.1269 42.7848 47.9979C41.8675 46.8425 41.4088 45.2277 41.4088 43.1534C41.4088 41.0528 41.8675 39.4379 42.7848 38.3089C43.7021 37.1535 44.947 36.5759 46.5195 36.5759C47.6202 36.5759 48.5376 36.8516 49.2714 37.403C50.0314 37.9282 50.5687 38.6634 50.8832 39.6086H56.8194C56.2166 37.1667 55.0242 35.2762 53.242 33.937C51.9629 32.9425 50.4336 32.3101 48.6539 32.04V28.7324H44.1382V32.1194C43.0002 32.3468 41.9463 32.7426 40.9764 33.3068C39.3515 34.2259 38.0804 35.5387 37.1631 37.2455Z" fill="#00D1E4" stroke="white"/>
<path id="Vector_3" d="M23.3421 54.6654C21.4263 54.6654 19.6943 54.3364 18.1459 53.6786C16.6238 53.0207 15.4165 52.0734 14.5243 50.8365C13.632 49.5997 13.1727 48.1392 13.1465 46.4551H19.0513C19.13 47.5866 19.5237 48.4813 20.2322 49.1392C20.967 49.7971 21.9643 50.126 23.224 50.126C24.5099 50.126 25.5203 49.8234 26.2551 49.2181C26.9899 48.5866 27.3574 47.7708 27.3574 46.7708C27.3574 45.9551 27.108 45.284 26.6094 44.7577C26.1108 44.2314 25.481 43.8236 24.7199 43.5341C23.9851 43.2183 22.9616 42.8762 21.6494 42.5078C19.8648 41.9815 18.4083 41.4683 17.2798 40.9683C16.1776 40.442 15.2197 39.6657 14.4062 38.6395C13.6189 37.5869 13.2252 36.1921 13.2252 34.4553C13.2252 32.8238 13.632 31.4028 14.4455 30.1923C15.2591 28.9818 16.4007 28.0608 17.8703 27.4292C19.34 26.7713 21.0195 26.4424 22.9091 26.4424C25.7434 26.4424 28.0397 27.1397 29.798 28.5344C31.5826 29.9028 32.5667 31.8238 32.7504 34.2975H26.6881C26.6357 33.3501 26.2289 32.5738 25.4678 31.9686C24.733 31.337 23.7489 31.0212 22.5154 31.0212C21.4394 31.0212 20.5734 31.2975 19.9173 31.8501C19.2875 32.4028 18.9725 33.2054 18.9725 34.258C18.9725 34.9948 19.2087 35.6132 19.6811 36.1132C20.1797 36.5869 20.7834 36.9816 21.4919 37.2974C22.2267 37.5869 23.2502 37.9289 24.5624 38.3237C26.347 38.85 27.8035 39.3763 28.932 39.9026C30.0604 40.4289 31.0315 41.2184 31.845 42.2709C32.6585 43.3235 33.0653 44.7051 33.0653 46.4156C33.0653 47.8892 32.6848 49.2576 31.9237 50.5207C31.1627 51.7839 30.0473 52.797 28.5777 53.5601C27.108 54.297 25.3629 54.6654 23.3421 54.6654Z" fill="#00D1E4" stroke="white"/>
<path id="Vector_4" d="M160.447 32.5078C163.045 32.5078 165.145 33.3358 166.745 34.9917C168.346 36.6213 169.147 38.908 169.147 41.8518V54.6653H163.636V42.6009C163.636 40.8662 163.203 39.5388 162.336 38.6189C161.47 37.6726 160.29 37.1995 158.794 37.1995C157.272 37.1995 156.064 37.6726 155.172 38.6189C154.306 39.5388 153.873 40.8662 153.873 42.6009V54.6653H148.362V32.8232H153.873V35.5436C154.608 34.5974 155.539 33.8614 156.668 33.3358C157.823 32.7838 159.082 32.5078 160.447 32.5078Z" fill="#00D1E4" stroke="white"/>
<path id="Vector_5" d="M143.024 32.4668V54.6553H137.423V32.4668H143.024Z" fill="#00D1E4" stroke="white"/>
<path id="Vector_6" d="M133.773 41.0491V45.6291H123.257V41.0491H133.773Z" fill="#00D1E4" stroke="white"/>
<path id="Vector_7" d="M118.803 42.681C118.803 43.4687 118.751 44.1776 118.646 44.8078H102.732C102.863 46.3833 103.413 47.6174 104.382 48.5101C105.352 49.4029 106.544 49.8493 107.958 49.8493C110.001 49.8493 111.455 48.9696 112.32 47.2104H118.253C117.624 49.311 116.419 51.044 114.638 52.4094C112.857 53.7485 110.669 54.4181 108.076 54.4181C105.98 54.4181 104.094 53.9586 102.418 53.0395C100.767 52.0943 99.4707 50.7683 98.5276 49.0615C97.6108 47.3548 97.1523 45.3855 97.1523 43.1536C97.1523 40.8955 97.6108 38.913 98.5276 37.2063C99.4445 35.4995 100.728 34.1867 102.378 33.2677C104.029 32.3487 105.928 31.8892 108.076 31.8892C110.146 31.8892 111.992 32.3355 113.616 33.2283C115.267 34.121 116.537 35.3945 117.428 37.0487C118.345 38.6767 118.803 40.5541 118.803 42.681ZM113.106 41.1055C113.079 39.6876 112.569 38.5586 111.573 37.7183C110.578 36.8518 109.36 36.4186 107.919 36.4186C106.557 36.4186 105.404 36.8387 104.461 37.6789C103.544 38.4929 102.981 39.6351 102.771 41.1055H113.106Z" fill="#00D1E4" stroke="white"/>
<path id="Vector_8" d="M92.5742 25.4521V54.6654H87.0068V25.4521H92.5742Z" fill="#00D1E4" stroke="white"/>
<g id="Vector 14" filter="url(#filter0_f_896_439)">
<path d="M129.129 26.9197C124.336 30.905 109.001 39.3065 100.155 39.3065C90.0718 40.4205 78.466 34.4321 85.9453 28.918M25.5083 38.9446C25.5083 38.9446 29.1868 40.4086 34.8491 41.6865M40.3546 42.7297C44.4978 43.3635 49.2096 43.7386 54.0875 43.4628C55.4912 43.3834 56.9861 43.2855 58.5414 43.1679M64.2325 42.67C79.8198 41.1153 97.5848 37.7126 92.0075 31.5794C91.8678 31.4596 91.7232 31.344 91.5745 31.2328" stroke="white" stroke-width="2.5"/>
</g>
<path id="Vector 15" d="M25.5083 38.945C25.5083 38.945 29.8374 40.722 35.4998 42M41.4998 43C45.6429 43.6339 50.1219 43.7759 54.9998 43.5C56.4035 43.4206 57.8983 43.3227 59.4537 43.2052M64.9998 43C80.5871 41.4453 97.9312 38.0165 93.9998 31.5C93.474 30.6286 93.19 30.4675 92.4998 30M86.7487 29.6795C84.3175 30.7894 82.337 33.5275 85.5062 35.9675C88.3172 38.1317 96.4692 41.4163 109.741 37.0864M129.129 26.9736C123.992 30.5651 120.268 32.626 116 34.5" stroke="white" stroke-linecap="round" stroke-linejoin="round"/>
</g>
<g id="Group">
<path id="Vector_9" d="M133.795 18.5163C132.114 18.0954 130.315 18.4726 128.954 19.5464C128.883 19.6021 128.814 19.6599 128.746 19.718C128.483 19.9464 128.396 20.3008 128.523 20.6215C128.652 20.9459 128.963 21.1464 129.314 21.132C130.515 21.0826 131.676 21.4548 132.62 22.1735C132.07 22.6881 131.649 23.3222 131.411 24.0374C131.339 24.2539 131.381 24.4921 131.525 24.6747C131.64 24.8203 131.804 24.9108 131.981 24.9318C132.026 24.9371 132.072 24.9381 132.118 24.9341C132.869 24.869 133.584 24.608 134.212 24.1936C134.69 25.2804 134.78 26.4967 134.453 27.6525C134.357 27.9918 134.479 28.341 134.764 28.5418C134.876 28.6216 135.002 28.6685 135.13 28.6838C135.324 28.7067 135.524 28.6573 135.693 28.5354C135.766 28.484 135.837 28.4299 135.909 28.3743C137.185 27.367 138.031 25.6867 138.003 23.926C138.756 23.5285 139.48 23.0634 140.151 22.5337C142.647 20.5648 144.414 17.7765 145.124 14.6825C145.174 14.4658 145.122 14.2391 144.982 14.0619C144.843 13.8848 144.635 13.7831 144.412 13.7792C141.239 13.7479 138.117 14.8151 135.62 16.784C134.959 17.305 134.349 17.89 133.795 18.5163Z" fill="white"/>
<path id="Vector_10" d="M139.398 21.9717C140.44 22.0953 141.469 21.8053 142.295 21.1558C143.996 19.8126 144.289 17.3348 142.948 15.631C141.647 13.9809 139.075 13.6761 137.426 14.9766C135.723 16.3196 135.43 18.7975 136.772 20.5014C137.422 21.327 138.355 21.8482 139.398 21.9717ZM139.882 18.8964C140.433 18.4625 139.084 19.4332 139.779 19.5156C140.474 19.5979 139.966 16.9013 140.4 17.4518C141.293 18.5876 140.915 16.4524 139.781 17.3479C138.681 18.2131 139.511 19.2707 138.645 18.1725C137.75 17.0366 138.747 19.793 139.882 18.8964Z" fill="#00D1E4"/>
<path id="Vector_11" d="M139.518 20.7205C140.229 20.8048 140.931 20.607 141.494 20.1639C142.654 19.2478 142.854 17.5576 141.94 16.3954C141.052 15.2699 139.298 15.062 138.173 15.9491C137.011 16.8652 136.811 18.5553 137.727 19.7176C138.17 20.2807 138.807 20.6363 139.518 20.7205ZM139.848 18.6228C140.224 18.3268 139.303 18.989 139.778 19.0451C140.252 19.1013 139.905 17.2619 140.201 17.6374C140.811 18.4121 140.553 16.9557 139.779 17.5666C139.029 18.1567 139.595 18.8781 139.004 18.129C138.394 17.3542 139.074 19.2344 139.848 18.6228Z" fill="#272E4F"/>
<path id="Vector_12" d="M130.508 25.0347L129.746 25.9204C129.657 26.0245 129.668 26.1819 129.772 26.2715C129.825 26.3165 129.89 26.3356 129.953 26.3308C130.017 26.3261 130.079 26.297 130.124 26.2452L130.885 25.3594C130.975 25.2554 130.963 25.098 130.859 25.0084C130.755 24.9188 130.597 24.9301 130.508 25.0347Z" fill="white"/>
<path id="Vector_13" d="M130.715 22.4707L128.747 24.6317C128.655 24.7332 128.662 24.8909 128.764 24.9833C128.815 25.0298 128.879 25.0507 128.943 25.0478C129.007 25.0448 129.069 25.0175 129.116 24.9669L131.083 22.806C131.175 22.7044 131.168 22.5468 131.067 22.4543C130.965 22.3618 130.807 22.3692 130.715 22.4707Z" fill="white"/>
<path id="Vector_14" d="M130.896 27.6825C130.947 27.7288 131.012 27.7495 131.075 27.7464C131.139 27.7432 131.201 27.7157 131.248 27.6651L133.209 25.4985C133.301 25.3967 133.293 25.2391 133.191 25.1469C133.09 25.0547 132.932 25.0625 132.84 25.1643L130.879 27.3308C130.786 27.4331 130.794 27.5903 130.896 27.6825Z" fill="white"/>
</g>
</g>
<defs>
<filter id="filter0_f_896_439" x="0.0463867" y="0.958496" width="154.882" height="68.8462" filterUnits="userSpaceOnUse" color-interpolation-filters="sRGB">
<feFlood flood-opacity="0" result="BackgroundImageFix"/>
<feBlend mode="normal" in="SourceGraphic" in2="BackgroundImageFix" result="shape"/>
<feGaussianBlur stdDeviation="12.5" result="effect1_foregroundBlur_896_439"/>
</filter>
</defs>
</svg>
