<svg width="35" height="35" viewBox="0 0 35 35" fill="none" xmlns="http://www.w3.org/2000/svg">
<path d="M33.6814 18.7325L11.1426 31.1369C10.5491 31.4633 9.85033 31.5407 9.19986 31.3519C8.54939 31.1632 8.00053 30.7238 7.67401 30.1304L0.805266 17.651C0.47899 17.0576 0.401729 16.359 0.59047 15.7086C0.779212 15.0583 1.2185 14.5095 1.81176 14.183L24.35 1.77693C24.9434 1.45048 25.6423 1.37313 26.2927 1.56188C26.9432 1.75063 27.492 2.19002 27.8186 2.78342L34.6873 15.2633C35.0136 15.8567 35.0909 16.5554 34.9021 17.2057C34.7134 17.8561 34.2741 18.4048 33.6808 18.7314L33.6814 18.7325Z" fill="#FEBC1F"/>
<path d="M33.19 17.8382L10.6506 30.2426C10.0572 30.569 9.35838 30.6464 8.70791 30.4577C8.05744 30.2689 7.50859 29.8295 7.18207 29.2361L0.313322 16.7567C-0.0129533 16.1633 -0.0902145 15.4647 0.098527 14.8143C0.287269 14.164 0.726561 13.6152 1.31981 13.2887L23.8586 0.882645C24.4521 0.556196 25.1509 0.478839 25.8013 0.667589C26.4518 0.856339 27.0007 1.29574 27.3272 1.88913L34.1959 14.3691C34.5222 14.9624 34.5995 15.6611 34.4107 16.3115C34.222 16.9618 33.7827 17.5105 33.1894 17.8371L33.19 17.8382Z" fill="#FFD475"/>
<path d="M23.8588 0.883176L1.32004 13.2876C0.726645 13.6141 0.287247 14.163 0.098497 14.8135C-0.090253 15.4639 -0.0128957 16.1627 0.313553 16.7562L7.1823 29.2366C7.1823 29.2366 0.782336 16.9969 26.1377 0.794561C25.7771 0.63121 25.3834 0.554168 24.9878 0.569551C24.5922 0.584933 24.2057 0.692316 23.8588 0.883176Z" fill="#FEBC1F"/>
<path d="M2.33247 18.2868L3.19509 19.8539C3.29954 20.0436 3.475 20.184 3.68291 20.2443C3.89082 20.3046 4.11417 20.2799 4.30387 20.1756L28.0811 7.08957C28.2707 6.98513 28.4111 6.80967 28.4714 6.60176C28.5317 6.39385 28.507 6.1705 28.4027 5.9808L27.5401 4.41363C27.4357 4.22401 27.2602 4.08361 27.0523 4.0233C26.8444 3.96299 26.621 3.9877 26.4313 4.09199L2.6541 17.178C2.46449 17.2824 2.32409 17.4579 2.26378 17.6658C2.20347 17.8737 2.22817 18.0971 2.33247 18.2868Z" fill="#1D2943"/>
<path d="M2.09375 17.8524L2.95638 19.4196C3.06083 19.6092 3.23629 19.7496 3.4442 19.8099C3.65211 19.8703 3.87546 19.8455 4.06516 19.7413L27.8424 6.65525C28.032 6.5508 28.1724 6.37535 28.2327 6.16743C28.293 5.95952 28.2683 5.73617 28.164 5.54647L27.3014 3.9793C27.1969 3.78968 27.0215 3.64929 26.8136 3.58898C26.6057 3.52866 26.3823 3.55337 26.1926 3.65766L2.41485 16.7442C2.22523 16.8487 2.08483 17.0241 2.02452 17.232C1.96421 17.4399 1.98892 17.6633 2.09321 17.853L2.09375 17.8524Z" fill="#4C5C75"/>
<path d="M29.6059 34.4206H3.87965C3.20239 34.4206 2.55286 34.1516 2.07392 33.6728C1.59497 33.1939 1.32583 32.5445 1.32568 31.8672V17.6215C1.32583 16.9443 1.59497 16.2948 2.07392 15.816C2.55286 15.3371 3.20239 15.0681 3.87965 15.0681H29.6053C30.2826 15.0681 30.9321 15.3371 31.411 15.816C31.89 16.2948 32.1591 16.9443 32.1593 17.6215V31.8672C32.1591 32.5445 31.89 33.1939 31.411 33.6728C30.9321 34.1516 30.2831 34.4206 29.6059 34.4206Z" fill="#5094FF"/>
<path d="M3.8791 33.4002H29.6053C29.9407 33.4002 30.2729 33.3342 30.5828 33.2059C30.8928 33.0776 31.1744 32.8895 31.4116 32.6523C31.6488 32.4151 31.837 32.1336 31.9654 31.8237C32.0937 31.5138 32.1598 31.1816 32.1598 30.8462V16.6011C32.1598 15.9237 31.8907 15.2741 31.4118 14.7952C30.9328 14.3162 30.2832 14.0471 29.6059 14.0471H3.87965C3.54426 14.0471 3.21215 14.1132 2.90229 14.2415C2.59243 14.3699 2.31088 14.558 2.07372 14.7952C1.83657 15.0323 1.64844 15.3139 1.52009 15.6237C1.39174 15.9336 1.32568 16.2657 1.32568 16.6011V30.8462C1.32561 31.1816 1.39162 31.5138 1.51994 31.8237C1.64825 32.1336 1.83636 32.4153 2.07353 32.6525C2.31069 32.8897 2.59227 33.0779 2.90216 33.2062C3.21206 33.3346 3.54421 33.4007 3.87965 33.4007L3.8791 33.4002Z" fill="#57B3FE"/>
<path d="M3.87987 14.0477H29.6061C30.2833 14.0477 30.9329 14.3167 31.4118 14.7955C31.8908 15.2744 32.1599 15.9238 32.16 16.6011V30.8462C32.16 30.8462 31.8663 17.0376 1.84009 15.0684C2.07723 14.7514 2.38502 14.494 2.739 14.3167C3.09299 14.1395 3.48343 14.0471 3.87932 14.0471L3.87987 14.0477Z" fill="#5094FF"/>
<path d="M30.1595 28.8165V29.2125H30.154C30.1644 29.7486 29.7175 30.1988 29.1781 30.1988H26.587C26.058 30.1988 25.6007 29.7568 25.6117 29.2125H25.6062V28.8165H25.6697C25.8228 28.4314 26.2391 28.1677 26.6767 28.1677H29.089C29.5266 28.1677 29.9429 28.4314 30.096 28.8165H30.1595Z" fill="#E3E7F0"/>
<path d="M29.1759 29.8058H26.6712C26.1669 29.8058 25.6899 29.4633 25.6188 28.9634C25.5983 28.8232 25.6082 28.6802 25.6479 28.5442C25.6875 28.4082 25.756 28.2823 25.8486 28.1751C25.9413 28.0679 26.0559 27.9819 26.1847 27.9229C26.3135 27.8639 26.4535 27.8333 26.5952 27.8333H29.0901C29.625 27.8333 30.1239 28.2216 30.1562 28.7555C30.1654 28.8899 30.1469 29.0248 30.1018 29.1517C30.0567 29.2787 29.986 29.395 29.8941 29.4935C29.8022 29.592 29.691 29.6705 29.5675 29.7242C29.4439 29.7779 29.3107 29.8057 29.1759 29.8058Z" fill="white"/>
<path d="M22.7325 28.8165V29.2125H22.727C22.7379 29.7486 22.2905 30.1988 21.7517 30.1988H19.1605C18.631 30.1988 18.1743 29.7568 18.1847 29.2125H18.1792V28.8165H18.2427C18.3958 28.4314 18.8126 28.1677 19.2502 28.1677H21.662C22.0996 28.1677 22.5164 28.4314 22.6696 28.8165H22.7325Z" fill="#E3E7F0"/>
<path d="M21.7489 29.8058H19.2437C18.7393 29.8058 18.2623 29.4633 18.1918 28.9634C18.1713 28.8232 18.1812 28.6803 18.2208 28.5443C18.2605 28.4084 18.3289 28.2825 18.4214 28.1753C18.514 28.0681 18.6286 27.9821 18.7573 27.9231C18.8861 27.864 19.026 27.8334 19.1676 27.8333H21.6625C22.198 27.8333 22.6964 28.2216 22.7292 28.7555C22.7384 28.8899 22.7199 29.0248 22.6748 29.1517C22.6297 29.2787 22.559 29.395 22.4671 29.4935C22.3752 29.592 22.264 29.6705 22.1405 29.7242C22.0169 29.7779 21.8837 29.8057 21.7489 29.8058Z" fill="white"/>
<path d="M15.3058 28.8165V29.2125H15.3003C15.3107 29.7486 14.8638 30.1988 14.3244 30.1988H11.7333C11.2038 30.1988 10.747 29.7568 10.7574 29.2125H10.752V28.8165H10.816C10.9691 28.4314 11.3854 28.1677 11.823 28.1677H14.2353C14.6729 28.1677 15.0892 28.4314 15.2423 28.8165H15.3058Z" fill="#E3E7F0"/>
<path d="M14.3219 29.8058H11.8172C11.3129 29.8058 10.8359 29.4633 10.7648 28.9634C10.7443 28.8232 10.7542 28.6802 10.7939 28.5442C10.8335 28.4082 10.902 28.2823 10.9946 28.1751C11.0872 28.0679 11.2019 27.9819 11.3307 27.9229C11.4595 27.8639 11.5995 27.8333 11.7412 27.8333H14.2355C14.7716 27.8333 15.2694 28.2216 15.3022 28.7555C15.3114 28.8899 15.2929 29.0248 15.2478 29.1517C15.2027 29.2787 15.132 29.395 15.0401 29.4935C14.9482 29.592 14.837 29.6705 14.7135 29.7242C14.5899 29.7779 14.4567 29.8057 14.3219 29.8058Z" fill="white"/>
<path d="M7.88066 28.8165V29.2125H7.87519C7.88613 29.7486 7.43868 30.1988 6.89988 30.1988H4.30872C3.77922 30.1988 3.32247 29.7568 3.33286 29.2125H3.32739V28.8165H3.39085C3.54401 28.4314 3.96028 28.1677 4.39843 28.1677H6.81017C7.24778 28.1677 7.6646 28.4314 7.81721 28.8165H7.88066Z" fill="#E3E7F0"/>
<path d="M6.89714 29.8058H4.39186C3.88752 29.8058 3.41053 29.4633 3.33997 28.9634C3.31949 28.8232 3.3294 28.6803 3.36903 28.5443C3.40866 28.4084 3.47707 28.2825 3.56964 28.1753C3.66221 28.0681 3.77675 27.9821 3.9055 27.9231C4.03425 27.864 4.17419 27.8334 4.31582 27.8333H6.81071C7.34623 27.8333 7.84455 28.2216 7.87737 28.7555C7.8866 28.8899 7.86809 29.0248 7.82301 29.1517C7.77793 29.2787 7.70724 29.395 7.61532 29.4935C7.5234 29.592 7.41221 29.6705 7.28867 29.7242C7.16513 29.7779 7.03186 29.8057 6.89714 29.8058Z" fill="white"/>
<path d="M3.32959 18.5472V20.93C3.32959 21.5306 3.81642 22.0174 4.41704 22.0174H8.8795C9.48012 22.0174 9.96695 21.5306 9.96695 20.93V18.5472C9.96695 17.9466 9.48012 17.4592 8.8795 17.4592H4.41704C3.81642 17.4592 3.32959 17.9461 3.32959 18.5472Z" fill="#FEBC1F"/>
<path d="M3.32959 18.1756V20.5584C3.32959 21.159 3.81642 21.6464 4.41704 21.6464H8.8795C9.48012 21.6464 9.96695 21.1596 9.96695 20.5584V18.1756C9.96695 17.575 9.48012 17.0876 8.8795 17.0876H4.41704C3.81642 17.0876 3.32959 17.5745 3.32959 18.1756Z" fill="#FFD475"/>
<path d="M6.53231 19.1099V17.0876H6.01539V19.1099H3.32959V19.6263H4.79885V21.6464H5.31522V19.6263H7.64163V21.6464H8.158V19.6263H9.9664V19.1099H6.53231Z" fill="#FEBC1F"/>
<path d="M29.6883 20.8937H26.7794C26.5371 20.8937 26.3084 20.7296 26.2739 20.4895C26.264 20.4222 26.2688 20.3535 26.2878 20.2881C26.3068 20.2228 26.3397 20.1623 26.3841 20.1107C26.4286 20.0592 26.4836 20.0178 26.5455 19.9895C26.6074 19.9611 26.6747 19.9464 26.7427 19.9463H29.6473C29.9039 19.9463 30.1429 20.1329 30.1588 20.3894C30.1632 20.4539 30.1543 20.5187 30.1327 20.5796C30.111 20.6405 30.0771 20.6964 30.033 20.7437C29.9889 20.791 29.9356 20.8287 29.8763 20.8545C29.817 20.8803 29.753 20.8937 29.6883 20.8937ZM29.6883 18.866H24.5815C24.3392 18.866 24.1105 18.7019 24.0761 18.4612C24.0663 18.3939 24.0711 18.3253 24.0901 18.26C24.1092 18.1947 24.142 18.1343 24.1865 18.0828C24.231 18.0313 24.286 17.99 24.3478 17.9617C24.4096 17.9334 24.4768 17.9187 24.5449 17.9186H29.6468C29.9039 17.9186 30.1429 18.1046 30.1588 18.3617C30.1632 18.4262 30.1543 18.4909 30.1327 18.5519C30.111 18.6128 30.0771 18.6686 30.033 18.7159C29.9889 18.7632 29.9356 18.8009 29.8763 18.8267C29.817 18.8526 29.753 18.8659 29.6883 18.866ZM28.9116 7.82251C30.1248 9.37592 31.1242 11.0851 31.8829 12.9042C30.6698 11.3508 29.6701 9.64165 28.9116 7.82251ZM6.25684 12.9025C8.02252 11.5493 9.94264 10.4105 11.9769 9.51002C10.2112 10.8632 8.29105 12.0021 6.25684 12.9025ZM20.8881 32.1177C23.097 31.8546 25.3292 31.8546 27.5381 32.1177C25.3227 32.3819 23.1035 32.3803 20.8881 32.1177Z" fill="white"/>
</svg>
