<svg width="34" height="35" viewBox="0 0 34 35" fill="none" xmlns="http://www.w3.org/2000/svg">
<path d="M29.1646 16.9641V18.0219H22.8179V16.9641H29.1646ZM30.2224 6.91504V17.493H29.1646V6.91504H30.2224ZM30.2224 17.493V28.0709H29.1646V17.493H30.2224Z" fill="#D9D9D9"/>
<path d="M29.6939 19.0796C30.5702 19.0796 31.2806 18.3692 31.2806 17.4929C31.2806 16.6166 30.5702 15.9062 29.6939 15.9062C28.8176 15.9062 28.1072 16.6166 28.1072 17.4929C28.1072 18.3692 28.8176 19.0796 29.6939 19.0796Z" fill="#FFAC00"/>
<path d="M27.578 30.7153H17V29.6575H27.578V30.7153ZM17 30.7153H6.42212V29.6575H17V30.7153ZM17.5289 29.6575H16.4711V23.3108H17.5289V29.6575Z" fill="#D9D9D9"/>
<path d="M17.0003 31.773C17.8766 31.773 18.587 31.0626 18.587 30.1863C18.587 29.31 17.8766 28.5996 17.0003 28.5996C16.124 28.5996 15.4136 29.31 15.4136 30.1863C15.4136 31.0626 16.124 31.773 17.0003 31.773Z" fill="#FFAC00"/>
<path d="M3.77783 28.0709V17.493H4.83562V28.0709H3.77783ZM3.77783 17.493V6.91504H4.83562V17.493H3.77783ZM4.83562 18.0219V16.9641H11.1824V18.0219H4.83562Z" fill="#D9D9D9"/>
<path d="M4.30666 19.0796C5.18296 19.0796 5.89335 18.3692 5.89335 17.4929C5.89335 16.6166 5.18296 15.9062 4.30666 15.9062C3.43036 15.9062 2.71997 16.6166 2.71997 17.4929C2.71997 18.3692 3.43036 19.0796 4.30666 19.0796Z" fill="#FFAC00"/>
<path d="M6.42212 4.27051H17V5.3283H6.42212V4.27051ZM17 4.27051H27.578V5.3283H17V4.27051ZM16.4711 5.3283H17.5289V11.6751H16.4711V5.3283Z" fill="#D9D9D9"/>
<path d="M23.3468 9.55933H10.6533C9.77703 9.55933 9.06665 10.2697 9.06665 11.146V23.8395C9.06665 24.7158 9.77703 25.4262 10.6533 25.4262H23.3468C24.2231 25.4262 24.9335 24.7158 24.9335 23.8395V11.146C24.9335 10.2697 24.2231 9.55933 23.3468 9.55933Z" fill="#EA9706"/>
<path d="M4.30676 1.09717L0.604492 2.68386V7.44392L4.30676 9.03061L8.00904 7.44392V2.68386L4.30676 1.09717Z" fill="#50D9D7"/>
<path d="M4.30632 4.79934C4.15294 4.79934 4.42797 4.89983 0.397784 3.17034C0.302377 3.1297 0.221023 3.0619 0.163841 2.97539C0.106659 2.88888 0.0761719 2.78746 0.0761719 2.68376C0.0761719 2.58005 0.106659 2.47864 0.163841 2.39212C0.221023 2.30561 0.302377 2.23782 0.397784 2.19717L4.10006 0.610484C4.16531 0.582846 4.23546 0.568604 4.30632 0.568604C4.37719 0.568604 4.44734 0.582846 4.51259 0.610484L8.21487 2.19717C8.31027 2.23782 8.39163 2.30561 8.44881 2.39212C8.50599 2.47864 8.53648 2.58005 8.53648 2.68376C8.53648 2.78746 8.50599 2.88888 8.44881 2.97539C8.39163 3.0619 8.31027 3.1297 8.21487 3.17034C4.18997 4.89454 4.4597 4.79934 4.30632 4.79934ZM1.94745 2.68376L4.30632 3.69395L6.6652 2.68376L4.30632 1.67357L1.94745 2.68376Z" fill="#00BEBD"/>
<path d="M4.30673 9.55939C4.16646 9.55939 4.03193 9.50366 3.93274 9.40448C3.83355 9.30529 3.77783 9.17076 3.77783 9.03049V4.27043C3.77792 4.16661 3.80855 4.06511 3.86592 3.97859C3.92329 3.89206 4.00486 3.82433 4.10046 3.78384L7.80273 2.19715C7.88311 2.16311 7.97067 2.14949 8.0576 2.15751C8.14453 2.16553 8.22812 2.19495 8.30091 2.24313C8.37371 2.29131 8.43345 2.35676 8.4748 2.43364C8.51615 2.51052 8.53782 2.59644 8.5379 2.68374V7.4438C8.53781 7.54762 8.50717 7.64912 8.4498 7.73564C8.39243 7.82217 8.31087 7.8899 8.21527 7.93039C4.19037 9.65459 4.46011 9.55939 4.30673 9.55939ZM4.83562 4.6195V8.22657L7.4801 7.09473V3.48766L4.83562 4.6195Z" fill="#00BEBD"/>
<path d="M4.30636 9.55939C4.15298 9.55939 4.42801 9.65988 0.397822 7.93039C0.302225 7.8899 0.220658 7.82217 0.163287 7.73564C0.105917 7.64912 0.0752799 7.54762 0.0751953 7.4438L0.0751953 2.68374C0.0752664 2.59644 0.0969442 2.51052 0.138295 2.43364C0.179646 2.35676 0.239383 2.29131 0.312178 2.24313C0.384974 2.19495 0.468563 2.16553 0.55549 2.15751C0.642417 2.14949 0.729977 2.16311 0.810361 2.19715L4.51263 3.78384C4.60823 3.82433 4.6898 3.89206 4.74717 3.97859C4.80454 4.06511 4.83517 4.16661 4.83526 4.27043V9.03049C4.83526 9.17076 4.77954 9.30529 4.68035 9.40448C4.58116 9.50366 4.44664 9.55939 4.30636 9.55939ZM1.13299 7.09473L3.77747 8.22657V4.6195L1.13299 3.48766V7.09473Z" fill="#00BEBD"/>
<path d="M29.6937 1.09717L25.9915 2.68386V7.44392L29.6937 9.03061L33.396 7.44392V2.68386L29.6937 1.09717Z" fill="#50D9D7"/>
<path d="M29.6935 4.79934C29.5402 4.79934 29.8152 4.89983 25.785 3.17034C25.6896 3.1297 25.6082 3.0619 25.551 2.97539C25.4939 2.88888 25.4634 2.78746 25.4634 2.68376C25.4634 2.58005 25.4939 2.47864 25.551 2.39212C25.6082 2.30561 25.6896 2.23782 25.785 2.19717L29.4873 0.610484C29.5525 0.582846 29.6227 0.568604 29.6935 0.568604C29.7644 0.568604 29.8345 0.582846 29.8998 0.610484L33.6021 2.19717C33.6975 2.23782 33.7788 2.30561 33.836 2.39212C33.8932 2.47864 33.9237 2.58005 33.9237 2.68376C33.9237 2.78746 33.8932 2.88888 33.836 2.97539C33.7788 3.0619 33.6975 3.1297 33.6021 3.17034C29.5772 4.89454 29.8469 4.79934 29.6935 4.79934ZM27.3347 2.68376L29.6935 3.69395L32.0524 2.68376L29.6935 1.67357L27.3347 2.68376Z" fill="#00BEBD"/>
<path d="M29.6939 9.55939C29.5537 9.55939 29.4191 9.50366 29.3199 9.40448C29.2208 9.30529 29.165 9.17076 29.165 9.03049V4.27043C29.1651 4.16661 29.1958 4.06511 29.2531 3.97859C29.3105 3.89206 29.3921 3.82433 29.4877 3.78384L33.1899 2.19715C33.2703 2.16311 33.3579 2.14949 33.4448 2.15751C33.5317 2.16553 33.6153 2.19495 33.6881 2.24313C33.7609 2.29131 33.8207 2.35676 33.862 2.43364C33.9034 2.51052 33.925 2.59644 33.9251 2.68374V7.4438C33.925 7.54762 33.8944 7.64912 33.837 7.73564C33.7796 7.82217 33.6981 7.8899 33.6025 7.93039C29.5776 9.65459 29.8473 9.55939 29.6939 9.55939ZM30.2228 4.6195V8.22657L32.8673 7.09473V3.48766L30.2228 4.6195Z" fill="#00BEBD"/>
<path d="M29.6933 9.55939C29.5399 9.55939 29.815 9.65988 25.7848 7.93039C25.6892 7.8899 25.6076 7.82217 25.5502 7.73564C25.4929 7.64912 25.4622 7.54762 25.4622 7.4438V2.68374C25.4622 2.59644 25.4839 2.51052 25.5253 2.43364C25.5666 2.35676 25.6263 2.29131 25.6991 2.24313C25.7719 2.19495 25.8555 2.16553 25.9425 2.15751C26.0294 2.14949 26.1169 2.16311 26.1973 2.19715L29.8996 3.78384C29.9952 3.82433 30.0768 3.89206 30.1341 3.97859C30.1915 4.06511 30.2221 4.16661 30.2222 4.27043V9.03049C30.2222 9.17076 30.1665 9.30529 30.0673 9.40448C29.9681 9.50366 29.8336 9.55939 29.6933 9.55939ZM26.52 7.09473L29.1644 8.22657V4.6195L26.52 3.48766V7.09473Z" fill="#00BEBD"/>
<path d="M4.30676 25.9553L0.604492 27.542V32.3021L4.30676 33.8888L8.00904 32.3021V27.542L4.30676 25.9553Z" fill="#50D9D7"/>
<path d="M4.30657 29.6575C4.15319 29.6575 4.42821 29.758 0.398028 28.0285C0.302621 27.9878 0.221267 27.9201 0.164085 27.8335C0.106903 27.747 0.076416 27.6456 0.076416 27.5419C0.076416 27.4382 0.106903 27.3368 0.164085 27.2503C0.221267 27.1638 0.302621 27.096 0.398028 27.0553L4.1003 25.4686C4.16556 25.441 4.2357 25.4268 4.30657 25.4268C4.37744 25.4268 4.44758 25.441 4.51284 25.4686L8.21511 27.0553C8.31052 27.096 8.39187 27.1638 8.44905 27.2503C8.50623 27.3368 8.53672 27.4382 8.53672 27.5419C8.53672 27.6456 8.50623 27.747 8.44905 27.8335C8.39187 27.9201 8.31052 27.9878 8.21511 28.0285C4.19021 29.7527 4.45995 29.6575 4.30657 29.6575ZM1.94769 27.5419L4.30657 28.5521L6.66544 27.5419L4.30657 26.5317L1.94769 27.5419Z" fill="#00BEBD"/>
<path d="M4.30673 34.4175C4.16646 34.4175 4.03193 34.3618 3.93274 34.2626C3.83355 34.1634 3.77783 34.0289 3.77783 33.8886V29.1286C3.77792 29.0248 3.80855 28.9233 3.86592 28.8367C3.92329 28.7502 4.00486 28.6825 4.10046 28.642L7.80273 27.0553C7.88311 27.0213 7.97067 27.0076 8.0576 27.0157C8.14453 27.0237 8.22812 27.0531 8.30091 27.1013C8.37371 27.1495 8.43345 27.2149 8.4748 27.2918C8.51615 27.3687 8.53782 27.4546 8.5379 27.5419V32.302C8.53781 32.4058 8.50717 32.5073 8.4498 32.5938C8.39243 32.6803 8.31087 32.7481 8.21527 32.7885C4.19037 34.5127 4.46011 34.4175 4.30673 34.4175ZM4.83562 29.4777V33.0847L7.4801 31.9529V28.3458L4.83562 29.4777Z" fill="#00BEBD"/>
<path d="M4.30636 34.4175C4.15298 34.4175 4.42801 34.518 0.397822 32.7885C0.302225 32.7481 0.220658 32.6803 0.163287 32.5938C0.105917 32.5073 0.0752799 32.4058 0.0751953 32.302L0.0751953 27.5419C0.0752664 27.4546 0.0969442 27.3687 0.138295 27.2918C0.179646 27.2149 0.239383 27.1495 0.312178 27.1013C0.384974 27.0531 0.468563 27.0237 0.55549 27.0157C0.642417 27.0076 0.729977 27.0213 0.810361 27.0553L4.51263 28.642C4.60823 28.6825 4.6898 28.7502 4.74717 28.8367C4.80454 28.9233 4.83517 29.0248 4.83526 29.1286V33.8886C4.83526 34.0289 4.77954 34.1634 4.68035 34.2626C4.58116 34.3618 4.44664 34.4175 4.30636 34.4175ZM1.13299 31.9529L3.77747 33.0847V29.4777L1.13299 28.3458V31.9529Z" fill="#00BEBD"/>
<path d="M29.6937 25.9553L25.9915 27.542V32.3021L29.6937 33.8888L33.396 32.3021V27.542L29.6937 25.9553Z" fill="#50D9D7"/>
<path d="M29.6935 29.6575C29.5402 29.6575 29.8152 29.758 25.785 28.0285C25.6896 27.9878 25.6082 27.9201 25.551 27.8335C25.4939 27.747 25.4634 27.6456 25.4634 27.5419C25.4634 27.4382 25.4939 27.3368 25.551 27.2503C25.6082 27.1638 25.6896 27.096 25.785 27.0553L29.4873 25.4686C29.5525 25.441 29.6227 25.4268 29.6935 25.4268C29.7644 25.4268 29.8345 25.441 29.8998 25.4686L33.6021 27.0553C33.6975 27.096 33.7788 27.1638 33.836 27.2503C33.8932 27.3368 33.9237 27.4382 33.9237 27.5419C33.9237 27.6456 33.8932 27.747 33.836 27.8335C33.7788 27.9201 33.6975 27.9878 33.6021 28.0285C29.5772 29.7527 29.8469 29.6575 29.6935 29.6575ZM27.3347 27.5419L29.6935 28.5521L32.0524 27.5419L29.6935 26.5317L27.3347 27.5419Z" fill="#00BEBD"/>
<path d="M29.6939 34.4175C29.5537 34.4175 29.4191 34.3618 29.3199 34.2626C29.2208 34.1634 29.165 34.0289 29.165 33.8886V29.1286C29.1651 29.0248 29.1958 28.9233 29.2531 28.8367C29.3105 28.7502 29.3921 28.6825 29.4877 28.642L33.1899 27.0553C33.2703 27.0213 33.3579 27.0076 33.4448 27.0157C33.5317 27.0237 33.6153 27.0531 33.6881 27.1013C33.7609 27.1495 33.8207 27.2149 33.862 27.2918C33.9034 27.3687 33.925 27.4546 33.9251 27.5419V32.302C33.925 32.4058 33.8944 32.5073 33.837 32.5938C33.7796 32.6803 33.6981 32.7481 33.6025 32.7885C29.5776 34.5127 29.8473 34.4175 29.6939 34.4175ZM30.2228 29.4777V33.0847L32.8673 31.9529V28.3458L30.2228 29.4777Z" fill="#00BEBD"/>
<path d="M29.6933 34.4175C29.5399 34.4175 29.815 34.518 25.7848 32.7885C25.6892 32.7481 25.6076 32.6803 25.5502 32.5938C25.4929 32.5073 25.4622 32.4058 25.4622 32.302V27.5419C25.4622 27.4546 25.4839 27.3687 25.5253 27.2918C25.5666 27.2149 25.6263 27.1495 25.6991 27.1013C25.7719 27.0531 25.8555 27.0237 25.9425 27.0157C26.0294 27.0076 26.1169 27.0213 26.1973 27.0553L29.8996 28.642C29.9952 28.6825 30.0768 28.7502 30.1341 28.8367C30.1915 28.9233 30.2221 29.0248 30.2222 29.1286V33.8886C30.2222 34.0289 30.1665 34.1634 30.0673 34.2626C29.9681 34.3618 29.8336 34.4175 29.6933 34.4175ZM26.52 31.9529L29.1644 33.0847V29.4777L26.52 28.3458V31.9529Z" fill="#00BEBD"/>
<path d="M22.8182 11.146H11.1825C10.8904 11.146 10.6536 11.3828 10.6536 11.6749V23.3106C10.6536 23.6027 10.8904 23.8395 11.1825 23.8395H22.8182C23.1103 23.8395 23.3471 23.6027 23.3471 23.3106V11.6749C23.3471 11.3828 23.1103 11.146 22.8182 11.146Z" fill="#FFAC00"/>
<path d="M17.7935 18.0218H14.8846C14.7443 18.0218 14.6098 17.9661 14.5106 17.8669C14.4114 17.7677 14.3557 17.6332 14.3557 17.4929V13.7906C14.3557 13.6503 14.4114 13.5158 14.5106 13.4166C14.6098 13.3174 14.7443 13.2617 14.8846 13.2617H17.7935C18.4248 13.2617 19.0301 13.5125 19.4765 13.9588C19.9228 14.4052 20.1736 15.0105 20.1736 15.6418C20.1736 16.273 19.9228 16.8783 19.4765 17.3247C19.0301 17.771 18.4248 18.0218 17.7935 18.0218ZM15.4135 16.964H17.7935C18.1442 16.964 18.4805 16.8247 18.7285 16.5767C18.9765 16.3287 19.1158 15.9924 19.1158 15.6418C19.1158 15.2911 18.9765 14.9548 18.7285 14.7068C18.4805 14.4588 18.1442 14.3195 17.7935 14.3195H15.4135V16.964Z" fill="#F3F3F3"/>
<path d="M18.3224 21.724H14.8846C14.7443 21.724 14.6098 21.6683 14.5106 21.5691C14.4114 21.4699 14.3557 21.3354 14.3557 21.1951V17.4928C14.3557 17.3525 14.4114 17.218 14.5106 17.1188C14.6098 17.0196 14.7443 16.9639 14.8846 16.9639H18.3224C18.9537 16.9639 19.559 17.2147 20.0054 17.661C20.4517 18.1074 20.7025 18.7127 20.7025 19.344C20.7025 19.9752 20.4517 20.5805 20.0054 21.0269C19.559 21.4732 18.9537 21.724 18.3224 21.724ZM15.4135 20.6662H18.3224C18.6731 20.6662 19.0094 20.5269 19.2574 20.2789C19.5054 20.031 19.6447 19.6946 19.6447 19.344C19.6447 18.9933 19.5054 18.657 19.2574 18.409C19.0094 18.161 18.6731 18.0217 18.3224 18.0217H15.4135V20.6662ZM15.9424 14.3194C15.8021 14.3194 15.6676 14.2637 15.5684 14.1645C15.4692 14.0653 15.4135 13.9308 15.4135 13.7905V12.7328C15.4135 12.5925 15.4692 12.458 15.5684 12.3588C15.6676 12.2596 15.8021 12.2039 15.9424 12.2039C16.0827 12.2039 16.2172 12.2596 16.3164 12.3588C16.4156 12.458 16.4713 12.5925 16.4713 12.7328V13.7905C16.4713 13.9308 16.4156 14.0653 16.3164 14.1645C16.2172 14.2637 16.0827 14.3194 15.9424 14.3194ZM18.058 14.3194C17.9177 14.3194 17.7832 14.2637 17.684 14.1645C17.5848 14.0653 17.5291 13.9308 17.5291 13.7905V12.7328C17.5291 12.5925 17.5848 12.458 17.684 12.3588C17.7832 12.2596 17.9177 12.2039 18.058 12.2039C18.1983 12.2039 18.3328 12.2596 18.432 12.3588C18.5312 12.458 18.5869 12.5925 18.5869 12.7328V13.7905C18.5869 13.9308 18.5312 14.0653 18.432 14.1645C18.3328 14.2637 18.1983 14.3194 18.058 14.3194Z" fill="#F3F3F3"/>
<path d="M18.0579 22.7818C17.9176 22.7818 17.7831 22.7261 17.6839 22.6269C17.5847 22.5277 17.529 22.3932 17.529 22.253V21.1952C17.529 21.0549 17.5847 20.9204 17.6839 20.8212C17.7831 20.722 17.9176 20.6663 18.0579 20.6663C18.1982 20.6663 18.3327 20.722 18.4319 20.8212C18.5311 20.9204 18.5868 21.0549 18.5868 21.1952V22.253C18.5868 22.3932 18.5311 22.5277 18.4319 22.6269C18.3327 22.7261 18.1982 22.7818 18.0579 22.7818ZM15.9423 22.7818C15.8021 22.7818 15.6675 22.7261 15.5683 22.6269C15.4692 22.5277 15.4134 22.3932 15.4134 22.253V21.1952C15.4134 21.0549 15.4692 20.9204 15.5683 20.8212C15.6675 20.722 15.8021 20.6663 15.9423 20.6663C16.0826 20.6663 16.2171 20.722 16.3163 20.8212C16.4155 20.9204 16.4712 21.0549 16.4712 21.1952V22.253C16.4712 22.3932 16.4155 22.5277 16.3163 22.6269C16.2171 22.7261 16.0826 22.7818 15.9423 22.7818ZM14.8845 14.3195H13.8267C13.6865 14.3195 13.5519 14.2638 13.4528 14.1646C13.3536 14.0654 13.2979 13.9309 13.2979 13.7906C13.2979 13.6503 13.3536 13.5158 13.4528 13.4166C13.5519 13.3174 13.6865 13.2617 13.8267 13.2617H14.8845C15.0248 13.2617 15.1593 13.3174 15.2585 13.4166C15.3577 13.5158 15.4134 13.6503 15.4134 13.7906C15.4134 13.9309 15.3577 14.0654 15.2585 14.1646C15.1593 14.2638 15.0248 14.3195 14.8845 14.3195Z" fill="#F3F3F3"/>
<path d="M14.8845 21.7241H13.8267C13.6865 21.7241 13.5519 21.6683 13.4528 21.5691C13.3536 21.47 13.2979 21.3354 13.2979 21.1952C13.2979 21.0549 13.3536 20.9204 13.4528 20.8212C13.5519 20.722 13.6865 20.6663 13.8267 20.6663H14.8845C15.0248 20.6663 15.1593 20.722 15.2585 20.8212C15.3577 20.9204 15.4134 21.0549 15.4134 21.1952C15.4134 21.3354 15.3577 21.47 15.2585 21.5691C15.1593 21.6683 15.0248 21.7241 14.8845 21.7241Z" fill="#F3F3F3"/>
<path d="M17.0003 6.38602C17.8766 6.38602 18.587 5.67564 18.587 4.79933C18.587 3.92303 17.8766 3.21265 17.0003 3.21265C16.124 3.21265 15.4136 3.92303 15.4136 4.79933C15.4136 5.67564 16.124 6.38602 17.0003 6.38602Z" fill="#FFAC00"/>
</svg>
