<svg width="43" height="38" viewBox="0 0 43 38" fill="none" xmlns="http://www.w3.org/2000/svg">
<path d="M31.9696 23.317C33.0133 21.5142 34.6974 21.5142 35.7411 23.317L42.2404 34.7264C43.2841 36.5291 42.4302 37.9998 40.3428 37.9998H27.2493C25.1856 37.9998 24.3317 36.5291 25.3516 34.7264L31.9696 23.317ZM19.3979 1.35205C20.4416 -0.450684 22.102 -0.450684 23.1457 1.35205L24.5926 3.96127L28.0083 9.96248C28.8385 11.6703 28.8385 13.6866 28.0083 15.3944L16.5514 35.2482C15.5078 36.8612 13.7762 37.8812 11.8549 37.9998H2.34305C0.255678 37.9998 -0.598249 36.5528 0.445439 34.7264L19.3979 1.35205Z" fill="white"/>
</svg>
