<svg width="60" height="60" viewBox="0 0 60 60" fill="none" xmlns="http://www.w3.org/2000/svg">
<g filter="url(#filter0_d_0_144)">
<path d="M30 60C46.5685 60 60 46.5685 60 30C60 13.4315 46.5685 0 30 0C13.4315 0 0 13.4315 0 30C0 46.5685 13.4315 60 30 60Z" fill="#627EEA"/>
<path d="M30.9375 7.16309V23.0575L44.9944 29.061L30.9375 7.16309Z" fill="white" fill-opacity="0.602"/>
<path d="M30.9319 7.16406L16.875 29.0619L30.9319 23.0584V7.16406Z" fill="white"/>
<path d="M30.9375 39.3588V50.1588L45.0026 31.5605L30.9375 39.3588Z" fill="white" fill-opacity="0.602"/>
<path d="M30.9319 50.1588V39.3588L16.875 31.5605L30.9319 50.1588Z" fill="white"/>
<path d="M30.9375 36.8604L44.9944 29.0621L30.9375 23.0586V36.8604Z" fill="white" fill-opacity="0.2"/>
<path d="M16.8789 29.0601L30.9358 36.8584V23.0566L16.8789 29.0601Z" fill="white" fill-opacity="0.602"/>
</g>
<defs>
<filter id="filter0_d_0_144" x="-36" y="-36" width="132" height="132" filterUnits="userSpaceOnUse" color-interpolation-filters="sRGB">
<feFlood flood-opacity="0" result="BackgroundImageFix"/>
<feColorMatrix in="SourceAlpha" type="matrix" values="0 0 0 0 0 0 0 0 0 0 0 0 0 0 0 0 0 0 127 0" result="hardAlpha"/>
<feOffset/>
<feGaussianBlur stdDeviation="18"/>
<feComposite in2="hardAlpha" operator="out"/>
<feColorMatrix type="matrix" values="0 0 0 0 0.384314 0 0 0 0 0.494118 0 0 0 0 0.917647 0 0 0 0.3 0"/>
<feBlend mode="normal" in2="BackgroundImageFix" result="effect1_dropShadow_0_144"/>
<feBlend mode="normal" in="SourceGraphic" in2="effect1_dropShadow_0_144" result="shape"/>
</filter>
</defs>
</svg>
