<svg width="92" height="93" viewBox="0 0 92 93" fill="none" xmlns="http://www.w3.org/2000/svg">
<g filter="url(#filter0_d_491_11851)">
<path d="M87.7743 16.2548C87.6146 15.8153 87.3327 15.4305 86.9617 15.1458C86.5906 14.8611 86.146 14.6882 85.6801 14.6477L74.9549 13.7121L74.9546 13.7103L74.0194 2.98693C73.9788 2.52103 73.806 2.07642 73.5213 1.70542C73.2365 1.33442 72.8518 1.05247 72.4122 0.892754C71.5222 0.561793 70.51 0.787128 69.8359 1.46362L57.8404 13.4591C57.5869 13.7127 57.392 14.0186 57.2693 14.3555C57.1467 14.6925 57.0992 15.0521 57.1304 15.4093L58.2435 28.1904C58.2932 28.7654 58.5444 29.3044 58.9526 29.7124C59.3607 30.1219 59.9006 30.3739 60.4767 30.4236L73.2577 31.5367C73.9209 31.603 74.6661 31.3685 75.2079 30.8266L87.2034 18.8311C87.5342 18.5008 87.7637 18.0827 87.8649 17.6263C87.966 17.1699 87.9346 16.694 87.7743 16.2548Z" fill="white" fill-opacity="0.2"/>
<path d="M60.4774 30.4223L73.2585 31.5353C73.9217 31.6017 74.6668 31.3672 75.2087 30.8253L87.2042 18.8298C87.8807 18.1557 88.1014 17.1506 87.775 16.2535C87.4487 15.3564 86.6308 14.7279 85.6809 14.6464L74.9557 13.7108L74.9554 13.709L58.9531 29.7112C59.3615 30.1206 59.9014 30.3724 60.4774 30.4223Z" fill="white" fill-opacity="0.5"/>
<path d="M58.581 30.0857C52.7986 24.3031 44.8153 20.7217 36.0115 20.7217C18.4041 20.7217 4.07812 35.0476 4.07812 52.6551C4.07812 61.4588 7.65958 69.4422 13.442 75.2246C19.2244 81.007 27.2077 84.5884 36.0115 84.5884C53.6191 84.5884 67.9449 70.2626 67.9449 52.6551C67.9449 43.8514 64.3634 35.8681 58.581 30.0857Z" fill="#FBB532"/>
<path d="M67.9443 52.6545C67.9443 43.8507 64.3629 35.8674 58.5805 30.085L13.4414 75.224C19.2238 81.0064 27.2072 84.5879 36.0109 84.5879C53.6185 84.5879 67.9443 70.2621 67.9443 52.6545Z" fill="#F69522"/>
<path d="M51.6355 37.0292C47.6325 33.0262 42.1056 30.5469 36.0101 30.5469C23.8192 30.5469 13.9023 40.4637 13.9023 52.6546C13.9023 58.7501 16.3815 64.277 20.3847 68.28C24.3878 72.283 29.9146 74.7623 36.0101 74.7623C48.2009 74.7623 58.1178 64.8454 58.1178 52.6546C58.1178 46.5592 55.6386 41.0323 51.6355 37.0292Z" fill="#EDF5FF"/>
<path d="M58.1199 52.6537C58.1199 46.5582 55.6407 41.0313 51.6375 37.0283L20.3867 68.2793C24.3897 72.2823 29.9166 74.7615 36.0121 74.7615C48.203 74.7615 58.1199 64.8447 58.1199 52.6537Z" fill="#D5E8FE"/>
<path d="M44.693 43.9727C42.469 41.7487 39.3985 40.3711 36.0125 40.3711C29.2405 40.3711 23.7305 45.8812 23.7305 52.6532C23.7305 56.0391 25.108 59.1096 27.3321 61.3336C29.5561 63.5577 32.6266 64.9352 36.0125 64.9352C42.7845 64.9352 48.2946 59.4252 48.2946 52.6532C48.2946 49.2672 46.917 46.1967 44.693 43.9727Z" fill="#FF7B4A"/>
<path d="M48.2946 52.6551C48.2946 49.2692 46.917 46.1986 44.693 43.9746L27.332 61.3357C29.5561 63.5598 32.6266 64.9371 36.0125 64.9371C42.7845 64.9371 48.2946 59.4271 48.2946 52.6551Z" fill="#FF435B"/>
<path d="M83.2902 5.37683C82.3308 4.41736 80.7762 4.41736 79.8167 5.37683L34.7509 50.4429C33.7914 51.4023 33.7914 52.9569 34.7509 53.9164C35.7103 54.8759 37.2649 54.8759 38.2244 53.9164L83.2902 8.85037C84.2499 7.89089 84.2499 6.33647 83.2902 5.37683Z" fill="#47568C"/>
<path d="M38.2235 53.9154L83.2894 8.84951C84.2489 7.89003 84.2489 6.33545 83.2894 5.37598L34.75 53.9154C35.7095 54.875 37.2641 54.875 38.2235 53.9154Z" fill="#29376D"/>
</g>
<defs>
<filter id="filter0_d_491_11851" x="0.078125" y="0.742188" width="91.8438" height="91.8467" filterUnits="userSpaceOnUse" color-interpolation-filters="sRGB">
<feFlood flood-opacity="0" result="BackgroundImageFix"/>
<feColorMatrix in="SourceAlpha" type="matrix" values="0 0 0 0 0 0 0 0 0 0 0 0 0 0 0 0 0 0 127 0" result="hardAlpha"/>
<feOffset dy="4"/>
<feGaussianBlur stdDeviation="2"/>
<feComposite in2="hardAlpha" operator="out"/>
<feColorMatrix type="matrix" values="0 0 0 0 0 0 0 0 0 0 0 0 0 0 0 0 0 0 0.25 0"/>
<feBlend mode="normal" in2="BackgroundImageFix" result="effect1_dropShadow_491_11851"/>
<feBlend mode="normal" in="SourceGraphic" in2="effect1_dropShadow_491_11851" result="shape"/>
</filter>
</defs>
</svg>
