<svg width="141" height="28" viewBox="0 0 141 28" fill="none" xmlns="http://www.w3.org/2000/svg">
<path d="M98.686 13.9272C98.686 12.7803 98.686 11.6333 98.686 10.6502C98.686 9.66706 98.5226 8.68394 98.3592 7.86468C98.1958 7.04542 97.8691 6.22616 97.5423 5.40689C97.2155 4.58763 96.562 3.93222 95.9084 3.27681C94.9281 2.2937 93.9478 1.63829 92.6407 0.982878C91.3336 0.491321 90.0265 0.163616 88.556 0.163616C87.0856 0.163616 85.7785 0.327469 84.4714 0.982878C83.3277 1.47444 82.184 2.2937 81.2037 3.11296C80.5501 3.76837 80.06 4.42378 79.5698 5.24304C79.243 6.06231 78.9162 6.88157 78.7529 7.70083C78.5895 8.68395 78.4261 9.66705 78.4261 10.4863C78.4261 11.4694 78.4261 12.6164 78.4261 13.7634C78.4261 14.9103 78.4261 16.0573 78.4261 17.0404C78.4261 18.0235 78.5895 19.0066 78.7529 19.8259C78.9162 20.6452 79.243 21.4644 79.5698 22.2837C79.8966 23.103 80.5501 23.7584 81.2037 24.4138C82.184 25.3969 83.1643 26.0523 84.4714 26.5439C85.7785 27.0354 87.249 27.3631 88.556 27.3631C90.0265 27.3631 91.3336 27.1993 92.6407 26.5439C93.7844 26.0523 94.9281 25.233 95.9084 24.4138C96.562 23.7584 97.0521 23.103 97.5423 22.2837C97.8691 21.4644 98.1958 20.6452 98.3592 19.8259C98.5226 18.8428 98.686 17.8597 98.686 17.0404C98.686 16.2212 98.8494 15.0742 98.686 13.9272ZM93.4576 13.9272C93.4576 15.238 93.4576 16.385 93.4576 17.2043C93.4576 17.8597 93.2943 18.6789 93.2943 19.3343C93.2943 19.8259 93.1309 20.3175 92.8041 20.6452C92.6407 20.9729 92.4773 21.3006 92.1505 21.6283C91.8238 22.1198 91.3336 22.4475 90.6801 22.6114C90.0265 22.9391 89.373 22.9391 88.7194 22.9391C88.0659 22.9391 87.4123 22.7753 86.7588 22.6114C86.2686 22.4475 85.6151 21.956 85.2883 21.6283C84.9615 21.3006 84.7982 20.9729 84.6348 20.6452C84.4714 20.1536 84.308 19.8259 84.308 19.3343C84.1446 18.6789 84.1446 17.8597 84.1446 17.2043C84.1446 16.385 84.1446 15.238 84.1446 13.9272C84.1446 12.6164 84.1446 11.4694 84.1446 10.6502C84.1446 9.99476 84.308 9.1755 84.308 8.52009C84.308 8.02854 84.4714 7.53697 84.6348 7.20927C84.7982 6.88156 84.9615 6.55386 85.2883 6.22616C85.6151 5.7346 86.2686 5.4069 86.7588 5.24304C87.4123 4.91534 88.0659 4.91534 88.7194 4.91534C89.373 4.91534 90.0265 5.07919 90.6801 5.24304C91.1702 5.4069 91.6604 5.89845 92.1505 6.22616C92.4773 6.55386 92.6407 6.88156 92.8041 7.20927C92.9675 7.70083 93.1309 8.02854 93.2943 8.52009C93.4576 9.1755 93.4576 9.99476 93.4576 10.6502C93.4576 11.6333 93.4576 12.6164 93.4576 13.9272Z" fill="#545C79" fill-opacity="0.5"/>
<path d="M140.839 0.818788C140.839 0.491084 140.675 0.327233 140.348 0.327233H136.1C135.774 0.327233 135.61 0.491084 135.61 0.818788V17.0402L124.99 0.491082C124.99 0.32723 124.827 0.327233 124.663 0.327233H120.579C120.252 0.327233 120.088 0.491084 120.088 0.818788V27.0352C120.088 27.3629 120.252 27.5267 120.579 27.5267H124.99C125.317 27.5267 125.48 27.3629 125.48 27.0352V10.8138L136.1 27.3629C136.1 27.5267 136.264 27.5267 136.427 27.5267H140.512C140.839 27.5267 141.002 27.3629 141.002 27.0352L140.839 0.818788Z" fill="#545C79" fill-opacity="0.5"/>
<path d="M111.591 0.818788C111.591 0.491084 111.428 0.327233 111.101 0.327233H106.69C106.363 0.327233 106.2 0.491084 106.2 0.818788V27.0352C106.2 27.3629 106.363 27.5267 106.69 27.5267H111.101C111.428 27.5267 111.591 27.3629 111.591 27.0352V0.818788Z" fill="#545C79" fill-opacity="0.5"/>
<path d="M59.4733 13.9275C59.4733 12.6166 59.4733 11.4697 59.4733 10.6504C59.4733 9.995 59.6367 9.17574 59.6367 8.52033C59.9634 6.22639 61.7607 4.75172 64.0481 4.75172C65.5186 4.75172 66.8257 5.24328 67.806 6.5541C68.1328 7.20951 68.4595 7.86492 68.6229 8.52033C68.6229 8.52033 68.6229 8.68418 68.7863 8.68418H74.0147C74.0147 8.68418 74.1781 8.68418 74.1781 8.52033C73.6879 5.40713 71.8907 2.45778 68.9497 0.983112C67.4792 0.327702 65.8454 0 64.2115 0C61.2705 0 58.8197 0.983113 56.8591 2.94934C55.7154 4.09631 54.8985 5.40713 54.5717 7.04565C54.2449 8.52032 54.0815 10.8143 54.0815 13.7636C54.0815 16.7129 54.2449 19.0069 54.5717 20.4815C54.8985 21.9562 55.7154 23.4309 56.6957 24.5779C58.6564 26.5441 61.1072 27.5272 64.0481 27.5272C65.682 27.5272 67.3158 27.1995 68.7863 26.5441C71.7273 25.0694 73.5245 22.2839 74.0147 19.0069C74.0147 19.0069 74.0147 18.843 73.8513 18.843H68.7863C68.7863 18.843 68.6229 18.843 68.6229 19.0069C68.4595 19.6623 68.1328 20.3177 67.806 20.9731C66.9891 22.2839 65.5186 22.7755 64.0481 22.7755C61.7607 22.7755 59.9634 21.4647 59.6367 19.0069C59.4733 18.3515 59.4733 17.5322 59.4733 16.8768C59.4733 16.3852 59.4733 15.2383 59.4733 13.9275Z" fill="#545C79" fill-opacity="0.5"/>
<path d="M5.22837 0.818788C5.22837 0.491084 5.06498 0.327233 4.7382 0.327233H0.490158C0.163385 0.327233 0 0.491084 0 0.818788V27.0352C0 27.3629 0.163385 27.5267 0.490158 27.5267H4.90159C5.22837 27.5267 5.39175 27.3629 5.39175 27.0352V19.3341L8.82286 15.0739L16.0119 27.3629C16.0119 27.5267 16.1753 27.5267 16.3386 27.5267H21.567C21.7304 27.5267 21.8938 27.3629 21.7304 27.199L12.254 11.1415L20.9135 0.818788C21.0768 0.654936 21.0769 0.327233 20.7501 0.327233H15.0316C15.0316 0.327233 14.8682 0.32723 14.8682 0.491082L5.39175 11.9607V0.818788H5.22837Z" fill="#545C79" fill-opacity="0.5"/>
<path d="M37.0924 23.1027C34.6416 23.1027 32.3542 20.8088 32.3542 18.1871V0.818788C32.3542 0.491084 32.1908 0.327233 31.864 0.327233H27.4526C27.1258 0.327233 26.9624 0.491084 26.9624 0.818788V18.0233C26.9624 24.0858 31.3738 27.8544 36.929 27.8544C42.4841 27.8544 46.8955 24.0858 46.8955 18.0233V0.818788C46.8955 0.491084 46.7322 0.327233 46.4054 0.327233H41.994C41.6672 0.327233 41.5038 0.491084 41.5038 0.818788V18.0233C41.6672 20.8088 39.5432 23.1027 37.0924 23.1027Z" fill="#545C79" fill-opacity="0.5"/>
</svg>
