<svg width="94" height="93" viewBox="0 0 94 93" fill="none" xmlns="http://www.w3.org/2000/svg">
<g filter="url(#filter0_d_491_11866)">
<path d="M62.4952 20.586C63.2027 21.4731 62.571 22.7848 61.4364 22.7848H56.1362C55.3882 22.7848 54.7819 23.3912 54.7819 24.1391V53.3341C54.7819 54.082 54.1755 54.6884 53.4275 54.6884H39.9072C39.1592 54.6884 38.5529 54.082 38.5529 53.3341V24.1391C38.5529 23.3912 37.9465 22.7848 37.1986 22.7848H31.8984C30.7637 22.7848 30.1321 21.4731 30.8396 20.586L45.6085 2.06785C46.1507 1.38801 47.184 1.38801 47.7262 2.06785L62.4952 20.586Z" fill="#594935"/>
<path d="M38.5508 60.9766V83.2355C38.5508 83.9835 39.1571 84.5899 39.9051 84.5899H53.4256C54.1736 84.5899 54.7799 83.9835 54.7799 83.2355V60.9766C54.7799 57.0547 57.9716 53.8628 61.8937 53.8628H66.436C67.184 53.8628 67.7903 54.4692 67.7903 55.2172V60.5173C67.7903 61.652 69.102 62.2836 69.9891 61.5761L88.507 46.8072C89.1868 46.265 89.1868 45.2318 88.507 44.6896L69.9889 29.9206C69.1018 29.2131 67.7901 29.8448 67.7901 30.9794V36.2796C67.7901 37.0276 67.1838 37.6339 66.4358 37.6339H61.8935C49.0184 37.6339 38.5508 48.1151 38.5508 60.9766Z" fill="#9F7734"/>
<path d="M54.7799 60.9766V83.2355C54.7799 83.9835 54.1736 84.5899 53.4256 84.5899H39.9051C39.1571 84.5899 38.5508 83.9835 38.5508 83.2355V60.9766C38.5508 57.0547 35.3591 53.8628 31.437 53.8628H26.8947C26.1467 53.8628 25.5404 54.4692 25.5404 55.2172V60.5173C25.5404 61.652 24.2287 62.2836 23.3416 61.5761L4.82369 46.8072C4.14386 46.265 4.14386 45.2318 4.8237 44.6896L23.3418 29.9206C24.2289 29.2131 25.5406 29.8448 25.5406 30.9794V36.2796C25.5406 37.0276 26.1469 37.6339 26.8949 37.6339H31.4372C44.3123 37.6339 54.7799 48.1151 54.7799 60.9766Z" fill="#FBB532"/>
</g>
<defs>
<filter id="filter0_d_491_11866" x="0.3125" y="1.55762" width="92.7031" height="91.0322" filterUnits="userSpaceOnUse" color-interpolation-filters="sRGB">
<feFlood flood-opacity="0" result="BackgroundImageFix"/>
<feColorMatrix in="SourceAlpha" type="matrix" values="0 0 0 0 0 0 0 0 0 0 0 0 0 0 0 0 0 0 127 0" result="hardAlpha"/>
<feOffset dy="4"/>
<feGaussianBlur stdDeviation="2"/>
<feComposite in2="hardAlpha" operator="out"/>
<feColorMatrix type="matrix" values="0 0 0 0 0 0 0 0 0 0 0 0 0 0 0 0 0 0 0.25 0"/>
<feBlend mode="normal" in2="BackgroundImageFix" result="effect1_dropShadow_491_11866"/>
<feBlend mode="normal" in="SourceGraphic" in2="effect1_dropShadow_491_11866" result="shape"/>
</filter>
</defs>
</svg>
