<svg width="20" height="20" viewBox="0 0 20 20" fill="none" xmlns="http://www.w3.org/2000/svg">
<path d="M9.99993 0.0625C7.30316 0.0625 6.96404 0.0749218 5.90447 0.122125C4.84489 0.171812 4.12318 0.338264 3.49091 0.584215C2.82771 0.833668 2.22699 1.22496 1.73075 1.73075C1.22527 2.22724 0.834026 2.82789 0.584215 3.49091C0.338264 4.12194 0.17057 4.84489 0.122125 5.90074C0.0749218 6.9628 0.0625 7.30067 0.0625 10.0012C0.0625 12.6992 0.0749218 13.0371 0.122125 14.0966C0.171812 15.155 0.338264 15.8767 0.584215 16.5089C0.838862 17.1623 1.17798 17.7163 1.73075 18.2691C2.28227 18.8219 2.83628 19.1622 3.48967 19.4156C4.12318 19.6616 4.84365 19.8293 5.90198 19.8777C6.9628 19.9249 7.30067 19.9374 9.99993 19.9374C12.6992 19.9374 13.0358 19.9249 14.0966 19.8777C15.1537 19.828 15.8779 19.6616 16.5102 19.4156C17.173 19.1661 17.7733 18.7748 18.2691 18.2691C18.8219 17.7163 19.161 17.1623 19.4156 16.5089C19.6604 15.8767 19.828 15.155 19.8777 14.0966C19.9249 13.0371 19.9374 12.6992 19.9374 9.99993C19.9374 7.30067 19.9249 6.9628 19.8777 5.90198C19.828 4.84489 19.6604 4.12194 19.4156 3.49091C19.1659 2.82787 18.7746 2.22721 18.2691 1.73075C17.773 1.22478 17.1723 0.833452 16.5089 0.584215C15.8754 0.338264 15.1525 0.17057 14.0954 0.122125C13.0346 0.0749218 12.6979 0.0625 9.99744 0.0625H10.0012H9.99993ZM9.10929 1.85372H10.0012C12.6545 1.85372 12.9687 1.86242 14.0159 1.91086C14.9848 1.95434 15.5115 2.11706 15.8618 2.25246C16.3251 2.43258 16.6568 2.64872 17.0046 2.99653C17.3524 3.34434 17.5673 3.67476 17.7474 4.13933C17.884 4.48838 18.0455 5.01507 18.089 5.98397C18.1374 7.03112 18.1474 7.34539 18.1474 9.99744C18.1474 12.6495 18.1374 12.965 18.089 14.0122C18.0455 14.9811 17.8828 15.5065 17.7474 15.8568C17.5881 16.2883 17.3338 16.6784 17.0033 16.9984C16.6555 17.3462 16.3251 17.5611 15.8605 17.7412C15.5127 17.8778 14.986 18.0393 14.0159 18.084C12.9687 18.1312 12.6545 18.1424 10.0012 18.1424C7.34788 18.1424 7.03236 18.1312 5.98521 18.084C5.01631 18.0393 4.49087 17.8778 4.14057 17.7412C3.70891 17.5821 3.31841 17.3283 2.99777 16.9984C2.66704 16.6779 2.41236 16.2874 2.25246 15.8556C2.11706 15.5065 1.95434 14.9798 1.91086 14.0109C1.86366 12.9638 1.85372 12.6495 1.85372 9.99496C1.85372 7.34167 1.86366 7.02864 1.91086 5.98148C1.95558 5.01258 2.11706 4.4859 2.2537 4.1356C2.43382 3.67227 2.64996 3.34061 2.99777 2.9928C3.34558 2.64499 3.676 2.43009 4.14057 2.24998C4.49087 2.11334 5.01631 1.95185 5.98521 1.90714C6.90194 1.8649 7.2572 1.85248 9.10929 1.85124V1.85372ZM15.3053 3.50333C15.1487 3.50333 14.9936 3.53418 14.8489 3.59411C14.7042 3.65404 14.5728 3.74187 14.4621 3.85261C14.3513 3.96334 14.2635 4.0948 14.2036 4.23948C14.1436 4.38416 14.1128 4.53923 14.1128 4.69583C14.1128 4.85243 14.1436 5.00749 14.2036 5.15217C14.2635 5.29685 14.3513 5.42831 14.4621 5.53904C14.5728 5.64978 14.7042 5.73762 14.8489 5.79754C14.9936 5.85747 15.1487 5.88832 15.3053 5.88832C15.6215 5.88832 15.9249 5.76268 16.1485 5.53904C16.3721 5.31541 16.4978 5.01209 16.4978 4.69583C16.4978 4.37956 16.3721 4.07624 16.1485 3.85261C15.9249 3.62897 15.6215 3.50333 15.3053 3.50333ZM10.0012 4.89706C9.32427 4.8865 8.65203 5.0107 8.02359 5.26243C7.39516 5.51417 6.82308 5.88841 6.34066 6.36336C5.85824 6.83831 5.47512 7.40448 5.21362 8.02891C4.95211 8.65335 4.81744 9.32357 4.81744 10.0005C4.81744 10.6775 4.95211 11.3478 5.21362 11.9722C5.47512 12.5966 5.85824 13.1628 6.34066 13.6377C6.82308 14.1127 7.39516 14.4869 8.02359 14.7387C8.65203 14.9904 9.32427 15.1146 10.0012 15.104C11.3409 15.0831 12.6187 14.5363 13.5587 13.5814C14.4988 12.6266 15.0257 11.3405 15.0257 10.0005C15.0257 8.66065 14.4988 7.37448 13.5587 6.41966C12.6187 5.46484 11.3409 4.91796 10.0012 4.89706ZM10.0012 6.68704C10.8798 6.68704 11.7225 7.03607 12.3437 7.65736C12.965 8.27865 13.3141 9.12129 13.3141 9.99993C13.3141 10.8786 12.965 11.7212 12.3437 12.3425C11.7225 12.9638 10.8798 13.3128 10.0012 13.3128C9.12254 13.3128 8.27989 12.9638 7.6586 12.3425C7.03732 11.7212 6.68828 10.8786 6.68828 9.99993C6.68828 9.12129 7.03732 8.27865 7.6586 7.65736C8.27989 7.03607 9.12254 6.68704 10.0012 6.68704Z" fill="white"/>
</svg>
