<svg width="26" height="28" viewBox="0 0 26 28" fill="none" xmlns="http://www.w3.org/2000/svg">
<path fill-rule="evenodd" clip-rule="evenodd" d="M8.19139 14.0001L16.4827 22.3151L21.6772 17.1057C22.5763 16.3043 24.0747 16.3043 24.9738 17.2059C25.8728 18.1075 25.8728 19.51 25.0736 20.5118L18.081 27.3241C17.1819 28.2257 15.6835 28.2257 14.7845 27.3241L4.79496 17.3061V23.3169C4.79496 24.6192 3.69611 25.7212 2.39748 25.7212C1.09884 25.7212 0 24.6192 0 23.3169V4.78359C0 3.48125 1.09884 2.37927 2.39748 2.37927C3.69611 2.37927 4.79496 3.48125 4.79496 4.78359V10.6942L14.7845 0.676214C15.6835 -0.225405 17.1819 -0.225405 18.081 0.676214L24.9738 7.58863C25.7729 8.49024 25.7729 9.99294 24.8739 10.8946C23.9748 11.7962 22.5763 11.7962 21.5773 10.9947L16.3828 5.78539L8.19139 14.0001ZM16.4827 11.696C15.4837 11.696 14.6846 12.2971 14.285 13.1987C13.8854 14.1003 14.0852 15.1021 14.7845 15.8034C15.4837 16.5046 16.4827 16.705 17.3817 16.3043C18.2808 15.9036 18.8802 15.1021 18.8802 14.1003C18.8802 13.4992 18.6804 12.8982 18.1809 12.3973C17.6814 11.8964 17.082 11.696 16.4827 11.696Z" fill="#545C79" fill-opacity="0.5"/>
</svg>
