<svg width="25" height="34" viewBox="0 0 25 34" fill="none" xmlns="http://www.w3.org/2000/svg">
<path d="M23.307 10.4023C23.0134 6.80466 19.7842 5.54494 15.6973 5.13237L15.7894 0.148526L12.6177 0.0990179L12.5256 4.95084C11.6909 4.93434 10.839 4.93984 9.98707 4.93984L10.0792 0.0550094L6.90748 0L6.81538 4.98385C6.13039 4.98385 5.45115 4.98935 4.79494 4.97285V4.95634L0.41445 4.88483L0.356887 8.12488C0.356887 8.12488 2.70543 8.11938 2.66514 8.16339C3.94878 8.18539 4.35747 8.90602 4.46684 9.52212L4.36323 15.1991C4.44957 15.1991 4.56469 15.2046 4.69709 15.2266L4.36323 15.2211L4.21932 23.1754C4.156 23.5605 3.90848 24.1711 3.00476 24.1601C3.04505 24.1931 0.696503 24.1216 0.696503 24.1216L0 27.7302L4.13298 27.8017C4.89856 27.8182 5.65838 27.8402 6.40093 27.8567L6.30883 32.8956L9.48052 32.9451L9.57262 27.9613C10.4418 27.9888 11.288 28.0108 12.1111 28.0273L12.019 32.9891L15.1907 33.0386L15.2828 28.0108C20.6246 27.8072 24.3834 26.586 24.936 21.8002C25.3792 17.9496 23.5142 16.1948 20.498 15.4521C22.3515 14.594 23.5315 13.0372 23.307 10.4023ZM18.6675 21.1071C18.6042 24.8752 11.8578 24.3306 9.70501 24.2976L9.83165 17.6195C11.9845 17.6525 18.7423 17.1739 18.6675 21.1071ZM17.3666 11.6565C17.3032 15.0836 11.6794 14.5885 9.88921 14.561L9.99858 8.50445C11.7888 8.53195 17.4299 8.08088 17.3666 11.6565Z" fill="white"/>
</svg>
