<svg width="107" height="30" viewBox="0 0 107 30" fill="none" xmlns="http://www.w3.org/2000/svg">
<path d="M31.3468 0H0.71243C0.52348 0 0.342273 0.070233 0.208665 0.195249C0.0750586 0.320265 0 0.489825 0 0.666625V29.3314C0 29.5082 0.0750586 29.6779 0.208665 29.803C0.342273 29.9278 0.52348 29.998 0.71243 29.998H31.3468C31.5359 29.998 31.7169 29.9278 31.8507 29.803C31.9843 29.6779 32.0594 29.5082 32.0594 29.3314V0.666625C32.0594 0.489825 31.9843 0.320265 31.8507 0.195249C31.7169 0.070233 31.5359 0 31.3468 0ZM21.3729 19.3321C21.3729 19.5089 21.2978 19.6785 21.1642 19.8035C21.0306 19.9285 20.8494 19.9987 20.6604 19.9987H11.3989C11.2099 19.9987 11.0287 19.9285 10.8951 19.8035C10.7615 19.6785 10.6864 19.5089 10.6864 19.3321V10.666C10.6864 10.4892 10.7615 10.3196 10.8951 10.1946C11.0287 10.0696 11.2099 9.99937 11.3989 9.99937H20.6604C20.8494 9.99937 21.0306 10.0696 21.1642 10.1946C21.2978 10.3196 21.3729 10.4892 21.3729 10.666V19.3321Z" fill="#545C79" fill-opacity="0.5"/>
<path d="M95.4808 9.99935H86.219C85.8258 9.99935 85.5066 10.2978 85.5066 10.666V19.3321C85.5066 19.7002 85.8258 19.9987 86.219 19.9987H95.4808C95.8743 19.9987 96.1932 19.7002 96.1932 19.3321V10.666C96.1932 10.2978 95.8743 9.99935 95.4808 9.99935Z" fill="#545C79" fill-opacity="0.5"/>
<path d="M84.7946 0H75.5332C75.1396 0 74.8208 0.298459 74.8208 0.666624V9.33275C74.8208 9.70091 75.1396 9.99938 75.5332 9.99938H84.7946C85.1881 9.99938 85.5073 9.70091 85.5073 9.33275V0.666624C85.5073 0.298459 85.1881 0 84.7946 0Z" fill="#545C79" fill-opacity="0.5"/>
<path d="M106.171 0H96.9088C96.5156 0 96.1964 0.298459 96.1964 0.666624V9.33275C96.1964 9.70091 96.5156 9.99938 96.9088 9.99938H106.171C106.564 9.99938 106.883 9.70091 106.883 9.33275V0.666624C106.883 0.298459 106.564 0 106.171 0Z" fill="#545C79" fill-opacity="0.5"/>
<path d="M84.7946 20.0007H75.5332C75.1396 20.0007 74.8208 20.2991 74.8208 20.6673V29.3335C74.8208 29.7015 75.1396 30.0001 75.5332 30.0001H84.7946C85.1881 30.0001 85.5073 29.7015 85.5073 29.3335V20.6673C85.5073 20.2991 85.1881 20.0007 84.7946 20.0007Z" fill="#545C79" fill-opacity="0.5"/>
<path d="M106.171 20.0007H96.9088C96.5156 20.0007 96.1964 20.2991 96.1964 20.6673V29.3335C96.1964 29.7015 96.5156 30.0001 96.9088 30.0001H106.171C106.564 30.0001 106.883 29.7015 106.883 29.3335V20.6673C106.883 20.2991 106.564 20.0007 106.171 20.0007Z" fill="#545C79" fill-opacity="0.5"/>
<path d="M68.7543 0H59.4928C59.0993 0 58.7802 0.298459 58.7802 0.666624V9.33275C58.7802 9.70091 59.0993 9.99938 59.4928 9.99938H68.7543C69.1478 9.99938 69.4667 9.70091 69.4667 9.33275V0.666624C69.4667 0.298459 69.1478 0 68.7543 0Z" fill="#545C79" fill-opacity="0.5"/>
<path d="M68.7543 20.0007H59.4928C59.0993 20.0007 58.7802 20.2991 58.7802 20.6673V29.3335C58.7802 29.7015 59.0993 30.0001 59.4928 30.0001H68.7543C69.1478 30.0001 69.4667 29.7015 69.4667 29.3335V20.6673C69.4667 20.2991 69.1478 20.0007 68.7543 20.0007Z" fill="#545C79" fill-opacity="0.5"/>
<path d="M58.7736 10.6585C58.7736 10.4817 58.6984 10.3121 58.5649 10.1871C58.4314 10.0621 58.2501 9.99187 58.0612 9.99187H48.0871V0.666625C48.0871 0.489825 48.0119 0.320265 47.8784 0.195249C47.7449 0.070233 47.5636 0 47.3747 0H38.1132C37.9241 0 37.7431 0.070233 37.6093 0.195249C37.4757 0.320265 37.4006 0.489825 37.4006 0.666625V29.3165C37.4006 29.4933 37.4757 29.6628 37.6093 29.7878C37.7431 29.9129 37.9241 29.9831 38.1132 29.9831H47.3747C47.5636 29.9831 47.7449 29.9129 47.8784 29.7878C48.0119 29.6628 48.0871 29.4933 48.0871 29.3165V19.9912H58.0612C58.2501 19.9912 58.4314 19.921 58.5649 19.796C58.6984 19.671 58.7736 19.5014 58.7736 19.3246V10.6585Z" fill="#545C79" fill-opacity="0.5"/>
</svg>
