<svg width="9" height="16" viewBox="0 0 9 16" fill="none" xmlns="http://www.w3.org/2000/svg">
<path d="M0.324691 13.978C-0.105734 14.4085 -0.105734 15.1063 0.324691 15.5367C0.755115 15.9672 1.45297 15.9672 1.8834 15.5367L0.324691 13.978ZM2.08583 0.32202C1.6554 -0.108405 0.957548 -0.108405 0.527123 0.32202C0.0966983 0.752444 0.0966982 1.4503 0.527123 1.88073L2.08583 0.32202ZM1.8834 15.5367L8.57881 8.84132L7.02011 7.28262L0.324691 13.978L1.8834 15.5367ZM8.57881 6.81501L2.08583 0.32202L0.527123 1.88073L7.02011 8.37371L8.57881 6.81501ZM8.57881 8.84132C9.13837 8.28177 9.13836 7.37456 8.57881 6.81501L7.02011 8.37371C6.71881 8.07242 6.71881 7.58391 7.02011 7.28262L8.57881 8.84132Z" fill="white"/>
</svg>
