<svg width="93" height="93" viewBox="0 0 93 93" fill="none" xmlns="http://www.w3.org/2000/svg">
<g filter="url(#filter0_d_491_11836)">
<path d="M73.236 26.9254C73.1559 26.7844 73.0379 26.6687 72.8953 26.5913L46.3319 11.1396L41.3975 14.0105L19.8307 26.5569C19.829 26.5586 19.8274 26.5586 19.8241 26.5602L19.6489 26.6617C19.5555 26.7305 19.4769 26.819 19.418 26.9189L20.9328 27.7934L46.3319 42.4557L68.4015 29.7177L68.4408 29.6948L71.7211 27.8016L71.7948 27.759L73.2376 26.927L73.236 26.9254Z" fill="#FBB532"/>
<path d="M73.2369 26.9254C73.1568 26.7844 73.0388 26.6687 72.8963 26.5913L46.3328 11.1396L41.3984 14.0105L68.4024 29.7177L68.4417 29.6948L71.722 27.8016L71.7957 27.759L73.2385 26.927L73.2369 26.9254Z" fill="#FFBD00"/>
<path d="M46.3329 42.4558V74.1911L19.64 58.7836C19.5404 58.7259 19.4577 58.643 19.4002 58.5433C19.3428 58.4436 19.3125 58.3305 19.3125 58.2153V27.2072C19.3305 27.104 19.3665 27.0057 19.419 26.9189L20.9338 27.7935L46.3329 42.4558Z" fill="#D5E8FE"/>
<path d="M73.2361 26.9258L71.7949 27.7594L71.7212 27.8019L68.4409 29.6951L68.4016 29.7181L46.332 42.4561V74.1913L68.4409 61.4304L73.0265 58.7839C73.2296 58.666 73.354 58.4498 73.354 58.2156V27.3614C73.354 27.2042 73.3115 27.0552 73.2378 26.9274L73.2361 26.9258Z" fill="#FF7B4A"/>
<path d="M73.2366 26.9258L71.7954 27.7594L71.7217 27.8019L68.4414 29.6951V61.4304L73.027 58.7839C73.23 58.666 73.3545 58.4498 73.3545 58.2156V27.3614C73.3545 27.2042 73.3119 27.0552 73.2382 26.9274L73.2366 26.9258Z" fill="#CE4C32"/>
<path d="M6.39243 20.6035C6.17725 20.6035 5.96588 20.5467 5.77977 20.4387L5.07097 20.0293C4.78897 19.8663 4.58321 19.598 4.49895 19.2834C4.41468 18.9688 4.45879 18.6336 4.62159 18.3515C4.70212 18.2118 4.80938 18.0893 4.93726 17.9911C5.06513 17.8929 5.21111 17.8209 5.36684 17.7792C5.52257 17.7374 5.685 17.7268 5.84485 17.7478C6.0047 17.7689 6.15883 17.8212 6.29843 17.9019L7.00722 18.3113C7.24124 18.4467 7.42409 18.6555 7.52741 18.9053C7.63074 19.1551 7.64879 19.432 7.57875 19.6931C7.50871 19.9543 7.35451 20.185 7.14003 20.3496C6.92555 20.5141 6.66278 20.6034 6.39243 20.6035ZM81.9638 64.2476C81.7486 64.2477 81.5372 64.1908 81.3511 64.0828L79.8978 63.2435C79.6159 63.0806 79.4101 62.8123 79.3258 62.4977C79.2415 62.1832 79.2856 61.848 79.4483 61.5659C79.5288 61.4261 79.636 61.3036 79.7639 61.2053C79.8918 61.1071 80.0378 61.035 80.1935 60.9932C80.3493 60.9515 80.5118 60.9408 80.6717 60.9619C80.8315 60.983 80.9857 61.0354 81.1253 61.1161L82.5786 61.9555C82.8126 62.0908 82.9954 62.2996 83.0988 62.5494C83.2021 62.7992 83.2201 63.0762 83.1501 63.3373C83.0801 63.5984 82.9259 63.8291 82.7114 63.9937C82.4969 64.1583 82.2341 64.2475 81.9638 64.2476ZM76.1506 60.8903C75.9354 60.8904 75.7241 60.8335 75.538 60.7256L74.0847 59.8862C73.8027 59.7233 73.5969 59.455 73.5126 59.1405C73.4283 58.8259 73.4724 58.4907 73.6351 58.2086C73.9741 57.621 74.7248 57.4192 75.312 57.7589L76.7653 58.5982C76.9993 58.7335 77.1821 58.9423 77.2854 59.1921C77.3888 59.4419 77.4068 59.7188 77.3368 59.9799C77.2668 60.241 77.1126 60.4717 76.8982 60.6363C76.6837 60.8009 76.421 60.8902 76.1506 60.8903ZM70.3375 57.5332C70.1223 57.5333 69.9109 57.4764 69.7248 57.3684L68.2715 56.5291C67.9895 56.3662 67.7838 56.0979 67.6995 55.7833C67.6152 55.4688 67.6592 55.1336 67.822 54.8515C67.9025 54.7118 68.0097 54.5893 68.1376 54.491C68.2655 54.3928 68.4115 54.3208 68.5672 54.279C68.723 54.2372 68.8854 54.2266 69.0453 54.2476C69.2052 54.2687 69.3593 54.3211 69.499 54.4018L70.9522 55.2411C71.1863 55.3764 71.3691 55.5852 71.4724 55.835C71.5758 56.0848 71.5938 56.3618 71.5238 56.6229C71.4537 56.884 71.2995 57.1147 71.0851 57.2793C70.8706 57.4439 70.6078 57.5331 70.3375 57.5332ZM64.5243 54.1759C64.3091 54.176 64.0977 54.1192 63.9116 54.0112L62.4583 53.1718C62.1763 53.0089 61.9706 52.7407 61.8863 52.4261C61.802 52.1115 61.8461 51.7763 62.0088 51.4942C62.0893 51.3544 62.1965 51.2319 62.3244 51.1337C62.4523 51.0354 62.5983 50.9633 62.754 50.9216C62.9098 50.8798 63.0723 50.8692 63.2321 50.8903C63.392 50.9113 63.5462 50.9637 63.6858 51.0445L65.1391 51.8838C65.3731 52.0191 65.5559 52.2279 65.6593 52.4777C65.7626 52.7276 65.7806 53.0045 65.7106 53.2656C65.6406 53.5267 65.4864 53.7574 65.2719 53.922C65.0574 54.0866 64.7946 54.1758 64.5243 54.1759ZM58.7111 50.8186C58.4959 50.8187 58.2846 50.7619 58.0985 50.6539L56.6452 49.8146C56.3632 49.6516 56.1574 49.3834 56.0731 49.0688C55.9888 48.7542 56.0329 48.419 56.1956 48.1369C56.2761 47.9972 56.3833 47.8747 56.5112 47.7765C56.6391 47.6782 56.785 47.6061 56.9408 47.5644C57.0965 47.5226 57.259 47.512 57.4188 47.533C57.5787 47.5541 57.7328 47.6065 57.8724 47.6872L59.3257 48.5265C59.5598 48.6619 59.7426 48.8706 59.8459 49.1204C59.9493 49.3702 59.9673 49.6471 59.8973 49.9082C59.8273 50.1693 59.6731 50.4001 59.4586 50.5647C59.2442 50.7293 58.9814 50.8185 58.7111 50.8186ZM52.8979 47.4614C52.6828 47.4614 52.4714 47.4046 52.2853 47.2966L50.832 46.4573C50.55 46.2943 50.3442 46.0261 50.26 45.7115C50.1757 45.3969 50.2197 45.0617 50.3824 44.7796C50.4629 44.6399 50.5702 44.5174 50.6981 44.4192C50.826 44.3209 50.972 44.2489 51.1277 44.2071C51.2835 44.1653 51.4459 44.1547 51.6058 44.1757C51.7657 44.1968 51.9198 44.2492 52.0594 44.3299L53.5127 45.1692C53.7468 45.3046 53.9296 45.5134 54.0329 45.7632C54.1363 46.013 54.1543 46.2899 54.0843 46.551C54.0142 46.8122 53.86 47.0429 53.6455 47.2075C53.4311 47.372 53.1683 47.4613 52.8979 47.4614ZM47.0846 44.1041C46.8694 44.1041 46.6581 44.0472 46.472 43.9393L45.0187 43.1C44.7367 42.9371 44.5309 42.6688 44.4466 42.3542C44.3623 42.0396 44.4064 41.7045 44.5691 41.4223C44.6496 41.2826 44.7568 41.1601 44.8847 41.0619C45.0126 40.9637 45.1585 40.8916 45.3143 40.8498C45.47 40.8081 45.6325 40.7974 45.7923 40.8185C45.9522 40.8395 46.1064 40.8919 46.246 40.9726L47.6992 41.812C47.9812 41.9749 48.187 42.2431 48.2713 42.5577C48.3556 42.8723 48.3115 43.2075 48.1488 43.4896C48.0412 43.6766 47.8861 43.8319 47.6992 43.9398C47.5124 44.0477 47.3004 44.1044 47.0846 44.1041ZM41.2716 40.7468C41.0564 40.7469 40.8451 40.69 40.6589 40.582L39.2057 39.7427C38.9237 39.5798 38.7179 39.3115 38.6336 38.997C38.5493 38.6824 38.5934 38.3472 38.7561 38.0651C38.8366 37.9253 38.9439 37.8029 39.0717 37.7046C39.1996 37.6064 39.3456 37.5343 39.5014 37.4925C39.6571 37.4508 39.8196 37.4401 39.9795 37.4612C40.1393 37.4823 40.2935 37.5347 40.4331 37.6154L41.8864 38.4547C42.1204 38.59 42.3033 38.7988 42.4066 39.0486C42.5099 39.2984 42.528 39.5754 42.4579 39.8365C42.3879 40.0976 42.2337 40.3283 42.0192 40.4929C41.8047 40.6575 41.542 40.7467 41.2716 40.7468ZM35.4584 37.3897C35.2433 37.3898 35.0319 37.3329 34.8458 37.2249L33.3925 36.3856C33.1105 36.2227 32.9047 35.9544 32.8204 35.6398C32.7361 35.3253 32.7802 34.9901 32.9429 34.708C33.2819 34.1204 34.0328 33.9186 34.6198 34.2582L36.0731 35.0976C36.3071 35.2329 36.4899 35.4417 36.5932 35.6915C36.6966 35.9413 36.7146 36.2182 36.6446 36.4793C36.5746 36.7404 36.4204 36.9711 36.206 37.1357C35.9915 37.3003 35.7288 37.3896 35.4584 37.3897ZM29.6453 34.0326C29.4301 34.0327 29.2187 33.9758 29.0326 33.8678L27.5793 33.0285C27.2973 32.8656 27.0916 32.5973 27.0073 32.2827C26.923 31.9681 26.967 31.633 27.1298 31.3508C27.2103 31.2111 27.3175 31.0886 27.4454 30.9904C27.5732 30.8921 27.7192 30.8201 27.8749 30.7783C28.0307 30.7365 28.1931 30.7259 28.353 30.747C28.5129 30.768 28.667 30.8204 28.8066 30.9011L30.2599 31.7405C30.4939 31.8758 30.6767 32.0845 30.7801 32.3344C30.8834 32.5842 30.9015 32.8611 30.8314 33.1222C30.7614 33.3833 30.6073 33.614 30.3928 33.7786C30.1784 33.9432 29.9156 34.0325 29.6453 34.0326ZM23.8319 30.6753C23.6168 30.6754 23.4054 30.6185 23.2193 30.5105L21.766 29.6712C21.484 29.5083 21.2782 29.24 21.1939 28.9254C21.1096 28.6109 21.1537 28.2757 21.3164 27.9936C21.3969 27.8538 21.5042 27.7313 21.632 27.6331C21.7599 27.5349 21.9059 27.4628 22.0616 27.421C22.2174 27.3793 22.3798 27.3686 22.5397 27.3897C22.6995 27.4108 22.8537 27.4631 22.9933 27.5439L24.4466 28.3832C24.6806 28.5185 24.8634 28.7273 24.9667 28.9771C25.0701 29.2269 25.0881 29.5038 25.0181 29.7649C24.9481 30.026 24.7939 30.2567 24.5795 30.4213C24.365 30.5859 24.1023 30.6752 23.8319 30.6753ZM18.0188 27.318C17.8036 27.3181 17.5922 27.2613 17.4061 27.1533L15.9528 26.3139C15.6708 26.151 15.4651 25.8828 15.3808 25.5682C15.2965 25.2536 15.3405 24.9184 15.5033 24.6363C15.8423 24.0487 16.593 23.8469 17.1801 24.1866L18.6334 25.0259C18.8674 25.1612 19.0502 25.37 19.1536 25.6198C19.2569 25.8696 19.275 26.1465 19.2049 26.4076C19.1349 26.6687 18.9808 26.8995 18.7663 27.064C18.5519 27.2286 18.2891 27.3179 18.0188 27.318ZM12.2056 23.9607C11.9904 23.9608 11.7791 23.904 11.5929 23.796L10.1396 22.9567C9.85765 22.7937 9.6519 22.5255 9.5676 22.2109C9.48331 21.8963 9.52737 21.5611 9.6901 21.279C10.0291 20.6914 10.7798 20.4896 11.3669 20.8293L12.8202 21.6686C13.0542 21.804 13.2371 22.0127 13.3404 22.2625C13.4437 22.5123 13.4618 22.7892 13.3918 23.0503C13.3218 23.3114 13.1676 23.5422 12.9531 23.7068C12.7387 23.8714 12.4759 23.9606 12.2056 23.9607ZM87.0325 67.175C86.8173 67.1751 86.6059 67.1182 86.4198 67.0102L85.711 66.6008C85.429 66.4378 85.2232 66.1695 85.139 65.8549C85.0547 65.5403 85.0988 65.2051 85.2616 64.923C85.3421 64.7833 85.4494 64.6608 85.5772 64.5626C85.7051 64.4643 85.8511 64.3923 86.0068 64.3505C86.1626 64.3088 86.325 64.2981 86.4849 64.3192C86.6447 64.3403 86.7989 64.3927 86.9385 64.4734L87.6473 64.8829C87.8813 65.0182 88.0641 65.227 88.1674 65.4768C88.2708 65.7266 88.2888 66.0035 88.2188 66.2647C88.1487 66.5258 87.9945 66.7565 87.7801 66.9211C87.5656 67.0857 87.3028 67.1749 87.0325 67.175ZM6.39243 52.3383C6.17733 52.3383 5.96603 52.2815 5.77993 52.1737L5.07114 51.7644C4.78907 51.6015 4.58325 51.3332 4.49892 51.0186C4.41459 50.704 4.45866 50.3687 4.62143 50.0866C4.70196 49.9469 4.80922 49.8245 4.93708 49.7263C5.06495 49.6281 5.21091 49.556 5.36663 49.5142C5.52236 49.4725 5.68478 49.4618 5.84464 49.4828C6.00449 49.5038 6.15863 49.5561 6.29826 49.6367L7.00706 50.046C7.24115 50.1813 7.42406 50.39 7.52745 50.6399C7.63084 50.8897 7.64892 51.1667 7.5789 51.4278C7.50887 51.689 7.35465 51.9198 7.14014 52.0844C6.92563 52.249 6.66282 52.3382 6.39243 52.3383ZM57.288 81.7315C57.0728 81.7316 56.8615 81.6748 56.6755 81.5669L55.2618 80.7505C54.9798 80.5875 54.774 80.3193 54.6897 80.0047C54.6054 79.69 54.6495 79.3548 54.8123 79.0727C54.8928 78.933 55 78.8106 55.1279 78.7124C55.2558 78.6141 55.4017 78.5421 55.5575 78.5003C55.7132 78.4585 55.8756 78.4478 56.0355 78.4689C56.1953 78.4899 56.3495 78.5422 56.4891 78.6228L57.9028 79.4392C58.1369 79.5745 58.3198 79.7833 58.4232 80.0331C58.5265 80.283 58.5446 80.56 58.4746 80.8211C58.4045 81.0823 58.2503 81.3131 58.0357 81.4777C57.8212 81.6422 57.5584 81.7315 57.288 81.7315ZM51.633 78.4656C51.4179 78.4657 51.2066 78.4089 51.0205 78.301L49.6067 77.4846C49.3246 77.3217 49.1188 77.0534 49.0345 76.7388C48.9502 76.4241 48.9943 76.0889 49.1571 75.8068C49.2376 75.6671 49.3449 75.5446 49.4728 75.4464C49.6006 75.3482 49.7466 75.2761 49.9023 75.2344C50.058 75.1926 50.2205 75.1819 50.3803 75.2029C50.5402 75.2239 50.6943 75.2763 50.834 75.3569L52.2478 76.1733C52.4819 76.3086 52.6648 76.5174 52.7682 76.7672C52.8716 77.0171 52.8896 77.2941 52.8196 77.5552C52.7496 77.8164 52.5953 78.0472 52.3808 78.2118C52.1662 78.3764 51.9034 78.4656 51.633 78.4656ZM45.9779 75.1995C45.7628 75.1996 45.5514 75.1428 45.3654 75.0349L43.9517 74.2185C43.6697 74.0556 43.4639 73.7873 43.3796 73.4727C43.2953 73.1581 43.3394 72.8228 43.5022 72.5407C43.5827 72.401 43.6899 72.2785 43.8178 72.1803C43.9456 72.0821 44.0916 72.01 44.2473 71.9682C44.4031 71.9264 44.5655 71.9158 44.7254 71.9368C44.8852 71.9579 45.0394 72.0102 45.179 72.0908L46.5927 72.9072C46.8268 73.0426 47.0097 73.2513 47.1131 73.5012C47.2164 73.751 47.2345 74.028 47.1645 74.2892C47.0944 74.5504 46.9402 74.7811 46.7256 74.9457C46.5111 75.1103 46.2483 75.1995 45.9779 75.1995ZM40.3229 71.9338C40.1077 71.9338 39.8964 71.877 39.7102 71.769L38.2964 70.9525C38.0144 70.7895 37.8086 70.5212 37.7243 70.2066C37.6401 69.892 37.6841 69.5568 37.8469 69.2747C37.9274 69.135 38.0347 69.0126 38.1626 68.9144C38.2905 68.8162 38.4365 68.7442 38.5922 68.7024C38.748 68.6607 38.9104 68.65 39.0702 68.6711C39.2301 68.6921 39.3842 68.7445 39.5239 68.8251L40.9377 69.6417C41.2197 69.8046 41.4254 70.0729 41.5097 70.3875C41.594 70.7021 41.55 71.0374 41.3872 71.3195C41.2795 71.5064 41.1243 71.6616 40.9375 71.7694C40.7506 71.8773 40.5386 71.934 40.3229 71.9338ZM34.6678 68.6679C34.4526 68.6679 34.2412 68.6111 34.0551 68.5031L32.6414 67.6866C32.3594 67.5236 32.1537 67.2553 32.0694 66.9407C31.9851 66.6261 32.0293 66.2909 32.1921 66.0088C32.2726 65.8691 32.3798 65.7466 32.5077 65.6484C32.6356 65.5502 32.7816 65.4782 32.9373 65.4365C33.093 65.3947 33.2555 65.3841 33.4153 65.4051C33.5752 65.4262 33.7293 65.4786 33.8689 65.5592L35.2826 66.3758C35.5166 66.5111 35.6994 66.7199 35.8027 66.9697C35.9061 67.2195 35.9241 67.4965 35.8541 67.7576C35.784 68.0187 35.6298 68.2494 35.4154 68.414C35.2009 68.5786 34.9381 68.6678 34.6678 68.6679ZM29.0126 65.402C28.7975 65.4021 28.5862 65.3453 28.4001 65.2374L26.9863 64.421C26.7043 64.2581 26.4985 63.9898 26.4142 63.6752C26.3299 63.3605 26.374 63.0253 26.5368 62.7432C26.6173 62.6035 26.7245 62.481 26.8524 62.3828C26.9802 62.2846 27.1262 62.2125 27.2819 62.1707C27.4377 62.1289 27.6001 62.1182 27.76 62.1393C27.9198 62.1603 28.074 62.2127 28.2136 62.2933L29.6274 63.1097C29.8615 63.245 30.0444 63.4538 30.1478 63.7037C30.2512 63.9535 30.2693 64.2305 30.1992 64.4917C30.1292 64.7528 29.9749 64.9836 29.7604 65.1482C29.5459 65.3128 29.283 65.402 29.0126 65.402ZM23.3577 62.1359C23.1426 62.136 22.9312 62.0792 22.7452 61.9713L21.3315 61.155C21.0495 60.992 20.8437 60.7237 20.7594 60.4091C20.6751 60.0945 20.7192 59.7593 20.882 59.4771C20.9625 59.3374 21.0697 59.215 21.1976 59.1168C21.3255 59.0186 21.4714 58.9465 21.6271 58.9047C21.7829 58.8629 21.9453 58.8523 22.1052 58.8733C22.265 58.8943 22.4192 58.9466 22.5588 59.0273L23.9725 59.8437C24.2066 59.979 24.3895 60.1877 24.4929 60.4376C24.5962 60.6875 24.6143 60.9644 24.5443 61.2256C24.4742 61.4868 24.32 61.7175 24.1054 61.8821C23.8909 62.0467 23.6281 62.1359 23.3577 62.1359ZM17.7025 58.87C17.4874 58.8701 17.2761 58.8134 17.09 58.7055L15.6762 57.8891C15.3942 57.7261 15.1884 57.4578 15.1041 57.1432C15.0198 56.8286 15.0639 56.4934 15.2267 56.2112C15.3072 56.0716 15.4144 55.9491 15.5423 55.8509C15.6702 55.7527 15.8161 55.6806 15.9719 55.6388C16.1276 55.597 16.29 55.5864 16.4499 55.6074C16.6097 55.6284 16.7639 55.6807 16.9035 55.7614L18.3173 56.5778C18.5514 56.7131 18.7343 56.9219 18.8377 57.1717C18.9411 57.4216 18.9592 57.6985 18.8891 57.9597C18.8191 58.2209 18.6648 58.4516 18.4503 58.6162C18.2358 58.7808 17.9729 58.87 17.7025 58.87ZM12.0474 55.6041C11.8323 55.6042 11.621 55.5475 11.4349 55.4396L10.0212 54.6232C9.73924 54.4602 9.53348 54.1919 9.44918 53.8773C9.36489 53.5627 9.40895 53.2275 9.57169 52.9454C9.65222 52.8057 9.75948 52.6832 9.88735 52.585C10.0152 52.4868 10.1612 52.4148 10.3169 52.373C10.4726 52.3312 10.635 52.3205 10.7949 52.3415C10.9548 52.3626 11.1089 52.4149 11.2485 52.4955L12.6622 53.3119C12.8963 53.4472 13.0792 53.656 13.1826 53.9058C13.286 54.1557 13.3041 54.4326 13.234 54.6938C13.164 54.955 13.0097 55.1857 12.7952 55.3503C12.5806 55.5149 12.3178 55.6041 12.0474 55.6041ZM62.2381 84.5904C62.0229 84.5904 61.8115 84.5336 61.6254 84.4257L60.9166 84.0162C60.6346 83.8532 60.4288 83.585 60.3446 83.2703C60.2603 82.9557 60.3044 82.6205 60.4672 82.3384C60.5477 82.1987 60.655 82.0763 60.7829 81.9781C60.9108 81.8799 61.0567 81.8079 61.2125 81.7661C61.3682 81.7243 61.5306 81.7137 61.6905 81.7348C61.8503 81.7558 62.0045 81.8082 62.1441 81.8889L62.8529 82.2983C63.0869 82.4336 63.2697 82.6424 63.373 82.8922C63.4764 83.142 63.4944 83.419 63.4244 83.6801C63.3543 83.9412 63.2001 84.1719 62.9857 84.3365C62.7712 84.5011 62.5084 84.5903 62.2381 84.5904ZM86.3258 20.6035C86.0555 20.6034 85.7927 20.5141 85.5782 20.3496C85.3637 20.185 85.2095 19.9543 85.1395 19.6931C85.0694 19.432 85.0875 19.1551 85.1908 18.9053C85.2941 18.6555 85.477 18.4467 85.711 18.3113L86.4198 17.9019C86.5594 17.8213 86.7135 17.769 86.8734 17.7479C87.0332 17.7269 87.1956 17.7375 87.3514 17.7793C87.5071 17.821 87.653 17.8931 87.7809 17.9912C87.9088 18.0894 88.0161 18.2118 88.0966 18.3515C88.2594 18.6336 88.3036 18.9688 88.2193 19.2834C88.135 19.598 87.9293 19.8663 87.6473 20.0293L86.9385 20.4387C86.7523 20.5466 86.541 20.6035 86.3258 20.6035Z" fill="white" fill-opacity="0.2"/>
<path d="M10.7538 64.2469C10.4833 64.2471 10.2203 64.158 10.0057 63.9935C9.791 63.8289 9.63665 63.5981 9.56658 63.3369C9.49651 63.0756 9.51463 62.7985 9.61813 62.5486C9.72164 62.2987 9.90474 62.09 10.139 61.9548L11.5923 61.1155C11.7319 61.0348 11.886 60.9824 12.0459 60.9614C12.2058 60.9403 12.3682 60.951 12.5239 60.9927C12.6797 61.0345 12.8257 61.1066 12.9535 61.2048C13.0814 61.303 13.1886 61.4255 13.2691 61.5652C13.432 61.8473 13.4761 62.1825 13.3918 62.4971C13.3075 62.8117 13.1017 63.08 12.8196 63.2429L11.3663 64.0822C11.1802 64.1901 10.9689 64.247 10.7538 64.2469ZM16.5671 60.8897C16.2967 60.8898 16.0337 60.8008 15.819 60.6362C15.6043 60.4716 15.45 60.2408 15.3799 59.9796C15.3098 59.7183 15.328 59.4413 15.4315 59.1914C15.535 58.9415 15.7181 58.7327 15.9523 58.5975L17.4056 57.7582C17.5452 57.6775 17.6994 57.6252 17.8592 57.6041C18.0191 57.583 18.1815 57.5937 18.3373 57.6355C18.493 57.6772 18.639 57.7493 18.7669 57.8475C18.8947 57.9457 19.002 58.0682 19.0825 58.2079C19.2453 58.49 19.2894 58.8252 19.2051 59.1398C19.1208 59.4544 18.915 59.7227 18.6329 59.8856L17.1796 60.7249C16.9935 60.8328 16.7823 60.8897 16.5671 60.8897ZM22.3803 57.5325C22.1098 57.5327 21.8468 57.4436 21.6322 57.2791C21.4175 57.1145 21.2632 56.8837 21.1931 56.6225C21.123 56.3612 21.1411 56.0841 21.2446 55.8342C21.3481 55.5843 21.5312 55.3756 21.7655 55.2404L23.2188 54.4011C23.3584 54.3204 23.5125 54.268 23.6724 54.2469C23.8323 54.2259 23.9947 54.2365 24.1505 54.2783C24.3062 54.32 24.4522 54.3921 24.5801 54.4904C24.7079 54.5886 24.8152 54.7111 24.8956 54.8508C25.0585 55.1329 25.1026 55.4681 25.0183 55.7827C24.934 56.0973 24.7282 56.3656 24.4461 56.5285L22.9928 57.3678C22.8067 57.4757 22.5954 57.5325 22.3803 57.5325ZM28.1935 54.1753C27.923 54.1755 27.66 54.0864 27.4453 53.9218C27.2307 53.7572 27.0763 53.5264 27.0062 53.2652C26.9362 53.0039 26.9543 52.7269 27.0578 52.477C27.1613 52.2271 27.3444 52.0183 27.5787 51.8831L29.032 51.0438C29.1716 50.9631 29.3257 50.9107 29.4856 50.8897C29.6454 50.8686 29.8079 50.8792 29.9636 50.921C30.1194 50.9628 30.2654 51.0348 30.3932 51.1331C30.5211 51.2313 30.6283 51.3538 30.7088 51.4935C30.8716 51.7756 30.9157 52.1108 30.8314 52.4254C30.7471 52.7401 30.5413 53.0083 30.2593 53.1712L28.806 54.0105C28.6199 54.1184 28.4086 54.1753 28.1935 54.1753ZM34.0066 50.818C33.7362 50.8182 33.4732 50.7291 33.2585 50.5645C33.0438 50.4 32.8895 50.1692 32.8194 49.9079C32.7493 49.6467 32.7675 49.3696 32.871 49.1197C32.9745 48.8698 33.1576 48.6611 33.3919 48.5259L34.8451 47.6865C34.9848 47.6059 35.1389 47.5535 35.2987 47.5325C35.4586 47.5114 35.621 47.5221 35.7768 47.5639C35.9325 47.6056 36.0785 47.6777 36.2063 47.7759C36.3342 47.8741 36.4415 47.9966 36.522 48.1363C36.6848 48.4183 36.7289 48.7536 36.6446 49.0682C36.5603 49.3828 36.3545 49.651 36.0724 49.8139L34.6191 50.6532C34.4331 50.7611 34.2218 50.818 34.0066 50.818ZM39.8198 47.4607C39.5493 47.4609 39.2863 47.3718 39.0717 47.2072C38.857 47.0427 38.7027 46.8119 38.6326 46.5506C38.5625 46.2894 38.5806 46.0123 38.6841 45.7624C38.7876 45.5125 38.9707 45.3038 39.205 45.1686L40.6583 44.3293C40.7979 44.2486 40.952 44.1962 41.1119 44.1751C41.2718 44.154 41.4342 44.1647 41.59 44.2064C41.7457 44.2482 41.8917 44.3203 42.0196 44.4185C42.1474 44.5168 42.2547 44.6392 42.3352 44.779C42.498 45.0611 42.5421 45.3963 42.4578 45.7109C42.3735 46.0255 42.1677 46.2937 41.8856 46.4566L40.4323 47.2959C40.2462 47.4039 40.0349 47.4607 39.8198 47.4607ZM45.633 44.1034C45.3625 44.1036 45.0995 44.0145 44.8848 43.85C44.6702 43.6854 44.5158 43.4546 44.4458 43.1933C44.3757 42.9321 44.3938 42.655 44.4973 42.4051C44.6008 42.1552 44.7839 41.9465 45.0182 41.8113L46.4715 40.972C46.6111 40.8913 46.7653 40.839 46.9251 40.8179C47.085 40.7969 47.2474 40.8075 47.4032 40.8493C47.5589 40.8911 47.7049 40.9631 47.8328 41.0613C47.9607 41.1595 48.068 41.282 48.1485 41.4217C48.3113 41.7038 48.3554 42.039 48.2711 42.3536C48.1868 42.6682 47.981 42.9365 47.6989 43.0993L46.2456 43.9387C46.0595 44.0466 45.8481 44.1034 45.633 44.1034ZM51.4461 40.7461C51.1757 40.7463 50.9127 40.6572 50.698 40.4927C50.4833 40.3281 50.329 40.0973 50.2589 39.8361C50.1889 39.5748 50.207 39.2977 50.3105 39.0479C50.414 38.798 50.5971 38.5892 50.8314 38.454L52.2846 37.6147C52.4242 37.534 52.5784 37.4816 52.7383 37.4605C52.8981 37.4395 53.0606 37.4501 53.2163 37.4919C53.3721 37.5337 53.518 37.6057 53.6459 37.704C53.7738 37.8022 53.881 37.9247 53.9615 38.0644C54.1243 38.3465 54.1684 38.6817 54.0841 38.9963C53.9998 39.3109 53.794 39.5792 53.5119 39.7421L52.0587 40.5814C51.8726 40.6893 51.6613 40.7461 51.4461 40.7461ZM57.2593 37.389C56.9888 37.3892 56.7259 37.3001 56.5112 37.1356C56.2965 36.971 56.1422 36.7402 56.0721 36.479C56.002 36.2177 56.0201 35.9406 56.1236 35.6907C56.2272 35.4408 56.4103 35.2321 56.6445 35.0969L58.0978 34.2576C58.2374 34.1769 58.3916 34.1245 58.5515 34.1035C58.7113 34.0824 58.8738 34.0931 59.0295 34.1348C59.1853 34.1766 59.3313 34.2487 59.4592 34.3469C59.587 34.4451 59.6943 34.5676 59.7748 34.7073C59.9376 34.9894 59.9818 35.3246 59.8974 35.6392C59.8131 35.9538 59.6073 36.2221 59.3253 36.385L57.872 37.2243C57.6858 37.3321 57.4745 37.3889 57.2593 37.389ZM63.0725 34.0319C62.802 34.0321 62.539 33.943 62.3244 33.7785C62.1097 33.6139 61.9553 33.3831 61.8853 33.1218C61.8152 32.8606 61.8333 32.5835 61.9368 32.3336C62.0403 32.0837 62.2234 31.875 62.4577 31.7398L63.911 30.9005C64.0506 30.8198 64.2048 30.7675 64.3646 30.7464C64.5245 30.7254 64.6869 30.736 64.8427 30.7778C64.9984 30.8195 65.1444 30.8916 65.2723 30.9898C65.4002 31.088 65.5075 31.2105 65.588 31.3502C65.7508 31.6323 65.7949 31.9675 65.7106 32.2821C65.6263 32.5967 65.4205 32.865 65.1384 33.0278L63.6852 33.8672C63.499 33.975 63.2876 34.0318 63.0725 34.0319ZM68.8857 30.6746C68.6152 30.6748 68.3522 30.5857 68.1375 30.4212C67.9229 30.2566 67.7685 30.0258 67.6984 29.7646C67.6284 29.5033 67.6465 29.2262 67.75 28.9763C67.8535 28.7264 68.0366 28.5177 68.2709 28.3825L69.7242 27.5432C69.8638 27.4626 70.0179 27.4102 70.1778 27.3892C70.3376 27.3681 70.5 27.3788 70.6558 27.4206C70.8115 27.4623 70.9575 27.5344 71.0853 27.6326C71.2132 27.7308 71.3205 27.8532 71.401 27.9929C71.5638 28.275 71.6079 28.6102 71.5236 28.9248C71.4393 29.2394 71.2335 29.5077 70.9514 29.6706L69.4982 30.5099C69.3121 30.6178 69.1008 30.6746 68.8857 30.6746ZM74.6988 27.3174C74.4283 27.3176 74.1654 27.2285 73.9507 27.0639C73.736 26.8993 73.5817 26.6685 73.5116 26.4073C73.4415 26.146 73.4596 25.869 73.5632 25.6191C73.6667 25.3692 73.8498 25.1604 74.084 25.0252L75.5373 24.1859C75.6769 24.1052 75.8311 24.0528 75.991 24.0317C76.1508 24.0107 76.3133 24.0213 76.4691 24.0631C76.6248 24.1049 76.7708 24.1769 76.8987 24.2752C77.0266 24.3734 77.1338 24.4959 77.2143 24.6356C77.3771 24.9177 77.4213 25.2529 77.337 25.5675C77.2526 25.8822 77.0468 26.1504 76.7648 26.3133L75.3115 27.1526C75.1253 27.2605 74.914 27.3173 74.6988 27.3174ZM80.512 23.9601C80.2415 23.9603 79.9785 23.8712 79.7639 23.7066C79.5492 23.5421 79.3948 23.3113 79.3248 23.05C79.2547 22.7888 79.2728 22.5117 79.3763 22.2618C79.4798 22.0119 79.6629 21.8031 79.8972 21.668L81.3505 20.8286C81.4901 20.748 81.6443 20.6956 81.8041 20.6746C81.964 20.6535 82.1265 20.6642 82.2822 20.7059C82.4379 20.7477 82.5839 20.8198 82.7118 20.918C82.8397 21.0162 82.947 21.1387 83.0275 21.2784C83.1903 21.5604 83.2344 21.8957 83.1501 22.2103C83.0658 22.5249 82.86 22.7931 82.5779 22.956L81.1247 23.7953C80.9385 23.9032 80.7272 23.9601 80.512 23.9601ZM5.68529 67.1743C5.41495 67.1742 5.15218 67.085 4.9377 66.9204C4.72322 66.7558 4.56901 66.5251 4.49898 66.264C4.42894 66.0029 4.44698 65.726 4.55031 65.4761C4.65364 65.2263 4.83648 65.0176 5.0705 64.8822L5.7793 64.4728C5.9189 64.3921 6.07303 64.3398 6.23288 64.3187C6.39272 64.2977 6.55515 64.3083 6.71087 64.3501C6.8666 64.3918 7.01257 64.4639 7.14044 64.562C7.26832 64.6602 7.37559 64.7827 7.45614 64.9223C7.61893 65.2044 7.66305 65.5396 7.57878 65.8543C7.49451 66.1689 7.28876 66.4372 7.00675 66.6001L6.29796 67.0096C6.11181 67.1175 5.90046 67.1743 5.68529 67.1743ZM86.3252 52.3376C86.0548 52.3376 85.792 52.2483 85.5775 52.0837C85.3629 51.9191 85.2087 51.6883 85.1387 51.4272C85.0687 51.166 85.0868 50.8891 85.1901 50.6392C85.2935 50.3894 85.4764 50.1806 85.7105 50.0453L86.4193 49.6361C87.0061 49.2969 87.7572 49.4985 88.0962 50.0859C88.2589 50.3681 88.303 50.7033 88.2187 51.0179C88.1343 51.3326 87.9285 51.6008 87.6465 51.7638L86.9377 52.173C86.7516 52.2809 86.5403 52.3377 86.3252 52.3376ZM35.4296 81.7308C35.1592 81.7308 34.8964 81.6416 34.6819 81.477C34.4673 81.3124 34.3131 81.0816 34.243 80.8205C34.173 80.5593 34.1911 80.2823 34.2944 80.0325C34.3978 79.7826 34.5807 79.5739 34.8148 79.4385L36.2285 78.6221C36.3681 78.5416 36.5223 78.4893 36.6821 78.4683C36.842 78.4473 37.0044 78.4579 37.1601 78.4997C37.3158 78.5415 37.4618 78.6135 37.5897 78.7117C37.7175 78.8099 37.8248 78.9324 37.9053 79.072C38.0681 79.3541 38.1122 79.6894 38.0279 80.004C37.9436 80.3186 37.7378 80.5869 37.4558 80.7498L36.0421 81.5662C35.856 81.6741 35.6447 81.7308 35.4296 81.7308ZM41.0848 78.4649C40.8144 78.4649 40.5515 78.3757 40.337 78.2111C40.1225 78.0465 39.9682 77.8158 39.8982 77.5546C39.8281 77.2934 39.8462 77.0164 39.9496 76.7666C40.053 76.5167 40.2359 76.308 40.47 76.1726L41.8838 75.3562C42.0234 75.2756 42.1776 75.2233 42.3374 75.2023C42.4973 75.1813 42.6597 75.192 42.8154 75.2338C42.9711 75.2755 43.1171 75.3476 43.245 75.4458C43.3728 75.544 43.4801 75.6665 43.5606 75.8061C43.7234 76.0883 43.7675 76.4235 43.6832 76.7381C43.5989 77.0527 43.3931 77.321 43.1111 77.4839L41.6973 78.3003C41.5112 78.4082 41.2999 78.465 41.0848 78.4649ZM46.7399 75.1989C46.4695 75.1989 46.2067 75.1096 45.9921 74.945C45.7776 74.7805 45.6233 74.5497 45.5533 74.2885C45.4832 74.0274 45.5013 73.7504 45.6047 73.5005C45.7081 73.2507 45.891 73.0419 46.1251 72.9066L47.5388 72.0902C47.6784 72.0096 47.8325 71.9573 47.9924 71.9363C48.1522 71.9152 48.3147 71.9259 48.4704 71.9677C48.6261 72.0095 48.7721 72.0815 48.8999 72.1797C49.0278 72.278 49.1351 72.4004 49.2156 72.5401C49.3784 72.8222 49.4225 73.1574 49.3382 73.472C49.2539 73.7867 49.0481 74.0549 48.7661 74.2179L47.3524 75.0343C47.1663 75.1421 46.955 75.1988 46.7399 75.1989ZM52.3949 71.9331C52.1245 71.9332 51.8616 71.844 51.647 71.6795C51.4324 71.5149 51.2781 71.2841 51.2081 71.0229C51.138 70.7618 51.1561 70.4848 51.2595 70.2349C51.363 69.985 51.5459 69.7763 51.7801 69.641L53.1939 68.8245C53.3335 68.7438 53.4876 68.6914 53.6475 68.6704C53.8073 68.6493 53.9698 68.66 54.1255 68.7017C54.2812 68.7435 54.4272 68.8155 54.5551 68.9137C54.6829 69.0119 54.7902 69.1343 54.8707 69.274C55.0336 69.5561 55.0777 69.8914 54.9934 70.206C54.9091 70.5206 54.7033 70.7889 54.4212 70.9518L53.0074 71.7684C52.8213 71.8763 52.61 71.9332 52.3949 71.9331ZM58.05 68.6672C57.7797 68.6672 57.5169 68.5779 57.3024 68.4133C57.0879 68.2488 56.9337 68.018 56.8637 67.7569C56.7936 67.4958 56.8117 67.2189 56.915 66.9691C57.0183 66.7192 57.2012 66.5105 57.4352 66.3751L58.8489 65.5586C58.9885 65.4779 59.1426 65.4256 59.3024 65.4045C59.4623 65.3835 59.6247 65.3941 59.7804 65.4359C59.9362 65.4776 60.0821 65.5496 60.21 65.6478C60.3379 65.746 60.4452 65.8684 60.5257 66.0081C60.6885 66.2902 60.7326 66.6254 60.6483 66.9401C60.5641 67.2547 60.3583 67.523 60.0763 67.6859L58.6627 68.5025C58.4765 68.6104 58.2652 68.6672 58.05 68.6672ZM63.705 65.4013C63.4346 65.4013 63.1717 65.3121 62.9572 65.1475C62.7426 64.9829 62.5884 64.7522 62.5184 64.491C62.4483 64.2298 62.4664 63.9529 62.5698 63.703C62.6732 63.4531 62.8561 63.2444 63.0902 63.1091L64.504 62.2927C65.0908 61.9535 65.842 62.1551 66.1808 62.7425C66.3436 63.0247 66.3877 63.3599 66.3034 63.6745C66.2191 63.9891 66.0133 64.2574 65.7313 64.4204L64.3175 65.2368C64.1313 65.3446 63.9201 65.4013 63.705 65.4013ZM69.3601 62.1353C69.0897 62.1353 68.8269 62.0461 68.6123 61.8815C68.3978 61.7169 68.2435 61.4861 68.1735 61.2249C68.1034 60.9638 68.1215 60.6868 68.2249 60.4369C68.3283 60.1871 68.5112 59.9783 68.7453 59.843L70.159 59.0266C70.2986 58.946 70.4527 58.8937 70.6126 58.8727C70.7724 58.8517 70.9349 58.8624 71.0906 58.9042C71.2463 58.946 71.3923 59.018 71.5201 59.1162C71.648 59.2144 71.7553 59.3368 71.8358 59.4765C71.9986 59.7586 72.0427 60.0938 71.9584 60.4085C71.8741 60.7231 71.6683 60.9914 71.3863 61.1543L69.9726 61.9707C69.7865 62.0785 69.5752 62.1353 69.3601 62.1353ZM75.0151 58.8694C74.7447 58.8694 74.4818 58.7802 74.2673 58.6156C74.0527 58.451 73.8985 58.2202 73.8285 57.9591C73.7584 57.6979 73.7765 57.4209 73.8799 57.1711C73.9832 56.9212 74.1662 56.7124 74.4003 56.5771L75.8141 55.7607C76.401 55.4214 77.1519 55.623 77.4909 56.2106C77.8299 56.7982 77.6285 57.5492 77.0414 57.8884L75.6276 58.7048C75.4415 58.8127 75.2302 58.8695 75.0151 58.8694ZM80.6702 55.6035C80.3998 55.6035 80.137 55.5143 79.9224 55.3497C79.7079 55.1851 79.5536 54.9543 79.4836 54.6932C79.4135 54.432 79.4316 54.155 79.535 53.9052C79.6384 53.6553 79.8213 53.4465 80.0554 53.3112L81.4691 52.4948C81.6087 52.4142 81.7628 52.3619 81.9227 52.3409C82.0826 52.3199 82.245 52.3306 82.4007 52.3723C82.5564 52.4141 82.7024 52.4862 82.8302 52.5844C82.9581 52.6826 83.0654 52.805 83.1459 52.9447C83.3086 53.2268 83.3527 53.562 83.2684 53.8767C83.1841 54.1913 82.9784 54.4595 82.6964 54.6225L81.2827 55.4389C81.0966 55.5467 80.8853 55.6035 80.6702 55.6035ZM30.4797 84.5897C30.2093 84.5898 29.9464 84.5006 29.7318 84.3361C29.5173 84.1715 29.363 83.9407 29.2929 83.6796C29.2229 83.4184 29.241 83.1414 29.3444 82.8915C29.4478 82.6417 29.6308 82.4329 29.8649 82.2976L30.5737 81.8882C30.7133 81.8076 30.8674 81.7553 31.0273 81.7342C31.1871 81.7132 31.3495 81.7238 31.5053 81.7656C31.661 81.8073 31.8069 81.8793 31.9348 81.9775C32.0627 82.0757 32.17 82.1981 32.2505 82.3377C32.4134 82.6199 32.4575 82.9551 32.3732 83.2697C32.289 83.5843 32.0832 83.8526 31.8012 84.0156L31.0924 84.425C30.9062 84.5329 30.6949 84.5897 30.4797 84.5897ZM87.0318 36.0332C86.8155 36.0332 86.6031 35.9758 86.4162 35.8668L85.7086 35.4554C85.427 35.2917 85.222 35.0228 85.1385 34.7079C85.0551 34.393 85.1002 34.0579 85.2638 33.7763C85.4273 33.4947 85.696 33.2897 86.0107 33.2062C86.3254 33.1227 86.6603 33.1677 86.9419 33.3311L87.6496 33.7425C87.8831 33.8783 88.0653 34.0873 88.1681 34.3371C88.2709 34.5869 88.2885 34.8637 88.2181 35.1245C88.1478 35.3853 87.9935 35.6157 87.779 35.7799C87.5646 35.9442 87.302 36.0332 87.0318 36.0332Z" fill="white" fill-opacity="0.2"/>
<path d="M82.088 33.1598C81.8716 33.1599 81.6591 33.1024 81.4722 32.9933L80.0605 32.1723C79.7789 32.0086 79.5739 31.7397 79.4905 31.4248C79.4072 31.1099 79.4523 30.7748 79.616 30.4932C79.697 30.3538 79.8046 30.2317 79.9328 30.1339C80.061 30.0361 80.2071 29.9645 80.363 29.9232C80.5188 29.8819 80.6813 29.8717 80.841 29.8931C81.0008 29.9146 81.1548 29.9674 81.2942 30.0484L82.7059 30.8694C82.9875 31.0331 83.1925 31.302 83.2759 31.6169C83.3592 31.9318 83.3141 32.2669 83.1504 32.5485C83.0424 32.7346 82.8875 32.8891 82.701 32.9964C82.5145 33.1037 82.3031 33.16 82.088 33.1598ZM76.4409 29.8763C76.2245 29.8763 76.0121 29.8188 75.8253 29.7097L74.4136 28.8889C74.132 28.7252 73.927 28.4563 73.8436 28.1415C73.7602 27.8266 73.8053 27.4915 73.9689 27.2099C74.0498 27.0704 74.1574 26.9483 74.2856 26.8504C74.4137 26.7526 74.5599 26.6809 74.7158 26.6396C74.8716 26.5983 75.0341 26.5881 75.1939 26.6096C75.3537 26.6311 75.5077 26.6839 75.6471 26.765L77.0588 27.5858C77.3404 27.7495 77.5454 28.0183 77.6288 28.3332C77.7122 28.648 77.6671 28.9831 77.5034 29.2647C77.3955 29.4509 77.2405 29.6054 77.054 29.7128C76.8675 29.8201 76.6561 29.8765 76.4409 29.8763ZM70.7938 26.5928C70.5774 26.5929 70.3648 26.5354 70.178 26.4263L68.7663 25.6053C68.4848 25.4415 68.2798 25.1726 68.1965 24.8577C68.1131 24.5429 68.1582 24.2078 68.3218 23.9262C68.4028 23.7867 68.5104 23.6646 68.6386 23.5668C68.7667 23.469 68.9129 23.3974 69.0687 23.3561C69.2246 23.3148 69.387 23.3046 69.5468 23.3261C69.7066 23.3476 69.8606 23.4003 70 23.4814L71.4117 24.3024C71.6933 24.4661 71.8983 24.735 71.9816 25.0499C72.065 25.3648 72.0199 25.6999 71.8561 25.9815C71.7482 26.1676 71.5933 26.3221 71.4068 26.4294C71.2203 26.5367 71.0089 26.593 70.7938 26.5928ZM65.1467 23.3093C64.9303 23.3093 64.7178 23.2518 64.531 23.1427L63.1192 22.3219C62.8376 22.1581 62.6326 21.8893 62.5493 21.5745C62.4659 21.2596 62.511 20.9245 62.6746 20.6429C62.7555 20.5034 62.8631 20.3813 62.9912 20.2834C63.1194 20.1856 63.2655 20.1139 63.4214 20.0726C63.5773 20.0313 63.7397 20.0211 63.8995 20.0426C64.0593 20.0641 64.2133 20.1169 64.3527 20.198L65.7646 21.0188C66.0461 21.1825 66.2511 21.4514 66.3345 21.7662C66.4179 22.081 66.3728 22.4161 66.2092 22.6977C66.1013 22.8839 65.9463 23.0384 65.7598 23.1458C65.5733 23.2531 65.3618 23.3095 65.1467 23.3093ZM59.4995 20.026C59.2832 20.026 59.0706 19.9686 58.8838 19.8594L57.4719 19.0385C57.1904 18.8747 56.9854 18.6058 56.9021 18.2909C56.8187 17.976 56.8638 17.641 57.0274 17.3593C57.1084 17.2199 57.2161 17.0978 57.3442 17C57.4724 16.9022 57.6185 16.8306 57.7744 16.7893C57.9302 16.748 58.0927 16.7378 58.2524 16.7593C58.4122 16.7808 58.5662 16.8335 58.7056 16.9145L60.1175 17.7355C60.399 17.8993 60.604 18.1682 60.6873 18.4831C60.7706 18.7979 60.7255 19.133 60.5619 19.4146C60.454 19.6008 60.299 19.7552 60.1126 19.8625C59.9261 19.9698 59.7147 20.0262 59.4995 20.026ZM53.8524 16.7424C53.6361 16.7425 53.4236 16.685 53.2368 16.5759L51.8251 15.755C51.5436 15.5913 51.3386 15.3224 51.2552 15.0075C51.1718 14.6927 51.2169 14.3576 51.3805 14.0759C51.4614 13.9365 51.5691 13.8144 51.6972 13.7165C51.8254 13.6187 51.9716 13.5471 52.1274 13.5058C52.2833 13.4645 52.4457 13.4543 52.6055 13.4758C52.7653 13.4973 52.9193 13.5501 53.0587 13.6311L54.4703 14.4519C54.7038 14.5878 54.886 14.7968 54.9887 15.0466C55.0914 15.2964 55.1089 15.573 55.0386 15.8338C54.9682 16.0946 54.8139 16.3249 54.5995 16.4891C54.3851 16.6534 54.1225 16.7424 53.8524 16.7424ZM48.2053 13.459C47.9889 13.4591 47.7764 13.4016 47.5896 13.2924L46.1779 12.4715C45.8963 12.3077 45.6914 12.0388 45.608 11.7239C45.5247 11.409 45.5698 11.074 45.7334 10.7923C45.8144 10.6529 45.922 10.5308 46.0501 10.433C46.1783 10.3352 46.3245 10.2636 46.4803 10.2223C46.6362 10.1809 46.7986 10.1708 46.9584 10.1922C47.1182 10.2137 47.2722 10.2665 47.4115 10.3475L48.8232 11.1685C49.1048 11.3323 49.3099 11.6011 49.3932 11.916C49.4766 12.2309 49.4314 12.566 49.2677 12.8476C49.1598 13.0338 49.0048 13.1882 48.8184 13.2955C48.6319 13.4028 48.4205 13.4592 48.2053 13.459ZM42.5584 10.1754C42.342 10.1755 42.1295 10.118 41.9426 10.0089L40.5308 9.18788C40.2492 9.02409 40.0443 8.7552 39.9609 8.44033C39.8776 8.12546 39.9227 7.79038 40.0863 7.50875C40.1673 7.36934 40.2749 7.24725 40.4031 7.14945C40.5312 7.05164 40.6774 6.98004 40.8332 6.93874C40.9891 6.89743 41.1515 6.88723 41.3113 6.90872C41.4711 6.9302 41.625 6.98295 41.7644 7.06395L43.1763 7.88493C43.4578 8.04873 43.6628 8.31762 43.7461 8.63248C43.8295 8.94735 43.7844 9.28243 43.6208 9.56406C43.5129 9.75021 43.3579 9.9047 43.1715 10.012C42.985 10.1193 42.7735 10.1757 42.5584 10.1754ZM36.9113 6.89216C36.6949 6.89221 36.4824 6.83473 36.2955 6.72561L34.8837 5.90463C34.2975 5.56382 34.0984 4.81196 34.4392 4.2255C34.78 3.63904 35.5314 3.43989 36.1173 3.7807L37.5292 4.60168C37.8107 4.76548 38.0157 5.03436 38.099 5.34923C38.1824 5.6641 38.1373 5.99918 37.9737 6.28081C37.8657 6.46693 37.7108 6.62139 37.5243 6.72869C37.3378 6.836 37.1264 6.89237 36.9113 6.89216ZM31.2642 3.60858C31.0478 3.60863 30.8353 3.55115 30.6484 3.44202L29.9408 3.03047C29.6592 2.86673 29.4541 2.59785 29.3708 2.28295C29.2874 1.96806 29.3326 1.63295 29.4963 1.35134C29.5772 1.2119 29.6848 1.08977 29.813 0.991945C29.9412 0.894116 30.0873 0.822501 30.2432 0.781193C30.399 0.739885 30.5615 0.729694 30.7213 0.751202C30.8811 0.77271 31.0351 0.825495 31.1744 0.906542L31.8821 1.31809C32.1637 1.48183 32.3687 1.75072 32.4521 2.06561C32.5354 2.38051 32.4903 2.71561 32.3266 2.99723C32.2186 3.18334 32.0637 3.3378 31.8772 3.44511C31.6907 3.55242 31.4793 3.60879 31.2642 3.60858ZM5.63864 36.0337C5.36842 36.0336 5.10574 35.9445 4.89128 35.7801C4.67682 35.6157 4.52254 35.3852 4.45234 35.1242C4.38214 34.8633 4.39993 34.5865 4.50295 34.3367C4.60597 34.0869 4.78848 33.878 5.02222 33.7424L5.73036 33.332C5.86986 33.2511 6.02392 33.1986 6.18373 33.1773C6.34355 33.1561 6.50598 33.1665 6.66176 33.208C6.81755 33.2496 6.96362 33.3214 7.09163 33.4194C7.21965 33.5174 7.3271 33.6397 7.40785 33.7792C7.57104 34.0611 7.61562 34.3963 7.53178 34.711C7.44795 35.0258 7.24255 35.2943 6.96076 35.4577L6.25262 35.8681C6.0662 35.9766 5.85434 36.0337 5.63864 36.0337Z" fill="white" fill-opacity="0.2"/>
<path d="M10.5957 33.1604C10.3254 33.1603 10.0628 33.0712 9.84831 32.9068C9.63385 32.7424 9.47958 32.5119 9.40937 32.251C9.33917 31.99 9.35696 31.7132 9.45998 31.4634C9.563 31.2136 9.74551 31.0047 9.97925 30.8691L11.3959 30.0481C11.5354 29.9673 11.6894 29.9147 11.8492 29.8935C12.009 29.8722 12.1715 29.8826 12.3273 29.9242C12.483 29.9657 12.6291 30.0375 12.7571 30.1355C12.8851 30.2335 12.9926 30.3558 13.0733 30.4953C13.2365 30.7772 13.2811 31.1124 13.1973 31.4271C13.1134 31.7419 12.9081 32.0105 12.6263 32.1738L11.2096 32.9948C11.0232 33.1033 10.8114 33.1604 10.5957 33.1604ZM16.2619 29.8768C15.9917 29.8767 15.7291 29.7876 15.5146 29.6232C15.3002 29.4588 15.146 29.2282 15.0758 28.9673C15.0056 28.7064 15.0234 28.4296 15.1264 28.1798C15.2294 27.93 15.412 27.7211 15.6457 27.5855L17.0623 26.7645C17.6491 26.4247 18.4 26.6248 18.7398 27.2118C19.0796 27.7987 18.8795 28.5503 18.2927 28.8902L16.8761 29.7112C16.6896 29.8197 16.4777 29.8768 16.2619 29.8768ZM21.9284 26.593C21.6581 26.593 21.3955 26.5039 21.181 26.3395C20.9665 26.1751 20.8123 25.9446 20.7421 25.6836C20.6719 25.4227 20.6897 25.1459 20.7927 24.896C20.8957 24.6462 21.0782 24.4373 21.3119 24.3017L22.7286 23.4808C22.868 23.3999 23.0221 23.3474 23.1819 23.3261C23.3417 23.3048 23.5042 23.3152 23.66 23.3568C23.8158 23.3983 23.9618 23.4701 24.0899 23.5682C24.2179 23.6662 24.3253 23.7885 24.406 23.928C24.5693 24.2099 24.6139 24.545 24.5301 24.8598C24.4462 25.1745 24.2409 25.4431 23.9591 25.6065L22.5425 26.4275C22.356 26.536 22.1441 26.5931 21.9284 26.593ZM27.5946 23.3093C27.3244 23.3093 27.0617 23.2202 26.8473 23.0558C26.6328 22.8913 26.4785 22.6608 26.4083 22.3999C26.3381 22.1389 26.3559 21.8621 26.4589 21.6123C26.562 21.3625 26.7445 21.1536 26.9782 21.018L28.3948 20.197C28.9818 19.857 29.7325 20.0573 30.0723 20.6443C30.4121 21.2312 30.212 21.9828 29.6254 22.3227L28.2088 23.1437C28.0223 23.2522 27.8104 23.3094 27.5946 23.3093ZM33.2609 20.0257C32.9907 20.0257 32.728 19.9366 32.5135 19.7722C32.2991 19.6078 32.1448 19.3772 32.0746 19.1163C32.0044 18.8553 32.0222 18.5785 32.1252 18.3287C32.2282 18.0789 32.4107 17.87 32.6445 17.7344L34.0611 16.9134C34.2006 16.8326 34.3547 16.7801 34.5145 16.7588C34.6743 16.7375 34.8367 16.748 34.9925 16.7895C35.1483 16.8311 35.2944 16.9029 35.4224 17.0009C35.5504 17.0989 35.6578 17.2211 35.7386 17.3607C35.9018 17.6426 35.9464 17.9777 35.8625 18.2925C35.7787 18.6072 35.5733 18.8758 35.2915 19.0392L33.8749 19.8601C33.6884 19.9686 33.4766 20.0257 33.2609 20.0257ZM38.9273 16.742C38.6571 16.7419 38.3944 16.6528 38.18 16.4884C37.9655 16.324 37.8112 16.0935 37.741 15.8325C37.6708 15.5716 37.6886 15.2948 37.7916 15.045C37.8947 14.7952 38.0772 14.5863 38.3109 14.4507L39.7275 13.6297C39.867 13.5488 40.0211 13.4963 40.1809 13.475C40.3407 13.4537 40.5032 13.4642 40.6589 13.5057C40.8147 13.5472 40.9608 13.6191 41.0888 13.7171C41.2168 13.8151 41.3243 13.9374 41.405 14.0769C41.5682 14.3588 41.6128 14.694 41.529 15.0087C41.4452 15.3234 41.2399 15.592 40.9581 15.7554L39.5415 16.5764C39.355 16.6849 39.1431 16.742 38.9273 16.742ZM44.5936 13.4582C44.3234 13.4582 44.0607 13.3691 43.8462 13.2047C43.6318 13.0403 43.4775 12.8097 43.4073 12.5488C43.3371 12.2879 43.3549 12.011 43.4579 11.7612C43.5609 11.5114 43.7434 11.3025 43.9772 11.1669L45.3938 10.3459C45.5333 10.2651 45.6873 10.2125 45.8472 10.1912C46.007 10.1699 46.1694 10.1804 46.3252 10.2219C46.481 10.2634 46.6271 10.3353 46.7551 10.4333C46.8831 10.5313 46.9906 10.6536 47.0713 10.7932C47.2345 11.0751 47.2791 11.4102 47.1953 11.725C47.1115 12.0397 46.9061 12.3083 46.6244 12.4717L45.2077 13.2926C45.0213 13.4011 44.8094 13.4583 44.5936 13.4582ZM50.2599 10.1746C49.9897 10.1746 49.727 10.0854 49.5126 9.92102C49.2981 9.7566 49.1439 9.52608 49.0737 9.26514C49.0035 9.0042 49.0213 8.7274 49.1244 8.4776C49.2274 8.2278 49.4099 8.01893 49.6436 7.88334L51.0602 7.06236C51.1997 6.98152 51.3538 6.92896 51.5136 6.90768C51.6734 6.88641 51.8359 6.89684 51.9916 6.93837C52.1474 6.97991 52.2935 7.05174 52.4215 7.14976C52.5495 7.24777 52.657 7.37005 52.7377 7.50961C52.9009 7.7915 52.9455 8.12666 52.8616 8.44141C52.7778 8.75616 52.5724 9.02473 52.2906 9.18809L50.874 10.0091C50.6875 10.1175 50.4756 10.1746 50.2599 10.1746ZM55.9261 6.89089C55.6559 6.89083 55.3933 6.80169 55.1788 6.63727C54.9644 6.47286 54.8102 6.24233 54.74 5.98139C54.6698 5.72046 54.6876 5.44366 54.7906 5.19386C54.8937 4.94406 55.0762 4.73519 55.3099 4.59959L56.7265 3.77878C57.3131 3.43895 58.0642 3.63892 58.404 4.22603C58.7438 4.81315 58.5435 5.56468 57.9569 5.90451L56.5403 6.72532C56.3538 6.83382 56.1419 6.89095 55.9261 6.89089ZM61.5926 3.60731C61.3223 3.60739 61.0596 3.51835 60.8451 3.35398C60.6305 3.18961 60.4762 2.95908 60.406 2.69811C60.3357 2.43714 60.3535 2.16029 60.4566 1.91046C60.5596 1.66062 60.7422 1.45174 60.976 1.31617L61.6841 0.905601C61.8236 0.824789 61.9776 0.772245 62.1374 0.75097C62.2972 0.729696 62.4597 0.740106 62.6154 0.781608C62.7712 0.82311 62.9173 0.89489 63.0453 0.992849C63.1733 1.09081 63.2808 1.21303 63.3616 1.35253C63.5249 1.63437 63.5695 1.96951 63.4858 2.28427C63.402 2.59902 63.1966 2.86762 62.9149 3.031L62.2067 3.44157C62.0203 3.55014 61.8083 3.60732 61.5926 3.60731Z" fill="white" fill-opacity="0.2"/>
<path d="M46.3337 38.4663C46.008 38.4663 45.6956 38.3369 45.4652 38.1066C45.2349 37.8762 45.1055 37.5638 45.1055 37.2381V35.6004C45.1055 35.2746 45.2349 34.9622 45.4652 34.7318C45.6956 34.5015 46.008 34.3721 46.3337 34.3721C46.6595 34.3721 46.9719 34.5015 47.2023 34.7318C47.4326 34.9622 47.562 35.2746 47.562 35.6004V37.2381C47.562 37.5638 47.4326 37.8762 47.2023 38.1066C46.9719 38.3369 46.6595 38.4663 46.3337 38.4663ZM46.3337 31.9155C46.008 31.9155 45.6956 31.7861 45.4652 31.5558C45.2349 31.3254 45.1055 31.013 45.1055 30.6873V29.0496C45.1055 28.7238 45.2349 28.4114 45.4652 28.1811C45.6956 27.9507 46.008 27.8213 46.3337 27.8213C46.6595 27.8213 46.9719 27.9507 47.2023 28.1811C47.4326 28.4114 47.562 28.7238 47.562 29.0496V30.6873C47.562 31.013 47.4326 31.3254 47.2023 31.5558C46.9719 31.7861 46.6595 31.9155 46.3337 31.9155ZM46.3337 25.3648C46.008 25.3648 45.6956 25.2354 45.4652 25.005C45.2349 24.7747 45.1055 24.4622 45.1055 24.1365V22.4988C45.1055 22.173 45.2349 21.8606 45.4652 21.6303C45.6956 21.3999 46.008 21.2705 46.3337 21.2705C46.6595 21.2705 46.9719 21.3999 47.2023 21.6303C47.4326 21.8606 47.562 22.173 47.562 22.4988V24.1365C47.562 24.4622 47.4326 24.7747 47.2023 25.005C46.9719 25.2354 46.6595 25.3648 46.3337 25.3648ZM46.3337 18.814C46.008 18.814 45.6956 18.6846 45.4652 18.4542C45.2349 18.2239 45.1055 17.9115 45.1055 17.5857V15.948C45.1055 15.6222 45.2349 15.3098 45.4652 15.0795C45.6956 14.8491 46.008 14.7197 46.3337 14.7197C46.6595 14.7197 46.9719 14.8491 47.2023 15.0795C47.4326 15.3098 47.562 15.6222 47.562 15.948V17.5857C47.562 17.9115 47.4326 18.2239 47.2023 18.4542C46.9719 18.6846 46.6595 18.814 46.3337 18.814Z" fill="#FFBD00"/>
</g>
<defs>
<filter id="filter0_d_491_11836" x="0.410156" y="0.740234" width="91.8516" height="91.8506" filterUnits="userSpaceOnUse" color-interpolation-filters="sRGB">
<feFlood flood-opacity="0" result="BackgroundImageFix"/>
<feColorMatrix in="SourceAlpha" type="matrix" values="0 0 0 0 0 0 0 0 0 0 0 0 0 0 0 0 0 0 127 0" result="hardAlpha"/>
<feOffset dy="4"/>
<feGaussianBlur stdDeviation="2"/>
<feComposite in2="hardAlpha" operator="out"/>
<feColorMatrix type="matrix" values="0 0 0 0 0 0 0 0 0 0 0 0 0 0 0 0 0 0 0.25 0"/>
<feBlend mode="normal" in2="BackgroundImageFix" result="effect1_dropShadow_491_11836"/>
<feBlend mode="normal" in="SourceGraphic" in2="effect1_dropShadow_491_11836" result="shape"/>
</filter>
</defs>
</svg>
