<svg width="120" height="24" viewBox="0 0 120 24" fill="none" xmlns="http://www.w3.org/2000/svg">
<path d="M38.3567 7.44344H34.9367C35.0683 5.04374 35.5681 2.88138 37.7517 1.51013C39.9352 0.165243 42.3292 -0.1512 44.8284 0.0597624C46.1701 0.165243 47.5118 0.45532 48.7483 1.03547C50.9319 2.03754 52.0105 3.7516 52.0105 6.1513C52.0105 10.3969 52.0105 14.6425 52.0105 18.8881C52.0105 20.444 52.3262 20.7341 53.8783 20.5758C54.0362 20.5495 54.2203 20.5231 54.3782 20.4967C54.4045 20.5758 54.4045 20.6549 54.4045 20.7077V23.292C53.168 23.7139 51.9052 23.8457 50.6688 23.5029C49.748 23.2392 49.1692 22.58 48.8535 21.7098C48.6957 21.2615 48.5905 20.7868 48.4589 20.2858C48.3274 20.444 48.2221 20.5758 48.0906 20.7077C45.3809 23.4502 42.1714 24.6105 38.383 23.6348C35.6996 22.9492 33.8581 20.4967 33.7792 17.7015C33.7529 16.8049 33.8318 15.9083 34.0423 15.0381C34.5421 13.0339 35.9627 11.8209 37.7517 11.0034C39.0144 10.4233 40.3824 10.2651 41.7504 10.0805C43.3552 9.8695 44.9337 9.68491 46.5384 9.44758C47.6171 9.28936 48.1695 8.70921 48.3274 7.62803C48.6694 5.4393 47.696 3.98894 45.5914 3.46153C44.3286 3.14509 43.0395 3.09235 41.7504 3.32968C39.8563 3.6725 38.804 4.75368 38.4357 6.62596C38.462 6.88967 38.4093 7.15336 38.3567 7.44344ZM48.4326 11.6627C46.8541 12.5065 45.3283 12.7175 43.7761 12.9548C42.487 13.1658 41.1717 13.3504 39.9089 13.7459C38.2515 14.2997 37.4886 15.671 37.6464 17.5169C37.778 19.0464 38.804 20.2858 40.4614 20.5495C43.0132 20.9714 45.2757 20.2594 47.0646 18.3607C47.5908 17.807 48.0117 17.0158 48.1169 16.2775C48.3537 14.8007 48.3274 13.2976 48.4326 11.6627ZM97.1809 16.0929C97.102 16.4621 97.0494 16.7785 96.9704 17.0686C95.4972 21.5779 92.4981 23.5029 88.8677 23.9249C82.5801 24.6105 78.9759 20.4967 78.0552 16.1193C77.3185 12.6384 77.4238 9.18388 78.9496 5.91396C80.3966 2.82864 82.7116 0.79813 86.158 0.191614C90.2883 -0.546754 96.1286 1.51013 97.102 7.97084C97.3651 9.63217 97.4177 11.3462 97.5755 13.0867H81.5804C81.7119 15.46 82.0803 17.6751 83.8166 19.3892C84.5269 20.1012 85.4476 20.444 86.4473 20.6286C89.6832 21.2087 92.3666 19.6529 93.4189 16.5148C93.5241 16.172 93.682 16.0665 94.024 16.0929C95.05 16.0929 96.076 16.0929 97.1809 16.0929ZM81.7119 10.0277H93.682C93.5504 8.6301 93.3137 7.33796 92.656 6.12492C92.0246 4.96463 91.1038 4.12079 89.841 3.69886C85.7107 2.27487 81.4489 5.57115 81.7119 10.0277ZM105.784 23.1601H102.153V0.534432H105.599V3.69886C105.862 3.40879 106.02 3.2242 106.178 3.03961C108.651 0.217989 111.755 -0.520382 115.281 0.349837C117.727 0.956353 119.095 2.69679 119.569 5.12286C119.753 6.12493 119.885 7.15337 119.885 8.15544C119.911 13.0076 119.911 17.8597 119.911 22.7118C119.911 22.8437 119.885 22.9755 119.885 23.1337H116.175V22.5272C116.175 17.9915 116.201 13.4559 116.149 8.92017C116.149 7.9181 115.991 6.88966 115.702 5.91396C115.228 4.33175 113.965 3.4879 112.308 3.40879C109.282 3.30331 106.888 4.91189 106.152 7.60166C105.889 8.57736 105.81 9.6058 105.81 10.6342C105.784 14.6162 105.784 18.5717 105.784 22.5009V23.1601ZM57.9297 0.534432H61.4286V10.1332C61.6391 9.92224 61.7707 9.81676 61.9022 9.68491C64.7697 6.75781 67.6373 3.80434 70.5048 0.877242C70.7416 0.61354 70.9784 0.50806 71.3467 0.50806C72.6884 0.53443 74.0564 0.50806 75.5296 0.50806C75.3192 0.719022 75.2139 0.85087 75.0824 0.982722C72.5568 3.51427 70.0576 6.07219 67.5057 8.57736C67.2164 8.86744 67.2164 9.05203 67.4005 9.36847C70.1628 13.7723 72.8988 18.1761 75.6348 22.58C75.7401 22.7382 75.819 22.8964 75.9505 23.1337C75.7664 23.1601 75.6348 23.1601 75.477 23.1601C74.2142 23.1601 72.9778 23.1601 71.715 23.1601C71.373 23.1601 71.2151 23.0283 71.031 22.7646C68.9264 19.2309 66.8217 15.6973 64.7171 12.1373C64.6119 11.9791 64.533 11.8209 64.4014 11.6363C63.428 12.612 62.481 13.535 61.5339 14.5107C61.4023 14.6425 61.376 14.8799 61.376 15.0645C61.376 17.5433 61.376 20.0221 61.376 22.5009V23.1337C60.692 23.1337 60.008 23.1337 59.3503 23.1337C58.8768 23.1337 58.2191 23.2656 57.956 23.0019C57.7193 22.7909 57.8508 22.1053 57.8508 21.6306V1.14094C57.9297 1.00909 57.9297 0.798135 57.9297 0.534432ZM17.5473 0.50806C14.706 3.32968 11.9437 6.09856 9.15511 8.86744C12.1542 13.6668 15.0744 18.3607 18.0471 23.1601C17.8104 23.1601 17.6525 23.1865 17.4947 23.1865C16.2845 23.1865 15.048 23.1865 13.8379 23.1865C13.4959 23.1865 13.2854 23.0546 13.1013 22.7646C10.9966 19.2309 8.89203 15.6973 6.78741 12.1373C6.70848 11.9791 6.60325 11.8473 6.47171 11.6363C5.94556 12.1901 5.47202 12.7966 4.89325 13.2185C3.7094 14.1151 3.3674 15.2227 3.44632 16.6994C3.57786 18.6244 3.47263 20.5758 3.47263 22.5009V23.1337H0V0.534432H3.47263V9.97498C3.55155 10.0277 3.63047 10.0805 3.68309 10.1332C3.78832 9.97499 3.84093 9.7904 3.94617 9.65855C6.7874 6.73145 9.65495 3.83071 12.4962 0.877242C12.7593 0.61354 12.996 0.48169 13.3907 0.50806C14.5745 0.53443 15.7584 0.50806 16.9422 0.50806C17.1264 0.50806 17.2842 0.50806 17.5473 0.50806ZM24.4925 4.279C26.2552 1.69472 28.123 -0.467637 31.5956 0.16525V4.04167C30.6749 4.09441 29.7541 4.06805 28.8859 4.25264C26.755 4.70094 25.0976 6.65233 24.7556 9.02565C24.703 9.50032 24.6504 9.97499 24.6504 10.4497C24.6504 14.4843 24.6504 18.519 24.6504 22.5536V23.1865H21.0725V0.587168H24.4925C24.4925 1.77383 24.4925 2.96049 24.4925 4.279Z" fill="#545C79" fill-opacity="0.5"/>
</svg>
