<svg width="62" height="84" viewBox="0 0 62 84" fill="none" xmlns="http://www.w3.org/2000/svg">
<path d="M46.2637 42.0049V80.8681C46.2637 83.3487 43.4812 84.8449 41.4075 83.4537L35.6062 79.6081L32.4562 77.5212C31.4062 76.8387 30.0675 76.8387 29.0174 77.5212L25.7887 79.6606L20.0006 83.4668C17.9137 84.8581 15.1443 83.3618 15.1443 80.8812V42.0049H46.2637Z" fill="#EDF5FF"/>
<path d="M46.2637 42.0049V58.5555C44.9512 59.0937 43.8618 60.1043 43.2056 61.4299L43.1137 61.6268C41.5518 64.8424 37.4568 65.853 34.5825 63.7399H34.5693C33.5615 62.998 32.3427 62.5978 31.0912 62.5978C29.8397 62.5978 28.6209 62.998 27.6131 63.7399L27.4162 63.8712C24.5549 65.9843 20.4599 64.9868 18.8981 61.7712C18.5336 61.0127 18.0094 60.3421 17.3615 59.8052C16.7136 59.2683 15.9572 58.8778 15.1443 58.6605V42.0049H46.2637Z" fill="#D5E8FE"/>
<path d="M35.6059 44.9457V79.6089L32.4559 77.522C31.4059 76.8395 30.0671 76.8395 29.0171 77.522L25.7884 79.6614V44.9457H35.6059Z" fill="#D1D8E1"/>
<path d="M35.6059 44.9457V64.3314C35.2453 64.1701 34.9022 63.9722 34.5821 63.7407H34.569C33.5611 62.9988 32.3424 62.5986 31.0909 62.5986C29.8393 62.5986 28.6206 62.9988 27.6127 63.7407L27.4159 63.872C26.904 64.2526 26.3527 64.5282 25.7884 64.712V44.9457H35.6059Z" fill="#CDD4DF"/>
<path d="M59.3877 37.3328C59.7533 37.98 59.9716 38.6999 60.0274 39.4411C60.0831 40.1823 59.9748 40.9267 59.7101 41.6213C59.4454 42.3159 59.031 42.9437 58.4961 43.4599C57.9613 43.9761 57.3193 44.3681 56.6157 44.608V44.6211C55.5637 44.9805 54.6545 45.6676 54.0215 46.5814C53.3885 47.4953 53.0649 48.588 53.0982 49.6992L53.1113 49.9118C53.1328 50.6547 52.9907 51.3932 52.6951 52.075C52.3995 52.7569 51.9577 53.3654 51.4008 53.8576C50.8439 54.3497 50.1856 54.7134 49.4726 54.9229C48.7596 55.1324 48.0092 55.1826 47.2746 55.07C47.0141 55.0283 46.7509 55.0059 46.4871 55.003C45.5078 55.004 44.5485 55.2808 43.7191 55.8017C42.8897 56.3226 42.2238 57.0665 41.7976 57.9483L41.7188 58.1202C41.3935 58.7894 40.9249 59.3788 40.3463 59.8466C39.7678 60.3145 39.0934 60.6493 38.3709 60.8274C37.6485 61.0055 36.8957 61.0225 36.166 60.8772C35.4363 60.7319 34.7474 60.4278 34.1483 59.9866H34.1352C33.2402 59.3309 32.1596 58.9774 31.0501 58.9774C29.9407 58.9774 28.8601 59.3309 27.9651 59.9866L27.7919 60.106C27.194 60.5472 26.5064 60.8513 25.7777 60.9966C25.0491 61.1419 24.2974 61.125 23.5761 60.9469C22.8548 60.7689 22.1815 60.4341 21.6042 59.9664C21.0269 59.4988 20.5597 58.9096 20.2358 58.241C19.8081 57.3601 19.1417 56.6169 18.3123 56.0962C17.483 55.5755 16.5241 55.2982 15.5449 55.2957C15.2785 55.2957 15.0252 55.322 14.7587 55.3613L14.5592 55.3889C13.8247 55.5013 13.0744 55.4509 12.3615 55.2413C11.6485 55.0317 10.9904 54.668 10.4336 54.176C9.87675 53.6839 9.43487 53.0754 9.1392 52.3937C8.84352 51.7119 8.70128 50.9736 8.72252 50.2308V50.2176C8.75374 49.1072 8.43105 48.0157 7.80111 47.1007C7.17116 46.1858 6.26659 45.4948 5.21814 45.1278L5.01733 45.0752C4.31431 44.8325 3.67331 44.438 3.13979 43.9198C2.60627 43.4016 2.19329 42.7724 1.93013 42.0767C1.66698 41.3811 1.56009 40.636 1.61706 39.8945C1.67403 39.1529 1.89345 38.4329 2.25976 37.7856V37.7725C2.80691 36.8052 3.02963 35.688 2.89522 34.5849C2.76081 33.4817 2.27635 32.4507 1.51295 31.6431L1.38039 31.4961C0.870822 30.9555 0.48631 30.3095 0.254067 29.6039C0.0218229 28.8982 -0.0524754 28.1502 0.0364312 27.4126C0.125338 26.6751 0.375276 25.9661 0.768554 25.3358C1.16183 24.7056 1.68884 24.1695 2.31226 23.7655L2.32539 23.7523C3.25843 23.1504 3.97407 22.2654 4.36736 21.227C4.76065 20.1887 4.81088 19.0516 4.5107 17.9826L4.4582 17.7831C3.60508 14.7315 5.72346 11.6537 8.88133 11.3728H8.89446C10.0019 11.2702 11.0477 10.8168 11.8796 10.0786C12.7115 9.34045 13.2861 8.35602 13.5197 7.26864L13.5591 7.06914C14.2258 3.97819 17.5307 2.24569 20.4629 3.45713C21.0966 3.71996 21.7757 3.85597 22.4618 3.85744C23.2271 3.85714 23.983 3.68877 24.6761 3.36423C25.3692 3.03969 25.9825 2.56689 26.4728 1.97925L26.5922 1.81913C28.6174 -0.606376 32.3633 -0.606376 34.3885 1.81913V1.83225C35.1019 2.68313 36.0674 3.28505 37.1454 3.55096C38.2234 3.81688 39.3581 3.73299 40.3853 3.31144L40.5848 3.23138C43.5025 2.01863 46.8218 3.75113 47.4741 6.84207V6.8552C47.7093 7.94283 48.2862 8.92673 49.1205 9.66304C49.9548 10.3994 51.0028 10.8495 52.1112 10.9476L52.312 10.9738C55.4568 11.2534 57.5883 14.3325 56.7352 17.3828C56.6077 17.843 56.545 18.3188 56.5488 18.7963C56.5488 20.5288 57.415 22.1944 58.9218 23.167L59.095 23.2733C61.7594 24.9927 62.1991 28.7097 60.0269 31.017C59.2661 31.8289 58.7837 32.8619 58.6497 33.9664C58.5156 35.0709 58.7369 36.1893 59.2814 37.1596L59.3877 37.3328Z" fill="#FBB532"/>
<path d="M49.8371 30.8915C49.8371 41.4401 41.2835 49.991 30.7349 49.991C20.1851 49.991 11.6341 41.4401 11.6341 30.8915C11.6341 20.3429 20.1851 11.7906 30.7349 11.7906C41.2835 11.7906 49.8371 20.3416 49.8371 30.8915Z" fill="#E9A019"/>
<path d="M44.6172 31.1043C44.6172 35.685 38.3605 41.0229 35.1238 43.4786C34.5767 43.8925 33.9094 44.1165 33.2233 44.1165C32.5373 44.1165 31.87 43.8925 31.3228 43.4786C28.077 41.0229 21.8203 35.685 21.8203 31.1043C21.8198 30.1845 22.0006 29.2735 22.3524 28.4236C22.7042 27.5737 23.22 26.8014 23.8704 26.151C24.5209 25.5005 25.2931 24.9847 26.1431 24.6329C26.993 24.2811 27.904 24.1003 28.8238 24.1008C30.4907 24.1008 32.0171 24.6823 33.2233 25.6456C34.4654 24.64 36.0168 24.0943 37.615 24.1008C38.5347 24.1005 39.4455 24.2814 40.2953 24.6333C41.1451 24.9851 41.9172 25.501 42.5675 26.1514C43.2178 26.8018 43.7335 27.574 44.0852 28.4239C44.4369 29.2738 44.6177 30.1846 44.6172 31.1043Z" fill="#D89415"/>
<path d="M45.5465 18.8296C42.1413 16.0467 37.8771 14.5296 33.4794 14.5364C22.9308 14.5364 14.3799 23.0873 14.3799 33.6359C14.3799 38.21 15.9877 42.4087 18.6718 45.6978C16.4705 43.9093 14.6964 41.6519 13.4789 39.0904C12.2613 36.5288 11.6311 33.7277 11.6341 30.8915C11.6341 20.3416 20.1851 11.7906 30.735 11.7906C36.7068 11.7906 42.0435 14.5338 45.5465 18.8296Z" fill="#D89415"/>
<path d="M42.0722 29.3805C42.0722 33.9612 35.8168 39.2991 32.5789 41.7548C32.0319 42.1684 31.3648 42.3922 30.6791 42.3922C29.9933 42.3922 29.3262 42.1684 28.7792 41.7548C25.5334 39.3004 19.2767 33.9625 19.2767 29.3805C19.2762 28.4608 19.4569 27.55 19.8086 26.7001C20.1603 25.8503 20.6761 25.078 21.3264 24.4276C21.9767 23.7772 22.7488 23.2613 23.5986 22.9095C24.4484 22.5576 25.3592 22.3767 26.2789 22.377C27.9458 22.377 29.4735 22.9585 30.6784 23.9219C31.9205 22.9162 33.4719 22.3705 35.07 22.377C35.9899 22.3765 36.9008 22.5573 37.7508 22.9091C38.6007 23.2609 39.373 23.7767 40.0234 24.4272C40.6739 25.0776 41.1897 25.8499 41.5415 26.6998C41.8933 27.5497 42.0727 28.4607 42.0722 29.3805Z" fill="#FBB532"/>
</svg>
