<svg width="78" height="84" viewBox="0 0 78 84" fill="none" xmlns="http://www.w3.org/2000/svg">
<path fill-rule="evenodd" clip-rule="evenodd" d="M38.6112 0.344533L12.4857 15.428C11.6903 15.8874 11.235 16.676 11.235 17.5944V47.7616C11.235 48.6802 11.6903 49.4687 12.4857 49.9279L38.6112 65.0114C39.4068 65.4706 40.3172 65.4706 41.1127 65.0114L67.2383 49.9279C68.0338 49.4687 68.4892 48.68 68.4892 47.7616V17.5944C68.4892 16.676 68.0338 15.8872 67.2383 15.428L41.1127 0.344533C40.3172 -0.114844 39.4066 -0.114844 38.6112 0.344533Z" fill="#F2D1A5"/>
<path fill-rule="evenodd" clip-rule="evenodd" d="M38.6129 0.344402L12.4873 15.4279C12.0895 15.6575 11.777 15.9695 11.5637 16.339L39.8636 32.6779L68.1635 16.339C67.9502 15.9695 67.6377 15.6575 67.2399 15.4279L41.1143 0.344402C40.3188 -0.114801 39.4083 -0.114801 38.6129 0.344402Z" fill="#E3A76F"/>
<path fill-rule="evenodd" clip-rule="evenodd" d="M11.562 16.3388C11.3489 16.7082 11.235 17.1349 11.235 17.5941V47.7613C11.235 48.6797 11.6903 49.4684 12.4857 49.9276L38.6112 65.0111C39.009 65.2407 39.4355 65.3556 39.862 65.3556V32.6778L11.562 16.3388Z" fill="#ECBA78"/>
<path fill-rule="evenodd" clip-rule="evenodd" d="M58.3305 22.0171L50.0286 26.8102L21.4016 10.2824L29.7035 5.48932L58.3305 22.0171Z" fill="#C48958"/>
<path fill-rule="evenodd" clip-rule="evenodd" d="M51.9034 38.7444L57.0782 35.7567C57.8736 35.2975 58.3289 34.5088 58.3289 33.5904V22.0179L50.0271 26.811V37.6613C50.0271 38.1205 50.2547 38.5148 50.6525 38.7444C51.0503 38.9741 51.5056 38.974 51.9034 38.7444Z" fill="#E3A76F"/>
<path fill-rule="evenodd" clip-rule="evenodd" d="M52.4422 80.8264C39.0907 85.7721 24.9872 84.7441 13.0633 79.0914L12.0189 82.4407C11.993 82.5248 11.9463 82.6009 11.8832 82.6622C11.8201 82.7235 11.7426 82.7679 11.6578 82.7913C11.5731 82.8148 11.4838 82.8165 11.3981 82.7964C11.3125 82.7762 11.2334 82.7349 11.1679 82.6761C6.57116 78.568 0.487953 70.1943 0.00197549 62.7542C-0.0408998 62.0983 0.622004 61.6326 1.22453 61.8951C5.41091 63.7177 11.2883 64.4723 16.8955 64.5285C16.9775 64.529 17.0583 64.5487 17.1313 64.5861C17.2043 64.6235 17.2674 64.6775 17.3157 64.7438C17.364 64.8101 17.396 64.8868 17.4091 64.9678C17.4223 65.0487 17.4162 65.1316 17.3915 65.2098L16.1087 69.3239C28.7181 75.6344 44.7307 75.975 58.3044 70.9468C65.0764 68.4384 71.0492 64.8138 76.0254 60.4344C76.634 59.8987 77.5195 60.6722 77.071 61.3472C71.3347 69.9847 62.9096 76.949 52.4422 80.8264Z" fill="#FBB532"/>
<path fill-rule="evenodd" clip-rule="evenodd" d="M52.4427 80.8262C39.0911 85.7719 24.9876 84.7439 13.0638 79.0912L12.0194 82.4406C11.9934 82.5246 11.9467 82.6008 11.8836 82.662C11.8205 82.7233 11.743 82.7677 11.6583 82.7912C11.5735 82.8146 11.4842 82.8163 11.3986 82.7962C11.3129 82.7761 11.2338 82.7347 11.1683 82.6759C10.4974 82.0764 9.79492 81.3853 9.08267 80.6204C9.19519 80.7243 9.30737 80.8269 9.41814 80.9259C9.48356 80.9847 9.56273 81.0261 9.64834 81.0462C9.73394 81.0663 9.82324 81.0646 9.908 81.0412C9.99277 81.0177 10.0703 80.9733 10.1333 80.912C10.1964 80.8508 10.2431 80.7746 10.269 80.6906L11.3134 77.3412C23.2373 82.9939 37.3408 84.0219 50.6923 79.0762C59.7243 75.7305 67.2355 70.0862 72.8112 63.052C73.9156 62.2206 74.9878 61.3475 76.0256 60.4344C76.6343 59.8987 77.5198 60.6722 77.0713 61.3472C71.3351 69.9845 62.91 76.9489 52.4427 80.8262ZM15.3194 64.4942L14.1062 68.3848C14.766 68.7144 15.4339 69.0275 16.1093 69.3237L17.3921 65.2096C17.4168 65.1314 17.4227 65.0486 17.4095 64.9676C17.3963 64.8867 17.3643 64.81 17.3161 64.7438C17.2678 64.6775 17.2047 64.6235 17.1317 64.586C17.0588 64.5486 16.9781 64.5289 16.8961 64.5283C16.3704 64.5232 15.8448 64.5118 15.3194 64.4942Z" fill="#E9A019"/>
</svg>
