<svg width="84" height="84" viewBox="0 0 84 84" fill="none" xmlns="http://www.w3.org/2000/svg">
<path d="M66.6124 49.4346V7.25164C66.6101 6.48423 66.3042 5.74891 65.7615 5.20626C65.2189 4.66362 64.4836 4.35775 63.7162 4.35545H2.89619C2.12878 4.35775 1.39345 4.66362 0.850806 5.20626C0.308161 5.74891 0.00229194 6.48423 0 7.25164V78.2083C0.00229194 78.9757 0.308161 79.711 0.850806 80.2537C1.39345 80.7963 2.12878 81.1022 2.89619 81.1045H41.6617L66.6124 49.4346Z" fill="#FBB532"/>
<path d="M40.9369 75.3123H7.23971C6.85566 75.3123 6.48733 75.1597 6.21576 74.8882C5.94419 74.6166 5.79162 74.2483 5.79162 73.8642V11.5961C5.79162 11.2121 5.94419 10.8438 6.21576 10.5722C6.48733 10.3006 6.85566 10.1481 7.23971 10.1481H59.3711C59.7552 10.1481 60.1235 10.3006 60.3951 10.5722C60.6667 10.8438 60.8192 11.2121 60.8192 11.5961V47.9723L40.9369 75.3123Z" fill="#F4F9F9"/>
<path d="M21.7199 18.8365H14.4794C12.8799 18.8365 11.5832 20.1331 11.5832 21.7326V28.9731C11.5832 30.5726 12.8799 31.8693 14.4794 31.8693H21.7199C23.3194 31.8693 24.6161 30.5726 24.6161 28.9731V21.7326C24.6161 20.1331 23.3194 18.8365 21.7199 18.8365Z" fill="#6AC579"/>
<path d="M21.7199 37.6622H14.4794C12.8799 37.6622 11.5832 38.9588 11.5832 40.5583V47.7988C11.5832 49.3983 12.8799 50.695 14.4794 50.695H21.7199C23.3194 50.695 24.6161 49.3983 24.6161 47.7988V40.5583C24.6161 38.9588 23.3194 37.6622 21.7199 37.6622Z" fill="#6AC579"/>
<path d="M21.7199 56.4869H14.4794C12.8799 56.4869 11.5832 57.7835 11.5832 59.3831V66.6235C11.5832 68.2231 12.8799 69.5197 14.4794 69.5197H21.7199C23.3194 69.5197 24.6161 68.2231 24.6161 66.6235V59.3831C24.6161 57.7835 23.3194 56.4869 21.7199 56.4869Z" fill="#6AC579"/>
<path d="M67.7599 50.7593L82.9243 73.952C83.5643 74.9362 83.9258 76.0752 83.9707 77.2483C84.0156 78.4214 83.7421 79.5848 83.1793 80.615C82.6164 81.6452 81.7852 82.5039 80.7738 83.0999C79.7624 83.6959 78.6085 84.0071 77.4346 84.0003H47.1057C45.9318 84.0071 44.7779 83.6959 43.7665 83.0999C42.7551 82.5039 41.9239 81.6452 41.361 80.615C40.7982 79.5848 40.5247 78.4214 40.5696 77.2483C40.6145 76.0752 40.976 74.9362 41.616 73.952L56.7804 50.7593C57.3783 49.8493 58.193 49.1022 59.1513 48.5852C60.1096 48.0682 61.1813 47.7975 62.2702 47.7975C63.359 47.7975 64.4307 48.0682 65.389 48.5852C66.3473 49.1022 67.162 49.8493 67.7599 50.7593Z" fill="#FF435B"/>
<path d="M43.4437 4.35508V10.1475C43.4437 10.5315 43.2912 10.8998 43.0196 11.1714C42.748 11.443 42.3797 11.5956 41.9956 11.5956H24.6185C24.2344 11.5956 23.8661 11.443 23.5945 11.1714C23.323 10.8998 23.1704 10.5315 23.1704 10.1475V4.35508C23.1704 3.97102 23.323 3.60269 23.5945 3.33112C23.8661 3.05955 24.2344 2.90698 24.6185 2.90698H26.7761C27.5603 1.94462 28.5603 1.1808 29.6951 0.677574C30.8299 0.174344 32.0674 -0.0541025 33.3071 0.0107927C34.5467 -0.0541025 35.7842 0.174344 36.919 0.677574C38.0538 1.1808 39.0538 1.94462 39.838 2.90698H41.9956C42.3797 2.90698 42.748 3.05955 43.0196 3.33112C43.2912 3.60269 43.4437 3.97102 43.4437 4.35508Z" fill="#D4E6E7"/>
<path d="M18.8249 27.5241C18.4409 27.524 18.0726 27.3714 17.8011 27.0998L16.353 25.6517C16.0892 25.3786 15.9433 25.0128 15.9466 24.6331C15.9499 24.2534 16.1022 23.8902 16.3707 23.6217C16.6391 23.3532 17.0023 23.2009 17.382 23.1976C17.7617 23.1943 18.1275 23.3403 18.4006 23.6041L18.8249 24.0284L25.0416 17.8117C25.3147 17.5479 25.6805 17.4019 26.0602 17.4052C26.4399 17.4085 26.8031 17.5608 27.0715 17.8293C27.34 18.0978 27.4923 18.461 27.4956 18.8407C27.4989 19.2204 27.353 19.5862 27.0892 19.8593L19.8487 27.0998C19.5772 27.3714 19.2089 27.524 18.8249 27.5241ZM18.8249 46.3493C18.4409 46.3492 18.0726 46.1966 17.8011 45.925L16.353 44.4769C16.0892 44.2038 15.9433 43.838 15.9466 43.4583C15.9499 43.0786 16.1022 42.7154 16.3707 42.4469C16.6391 42.1784 17.0023 42.0261 17.382 42.0228C17.7617 42.0195 18.1275 42.1655 18.4006 42.4293L18.8249 42.8536L25.0416 36.6369C25.3147 36.3731 25.6805 36.2272 26.0602 36.2305C26.4399 36.2338 26.8031 36.3861 27.0715 36.6546C27.34 36.923 27.4923 37.2862 27.4956 37.6659C27.4989 38.0456 27.353 38.4114 27.0892 38.6845L19.8487 45.925C19.5772 46.1966 19.2089 46.3492 18.8249 46.3493ZM18.8249 65.1745C18.4409 65.1744 18.0726 65.0218 17.8011 64.7502L16.353 63.3021C16.0892 63.029 15.9433 62.6632 15.9466 62.2835C15.9499 61.9038 16.1022 61.5406 16.3707 61.2722C16.6391 61.0037 17.0023 60.8514 17.382 60.8481C17.7617 60.8448 18.1275 60.9907 18.4006 61.2545L18.8249 61.6788L25.0416 55.4621C25.3147 55.1984 25.6805 55.0524 26.0602 55.0557C26.4399 55.059 26.8031 55.2113 27.0715 55.4798C27.34 55.7483 27.4923 56.1115 27.4956 56.4912C27.4989 56.8708 27.353 57.2366 27.0892 57.5097L19.8487 64.7502C19.5772 65.0218 19.2089 65.1744 18.8249 65.1745Z" fill="#55A060"/>
<path d="M40.5466 23.1815H31.858C31.4739 23.1815 31.1056 23.029 30.834 22.7574C30.5625 22.4858 30.4099 22.1175 30.4099 21.7334C30.4099 21.3494 30.5625 20.981 30.834 20.7095C31.1056 20.4379 31.4739 20.2853 31.858 20.2853H40.5466C40.9306 20.2853 41.299 20.4379 41.5705 20.7095C41.8421 20.981 41.9947 21.3494 41.9947 21.7334C41.9947 22.1175 41.8421 22.4858 41.5705 22.7574C41.299 23.029 40.9306 23.1815 40.5466 23.1815ZM53.5794 30.422H31.858C31.4739 30.422 31.1056 30.2694 30.834 29.9979C30.5625 29.7263 30.4099 29.358 30.4099 28.9739C30.4099 28.5899 30.5625 28.2215 30.834 27.95C31.1056 27.6784 31.4739 27.5258 31.858 27.5258H53.5794C53.9635 27.5258 54.3318 27.6784 54.6034 27.95C54.875 28.2215 55.0275 28.5899 55.0275 28.9739C55.0275 29.358 54.875 29.7263 54.6034 29.9979C54.3318 30.2694 53.9635 30.422 53.5794 30.422ZM40.5466 42.0068H31.858C31.4739 42.0068 31.1056 41.8542 30.834 41.5826C30.5625 41.3111 30.4099 40.9427 30.4099 40.5587C30.4099 40.1746 30.5625 39.8063 30.834 39.5347C31.1056 39.2631 31.4739 39.1106 31.858 39.1106H40.5466C40.9306 39.1106 41.299 39.2631 41.5705 39.5347C41.8421 39.8063 41.9947 40.1746 41.9947 40.5587C41.9947 40.9427 41.8421 41.3111 41.5705 41.5826C41.299 41.8542 40.9306 42.0068 40.5466 42.0068ZM50.6832 49.2472H31.858C31.4739 49.2472 31.1056 49.0947 30.834 48.8231C30.5625 48.5515 30.4099 48.1832 30.4099 47.7991C30.4099 47.4151 30.5625 47.0468 30.834 46.7752C31.1056 46.5036 31.4739 46.351 31.858 46.351H50.6832C51.0673 46.351 51.4356 46.5036 51.7072 46.7752C51.9788 47.0468 52.1313 47.4151 52.1313 47.7991C52.1313 48.1832 51.9788 48.5515 51.7072 48.8231C51.4356 49.0947 51.0673 49.2472 50.6832 49.2472ZM40.5466 60.832H31.858C31.4739 60.832 31.1056 60.6794 30.834 60.4079C30.5625 60.1363 30.4099 59.768 30.4099 59.3839C30.4099 58.9998 30.5625 58.6315 30.834 58.3599C31.1056 58.0884 31.4739 57.9358 31.858 57.9358H40.5466C40.9306 57.9358 41.299 58.0884 41.5705 58.3599C41.8421 58.6315 41.9947 58.9998 41.9947 59.3839C41.9947 59.768 41.8421 60.1363 41.5705 60.4079C41.299 60.6794 40.9306 60.832 40.5466 60.832ZM39.0985 68.0725H31.858C31.4739 68.0725 31.1056 67.9199 30.834 67.6483C30.5625 67.3768 30.4099 67.0084 30.4099 66.6244C30.4099 66.2403 30.5625 65.872 30.834 65.6004C31.1056 65.3288 31.4739 65.1763 31.858 65.1763H39.0985C39.4825 65.1763 39.8509 65.3288 40.1224 65.6004C40.394 65.872 40.5466 66.2403 40.5466 66.6244C40.5466 67.0084 40.394 67.3768 40.1224 67.6483C39.8509 67.9199 39.4825 68.0725 39.0985 68.0725Z" fill="#AAC7C8"/>
<path d="M62.2679 70.9682C61.8839 70.9682 61.5155 70.8156 61.244 70.5441C60.9724 70.2725 60.8198 69.9042 60.8198 69.5201V55.0392C60.8198 54.6551 60.9724 54.2868 61.244 54.0152C61.5155 53.7436 61.8839 53.5911 62.2679 53.5911C62.652 53.5911 63.0203 53.7436 63.2919 54.0152C63.5635 54.2868 63.716 54.6551 63.716 55.0392V69.5201C63.716 69.9042 63.5635 70.2725 63.2919 70.5441C63.0203 70.8156 62.652 70.9682 62.2679 70.9682ZM62.2679 78.2087C61.8839 78.2087 61.5155 78.0561 61.244 77.7845C60.9724 77.513 60.8198 77.1446 60.8198 76.7606V75.3125C60.8198 74.9284 60.9724 74.5601 61.244 74.2885C61.5155 74.017 61.8839 73.8644 62.2679 73.8644C62.652 73.8644 63.0203 74.017 63.2919 74.2885C63.5635 74.5601 63.716 74.9284 63.716 75.3125V76.7606C63.716 77.1446 63.5635 77.513 63.2919 77.7845C63.0203 78.0561 62.652 78.2087 62.2679 78.2087Z" fill="white"/>
</svg>
