<svg width="97" height="33" viewBox="0 0 97 33" fill="none" xmlns="http://www.w3.org/2000/svg">
<path d="M69.1332 24.8124V0H74.1453V24.8124H69.1332Z" fill="#545C79" fill-opacity="0.5"/>
<path d="M10.7402 32.1829H0V7.37053H10.3106C15.3227 7.37053 18.2369 10.0863 18.2369 14.3417C18.2369 17.093 16.3609 18.875 15.0649 19.4666C16.6115 20.1652 18.5949 21.7333 18.5949 25.0407C18.5949 29.6739 15.3155 32.1829 10.7402 32.1829ZM9.90963 11.6901H5.00494V17.4067H9.90963C12.0362 17.4067 13.2248 16.2591 13.2248 14.5484C13.2248 12.8448 12.0362 11.6901 9.90963 11.6901ZM10.2318 21.7618H5.00494V27.8634H10.2318C12.5016 27.8634 13.5828 26.4734 13.5828 24.7983C13.5828 23.1233 12.5016 21.769 10.2318 21.769V21.7618Z" fill="#545C79" fill-opacity="0.5"/>
<path d="M33.8822 22.0042V32.1829H28.9059V22.0042L21.1944 7.37053H26.6361L31.4263 17.371L36.152 7.37053H41.5937L33.8822 22.0042Z" fill="#545C79" fill-opacity="0.5"/>
<path d="M55.8004 32.1829H45.0602V7.37053H55.3708C60.3829 7.37053 63.297 10.0863 63.297 14.3417C63.297 17.093 61.4211 18.875 60.1251 19.4666C61.6717 20.1652 63.655 21.7333 63.655 25.0407C63.655 29.6739 60.3757 32.1829 55.8004 32.1829ZM54.9698 11.6901H50.0651V17.4067H54.9698C57.0963 17.4067 58.2849 16.2591 58.2849 14.5484C58.2849 12.8448 57.0963 11.6901 54.9698 11.6901ZM55.292 21.7618H50.0651V27.8634H55.292C57.5618 27.8634 58.6429 26.4734 58.6429 24.7983C58.6429 23.1233 57.5618 21.769 55.292 21.769V21.7618Z" fill="#545C79" fill-opacity="0.5"/>
<path d="M90.2886 11.6901V32.1829H85.2837V11.6901H78.5747V7.37053H96.9977V11.6901H90.2886Z" fill="#545C79" fill-opacity="0.5"/>
</svg>
