<svg width="84" height="84" viewBox="0 0 84 84" fill="none" xmlns="http://www.w3.org/2000/svg">
<path d="M83.9982 79.6537C83.9982 82.0535 78.8106 83.9985 72.4122 83.9985C66.0139 83.9985 60.8262 82.0535 60.8262 79.6537V44.8957H83.9982V79.6537Z" fill="#FFD54F"/>
<path d="M76.7567 44.8957V83.6798C81.0001 83.0354 83.998 81.4771 83.998 79.6537V44.8957H76.7567Z" fill="#FFCA28"/>
<path d="M23.172 79.6541C23.172 82.0538 17.9844 83.9988 11.586 83.9988C5.18763 83.9988 0 82.0538 0 79.6541V62.2751H23.172V79.6541Z" fill="#FFD54F"/>
<path d="M23.1717 62.2751V79.6541C23.1717 81.4789 20.1739 83.043 15.9305 83.6802V62.2751H23.1717Z" fill="#FFCA28"/>
<path d="M53.5851 79.6534C53.5851 82.0532 48.3975 83.9981 41.9991 83.9981C35.6007 83.9981 30.4131 82.0532 30.4131 79.6534V53.5849H53.5851V79.6534Z" fill="#FFD54F"/>
<path d="M53.5851 79.6534C53.5851 82.0532 48.3975 83.9981 41.9991 83.9981C35.6007 83.9981 30.4131 82.0532 30.4131 79.6534V53.5849H53.5851V79.6534Z" fill="#FFD54F"/>
<path d="M53.5849 53.5849V79.6534C53.5849 81.4782 50.587 83.0423 46.3436 83.6795V53.5849H53.5849Z" fill="#FFCA28"/>
<path d="M23.172 70.9643V79.6538C23.172 82.0579 17.9873 83.9985 11.586 83.9985C5.18473 83.9985 0 82.0579 0 79.6538V70.9643C0 73.3684 5.18473 75.309 11.586 75.309C17.9873 75.309 23.172 73.3684 23.172 70.9643Z" fill="#FFB74D"/>
<path d="M23.172 70.9643V79.6538C23.172 82.0579 17.9873 83.9985 11.586 83.9985C5.18473 83.9985 0 82.0579 0 79.6538V75.309C0 77.7131 5.18473 79.6538 11.586 79.6538H11.6961C12.8318 79.6332 13.9136 79.1654 14.7065 78.3519C15.4994 77.5384 15.9393 76.4449 15.9307 75.309V74.9904C20.1741 74.3532 23.172 72.7891 23.172 70.9643Z" fill="#FFA726"/>
<path d="M53.5851 70.9643V79.6538C53.5851 82.0579 48.4004 83.9985 41.9991 83.9985C35.5978 83.9985 30.4131 82.0579 30.4131 79.6538V75.309C30.4131 77.7131 35.5978 79.6538 41.9991 79.6538H42.1092C43.245 79.6332 44.3268 79.1654 45.1196 78.3519C45.9125 77.5384 46.3524 76.4449 46.3439 75.309V74.9904C50.5872 74.3532 53.5851 72.7891 53.5851 70.9643Z" fill="#FFCA28"/>
<path d="M53.5851 62.2751V70.9646C53.5851 73.3687 48.4004 75.3093 41.9991 75.3093C35.5978 75.3093 30.4131 73.3687 30.4131 70.9646V62.2751C30.4131 64.6792 35.5978 66.6198 41.9991 66.6198C48.4004 66.6198 53.5851 64.6792 53.5851 62.2751Z" fill="#FFB74D"/>
<path d="M53.5849 62.2751V70.9646C53.5849 72.7894 50.587 74.3535 46.3436 74.9907V66.3012C50.587 65.664 53.5849 64.0999 53.5849 62.2751Z" fill="#FFA726"/>
<path d="M83.9982 53.5849V62.2744C83.9982 64.6785 78.8135 66.6192 72.4122 66.6192C66.011 66.6192 60.8262 64.6785 60.8262 62.2744V53.5849C60.8262 55.989 66.011 57.9297 72.4122 57.9297C78.8135 57.9297 83.9982 55.989 83.9982 53.5849Z" fill="#FFB74D"/>
<path d="M83.998 53.5849V62.2744C83.998 64.0992 81.0001 65.6633 76.7567 66.3005V57.6111C81.0001 56.9738 83.998 55.4097 83.998 53.5849Z" fill="#FFA726"/>
<path d="M83.9982 70.9643V79.6538C83.9982 82.0579 78.8135 83.9985 72.4122 83.9985C66.011 83.9985 60.8262 82.0579 60.8262 79.6538V70.9643C60.8262 73.3684 66.011 75.309 72.4122 75.309C78.8135 75.309 83.9982 73.3684 83.9982 70.9643Z" fill="#FFB74D"/>
<path d="M11.586 66.619C17.9848 66.619 23.172 64.6738 23.172 62.2743C23.172 59.8747 17.9848 57.9295 11.586 57.9295C5.18722 57.9295 0 59.8747 0 62.2743C0 64.6738 5.18722 66.619 11.586 66.619Z" fill="#FFB74D"/>
<path d="M41.9991 57.9298C48.3979 57.9298 53.5851 55.9846 53.5851 53.5851C53.5851 51.1855 48.3979 49.2403 41.9991 49.2403C35.6003 49.2403 30.4131 51.1855 30.4131 53.5851C30.4131 55.9846 35.6003 57.9298 41.9991 57.9298Z" fill="#FFB74D"/>
<path d="M72.4122 49.2406C78.811 49.2406 83.9982 47.2954 83.9982 44.8959C83.9982 42.4964 78.811 40.5512 72.4122 40.5512C66.0135 40.5512 60.8262 42.4964 60.8262 44.8959C60.8262 47.2954 66.0135 49.2406 72.4122 49.2406Z" fill="#FFB74D"/>
<path d="M76.7561 0H60.8253C60.4412 0 60.0728 0.152583 59.8012 0.424182C59.5296 0.695782 59.3771 1.06415 59.3771 1.44825V4.34475C59.3771 4.72885 59.5296 5.09721 59.8012 5.36881C60.0728 5.64041 60.4412 5.793 60.8253 5.793H69.5148L47.7911 27.5167L37.4042 17.1299C36.3179 16.0439 34.8447 15.4338 33.3086 15.4338C31.7725 15.4338 30.2993 16.0439 29.2129 17.1299L4.34361 41.9992L8.68836 46.344L33.3086 21.7237L43.6954 32.1106C44.7818 33.1966 46.255 33.8067 47.7911 33.8067C49.3272 33.8067 50.8004 33.1966 51.8867 32.1106L73.8596 10.1377V18.8272C73.8596 19.2113 74.0121 19.5797 74.2837 19.8513C74.5553 20.1229 74.9237 20.2755 75.3078 20.2755H78.2043C78.5884 20.2755 78.9568 20.1229 79.2284 19.8513C79.5 19.5797 79.6526 19.2113 79.6526 18.8272V2.8965C79.6526 2.1283 79.3474 1.39156 78.8042 0.848364C78.261 0.305166 77.5243 0 76.7561 0Z" fill="#6AC579"/>
<path d="M74.9768 7.45901C74.4471 7.23807 73.8633 7.18069 73.3007 7.29425C72.7381 7.40781 72.2223 7.68712 71.8197 8.09624L49.8352 30.0662C49.2841 30.5894 48.5531 30.8811 47.7932 30.8811C47.0333 30.8811 46.3023 30.5894 45.7512 30.0662L35.3528 19.6822C35.0866 19.4106 34.7689 19.1947 34.4182 19.0474C34.0676 18.9001 33.6911 18.8242 33.3107 18.8242C32.9304 18.8242 32.5539 18.9001 32.2032 19.0474C31.8526 19.1947 31.5349 19.4106 31.2687 19.6822L6.64847 44.3025L8.6905 46.3445L33.3107 21.7243L43.6947 32.1082C44.7828 33.1932 46.2566 33.8024 47.7932 33.8024C49.3298 33.8024 50.8037 33.1932 51.8918 32.1082L73.8617 10.1383V18.8278C73.8628 19.2115 74.0158 19.5792 74.2871 19.8506C74.5585 20.1219 74.9262 20.2749 75.3099 20.276H76.7582V10.1383C76.7575 9.56603 76.5881 9.0067 76.2713 8.53017C75.9545 8.05365 75.5042 7.68107 74.9768 7.45901Z" fill="#55A060"/>
<path d="M83.9982 70.9643V79.6538C83.9982 82.0579 78.8135 83.9985 72.4122 83.9985C66.011 83.9985 60.8262 82.0579 60.8262 79.6538V75.309C60.8262 77.7131 66.011 79.6538 72.4122 79.6538H72.5223C73.6581 79.6332 74.7399 79.1654 75.5328 78.3519C76.3256 77.5384 76.7656 76.4449 76.757 75.309V74.9904C81.0003 74.3532 83.9982 72.7891 83.9982 70.9643Z" fill="#FFA726"/>
</svg>
