<svg width="472" height="472" viewBox="0 0 472 472" fill="none" xmlns="http://www.w3.org/2000/svg">
<g opacity="0.11">
<path d="M235.999 471.998C366.338 471.998 471.998 366.338 471.998 235.999C471.998 105.66 366.338 0 235.999 0C105.66 0 0 105.66 0 235.999C0 366.338 105.66 471.998 235.999 471.998Z" fill="#039BE5"/>
<path d="M107.975 230.89L335.517 143.157C346.078 139.342 355.302 145.733 351.88 161.703L351.9 161.683L313.157 344.209C310.285 357.149 302.596 360.296 291.838 354.199L232.838 310.716L204.381 338.132C201.234 341.278 198.579 343.933 192.482 343.933L196.671 283.891L306.018 185.106C310.777 180.917 304.956 178.557 298.682 182.726L163.553 267.804L105.3 249.632C92.6548 245.62 92.3795 236.986 107.975 230.89Z" fill="white"/>
</g>
</svg>
