<svg width="13" height="24" viewBox="0 0 13 24" fill="none" xmlns="http://www.w3.org/2000/svg">
<path fill-rule="evenodd" clip-rule="evenodd" d="M9.86731 14.1126H4.72446C5.34246 16.234 7.03446 17.3333 9.19231 17.3333C9.87674 17.3333 10.6752 17.2746 11.0557 17.1679V19.0261C10.6469 19.1427 9.85788 19.2207 9.19231 19.2207C5.90346 19.2207 3.25103 17.4691 2.52846 14.113H0.570312V13.0133H2.36688C2.33964 12.7384 2.32705 12.4623 2.32917 12.1861C2.32917 11.8947 2.3386 11.6123 2.36688 11.3401H0.570312V10.2404H2.52888C3.2506 6.88429 5.91246 5.14258 9.18246 5.14258C9.82874 5.14258 10.6559 5.23986 11.0459 5.36629V7.21472C10.637 7.11743 9.85746 7.03986 9.20131 7.03986C7.05331 7.03986 5.35146 8.12929 4.73346 10.2404H9.86688V11.3401H4.51531C4.48496 11.6213 4.46922 11.9038 4.46817 12.1866C4.46817 12.478 4.48703 12.7506 4.50588 13.0137H9.86731V14.1126Z" fill="white"/>
</svg>
