<svg width="722" height="448" viewBox="0 0 722 448" fill="none" xmlns="http://www.w3.org/2000/svg">
<rect x="88.7609" y="0.75" width="555.422" height="379.492" rx="10.4951" fill="url(#paint0_linear_0_425)" stroke="#FEC500" stroke-width="1.5"/>
<path d="M127.832 27.7819C130.583 27.7819 132.814 25.5515 132.814 22.8002C132.814 20.0488 130.583 17.8184 127.832 17.8184C125.08 17.8184 122.85 20.0488 122.85 22.8002C122.85 25.5515 125.08 27.7819 127.832 27.7819Z" fill="white"/>
<g filter="url(#filter0_i_0_425)">
<path d="M132.815 25.408V29.7067C132.815 30.1462 132.457 30.5044 132.017 30.5044H126.539C126.171 30.5044 125.851 30.2512 125.765 29.893C125.173 27.4332 123.229 25.5083 120.764 24.9304C120.406 24.8444 120.148 24.5244 120.148 24.1566V18.6972C120.148 18.2578 120.506 17.8996 120.946 17.8996H125.306C129.452 17.8996 132.815 21.2621 132.815 25.4128V25.408Z" fill="white"/>
</g>
<g filter="url(#filter1_i_0_425)">
<path d="M131.741 33.3131C132.248 33.3131 132.635 33.7812 132.53 34.2779C131.192 40.64 125.403 45.3734 118.573 45.0438C111.643 44.7143 106.002 39.0734 105.667 32.1429C105.343 25.3318 110.042 19.5572 116.376 18.2055C116.873 18.1004 117.346 18.4825 117.346 18.9936V24.4529C117.346 24.7777 117.15 25.0739 116.849 25.1933C114.131 26.2297 112.263 28.9714 112.55 32.1142C112.841 35.2953 115.416 37.8745 118.602 38.1659C121.754 38.4524 124.515 36.561 125.537 33.8146C125.652 33.5089 125.953 33.3131 126.277 33.3131H131.746H131.741Z" fill="#FEC500"/>
</g>
<g filter="url(#filter2_i_0_425)">
<path d="M128.081 31.1857C128.081 31.0486 127.925 30.9374 127.732 30.9374C127.539 30.9374 127.382 31.0486 127.382 31.1857V31.9261C127.382 32.0633 127.539 32.1745 127.732 32.1745C127.925 32.1745 128.081 32.0633 128.081 31.9261V31.1857Z" fill="#FFFDF8"/>
</g>
<g filter="url(#filter3_i_0_425)">
<path d="M129.669 31.1857C129.669 31.0486 129.513 30.9374 129.32 30.9374C129.127 30.9374 128.97 31.0486 128.97 31.1857V32.7858C128.97 32.923 129.127 33.0342 129.32 33.0342C129.513 33.0342 129.669 32.923 129.669 32.7858V31.1857Z" fill="#FFFDF8"/>
</g>
<g filter="url(#filter4_i_0_425)">
<path d="M131.261 31.1857C131.261 31.0486 131.104 30.9374 130.911 30.9374C130.718 30.9374 130.562 31.0486 130.562 31.1857V31.9261C130.562 32.0633 130.718 32.1745 130.911 32.1745C131.104 32.1745 131.261 32.0633 131.261 31.9261V31.1857Z" fill="#FFFDF8"/>
</g>
<g filter="url(#filter5_i_0_425)">
<path d="M119.54 20.0064C119.677 20.0064 119.788 19.8499 119.788 19.6569C119.788 19.4639 119.677 19.3074 119.54 19.3074L118.799 19.3074C118.662 19.3074 118.551 19.4639 118.551 19.6569C118.551 19.8499 118.662 20.0064 118.799 20.0064L119.54 20.0064Z" fill="#FFFDF8"/>
</g>
<g filter="url(#filter6_i_0_425)">
<path d="M119.54 21.5951C119.677 21.5951 119.788 21.4386 119.788 21.2456C119.788 21.0525 119.677 20.896 119.54 20.896L117.94 20.896C117.802 20.896 117.691 21.0525 117.691 21.2456C117.691 21.4386 117.802 21.5951 117.94 21.5951L119.54 21.5951Z" fill="#FFFDF8"/>
</g>
<g filter="url(#filter7_i_0_425)">
<path d="M119.54 23.1838C119.677 23.1838 119.788 23.0273 119.788 22.8342C119.788 22.6412 119.677 22.4847 119.54 22.4847L118.799 22.4847C118.662 22.4847 118.551 22.6412 118.551 22.8342C118.551 23.0273 118.662 23.1838 118.799 23.1838L119.54 23.1838Z" fill="#FFFDF8"/>
</g>
<path d="M143.522 39.984C142.896 39.984 142.294 39.9076 141.716 39.75C141.138 39.578 140.608 39.344 140.126 39.0479C139.806 38.8377 139.51 38.6037 139.242 38.341C139.022 38.1213 139.018 37.7678 139.237 37.5481L140.107 36.6788C140.317 36.4686 140.651 36.4639 140.871 36.6645C141.167 36.9367 141.487 37.1517 141.836 37.3141C142.352 37.5338 142.93 37.6436 143.57 37.6436C144.147 37.6436 144.582 37.5576 144.883 37.3857C145.179 37.2138 145.327 36.9654 145.327 36.6358C145.327 36.3062 145.189 36.0292 144.907 35.8382C144.625 35.6519 144.257 35.4943 143.808 35.3701C143.369 35.2316 142.901 35.0883 142.404 34.9498C141.922 34.8112 141.454 34.6202 141 34.3861C140.56 34.1378 140.202 33.7987 139.92 33.3783C139.639 32.958 139.5 32.4087 139.5 31.74C139.5 31.0236 139.662 30.4074 139.992 29.8916C140.336 29.3757 140.814 28.9793 141.42 28.6975C142.046 28.4157 142.786 28.2772 143.646 28.2772C144.553 28.2772 145.346 28.4396 146.034 28.7692C146.574 29.008 147.047 29.3471 147.448 29.7817C147.653 30.0015 147.644 30.3453 147.434 30.5555L146.555 31.4344C146.34 31.6493 146.001 31.6445 145.781 31.4344C145.561 31.2242 145.299 31.0475 145.031 30.9185C144.611 30.7179 144.124 30.6128 143.579 30.6128C143.063 30.6128 142.667 30.6892 142.385 30.8469C142.103 31.0045 141.965 31.229 141.965 31.5251C141.965 31.8356 142.103 32.0792 142.385 32.2511C142.667 32.4231 143.025 32.5711 143.464 32.6953C143.918 32.8195 144.386 32.9628 144.869 33.1156C145.37 33.2542 145.838 33.4595 146.273 33.7222C146.727 33.9706 147.094 34.3145 147.372 34.7539C147.653 35.1742 147.792 35.7283 147.792 36.4161C147.792 37.5099 147.41 38.3744 146.646 39.0144C145.881 39.6545 144.84 39.9745 143.531 39.9745L143.522 39.984ZM155.081 39.984C153.972 39.984 152.965 39.7261 152.062 39.2103C151.174 38.6944 150.471 37.9923 149.956 37.1039C149.44 36.2155 149.182 35.222 149.182 34.1282C149.182 33.0344 149.44 32.0266 149.956 31.1526C150.471 30.2642 151.174 29.562 152.062 29.0462C152.969 28.5303 153.972 28.2724 155.081 28.2724C155.955 28.2724 156.767 28.4444 157.517 28.7883C158.104 29.0414 158.62 29.3757 159.069 29.8056C159.293 30.0206 159.303 30.3788 159.083 30.6033L158.166 31.5347C157.961 31.7448 157.631 31.7496 157.407 31.5585C157.163 31.3532 156.886 31.186 156.58 31.0666C156.127 30.866 155.63 30.7609 155.081 30.7609C154.441 30.7609 153.872 30.909 153.371 31.2051C152.888 31.4869 152.506 31.8786 152.224 32.3753C151.957 32.8768 151.828 33.4595 151.828 34.133C151.828 34.8065 151.962 35.3749 152.224 35.8907C152.506 36.3922 152.888 36.7887 153.371 37.0848C153.872 37.3666 154.441 37.5051 155.081 37.5051C155.625 37.5051 156.127 37.4096 156.58 37.2233C156.886 37.0896 157.158 36.9224 157.402 36.7122C157.626 36.5212 157.956 36.5212 158.166 36.7313L159.083 37.6627C159.303 37.8824 159.293 38.2407 159.069 38.4556C158.62 38.8855 158.099 39.2294 157.512 39.4969C156.762 39.8264 155.95 39.9888 155.076 39.9888L155.081 39.984ZM165.794 39.984C164.781 39.984 163.86 39.7261 163.028 39.2103C162.216 38.6944 161.567 38.0019 161.084 37.1278C160.616 36.2394 160.382 35.2459 160.382 34.1521C160.382 33.0583 160.616 32.0505 161.084 31.1764C161.567 30.288 162.216 29.5859 163.028 29.0701C163.855 28.5399 164.777 28.2724 165.794 28.2724C166.654 28.2724 167.408 28.4587 168.067 28.836C168.741 29.1942 169.271 29.6958 169.658 30.3358C170.05 30.9758 170.245 31.7018 170.245 32.5138V35.7474C170.245 36.5594 170.05 37.2854 169.658 37.9254C169.285 38.5655 168.76 39.0718 168.087 39.4491C167.418 39.8073 166.649 39.9888 165.794 39.9888V39.984ZM166.214 37.5481C167.165 37.5481 167.934 37.2281 168.507 36.588C169.099 35.948 169.395 35.1265 169.395 34.1282C169.395 33.4548 169.262 32.8625 168.999 32.3466C168.731 31.8308 168.359 31.4344 167.876 31.1526C167.408 30.8564 166.854 30.7084 166.214 30.7084C165.574 30.7084 165.034 30.8564 164.552 31.1526C164.084 31.4344 163.711 31.8308 163.43 32.3466C163.162 32.8625 163.033 33.4548 163.033 34.1282C163.033 34.8017 163.167 35.394 163.43 35.9098C163.711 36.4257 164.084 36.8316 164.552 37.1278C165.034 37.4096 165.589 37.5481 166.214 37.5481ZM169.233 39.1959V36.7743C169.233 36.7457 169.233 36.717 169.238 36.6836L169.663 34.0757C169.672 34.0184 169.672 33.9563 169.663 33.899L169.238 31.3149C169.233 31.2863 169.228 31.2576 169.228 31.2242V29.0605C169.228 28.7548 169.477 28.5065 169.782 28.5065H171.253C171.559 28.5065 171.807 28.7548 171.807 29.0605V39.1959C171.807 39.5016 171.559 39.75 171.253 39.75H169.782C169.477 39.75 169.228 39.5016 169.228 39.1959H169.233ZM174.668 39.1959V23.4435C174.668 23.1378 174.917 22.8895 175.222 22.8895H176.694C176.999 22.8895 177.248 23.1378 177.248 23.4435V39.1959C177.248 39.5016 176.999 39.75 176.694 39.75H175.222C174.917 39.75 174.668 39.5016 174.668 39.1959ZM185.334 39.984C184.212 39.984 183.194 39.7357 182.291 39.2342C181.403 38.7183 180.691 38.0162 180.161 37.1278C179.645 36.2394 179.387 35.2411 179.387 34.1282C179.387 33.0153 179.645 32.0266 180.161 31.1526C180.677 30.2642 181.37 29.562 182.244 29.0462C183.132 28.5303 184.116 28.2724 185.195 28.2724C186.275 28.2724 187.163 28.516 187.961 28.9984C188.773 29.4808 189.403 30.1447 189.857 30.9902C190.325 31.8356 190.559 32.7956 190.559 33.8703C190.559 34.0566 190.545 34.2524 190.512 34.4578C190.497 34.6441 190.464 34.8542 190.416 35.0883H181.742C181.437 35.0883 181.188 34.8399 181.188 34.5342V33.5312C181.188 33.2255 181.437 32.9771 181.742 32.9771H189.079L188.892 33.1443C188.577 33.4213 188.09 33.2589 187.99 32.8482C187.923 32.5711 187.832 32.318 187.722 32.0887C187.488 31.6206 187.154 31.2624 186.714 31.0093C186.294 30.7609 185.769 30.6367 185.143 30.6367C184.489 30.6367 183.92 30.7752 183.433 31.057C182.951 31.3388 182.573 31.7353 182.311 32.2511C182.043 32.7526 181.914 33.3497 181.914 34.0566C181.914 34.7635 182.053 35.3749 182.334 35.905C182.616 36.4352 183.013 36.8507 183.529 37.1469C184.044 37.4287 184.637 37.5672 185.31 37.5672C185.888 37.5672 186.418 37.4669 186.901 37.2615C187.235 37.1278 187.531 36.9511 187.799 36.7313C188.023 36.5451 188.348 36.5546 188.549 36.76L189.427 37.6532C189.647 37.8729 189.638 38.2359 189.413 38.4508C188.95 38.8903 188.42 39.2342 187.813 39.4873C187.03 39.8169 186.203 39.9793 185.329 39.9793L185.334 39.984ZM197.332 39.1959V29.0605C197.332 28.7548 197.581 28.5065 197.886 28.5065H199.357C199.663 28.5065 199.911 28.7548 199.911 29.0605V39.1959C199.911 39.5016 199.663 39.75 199.357 39.75H197.886C197.581 39.75 197.332 39.5016 197.332 39.1959ZM198.622 26.4478C198.187 26.4478 197.819 26.2998 197.523 26.0036C197.241 25.7075 197.103 25.3397 197.103 24.9051C197.103 24.4704 197.241 24.1026 197.523 23.8065C197.819 23.5104 198.187 23.3623 198.622 23.3623C199.056 23.3623 199.443 23.5104 199.72 23.8065C200.002 24.1026 200.141 24.4704 200.141 24.9051C200.141 25.3397 200.002 25.7075 199.72 26.0036C199.439 26.2998 199.071 26.4478 198.622 26.4478ZM211.055 39.75C210.749 39.75 210.501 39.5016 210.501 39.1959V33.2637C210.501 32.5138 210.257 31.8977 209.775 31.4153C209.307 30.9328 208.695 30.6892 207.95 30.6892C207.449 30.6892 207.004 30.7991 206.617 31.0188C206.231 31.2385 205.92 31.5442 205.705 31.9311C205.605 32.1126 205.524 32.3084 205.471 32.5186C205.38 32.872 204.984 33.0488 204.669 32.872C204.487 32.7717 204.373 32.5759 204.382 32.3657C204.425 31.6445 204.611 30.9997 204.936 30.4361C205.309 29.7626 205.825 29.242 206.484 28.8695C207.152 28.4778 207.902 28.282 208.733 28.282C209.564 28.282 210.324 28.5017 210.983 28.9363C211.637 29.3566 212.153 29.9107 212.531 30.5985C212.903 31.272 213.094 31.9741 213.094 32.7049V39.2007C213.094 39.5064 212.846 39.7548 212.54 39.7548H211.069L211.055 39.75ZM202.796 39.1959V29.0605C202.796 28.7548 203.045 28.5065 203.35 28.5065H204.822C205.127 28.5065 205.376 28.7548 205.376 29.0605V39.1959C205.376 39.5016 205.127 39.75 204.822 39.75H203.35C203.045 39.75 202.796 39.5016 202.796 39.1959Z" fill="#FFFDF8"/>
<path d="M198.7 26.5153C199.67 26.5153 200.453 25.7272 200.453 24.7576C200.453 23.788 199.67 22.9999 198.7 22.9999C197.731 22.9999 196.947 23.788 196.947 24.7576C196.947 25.7272 197.731 26.5153 198.7 26.5153Z" fill="#FEC500"/>
<circle cx="616.934" cy="31.4392" r="10.0788" fill="#FEC500"/>
<g filter="url(#filter8_d_0_425)">
<rect x="109.875" y="238.043" width="224.351" height="173.37" rx="4.45535" fill="#141A36" shape-rendering="crispEdges"/>
<rect x="118.795" y="246.964" width="90.4189" height="12.297" rx="4.33533" fill="#202540"/>
<rect x="119.156" y="247.326" width="89.6963" height="11.5744" rx="3.97405" stroke="#3E3E3E" stroke-opacity="0.2" stroke-width="0.722555"/>
<rect x="118.795" y="268.181" width="206.51" height="134.311" rx="4.45535" fill="#202540"/>
<rect x="118.98" y="268.366" width="206.14" height="133.942" rx="4.27045" stroke="#3E3E3E" stroke-opacity="0.2" stroke-width="0.369794"/>
<path d="M258.897 310.149C263.296 316.585 265.921 324.042 266.54 331.772C266.698 333.736 265.085 335.336 263.115 335.336H256.711C254.741 335.336 253.165 333.733 252.941 331.775C251.755 321.375 245.439 312.533 236.585 307.843C234.843 306.921 233.923 304.87 234.638 303.034L236.96 297.075C237.676 295.239 239.752 294.317 241.525 295.177C248.502 298.56 254.498 303.714 258.897 310.149Z" fill="#FEC500"/>
<path d="M208.276 292.883C215.691 290.477 223.586 290.062 231.177 291.648C233.106 292.051 234.186 294.05 233.63 295.94L231.826 302.078C231.27 303.968 229.289 305.028 227.347 304.695C225.625 304.399 223.854 304.245 222.047 304.245C213.314 304.245 205.422 307.846 199.774 313.644C198.399 315.054 196.173 315.359 194.614 314.155L189.546 310.241C187.986 309.037 187.687 306.785 189.012 305.326C194.226 299.587 200.862 295.288 208.276 292.883Z" fill="#FEC500"/>
<path opacity="0.5" d="M194.089 321.681C194.957 319.91 194.494 317.707 192.832 316.644L187.459 313.207C185.799 312.145 183.579 312.624 182.653 314.364C179.009 321.208 177.201 328.905 177.439 336.696C177.676 344.488 179.949 352.06 184.003 358.67C185.034 360.35 187.279 360.693 188.871 359.532L194.026 355.773C195.62 354.611 195.948 352.385 194.974 350.67C192.405 346.145 190.937 340.913 190.937 335.338C190.937 330.438 192.071 325.804 194.089 321.681Z" fill="#FEC500"/>
<path opacity="0.5" d="M201.21 358.433C199.748 357.114 197.507 356.955 196.029 358.257L191.237 362.478C189.758 363.781 189.606 366.048 191.022 367.418C195.861 372.098 201.697 375.623 208.092 377.729C209.964 378.345 211.899 377.156 212.364 375.241L213.87 369.036C214.335 367.118 213.146 365.207 211.294 364.526C207.54 363.145 204.125 361.061 201.21 358.433Z" fill="#FEC500"/>
<path opacity="0.6" d="M237.716 366.25C236.824 364.489 234.677 363.809 232.827 364.495C229.459 365.746 225.814 366.429 222.011 366.429C221.743 366.429 221.476 366.425 221.21 366.418C219.243 366.369 217.44 367.704 217.162 369.651L216.26 375.99C215.982 377.941 217.339 379.763 219.306 379.884C226.025 380.297 232.752 379.185 238.981 376.631C240.804 375.883 241.503 373.722 240.612 371.964L237.716 366.25Z" fill="#FEC500"/>
<path opacity="0.8" d="M254 348.706C252.182 347.945 250.109 348.815 249.144 350.534C247.202 353.993 244.617 357.044 241.552 359.523C240.022 360.76 239.513 362.946 240.565 364.61L244 370.041C245.053 371.706 247.267 372.214 248.843 371.031C254.227 366.989 258.628 361.781 261.715 355.799C262.618 354.047 261.749 351.949 259.931 351.188L254 348.706Z" fill="#FEC500"/>
<path opacity="0.2" d="M256.589 337.838C254.622 337.695 252.934 339.182 252.569 341.121C252.535 341.3 252.5 341.478 252.463 341.656C252.065 343.585 253.058 345.601 254.928 346.22L261.031 348.24C262.902 348.859 264.936 347.847 265.404 345.933C265.713 344.668 265.966 343.391 266.164 342.105C266.462 340.157 264.97 338.445 263.004 338.302L256.589 337.838Z" fill="#FEC500"/>
</g>
<g filter="url(#filter9_d_0_425)">
<rect x="36.5872" y="79.0313" width="235.341" height="136.327" rx="3.17678" fill="#141A36" shape-rendering="crispEdges"/>
<rect x="42.9496" y="85.3919" width="36.6575" height="8.79781" rx="2.92937" fill="#202540"/>
<rect x="43.1937" y="85.636" width="36.1693" height="8.30958" rx="2.68526" stroke="#3E3E3E" stroke-opacity="0.2" stroke-width="0.488229"/>
<rect x="42.9496" y="100.55" width="222.62" height="108.448" rx="3.17678" fill="#202540"/>
<rect x="43.0815" y="100.682" width="222.356" height="108.184" rx="3.04494" stroke="#3E3E3E" stroke-opacity="0.2" stroke-width="0.263673"/>
<path fill-rule="evenodd" clip-rule="evenodd" d="M60.9309 194.322C60.9309 194.322 60.6013 148.592 60.9309 148.208C63.3865 145.341 66.8274 142.582 69.2752 142.384C73.44 142.047 75.814 146.617 80.5996 146.617C85.3852 146.617 90.2842 142.696 96.3942 142.384C102.504 142.071 106.299 145.027 111.679 145.027C117.058 145.027 123.223 133.896 129.237 133.896C135.251 133.896 141.014 151.388 149.046 151.388C157.079 151.388 158.709 136.566 163.76 136.566C168.811 136.566 172.175 141.807 177.027 142.066C181.879 142.324 181.879 146.617 185.967 146.617C190.055 146.617 195.909 132.497 202.351 132.497C208.793 132.497 216.234 142.526 220.839 142.526C225.444 142.526 222.92 135.486 228.371 135.486C233.822 135.486 229.814 141.748 235.267 142.066C240.72 142.384 245.162 145.027 250.465 145.027C251.996 145.027 254.095 144.455 255.626 142.845C257.157 141.234 258.537 138.645 258.537 138.645H259.209C259.209 138.645 259.209 139.814 259.209 140.151C259.209 143.842 259.209 194.322 259.209 194.322H60.9309Z" fill="url(#paint1_linear_0_425)"/>
<path d="M60.7661 148.208C60.7661 148.208 64.9702 142.72 69.1595 142.384C73.3487 142.047 75.7367 146.617 80.5504 146.617C85.3642 146.617 90.292 142.696 96.4378 142.384C102.584 142.071 106.401 145.027 111.812 145.027C117.223 145.027 123.425 133.896 129.474 133.896C135.523 133.896 141.32 151.388 149.4 151.388C157.479 151.388 159.119 136.566 164.199 136.566C169.28 136.566 172.664 142.125 177.545 142.384C182.425 142.642 182.101 146.617 186.537 146.617C190.974 146.617 195.934 132.497 202.414 132.497C208.894 132.497 215.607 142.384 220.24 142.384C224.872 142.384 223.086 135.486 228.57 135.486C234.053 135.486 230.759 142.384 236.127 142.384C241.495 142.384 245.481 145.027 250.815 145.027C256.15 145.027 259.209 138.658 259.209 138.658" stroke="#05BFFE" stroke-width="0.635356"/>
<circle cx="129.396" cy="134.088" r="1.43165" fill="white" stroke="#05BFFE" stroke-width="0.953034"/>
<rect x="60.7583" y="200.683" width="4.3989" height="1.95507" rx="0.488229" fill="#2E334E"/>
<rect x="82.3211" y="200.683" width="4.3989" height="1.95507" rx="0.488229" fill="#2E334E"/>
<rect x="103.88" y="200.683" width="4.3989" height="1.95507" rx="0.488229" fill="#2E334E"/>
<rect x="125.443" y="200.683" width="4.3989" height="1.95507" rx="0.488229" fill="#2E334E"/>
<rect x="147.002" y="200.683" width="4.3989" height="1.95507" rx="0.488229" fill="#2E334E"/>
<rect x="168.564" y="200.683" width="4.3989" height="1.95507" rx="0.488229" fill="#2E334E"/>
<rect x="190.127" y="200.683" width="4.3989" height="1.95507" rx="0.488229" fill="#2E334E"/>
<rect x="211.686" y="200.683" width="4.3989" height="1.95507" rx="0.488229" fill="#2E334E"/>
<rect x="233.249" y="200.683" width="4.3989" height="1.95507" rx="0.488229" fill="#2E334E"/>
<rect x="254.808" y="200.683" width="4.3989" height="1.95507" rx="0.488229" fill="#2E334E"/>
<rect x="49.3121" y="108.395" width="5.37644" height="4.88767" rx="0.976458" fill="#2E334E"/>
<rect x="49.3121" y="129.196" width="5.37644" height="4.88767" rx="0.976458" fill="#2E334E"/>
<rect x="49.3121" y="149.998" width="5.37644" height="4.88767" rx="0.976458" fill="#2E334E"/>
<rect x="49.3121" y="170.799" width="5.37644" height="4.88767" rx="0.976458" fill="#2E334E"/>
<rect x="49.3121" y="191.601" width="5.37644" height="4.88767" rx="0.976458" fill="#2E334E"/>
<line x1="60.9173" y1="111.31" x2="259.049" y2="111.31" stroke="white" stroke-opacity="0.1" stroke-width="0.317678" stroke-linecap="round" stroke-linejoin="round" stroke-dasharray="1.11 1.11"/>
<line x1="60.9173" y1="128.166" x2="259.049" y2="128.166" stroke="white" stroke-opacity="0.1" stroke-width="0.317678" stroke-linecap="round" stroke-linejoin="round" stroke-dasharray="1.11 1.11"/>
<line x1="60.9173" y1="145.021" x2="259.049" y2="145.021" stroke="white" stroke-opacity="0.1" stroke-width="0.317678" stroke-linecap="round" stroke-linejoin="round" stroke-dasharray="1.11 1.11"/>
<line x1="60.9173" y1="161.877" x2="259.049" y2="161.877" stroke="white" stroke-opacity="0.1" stroke-width="0.317678" stroke-linecap="round" stroke-linejoin="round" stroke-dasharray="1.11 1.11"/>
<line x1="60.9173" y1="178.732" x2="259.049" y2="178.732" stroke="white" stroke-opacity="0.1" stroke-width="0.317678" stroke-linecap="round" stroke-linejoin="round" stroke-dasharray="1.11 1.11"/>
<line x1="60.9173" y1="195.588" x2="259.049" y2="195.588" stroke="white" stroke-opacity="0.1" stroke-width="0.317678" stroke-linecap="round" stroke-linejoin="round" stroke-dasharray="1.11 1.11"/>
</g>
<path d="M286.827 84.6601C286.827 81.7457 289.19 79.3831 292.104 79.3831H491.96V94.8622H286.827V84.6601Z" stroke="#666560" stroke-width="0.702818"/>
<rect x="292.103" y="84.6596" width="134.514" height="4.92515" rx="2.45986" fill="#D9D9D9" fill-opacity="0.3"/>
<rect x="286.827" y="94.8617" width="205.133" height="15.4798" stroke="#666560" stroke-width="0.702818"/>
<rect x="292.103" y="100.139" width="194.579" height="4.92515" rx="2.45986" fill="#D9D9D9" fill-opacity="0.8"/>
<rect x="286.827" y="110.341" width="205.133" height="15.4798" stroke="#666560" stroke-width="0.702818"/>
<rect x="292.103" y="115.618" width="124.161" height="4.92515" rx="2.45986" fill="#D9D9D9" fill-opacity="0.5"/>
<rect x="286.827" y="125.82" width="205.133" height="15.4798" stroke="#666560" stroke-width="0.702818"/>
<rect x="292.103" y="131.096" width="74.7186" height="4.92515" rx="2.45986" fill="#D9D9D9" fill-opacity="0.8"/>
<rect x="286.827" y="141.299" width="205.133" height="15.4798" stroke="#666560" stroke-width="0.702818"/>
<rect x="292.103" y="146.575" width="143.938" height="4.92515" rx="2.45986" fill="#D9D9D9" fill-opacity="0.5"/>
<path d="M286.827 156.778H491.96V172.257H292.104C289.19 172.257 286.827 169.894 286.827 166.98V156.778Z" stroke="#666560" stroke-width="0.702818"/>
<rect x="292.103" y="162.054" width="180.196" height="4.92515" rx="2.45986" fill="#D9D9D9" fill-opacity="0.8"/>
<rect x="491.959" y="79.3827" width="40.0307" height="15.4798" stroke="#666560" stroke-width="0.702818"/>
<rect opacity="0.3" x="497.235" y="84.6596" width="20.377" height="4.92515" rx="2.45986" fill="#D9D9D9"/>
<rect x="491.959" y="94.8617" width="40.0307" height="15.4798" stroke="#666560" stroke-width="0.702818"/>
<rect opacity="0.8" x="497.235" y="100.139" width="29.476" height="4.92515" rx="2.45986" fill="#D9D9D9"/>
<rect x="491.959" y="110.341" width="40.0307" height="15.4798" stroke="#666560" stroke-width="0.702818"/>
<rect opacity="0.65" x="497.235" y="115.618" width="18.8087" height="4.92515" rx="2.45986" fill="#D9D9D9"/>
<rect x="491.959" y="125.82" width="40.0307" height="15.4798" stroke="#666560" stroke-width="0.702818"/>
<rect opacity="0.8" x="497.235" y="131.096" width="11.3188" height="4.92515" rx="2.45986" fill="#D9D9D9"/>
<rect x="491.959" y="141.299" width="40.0307" height="15.4798" stroke="#666560" stroke-width="0.702818"/>
<rect opacity="0.5" x="497.235" y="146.575" width="21.8046" height="4.92515" rx="2.45986" fill="#D9D9D9"/>
<rect x="491.959" y="156.778" width="40.0307" height="15.4798" stroke="#666560" stroke-width="0.702818"/>
<rect opacity="0.8" x="497.235" y="162.054" width="27.2971" height="4.92515" rx="2.45986" fill="#D9D9D9"/>
<path d="M531.992 79.3831H579.484C582.399 79.3831 584.761 81.7457 584.761 84.6601V94.8622H531.992V79.3831Z" stroke="#666560" stroke-width="0.702818"/>
<rect x="531.991" y="94.8617" width="52.7702" height="15.4798" stroke="#666560" stroke-width="0.702818"/>
<rect x="531.991" y="110.341" width="52.7702" height="15.4798" stroke="#666560" stroke-width="0.702818"/>
<rect x="531.991" y="125.82" width="52.7702" height="15.4798" stroke="#666560" stroke-width="0.702818"/>
<rect x="531.991" y="141.299" width="52.7702" height="15.4798" stroke="#666560" stroke-width="0.702818"/>
<path d="M531.992 156.778H584.761V166.98C584.761 169.894 582.399 172.257 579.484 172.257H531.992V156.778Z" stroke="#666560" stroke-width="0.702818"/>
<g filter="url(#filter10_d_0_425)">
<rect x="356.834" y="186.681" width="328.572" height="195.318" rx="4.55848" fill="#141A36" shape-rendering="crispEdges"/>
<rect x="365.961" y="195.808" width="59.3255" height="12.3215" rx="2.3775" fill="#202540"/>
<rect x="366.16" y="196.006" width="58.9293" height="11.9252" rx="2.17938" stroke="#3E3E3E" stroke-opacity="0.2" stroke-width="0.396251"/>
<rect x="365.961" y="217.257" width="310.318" height="155.615" rx="4.55848" fill="#202540"/>
<line x1="394.029" y1="233.001" x2="666.926" y2="233.001" stroke="white" stroke-opacity="0.1" stroke-width="0.455848" stroke-linecap="round" stroke-linejoin="round" stroke-dasharray="1.6 1.6"/>
<line x1="394.029" y1="257.188" x2="666.926" y2="257.188" stroke="white" stroke-opacity="0.1" stroke-width="0.455848" stroke-linecap="round" stroke-linejoin="round" stroke-dasharray="1.6 1.6"/>
<line x1="394.029" y1="281.375" x2="666.926" y2="281.375" stroke="white" stroke-opacity="0.1" stroke-width="0.455848" stroke-linecap="round" stroke-linejoin="round" stroke-dasharray="1.6 1.6"/>
<line x1="394.029" y1="305.561" x2="666.926" y2="305.561" stroke="white" stroke-opacity="0.1" stroke-width="0.455848" stroke-linecap="round" stroke-linejoin="round" stroke-dasharray="1.6 1.6"/>
<line x1="394.029" y1="329.747" x2="666.926" y2="329.747" stroke="white" stroke-opacity="0.1" stroke-width="0.455848" stroke-linecap="round" stroke-linejoin="round" stroke-dasharray="1.6 1.6"/>
<line x1="394.029" y1="353.934" x2="666.926" y2="353.934" stroke="white" stroke-opacity="0.1" stroke-width="0.455848" stroke-linecap="round" stroke-linejoin="round" stroke-dasharray="1.6 1.6"/>
<path d="M393.801 335.541C393.801 333.524 395.435 331.89 397.451 331.89H412.772C414.788 331.89 416.423 333.524 416.423 335.541V354.163H393.801V335.541Z" fill="url(#paint2_linear_0_425)"/>
<path d="M394.029 335.541C394.029 333.65 395.561 332.118 397.451 332.118H412.772C414.662 332.118 416.194 333.65 416.194 335.541V353.935H394.029V335.541Z" stroke="#4482EC" stroke-opacity="0.2" stroke-width="0.455848"/>
<rect x="399.862" y="360.551" width="10.4961" height="3.19445" rx="0.747992" fill="#2E334E"/>
<path d="M435.589 327.022C435.589 325.006 437.223 323.372 439.24 323.372H454.56C456.576 323.372 458.211 325.006 458.211 327.022V354.162H435.589V327.022Z" fill="url(#paint3_linear_0_425)"/>
<path d="M435.817 327.022C435.817 325.132 437.349 323.6 439.24 323.6H454.56C456.45 323.6 457.983 325.132 457.983 327.022V353.934H435.817V327.022Z" stroke="#4482EC" stroke-opacity="0.2" stroke-width="0.455848"/>
<rect x="441.65" y="360.551" width="10.4961" height="3.19445" rx="0.747992" fill="#2E334E"/>
<path d="M477.377 312.616C477.377 310.6 479.012 308.965 481.028 308.965H496.348C498.364 308.965 499.999 310.6 499.999 312.616V354.163H477.377V312.616Z" fill="url(#paint4_linear_0_425)"/>
<path d="M477.605 312.616C477.605 310.726 479.138 309.193 481.028 309.193H496.348C498.238 309.193 499.771 310.726 499.771 312.616V353.934H477.605V312.616Z" stroke="#4482EC" stroke-opacity="0.2" stroke-width="0.455848"/>
<rect x="483.438" y="360.551" width="10.4961" height="3.19445" rx="0.747992" fill="#2E334E"/>
<path d="M519.165 273.828C519.165 271.812 520.8 270.177 522.816 270.177H538.136C540.153 270.177 541.787 271.812 541.787 273.828V354.163H519.165V273.828Z" fill="url(#paint5_linear_0_425)"/>
<path d="M519.393 273.828C519.393 271.938 520.926 270.405 522.816 270.405H538.136C540.027 270.405 541.559 271.938 541.559 273.828V353.934H519.393V273.828Z" stroke="#4482EC" stroke-opacity="0.2" stroke-width="0.455848"/>
<rect x="525.227" y="360.551" width="10.4961" height="3.19445" rx="0.747992" fill="#2E334E"/>
<path d="M560.953 328.131C560.953 326.115 562.588 324.48 564.604 324.48H579.925C581.941 324.48 583.575 326.115 583.575 328.131V354.163H560.953V328.131Z" fill="url(#paint6_linear_0_425)"/>
<path d="M561.182 328.131C561.182 326.241 562.714 324.708 564.604 324.708H579.925C581.815 324.708 583.347 326.241 583.347 328.131V353.934H561.182V328.131Z" stroke="#4482EC" stroke-opacity="0.2" stroke-width="0.455848"/>
<rect x="567.015" y="360.551" width="10.4961" height="3.19445" rx="0.747992" fill="#2E334E"/>
<path d="M602.746 312.616C602.746 310.6 604.38 308.965 606.396 308.965H621.717C623.733 308.965 625.367 310.6 625.367 312.616V354.163H602.746V312.616Z" fill="url(#paint7_linear_0_425)"/>
<path d="M602.974 312.616C602.974 310.726 604.506 309.193 606.396 309.193H621.717C623.607 309.193 625.139 310.726 625.139 312.616V353.934H602.974V312.616Z" stroke="#4482EC" stroke-opacity="0.2" stroke-width="0.455848"/>
<rect x="608.807" y="360.551" width="10.4961" height="3.19445" rx="0.747992" fill="#2E334E"/>
<path d="M644.534 330.347C644.534 328.331 646.168 326.697 648.185 326.697H663.505C665.521 326.697 667.156 328.331 667.156 330.347V354.162H644.534V330.347Z" fill="url(#paint8_linear_0_425)"/>
<path d="M644.762 330.347C644.762 328.457 646.294 326.925 648.185 326.925H663.505C665.395 326.925 666.927 328.457 666.927 330.347V353.934H644.762V330.347Z" stroke="#4482EC" stroke-opacity="0.2" stroke-width="0.455848"/>
<rect x="650.595" y="360.551" width="10.4961" height="3.19445" rx="0.747992" fill="#2E334E"/>
<rect x="375.089" y="230.034" width="10.4961" height="6.84525" rx="0.747992" fill="#2E334E"/>
<rect x="375.089" y="259.584" width="10.4961" height="6.84525" rx="0.747992" fill="#2E334E"/>
<rect x="375.089" y="289.132" width="10.4961" height="6.84525" rx="0.747992" fill="#2E334E"/>
<rect x="375.089" y="318.681" width="10.4961" height="6.84525" rx="0.747992" fill="#2E334E"/>
<rect x="375.089" y="348.229" width="10.4961" height="6.84525" rx="0.747992" fill="#2E334E"/>
</g>
<defs>
<filter id="filter0_i_0_425" x="120.148" y="17.2193" width="13.5112" height="13.285" filterUnits="userSpaceOnUse" color-interpolation-filters="sRGB">
<feFlood flood-opacity="0" result="BackgroundImageFix"/>
<feBlend mode="normal" in="SourceGraphic" in2="BackgroundImageFix" result="shape"/>
<feColorMatrix in="SourceAlpha" type="matrix" values="0 0 0 0 0 0 0 0 0 0 0 0 0 0 0 0 0 0 127 0" result="hardAlpha"/>
<feOffset dx="0.843957" dy="-0.679546"/>
<feGaussianBlur stdDeviation="0.799522"/>
<feComposite in2="hardAlpha" operator="arithmetic" k2="-1" k3="1"/>
<feColorMatrix type="matrix" values="0 0 0 0 0 0 0 0 0 0 0 0 0 0 0 0 0 0 0.39 0"/>
<feBlend mode="normal" in2="shape" result="effect1_innerShadow_0_425"/>
</filter>
<filter id="filter1_i_0_425" x="105.651" y="18.188" width="27.2334" height="27.209" filterUnits="userSpaceOnUse" color-interpolation-filters="sRGB">
<feFlood flood-opacity="0" result="BackgroundImageFix"/>
<feBlend mode="normal" in="SourceGraphic" in2="BackgroundImageFix" result="shape"/>
<feColorMatrix in="SourceAlpha" type="matrix" values="0 0 0 0 0 0 0 0 0 0 0 0 0 0 0 0 0 0 127 0" result="hardAlpha"/>
<feOffset dx="0.336276" dy="0.336276"/>
<feGaussianBlur stdDeviation="0.672552"/>
<feComposite in2="hardAlpha" operator="arithmetic" k2="-1" k3="1"/>
<feColorMatrix type="matrix" values="0 0 0 0 0 0 0 0 0 0 0 0 0 0 0 0 0 0 0.55 0"/>
<feBlend mode="normal" in2="shape" result="effect1_innerShadow_0_425"/>
</filter>
<filter id="filter2_i_0_425" x="127.382" y="30.9374" width="0.728043" height="1.26477" filterUnits="userSpaceOnUse" color-interpolation-filters="sRGB">
<feFlood flood-opacity="0" result="BackgroundImageFix"/>
<feBlend mode="normal" in="SourceGraphic" in2="BackgroundImageFix" result="shape"/>
<feColorMatrix in="SourceAlpha" type="matrix" values="0 0 0 0 0 0 0 0 0 0 0 0 0 0 0 0 0 0 127 0" result="hardAlpha"/>
<feOffset dx="0.028023" dy="0.028023"/>
<feGaussianBlur stdDeviation="0.140115"/>
<feComposite in2="hardAlpha" operator="arithmetic" k2="-1" k3="1"/>
<feColorMatrix type="matrix" values="0 0 0 0 0 0 0 0 0 0 0 0 0 0 0 0 0 0 0.55 0"/>
<feBlend mode="normal" in2="shape" result="effect1_innerShadow_0_425"/>
</filter>
<filter id="filter3_i_0_425" x="128.97" y="30.9374" width="0.728043" height="2.12509" filterUnits="userSpaceOnUse" color-interpolation-filters="sRGB">
<feFlood flood-opacity="0" result="BackgroundImageFix"/>
<feBlend mode="normal" in="SourceGraphic" in2="BackgroundImageFix" result="shape"/>
<feColorMatrix in="SourceAlpha" type="matrix" values="0 0 0 0 0 0 0 0 0 0 0 0 0 0 0 0 0 0 127 0" result="hardAlpha"/>
<feOffset dx="0.028023" dy="0.028023"/>
<feGaussianBlur stdDeviation="0.140115"/>
<feComposite in2="hardAlpha" operator="arithmetic" k2="-1" k3="1"/>
<feColorMatrix type="matrix" values="0 0 0 0 0 0 0 0 0 0 0 0 0 0 0 0 0 0 0.55 0"/>
<feBlend mode="normal" in2="shape" result="effect1_innerShadow_0_425"/>
</filter>
<filter id="filter4_i_0_425" x="130.562" y="30.9374" width="0.728043" height="1.26477" filterUnits="userSpaceOnUse" color-interpolation-filters="sRGB">
<feFlood flood-opacity="0" result="BackgroundImageFix"/>
<feBlend mode="normal" in="SourceGraphic" in2="BackgroundImageFix" result="shape"/>
<feColorMatrix in="SourceAlpha" type="matrix" values="0 0 0 0 0 0 0 0 0 0 0 0 0 0 0 0 0 0 127 0" result="hardAlpha"/>
<feOffset dx="0.028023" dy="0.028023"/>
<feGaussianBlur stdDeviation="0.140115"/>
<feComposite in2="hardAlpha" operator="arithmetic" k2="-1" k3="1"/>
<feColorMatrix type="matrix" values="0 0 0 0 0 0 0 0 0 0 0 0 0 0 0 0 0 0 0.55 0"/>
<feBlend mode="normal" in2="shape" result="effect1_innerShadow_0_425"/>
</filter>
<filter id="filter5_i_0_425" x="118.552" y="19.3074" width="1.26379" height="0.727066" filterUnits="userSpaceOnUse" color-interpolation-filters="sRGB">
<feFlood flood-opacity="0" result="BackgroundImageFix"/>
<feBlend mode="normal" in="SourceGraphic" in2="BackgroundImageFix" result="shape"/>
<feColorMatrix in="SourceAlpha" type="matrix" values="0 0 0 0 0 0 0 0 0 0 0 0 0 0 0 0 0 0 127 0" result="hardAlpha"/>
<feOffset dx="0.028023" dy="0.028023"/>
<feGaussianBlur stdDeviation="0.140115"/>
<feComposite in2="hardAlpha" operator="arithmetic" k2="-1" k3="1"/>
<feColorMatrix type="matrix" values="0 0 0 0 0 0 0 0 0 0 0 0 0 0 0 0 0 0 0.55 0"/>
<feBlend mode="normal" in2="shape" result="effect1_innerShadow_0_425"/>
</filter>
<filter id="filter6_i_0_425" x="117.692" y="20.896" width="2.12411" height="0.727066" filterUnits="userSpaceOnUse" color-interpolation-filters="sRGB">
<feFlood flood-opacity="0" result="BackgroundImageFix"/>
<feBlend mode="normal" in="SourceGraphic" in2="BackgroundImageFix" result="shape"/>
<feColorMatrix in="SourceAlpha" type="matrix" values="0 0 0 0 0 0 0 0 0 0 0 0 0 0 0 0 0 0 127 0" result="hardAlpha"/>
<feOffset dx="0.028023" dy="0.028023"/>
<feGaussianBlur stdDeviation="0.140115"/>
<feComposite in2="hardAlpha" operator="arithmetic" k2="-1" k3="1"/>
<feColorMatrix type="matrix" values="0 0 0 0 0 0 0 0 0 0 0 0 0 0 0 0 0 0 0.55 0"/>
<feBlend mode="normal" in2="shape" result="effect1_innerShadow_0_425"/>
</filter>
<filter id="filter7_i_0_425" x="118.552" y="22.4847" width="1.26379" height="0.727066" filterUnits="userSpaceOnUse" color-interpolation-filters="sRGB">
<feFlood flood-opacity="0" result="BackgroundImageFix"/>
<feBlend mode="normal" in="SourceGraphic" in2="BackgroundImageFix" result="shape"/>
<feColorMatrix in="SourceAlpha" type="matrix" values="0 0 0 0 0 0 0 0 0 0 0 0 0 0 0 0 0 0 127 0" result="hardAlpha"/>
<feOffset dx="0.028023" dy="0.028023"/>
<feGaussianBlur stdDeviation="0.140115"/>
<feComposite in2="hardAlpha" operator="arithmetic" k2="-1" k3="1"/>
<feColorMatrix type="matrix" values="0 0 0 0 0 0 0 0 0 0 0 0 0 0 0 0 0 0 0.55 0"/>
<feBlend mode="normal" in2="shape" result="effect1_innerShadow_0_425"/>
</filter>
<filter id="filter8_d_0_425" x="73.288" y="201.456" width="297.526" height="246.543" filterUnits="userSpaceOnUse" color-interpolation-filters="sRGB">
<feFlood flood-opacity="0" result="BackgroundImageFix"/>
<feColorMatrix in="SourceAlpha" type="matrix" values="0 0 0 0 0 0 0 0 0 0 0 0 0 0 0 0 0 0 127 0" result="hardAlpha"/>
<feOffset/>
<feGaussianBlur stdDeviation="18.2733"/>
<feComposite in2="hardAlpha" operator="out"/>
<feColorMatrix type="matrix" values="0 0 0 0 0.996078 0 0 0 0 0.772549 0 0 0 0 0 0 0 0 0.08 0"/>
<feBlend mode="normal" in2="BackgroundImageFix" result="effect1_dropShadow_0_425"/>
<feBlend mode="normal" in="SourceGraphic" in2="effect1_dropShadow_0_425" result="shape"/>
</filter>
<filter id="filter9_d_0_425" x="0.000336063" y="42.4445" width="308.515" height="209.5" filterUnits="userSpaceOnUse" color-interpolation-filters="sRGB">
<feFlood flood-opacity="0" result="BackgroundImageFix"/>
<feColorMatrix in="SourceAlpha" type="matrix" values="0 0 0 0 0 0 0 0 0 0 0 0 0 0 0 0 0 0 127 0" result="hardAlpha"/>
<feOffset/>
<feGaussianBlur stdDeviation="18.2733"/>
<feComposite in2="hardAlpha" operator="out"/>
<feColorMatrix type="matrix" values="0 0 0 0 0.996078 0 0 0 0 0.772549 0 0 0 0 0 0 0 0 0.08 0"/>
<feBlend mode="normal" in2="BackgroundImageFix" result="effect1_dropShadow_0_425"/>
<feBlend mode="normal" in="SourceGraphic" in2="effect1_dropShadow_0_425" result="shape"/>
</filter>
<filter id="filter10_d_0_425" x="320.247" y="150.094" width="401.746" height="268.491" filterUnits="userSpaceOnUse" color-interpolation-filters="sRGB">
<feFlood flood-opacity="0" result="BackgroundImageFix"/>
<feColorMatrix in="SourceAlpha" type="matrix" values="0 0 0 0 0 0 0 0 0 0 0 0 0 0 0 0 0 0 127 0" result="hardAlpha"/>
<feOffset/>
<feGaussianBlur stdDeviation="18.2733"/>
<feComposite in2="hardAlpha" operator="out"/>
<feColorMatrix type="matrix" values="0 0 0 0 0.996078 0 0 0 0 0.772549 0 0 0 0 0 0 0 0 0.08 0"/>
<feBlend mode="normal" in2="BackgroundImageFix" result="effect1_dropShadow_0_425"/>
<feBlend mode="normal" in="SourceGraphic" in2="effect1_dropShadow_0_425" result="shape"/>
</filter>
<linearGradient id="paint0_linear_0_425" x1="645.917" y1="380.992" x2="88.0105" y2="380.992" gradientUnits="userSpaceOnUse">
<stop stop-color="#FEC500"/>
<stop offset="0.0001" stop-color="#FEC500" stop-opacity="0.2"/>
<stop offset="1" stop-color="white" stop-opacity="0"/>
</linearGradient>
<linearGradient id="paint1_linear_0_425" x1="159.978" y1="132.497" x2="159.978" y2="194.322" gradientUnits="userSpaceOnUse">
<stop stop-color="#05BFFE" stop-opacity="0.54"/>
<stop offset="1" stop-color="#05BFFE" stop-opacity="0"/>
</linearGradient>
<linearGradient id="paint2_linear_0_425" x1="405.112" y1="331.89" x2="405.112" y2="354.163" gradientUnits="userSpaceOnUse">
<stop stop-color="#F69522"/>
<stop offset="1" stop-color="#FBB532"/>
</linearGradient>
<linearGradient id="paint3_linear_0_425" x1="446.9" y1="323.372" x2="446.9" y2="354.162" gradientUnits="userSpaceOnUse">
<stop stop-color="#F69522"/>
<stop offset="1" stop-color="#FBB532"/>
</linearGradient>
<linearGradient id="paint4_linear_0_425" x1="488.688" y1="308.965" x2="488.688" y2="354.163" gradientUnits="userSpaceOnUse">
<stop stop-color="#F69522"/>
<stop offset="1" stop-color="#FBB532"/>
</linearGradient>
<linearGradient id="paint5_linear_0_425" x1="530.476" y1="270.177" x2="530.476" y2="354.163" gradientUnits="userSpaceOnUse">
<stop stop-color="#F69522"/>
<stop offset="1" stop-color="#FBB532"/>
</linearGradient>
<linearGradient id="paint6_linear_0_425" x1="572.264" y1="324.48" x2="572.264" y2="354.163" gradientUnits="userSpaceOnUse">
<stop stop-color="#F69522"/>
<stop offset="1" stop-color="#FBB532"/>
</linearGradient>
<linearGradient id="paint7_linear_0_425" x1="614.057" y1="308.965" x2="614.057" y2="354.163" gradientUnits="userSpaceOnUse">
<stop stop-color="#F69522"/>
<stop offset="1" stop-color="#FBB532"/>
</linearGradient>
<linearGradient id="paint8_linear_0_425" x1="655.845" y1="326.697" x2="655.845" y2="354.162" gradientUnits="userSpaceOnUse">
<stop stop-color="#F69522"/>
<stop offset="1" stop-color="#FBB532"/>
</linearGradient>
</defs>
</svg>
