<svg width="31" height="24" viewBox="0 0 31 24" fill="none" xmlns="http://www.w3.org/2000/svg">
<path d="M14.2055 0.0334735C16.8437 -0.144517 19.5326 0.389449 21.8917 1.58453C25.3924 3.31358 28.1827 6.41571 29.4764 10.0772C30.0599 11.7046 30.3643 13.4082 30.3643 15.1373V21.5195C30.3643 21.7738 30.3643 22.0535 30.3136 22.3077C30.1614 22.9434 29.7047 23.5282 29.0959 23.8079C28.6647 24.0114 28.1827 24.0368 27.7515 23.9605C26.7875 23.7825 26.0265 22.8671 26.0265 21.8755C26.0265 19.8921 26.0265 17.9088 26.0265 15.9255C26.0519 15.3661 26.0519 14.7558 25.7475 14.2727C25.2655 13.3573 24.0479 12.9251 23.1093 13.3065C22.2976 13.5862 21.7141 14.4253 21.6888 15.2898C21.6888 17.2986 21.6888 19.3073 21.6888 21.3161C21.6888 21.6975 21.7141 22.0789 21.5873 22.4349C21.3844 23.1468 20.8009 23.7062 20.0907 23.9097C19.1521 24.1639 18.0867 23.7571 17.6301 22.8926C17.3003 22.384 17.3257 21.7483 17.351 21.1635C17.351 19.1548 17.351 17.1714 17.351 15.1627C17.3257 14.1456 16.4885 13.2302 15.4992 13.1031C14.8397 13.0014 14.1548 13.2302 13.6728 13.6879C13.2416 14.0947 13.0133 14.6796 13.0133 15.2644V21.0872C13.0133 21.5703 13.064 22.0789 12.8864 22.5366C12.6074 23.3757 11.7703 23.9859 10.8824 23.9605C9.96923 24.0114 9.08138 23.3757 8.80235 22.5366C8.65014 22.1043 8.67551 21.6721 8.67551 21.2144C8.67551 19.2056 8.67551 17.1969 8.67551 15.1881C8.67551 14.1964 7.88913 13.2811 6.92519 13.1031C6.03734 12.9251 5.0734 13.3573 4.61679 14.171C4.43922 14.5016 4.33776 14.883 4.33776 15.2644V21.7992C4.33776 22.4349 4.05872 23.0705 3.57675 23.4774C2.8411 24.1131 1.64885 24.1639 0.887845 23.5791C0.329771 23.1977 0 22.5366 0 21.85V15.239C0 12.7471 0.634175 10.2552 1.82642 8.04305C2.79037 6.23772 4.13482 4.6358 5.73294 3.36444C8.09207 1.38111 11.1107 0.211464 14.2055 0.0334735Z" fill="#545C79" fill-opacity="0.5"/>
</svg>
