<svg width="9" height="16" viewBox="0 0 9 16" fill="none" xmlns="http://www.w3.org/2000/svg">
<path d="M8.67531 1.88135C9.10573 1.45093 9.10573 0.753071 8.67531 0.322646C8.24488 -0.107778 7.54703 -0.107778 7.1166 0.322646L8.67531 1.88135ZM6.91417 15.5374C7.3446 15.9678 8.04245 15.9678 8.47288 15.5374C8.9033 15.1069 8.9033 14.4091 8.47288 13.9787L6.91417 15.5374ZM7.1166 0.322646L0.421188 7.01806L1.97989 8.57677L8.67531 1.88135L7.1166 0.322646ZM0.421189 9.04438L6.91417 15.5374L8.47288 13.9787L1.97989 7.48567L0.421189 9.04438ZM0.421188 7.01806C-0.138365 7.57761 -0.138362 8.48483 0.421189 9.04438L1.97989 7.48567C2.28119 7.78697 2.28119 8.27547 1.97989 8.57677L0.421188 7.01806Z" fill="white"/>
</svg>
