<svg width="81" height="84" viewBox="0 0 81 84" fill="none" xmlns="http://www.w3.org/2000/svg">
<path d="M18.5424 66.6631L20.6905 68.8251H18.3342C14.2551 68.8251 10.9366 65.5064 10.9366 61.4275V53.8953H6.01467V61.4275C6.01467 68.2203 11.5411 73.747 18.3342 73.747H20.6905L18.5424 75.909L22.0338 79.3781L30.0736 71.286L22.0338 63.1941L18.5424 66.6631Z" fill="#FF7B4A"/>
<path d="M64.1183 10.418H61.762L63.9101 8.25601L60.4187 4.78689L52.3789 12.879L60.4187 20.9709L63.9101 17.5018L61.762 15.3399H64.1183C68.1973 15.3399 71.5159 18.6586 71.5159 22.7375V30.2697H76.4378V22.7375C76.4378 15.9447 70.9114 10.418 64.1183 10.418Z" fill="#FF435B"/>
<path d="M53.6393 62.0093C53.6393 59.1257 55.9779 56.7854 58.8632 56.7854L60.5175 49.3482L58.8632 40.0199H53.5922L52.6694 46.6717C51.2386 47.2504 49.8958 48.0265 48.68 48.9773L42.4548 46.4505L37.1838 55.5785L42.4861 59.7072C42.3784 60.4698 42.3243 61.239 42.3242 62.0091C42.3242 62.7911 42.38 63.5607 42.4861 64.3129L37.1838 68.4416L42.4548 77.5695L48.68 75.043C49.8962 75.9931 51.2389 76.7691 52.6694 77.3485L53.5924 84.0003H58.8634L60.866 75.642L58.8634 67.2331C55.9779 67.2332 53.6393 64.8947 53.6393 62.0093Z" fill="#E9A019"/>
<path d="M75.4023 62.0091C75.4023 61.229 75.3465 60.4594 75.2403 59.7072L80.5427 55.5785L75.2717 46.4505L69.0464 48.9773C67.8307 48.0265 66.4879 47.2504 65.0571 46.6717L64.1342 40.0199H58.8632V56.7854C61.7486 56.7854 64.0871 59.1257 64.0871 62.0093C64.0871 64.8947 61.7486 67.2332 58.8632 67.2332V84.0002H64.1342L65.0571 77.3484C66.4875 76.7689 67.8302 75.993 69.0464 75.0428L75.2717 77.5694L80.5427 68.4414L75.2403 64.3127C75.3465 63.5607 75.4023 62.7909 75.4023 62.0091Z" fill="#FBB532"/>
<path d="M16.5258 22.3946C16.5258 19.3278 19.0113 16.8422 22.0782 16.8422L23.5052 8.6988L22.0782 0H16.7108L15.7706 6.77401C14.3135 7.36363 12.9461 8.1542 11.708 9.12274L5.36717 6.55023L0 15.8446L5.39883 20.0497C5.29153 20.8159 5.23591 21.5988 5.23591 22.3946C5.23591 23.1905 5.29137 23.9734 5.39883 24.7396L0 28.9447L5.36733 38.2394L11.7082 35.6669C12.9463 36.6353 14.3137 37.4259 15.7707 38.0156L16.7108 44.7893H22.0782L23.6902 35.5353L22.0782 27.947C19.0115 27.947 16.5258 25.4615 16.5258 22.3946Z" fill="#FBB532"/>
<path d="M38.9208 22.3946C38.9208 21.5988 38.8634 20.8159 38.7579 20.0497L44.1568 15.8446L38.7894 6.5499L32.4485 9.12241C31.2102 8.1543 29.8429 7.36377 28.386 6.77368L27.4459 0H22.0786V16.8422C25.1454 16.8422 27.631 19.3278 27.631 22.3946C27.631 25.4615 25.1454 27.947 22.0786 27.947V44.7893H27.4459L28.3862 38.0153C29.8431 37.4252 31.2104 36.6347 32.4487 35.6665L38.7896 38.239L44.1569 28.9444L38.7581 24.7393C38.8636 23.9734 38.9208 23.1905 38.9208 22.3946Z" fill="#E9A019"/>
</svg>
