<svg width="182" height="40" viewBox="0 0 182 40" fill="none" xmlns="http://www.w3.org/2000/svg">
<path fill-rule="evenodd" clip-rule="evenodd" d="M14.1656 34.8567C15.5761 34.8567 16.8956 34.5978 18.1392 34.0953C18.1392 34.141 20.6721 38.085 20.7176 38.1002C18.4758 39.306 15.9653 39.9192 13.4224 39.8819C5.64197 39.8971 0 34.7348 0 26.527C0 18.2583 5.91497 13.1265 13.4224 13.1265C16.0766 13.1265 18.1847 13.7051 20.2929 14.832L17.8662 18.9435C16.5923 18.441 15.2879 18.2126 13.9229 18.2126C9.32745 18.2126 5.7633 21.1516 5.7633 26.527C5.7633 31.6131 9.20612 34.8567 14.1656 34.8567ZM33.776 13.1265C41.42 13.1265 46.9558 18.5628 46.9558 26.527C46.9558 34.4455 41.42 39.8819 33.7608 39.8819C26.1775 39.8819 20.6417 34.4455 20.6417 26.527C20.6417 18.5628 26.1775 13.1265 33.776 13.1265ZM33.776 18.0298C29.5142 18.0298 26.405 21.3343 26.405 26.527C26.405 31.674 29.5142 34.9785 33.776 34.9785C38.144 34.9785 41.2076 31.674 41.2076 26.527C41.2076 21.3343 38.144 18.0298 33.776 18.0298ZM50.5806 39.3032V13.7051H56.2832V39.288H50.5806V39.3032ZM49.8223 5.83229C49.8814 4.92156 50.2834 4.06755 50.9467 3.44355C51.6101 2.81955 52.485 2.47231 53.394 2.47231C54.303 2.47231 55.1779 2.81955 55.8412 3.44355C56.5046 4.06755 56.9066 4.92156 56.9657 5.83229C56.9659 6.78852 56.5929 7.70675 55.9265 8.39C55.2602 9.07324 54.3537 9.46706 53.4016 9.48698C52.4494 9.46706 51.5429 9.07324 50.8766 8.39C50.2103 7.70675 49.8372 6.78852 49.8374 5.83229H49.8223ZM61.2579 15.3193C64.9933 13.9096 68.9457 13.1674 72.9361 13.1265C79.4578 13.1265 83.5831 15.6086 83.5831 22.8266V39.3032H77.9563V23.3596C77.9563 19.6592 75.6661 18.3344 72.4963 18.3344C70.4792 18.3344 68.462 18.6085 66.9605 19.0806V39.288H61.273V15.3193H61.2579ZM88.3606 0H94.0632V14.3904C95.2765 13.7508 97.6274 13.1265 99.872 13.1265C107.243 13.1265 112.764 17.8471 112.764 26.0702C112.764 34.3389 107.304 39.8819 97.87 39.8819C94.1845 39.8819 90.954 39.1205 88.3606 38.2068V0ZM94.0632 34.4455C95.1552 34.7958 96.596 34.9785 98.0369 34.9785C103.269 34.9785 107.015 32.0852 107.015 26.192C107.015 21.2125 103.497 18.2735 99.1895 18.2735C96.9449 18.2735 95.2159 18.8521 94.0632 19.4917V34.4455ZM129.25 22.1414C129.25 19.3699 127.157 18.0907 124.336 18.0907C121.409 18.0907 119.103 18.9587 116.98 20.177V15.1974C119.52 13.8115 122.37 13.0987 125.261 13.1265C130.842 13.1265 134.816 15.4411 134.816 21.852V38.7855C132.389 39.425 128.946 39.821 126.065 39.821C119.452 39.821 114.614 37.8109 114.614 32.0243C114.614 26.8163 119.043 24.2733 126.414 24.2733H129.235V22.1414H129.25ZM129.25 28.0803H126.823C122.849 28.0803 120.256 29.2528 120.256 31.8568C120.256 34.5064 122.683 35.5419 126.125 35.5419C126.99 35.5419 128.203 35.4353 129.235 35.2678V28.0955L129.25 28.0803ZM138.956 32.3745C141.179 34.1425 143.903 35.1557 146.737 35.2678C149.27 35.2678 150.938 34.3998 150.938 32.3745C150.938 30.2883 149.436 29.5421 146.16 28.6741C140.852 27.4559 138.623 25.324 138.623 20.8622C138.623 15.6695 142.536 13.1265 147.723 13.1265C150.604 13.1265 152.894 13.7508 155.033 15.0909V20.3445C153 18.7157 150.489 17.8058 147.889 17.7557C145.417 17.7557 144.098 18.974 144.098 20.649C144.098 22.3241 145.175 23.1769 148.117 23.9992C153.941 25.2631 156.459 27.4559 156.459 32.07C156.459 37.4606 152.379 39.8819 146.858 39.8819C144.089 39.9374 141.359 39.2205 138.971 37.8109V32.3745H138.956ZM164.269 27.8061V27.9127C164.618 32.4811 168.516 34.9785 172.505 34.9785C176.008 34.9785 178.541 34.1562 181.074 32.4811V37.5063C178.769 39.1357 175.371 39.8819 172.095 39.8819C164.148 39.8819 158.749 34.7958 158.749 26.7097C158.749 18.5628 164.042 13.1265 171.064 13.1265C178.496 13.1265 181.999 17.9232 181.999 24.9128V27.8061H164.254H164.269ZM176.645 24.1058C176.524 20.1161 174.567 17.9232 170.882 17.9232C167.606 17.9232 165.195 20.2379 164.436 24.1058H176.645Z" fill="#545C79" fill-opacity="0.5"/>
</svg>
