<svg width="96" height="29" viewBox="0 0 96 29" fill="none" xmlns="http://www.w3.org/2000/svg">
<path d="M94.9267 25.3542C94.9267 25.7098 94.8566 26.0619 94.7204 26.3904C94.5842 26.7189 94.3847 27.0174 94.1331 27.2687C93.8815 27.52 93.5829 27.7193 93.2542 27.8551C92.9256 27.991 92.5734 28.0607 92.2178 28.0603H3.56986C2.85137 28.0611 2.16199 27.7764 1.65334 27.2689C1.14469 26.7615 0.858419 26.0727 0.857483 25.3542V3.77385C0.858419 3.05501 1.14458 2.36592 1.65313 1.85788C2.16167 1.34984 2.85104 1.0644 3.56986 1.06421H92.2171C92.5729 1.06421 92.9252 1.1343 93.2539 1.27048C93.5826 1.40666 93.8812 1.60627 94.1328 1.85789C94.3843 2.10951 94.5839 2.40823 94.72 2.73697C94.856 3.06572 94.926 3.41805 94.9259 3.77385L94.9267 25.3542Z" fill="white"/>
<path d="M92.2184 28.6904H3.57044C2.68534 28.6903 1.83646 28.3389 1.21006 27.7136C0.58367 27.0882 0.230932 26.2399 0.229248 25.3548L0.229248 3.7751C0.230557 2.88953 0.583063 2.04063 1.20944 1.41464C1.83581 0.78864 2.6849 0.436661 3.57044 0.435913L92.2177 0.435913C93.1031 0.437034 93.952 0.789132 94.5783 1.41505C95.2046 2.04096 95.5572 2.88964 95.5589 3.7751V25.3548C95.5603 27.1947 94.0589 28.6904 92.2184 28.6904Z" fill="#A6A6A6"/>
<path d="M94.9267 25.3542C94.9267 25.7098 94.8566 26.0619 94.7204 26.3904C94.5842 26.7189 94.3847 27.0174 94.1331 27.2687C93.8815 27.52 93.5829 27.7193 93.2542 27.8551C92.9256 27.991 92.5734 28.0607 92.2178 28.0603H3.56986C2.85137 28.0611 2.16199 27.7764 1.65334 27.2689C1.14469 26.7615 0.858419 26.0727 0.857483 25.3542V3.77385C0.858419 3.05501 1.14458 2.36592 1.65313 1.85788C2.16167 1.34984 2.85104 1.0644 3.56986 1.06421H92.2171C92.5729 1.06421 92.9252 1.1343 93.2539 1.27048C93.5826 1.40666 93.8812 1.60627 94.1328 1.85789C94.3843 2.10951 94.5839 2.40823 94.72 2.73697C94.856 3.06572 94.926 3.41805 94.9259 3.77385L94.9267 25.3542Z" fill="black"/>
<path d="M21.5078 14.4147C21.4874 12.1375 23.371 11.0296 23.4571 10.9781C22.3903 9.42152 20.7369 9.20884 20.1558 9.19189C18.7671 9.04563 17.4201 10.0235 16.7127 10.0235C15.9911 10.0235 14.9018 9.20602 13.7277 9.23004C12.2168 9.25336 10.8034 10.1288 10.0282 11.4882C8.42842 14.26 9.62156 18.3333 11.1543 20.5738C11.921 21.6717 12.8169 22.8962 13.9896 22.8531C15.1369 22.8065 15.5654 22.1218 16.9499 22.1218C18.3216 22.1218 18.7241 22.8531 19.92 22.8255C21.1513 22.8065 21.9265 21.7233 22.6664 20.6162C23.5524 19.3592 23.9083 18.1199 23.9224 18.0563C23.8941 18.0464 21.5318 17.1434 21.5078 14.4147ZM19.2486 7.71802C19.8657 6.94575 20.2879 5.89511 20.1707 4.82892C19.2776 4.86849 18.1607 5.44715 17.5175 6.20246C16.9485 6.86803 16.4401 7.95895 16.5715 8.98487C17.5747 9.05976 18.6048 8.47827 19.2486 7.71802Z" fill="white"/>
<path d="M92.2177 0.435913H44.7352L63.3332 28.6904H92.2177C93.103 28.6897 93.9519 28.3379 94.5782 27.7122C95.2045 27.0865 95.5572 26.238 95.5589 25.3527V3.7751C95.5574 2.88959 95.2048 2.0408 94.5785 1.41484C93.9522 0.788886 93.1032 0.436847 92.2177 0.435913V0.435913Z" fill="url(#paint0_linear_808_2651)"/>
<path d="M38.1457 22.6952H36.5412L35.6623 19.9332H32.6072L31.77 22.6952H30.2078L33.2353 13.2921H35.1048L38.1457 22.6952ZM35.3973 18.7744L34.6025 16.3191C34.5184 16.0683 34.3601 15.4776 34.1284 14.5477H34.1001C34.0069 14.9476 33.8578 15.5383 33.6536 16.3191L32.8722 18.7744H35.3973ZM45.9162 19.2217C45.9162 20.3748 45.6032 21.2863 44.9765 21.9554C44.4155 22.551 43.7182 22.8485 42.8866 22.8485C41.9886 22.8485 41.3428 22.5284 40.9507 21.8869V25.4444H39.4443V18.1434C39.4443 17.4192 39.4253 16.6766 39.3885 15.9149H40.7133L40.7974 16.9896H40.8256C41.328 16.1799 42.0903 15.775 43.1134 15.775C43.9132 15.775 44.5808 16.0909 45.115 16.7232C45.6484 17.357 45.9162 18.1894 45.9162 19.2217ZM44.3816 19.2768C44.3816 18.6169 44.2332 18.0728 43.9351 17.6439C43.6094 17.1981 43.172 16.9748 42.6237 16.9748C42.2521 16.9748 41.9144 17.0991 41.6127 17.3443C41.3103 17.5916 41.1125 17.9145 41.0199 18.3144C40.9786 18.464 40.9551 18.6179 40.95 18.773V19.9042C40.95 20.3967 41.1012 20.8129 41.4036 21.1534C41.706 21.4926 42.0988 21.6629 42.5821 21.6629C43.1494 21.6629 43.591 21.4431 43.9068 21.0072C44.2233 20.5698 44.3816 19.9932 44.3816 19.2768ZM53.7142 19.2217C53.7142 20.3748 53.4012 21.2863 52.7745 21.9554C52.2128 22.551 51.5162 22.8485 50.6839 22.8485C49.7859 22.8485 49.1401 22.5284 48.748 21.8869V25.4444H47.2417V18.1434C47.2417 17.4192 47.2226 16.6766 47.1858 15.9149H48.5106L48.5947 16.9896H48.6229C49.1246 16.1799 49.8869 15.775 50.9107 15.775C51.7098 15.775 52.3775 16.0909 52.913 16.7232C53.4457 17.357 53.7142 18.1894 53.7142 19.2217ZM52.1789 19.2768C52.1789 18.6169 52.0298 18.0728 51.7317 17.6439C51.406 17.1981 50.97 16.9748 50.4218 16.9748C50.0501 16.9748 49.7124 17.0991 49.4093 17.3443C49.1069 17.5916 48.9098 17.9145 48.8172 18.3144C48.7713 18.501 48.7466 18.6529 48.7466 18.773V19.9042C48.7466 20.3967 48.8985 20.8129 49.1995 21.1534C49.5019 21.4919 49.8947 21.6629 50.3794 21.6629C50.9474 21.6629 51.389 21.4431 51.7041 21.0072C52.0207 20.5698 52.1789 19.9932 52.1789 19.2768ZM62.4328 20.0575C62.4328 20.8581 62.1531 21.5088 61.597 22.0112C60.9852 22.5595 60.131 22.8344 59.0358 22.8344C58.0241 22.8344 57.213 22.6393 56.6011 22.2486L56.9494 20.993C57.61 21.3845 58.3357 21.5795 59.1256 21.5795C59.6936 21.5795 60.1352 21.4509 60.4503 21.1958C60.7661 20.94 60.9258 20.5981 60.9258 20.1713C60.9258 19.789 60.7937 19.469 60.5344 19.2082C60.2737 18.9482 59.8427 18.7059 59.2372 18.4833C57.591 17.8693 56.7671 16.9713 56.7671 15.7899C56.7671 15.0183 57.0582 14.3866 57.639 13.8927C58.2198 13.3995 58.9899 13.153 59.948 13.153C60.8036 13.153 61.5165 13.302 62.0824 13.5995L61.7044 14.8275C61.1717 14.5392 60.5704 14.3951 59.8978 14.3951C59.3665 14.3951 58.9496 14.5258 58.6515 14.7858C58.4007 15.0183 58.2735 15.3016 58.2735 15.638C58.2735 16.0089 58.4183 16.317 58.7066 16.5586C58.9567 16.7812 59.4131 17.0235 60.073 17.2836C60.8827 17.61 61.4776 17.9901 61.8584 18.4268C62.2421 18.8634 62.4328 19.4082 62.4328 20.0575ZM67.4259 17.0454H65.7656V20.3373C65.7656 21.1746 66.0581 21.5922 66.6445 21.5922C66.9137 21.5922 67.1369 21.5696 67.3136 21.5223L67.3553 22.6662C67.0585 22.7771 66.6678 22.8329 66.1838 22.8329C65.5889 22.8329 65.124 22.6514 64.7884 22.2882C64.4542 21.925 64.2861 21.3166 64.2861 20.4603V17.0426H63.2969V15.9121H64.2861V14.6707L65.7656 14.2241V15.9121H67.4259V17.0454ZM74.9025 19.2492C74.9025 20.2914 74.6043 21.1471 74.0094 21.8162C73.3869 22.5051 72.5589 22.8485 71.5266 22.8485C70.5304 22.8485 69.7384 22.5185 69.1477 21.8593C68.5571 21.1987 68.2617 20.3663 68.2617 19.3623C68.2617 18.3116 68.567 17.451 69.1753 16.7819C69.785 16.1121 70.606 15.7771 71.6383 15.7771C72.6331 15.7771 73.4322 16.1078 74.037 16.7678C74.6149 17.4079 74.9025 18.2346 74.9025 19.2492ZM73.341 19.2839C73.341 18.6628 73.2068 18.13 72.9376 17.6842C72.6218 17.1458 72.1696 16.8766 71.5839 16.8766C70.9805 16.8766 70.5177 17.1458 70.2026 17.6842C69.9327 18.13 69.7985 18.672 69.7985 19.3121C69.7985 19.9339 69.9327 20.4681 70.2026 20.9125C70.5283 21.4509 70.9826 21.7201 71.5712 21.7201C72.147 21.7201 72.5985 21.4452 72.9249 20.8991C73.2018 20.4426 73.341 19.9063 73.341 19.2839ZM79.8009 17.2397C79.6442 17.2115 79.4853 17.1975 79.3261 17.1981C78.7962 17.1981 78.3864 17.3973 78.0981 17.7986C77.848 18.1519 77.7222 18.5985 77.7222 19.1376V22.6952H76.2159V18.0502C76.2172 17.3384 76.2026 16.6267 76.1721 15.9156H77.4841L77.5392 17.2129H77.5809C77.7406 16.7671 77.9907 16.4074 78.3341 16.1382C78.6484 15.903 79.0303 15.7756 79.4229 15.775C79.562 15.775 79.6878 15.7849 79.7994 15.8026L79.8009 17.2397ZM86.5377 18.9843C86.5415 19.2133 86.523 19.4421 86.4826 19.6675H81.9636C81.9805 20.3373 82.1995 20.8503 82.6192 21.2036C83 21.5187 83.4925 21.677 84.0973 21.677C84.7664 21.677 85.3768 21.571 85.9258 21.3569L86.1618 22.4019C85.5203 22.6817 84.7628 22.8209 83.8889 22.8209C82.8375 22.8209 82.0123 22.5115 81.4118 21.8939C80.8126 21.2757 80.5123 20.4447 80.5123 19.404C80.5123 18.3823 80.7914 17.5309 81.3503 16.8518C81.9353 16.1269 82.7259 15.7644 83.7207 15.7644C84.6978 15.7644 85.4376 16.1269 85.9399 16.8518C86.3377 17.4263 86.5377 18.1385 86.5377 18.9843ZM85.1013 18.5935C85.1119 18.1463 85.013 17.7612 84.8088 17.4355C84.5481 17.0158 84.1468 16.8066 83.6091 16.8066C83.1166 16.8066 82.7153 17.0108 82.4101 17.4206C82.1593 17.7464 82.0102 18.1378 81.9643 18.5921L85.1013 18.5935Z" fill="white"/>
<path d="M32.17 9.96953C31.7511 9.96953 31.3886 9.94904 31.0869 9.91441V5.36832C31.5089 5.30314 31.9353 5.27101 32.3622 5.27223C34.0897 5.27223 34.8852 6.12224 34.8852 7.50783C34.8852 9.10609 33.9455 9.96953 32.17 9.96953ZM32.423 5.85515C32.1898 5.85515 31.9913 5.86928 31.8267 5.9032V9.35905C31.9157 9.37318 32.0867 9.37954 32.3269 9.37954C33.4587 9.37954 34.1031 8.73514 34.1031 7.52832C34.1031 6.45221 33.5202 5.85515 32.423 5.85515ZM37.3645 10.0041C36.3909 10.0041 35.7599 9.27709 35.7599 8.29C35.7599 7.26123 36.4043 6.52781 37.4196 6.52781C38.379 6.52781 39.0241 7.22025 39.0241 8.2356C39.0241 9.27709 38.3593 10.0041 37.3645 10.0041ZM37.3927 7.06904C36.8579 7.06904 36.5152 7.5693 36.5152 8.26881C36.5152 8.95489 36.8649 9.45514 37.3857 9.45514C37.9064 9.45514 38.2561 8.92027 38.2561 8.25467C38.2561 7.57636 37.9134 7.06904 37.3927 7.06904ZM44.576 6.59635L43.5339 9.92855H42.8549L42.4232 8.48148C42.3159 8.12752 42.2265 7.76836 42.1555 7.40537H42.1413C42.0869 7.76855 41.9838 8.13244 41.8743 8.48148L41.415 9.92855H40.729L39.7483 6.59635H40.5092L40.8865 8.18048C40.9756 8.55779 41.0504 8.91391 41.1126 9.25024H41.1267C41.1812 8.96973 41.2702 8.61927 41.4009 8.18755L41.8743 6.59705H42.4776L42.9305 8.15363C43.04 8.53094 43.1291 8.90119 43.1983 9.25094H43.2181C43.2661 8.90825 43.3417 8.54437 43.4442 8.15363L43.849 6.59705L44.576 6.59635ZM48.4125 9.92855H47.6721V8.01515C47.6721 7.42586 47.446 7.13052 47.0002 7.13052C46.5614 7.13052 46.2597 7.50783 46.2597 7.94661V9.92855H45.5193V7.54881C45.5193 7.25417 45.5122 6.93833 45.4917 6.59564H46.1431L46.1778 7.11003H46.1982C46.3975 6.75391 46.8016 6.52781 47.2545 6.52781C47.954 6.52781 48.4132 7.06269 48.4132 7.93318L48.4125 9.92855ZM50.4544 9.92855H49.7132V5.06732H50.4544V9.92855ZM53.1541 10.0041C52.1812 10.0041 51.5495 9.27709 51.5495 8.29C51.5495 7.26123 52.1939 6.52781 53.2085 6.52781C54.1686 6.52781 54.813 7.22025 54.813 8.2356C54.8137 9.27709 54.1482 10.0041 53.1541 10.0041ZM53.1816 7.06904C52.6468 7.06904 52.3041 7.5693 52.3041 8.26881C52.3041 8.95489 52.6545 9.45514 53.1738 9.45514C53.6953 9.45514 54.0443 8.92027 54.0443 8.25467C54.045 7.57636 53.703 7.06904 53.1816 7.06904ZM57.7324 9.92855L57.6787 9.54488H57.6589C57.4328 9.85365 57.1029 10.0041 56.6846 10.0041C56.0876 10.0041 55.6637 9.58586 55.6637 9.02343C55.6637 8.20097 56.3766 7.77562 57.6109 7.77562V7.71415C57.6109 7.27536 57.3784 7.05562 56.9192 7.05562C56.5906 7.05562 56.3024 7.13829 56.0487 7.30292L55.8982 6.81609C56.2063 6.6239 56.5906 6.52781 57.0421 6.52781C57.9126 6.52781 58.352 6.98708 58.352 7.90633V9.13365C58.352 9.46998 58.3669 9.73071 58.4001 9.92925L57.7324 9.92855ZM57.6307 8.26881C56.8083 8.26881 56.3956 8.46806 56.3956 8.94076C56.3956 9.29051 56.6083 9.4615 56.9036 9.4615C57.2802 9.4615 57.6307 9.17393 57.6307 8.78319V8.26881ZM61.9476 9.92855L61.913 9.39367H61.8925C61.6798 9.79783 61.3223 10.0041 60.8228 10.0041C60.0194 10.0041 59.4245 9.29758 59.4245 8.30343C59.4245 7.26123 60.0413 6.5271 60.8835 6.5271C61.3294 6.5271 61.6452 6.6776 61.8232 6.98002H61.8381V5.06732H62.5792V9.03049C62.5792 9.35269 62.587 9.6544 62.6068 9.92855H61.9476ZM61.8381 7.96781C61.8381 7.50147 61.5293 7.10367 61.0581 7.10367C60.5091 7.10367 60.1735 7.59049 60.1735 8.27587C60.1735 8.94782 60.5218 9.4078 61.0432 9.4078C61.5088 9.4078 61.8381 9.00294 61.8381 8.52317V7.96781ZM67.2784 10.0041C66.3055 10.0041 65.6745 9.27709 65.6745 8.29C65.6745 7.26123 66.3189 6.52781 67.3335 6.52781C68.2937 6.52781 68.938 7.22025 68.938 8.2356C68.9387 9.27709 68.2739 10.0041 67.2784 10.0041ZM67.3059 7.06904C66.7718 7.06904 66.4291 7.5693 66.4291 8.26881C66.4291 8.95489 66.7789 9.45514 67.2989 9.45514C67.8203 9.45514 68.1693 8.92027 68.1693 8.25467C68.1707 7.57636 67.8281 7.06904 67.3059 7.06904ZM72.92 9.92855H72.1789V8.01515C72.1789 7.42586 71.9528 7.13052 71.507 7.13052C71.0682 7.13052 70.7672 7.50783 70.7672 7.94661V9.92855H70.0261V7.54881C70.0261 7.25417 70.019 6.93833 69.9985 6.59564H70.6499L70.6846 7.11003H70.7051C70.9036 6.75391 71.3084 6.5271 71.7606 6.5271C72.4601 6.5271 72.92 7.06198 72.92 7.93248V9.92855ZM77.9018 7.15171H77.0872V8.76977C77.0872 9.1817 77.2299 9.38731 77.5182 9.38731C77.6489 9.38731 77.7584 9.37318 77.8467 9.35269L77.8672 9.91512C77.7238 9.97023 77.5316 9.99779 77.2928 9.99779C76.7092 9.99779 76.3601 9.67559 76.3601 8.83194V7.15171H75.8741V6.59635H76.3601V5.98587L77.0872 5.76612V6.59564H77.9018V7.15171ZM81.8216 9.92855H81.0819V8.02928C81.0819 7.43293 80.8565 7.13122 80.41 7.13122C80.0263 7.13122 79.6688 7.39195 79.6688 7.91976V9.92855H78.9291V5.06732H79.6688V7.06904H79.6837C79.9168 6.70587 80.2546 6.5271 80.6855 6.5271C81.3907 6.5271 81.8216 7.0754 81.8216 7.94661V9.92855ZM85.8376 8.4405H83.6155C83.6297 9.07147 84.0472 9.42759 84.6654 9.42759C84.994 9.42759 85.2964 9.37247 85.5634 9.27002L85.6786 9.78441C85.3635 9.92148 84.9926 9.99002 84.5609 9.99002C83.5187 9.99002 82.9019 9.33149 82.9019 8.31049C82.9019 7.28879 83.5336 6.52074 84.4775 6.52074C85.3289 6.52074 85.863 7.15171 85.863 8.10488C85.8678 8.21737 85.8593 8.33002 85.8376 8.4405ZM85.1586 7.91269C85.1586 7.39831 84.8993 7.03513 84.4259 7.03513C84.0006 7.03513 83.6643 7.40537 83.6162 7.91269H85.1586Z" fill="white"/>
<defs>
<linearGradient id="paint0_linear_808_2651" x1="70.1462" y1="28.7655" x2="70.1462" y2="-73.134" gradientUnits="userSpaceOnUse">
<stop stop-color="#1A1A1A" stop-opacity="0.1"/>
<stop offset="0.123" stop-color="#212121" stop-opacity="0.151"/>
<stop offset="0.308" stop-color="#353535" stop-opacity="0.227"/>
<stop offset="0.532" stop-color="#575757" stop-opacity="0.318"/>
<stop offset="0.783" stop-color="#858585" stop-opacity="0.421"/>
<stop offset="1" stop-color="#B3B3B3" stop-opacity="0.51"/>
</linearGradient>
</defs>
</svg>
