<svg width="77" height="16" viewBox="0 0 77 16" fill="none" xmlns="http://www.w3.org/2000/svg">
<path d="M4.81049 7.10888L7.78606 4.13343L10.7632 7.11045L12.4946 5.37906L7.78606 0.67041L3.0791 5.37749L4.81049 7.10888Z" fill="#F3BA2F"/>
<path d="M3.58781 8.33121L1.85645 6.59985L0.124999 8.3313L1.85636 10.0627L3.58781 8.33121Z" fill="#F3BA2F"/>
<path d="M4.81047 9.55394L7.78604 12.5294L10.7631 9.55249L12.4954 11.2829L12.4946 11.2839L7.78604 15.9924L3.07896 11.2855L3.07654 11.283L4.81047 9.55394Z" fill="#F3BA2F"/>
<path d="M13.7158 10.0635L15.4473 8.33203L13.7159 6.60067L11.9845 8.33212L13.7158 10.0635Z" fill="#F3BA2F"/>
<path d="M9.54229 8.33041H9.54302L7.78609 6.57349L6.4877 7.87188H6.48758L6.33849 8.02109L6.03074 8.32884L6.02832 8.33126L6.03074 8.3338L7.78609 10.0892L9.54302 8.33223L9.54386 8.33126L9.54229 8.33041Z" fill="#F3BA2F"/>
<path d="M18.1465 4.38306H21.9122C22.8468 4.38306 23.5535 4.62291 24.0325 5.10262C24.4032 5.47415 24.5885 5.93462 24.5885 6.48391V6.50715C24.5885 6.73926 24.5598 6.94438 24.5021 7.12228C24.4445 7.30041 24.3675 7.46076 24.2713 7.60392C24.1753 7.74721 24.0637 7.87295 23.9369 7.98114C23.81 8.08957 23.6736 8.18251 23.5275 8.25972C23.9973 8.43785 24.3671 8.67952 24.6368 8.98521C24.9063 9.29102 25.0412 9.7147 25.0412 10.2563V10.2794C25.0412 10.6509 24.9698 10.9758 24.8269 11.2545C24.6839 11.533 24.4792 11.7652 24.2126 11.951C23.946 12.1367 23.6254 12.2759 23.2507 12.3688C22.8761 12.4617 22.4609 12.508 22.0052 12.508H18.1465V4.38306ZM21.5357 7.66782C21.9304 7.66782 22.2439 7.60029 22.4759 7.46476C22.708 7.32934 22.824 7.11066 22.824 6.80896V6.78573C22.824 6.51501 22.7233 6.30807 22.5222 6.16479C22.321 6.02163 22.0308 5.94999 21.6517 5.94999H19.8874V7.66782H21.5357ZM22.0116 10.9412C22.4063 10.9412 22.7156 10.8698 22.9402 10.7265C23.1646 10.5834 23.2769 10.3608 23.2769 10.059V10.0359C23.2769 9.76505 23.1723 9.55036 22.9634 9.39159C22.7544 9.23318 22.4179 9.15379 21.9536 9.15379H19.8874V10.9413L22.0116 10.9412Z" fill="#F3BA2F"/>
<path d="M27.2838 4.38306H29.0715V12.5083H27.2838V4.38306Z" fill="#F3BA2F"/>
<path d="M31.7791 4.38306H33.4271L37.2344 9.3859V4.38306H38.9987V12.5083H37.4782L33.5432 7.34301V12.5083H31.7791V4.38306Z" fill="#F3BA2F"/>
<path d="M44.4105 4.32495H46.0586L49.541 12.5081H47.6721L46.9292 10.6858H43.4934L42.7506 12.5081H40.928L44.4105 4.32495ZM46.2908 9.10706L45.2113 6.47228L44.132 9.10706H46.2908Z" fill="#F3BA2F"/>
<path d="M51.4707 4.38306H53.1191L56.9261 9.3859V4.38306H58.6905V12.5083H57.17L53.235 7.34301V12.5083H51.4707V4.38306Z" fill="#F3BA2F"/>
<path d="M65.1236 12.6473C64.5275 12.6473 63.9745 12.5389 63.4637 12.3224C62.9528 12.1059 62.5119 11.8098 62.1405 11.4344C61.7689 11.0591 61.4786 10.616 61.27 10.1054C61.061 9.59454 60.9565 9.049 60.9565 8.4686V8.44549C60.9565 7.86509 61.061 7.3216 61.27 6.81466C61.4787 6.30784 61.7689 5.86286 62.1405 5.47984C62.5117 5.09682 62.9568 4.79489 63.4752 4.57439C63.9935 4.3539 64.5665 4.24365 65.1932 4.24365C65.5721 4.24365 65.9184 4.27475 66.2318 4.33647C66.5452 4.39855 66.8295 4.48351 67.0851 4.59182C67.3406 4.70025 67.5763 4.8318 67.7933 4.98645C68.0095 5.14136 68.2109 5.31151 68.3967 5.49727L67.2594 6.80885C66.9417 6.52264 66.6188 6.29804 66.29 6.13563C65.961 5.97323 65.5916 5.8919 65.1815 5.8919C64.8409 5.8919 64.5256 5.95774 64.2356 6.08928C63.9454 6.22083 63.6958 6.4026 63.4868 6.63471C63.278 6.86682 63.1155 7.13584 62.9992 7.44141C62.8834 7.74722 62.8254 8.07408 62.8254 8.42225V8.44536C62.8254 8.79353 62.8834 9.12258 62.9992 9.4319C63.1155 9.74158 63.2757 10.0123 63.4811 10.2444C63.686 10.4765 63.9337 10.6605 64.2238 10.7959C64.5142 10.9314 64.8333 10.9989 65.1815 10.9989C65.646 10.9989 66.0383 10.9139 66.3595 10.7436C66.6806 10.5736 67 10.3413 67.3172 10.0471L68.4548 11.1963C68.2458 11.4208 68.0288 11.6221 67.8048 11.7998C67.5803 11.978 67.3346 12.1307 67.0675 12.2585C66.8007 12.386 66.5083 12.483 66.1914 12.5486C65.8738 12.6143 65.518 12.6473 65.1236 12.6473Z" fill="#F3BA2F"/>
<path d="M70.5586 4.38306H76.6756V5.97334H72.323V7.62159H76.1535V9.21176H72.323V10.9181H76.734V12.5083H70.5586V4.38306Z" fill="#F3BA2F"/>
</svg>
