<svg width="174" height="68" viewBox="0 0 174 68" fill="none" xmlns="http://www.w3.org/2000/svg">
<path d="M121.325 48.7983V7.15234H129.703V48.7983H121.325Z" fill="#F7A600"/>
<path d="M23.7469 61.1654H5.80103V19.5195H23.0194C31.3971 19.5195 36.2693 24.0832 36.2693 31.2262C36.2693 35.856 33.1387 38.8323 30.9782 39.8244C33.5576 40.9929 36.8866 43.6164 36.8866 49.1942C36.8866 56.9546 31.3971 61.1654 23.7469 61.1654ZM22.38 26.7728H14.2008V36.3631H22.38C25.9295 36.3631 27.9137 34.423 27.9137 31.5569C27.9137 28.6909 25.9295 26.7728 22.38 26.7728ZM22.9091 43.6605H14.1787V53.8901H22.9091C26.7011 53.8901 28.509 51.5532 28.509 48.7312C28.509 45.9092 26.7011 43.6605 22.9091 43.6605Z" fill="white"/>
<path d="M62.4164 44.0794V61.1654H54.1049V44.0794L41.2076 19.5195H50.2908L58.2937 36.2969L66.1864 19.5195H75.2695L62.4164 44.0794Z" fill="white"/>
<path d="M99.0357 61.1654H81.0898V19.5195H98.3082C106.686 19.5195 111.558 24.0832 111.558 31.2262C111.558 35.856 108.428 38.8323 106.267 39.8244C108.846 40.9929 112.175 43.6164 112.175 49.1942C112.153 56.9546 106.686 61.1654 99.0357 61.1654ZM97.6468 26.7728H89.4675V36.3631H97.6468C101.196 36.3631 103.18 34.423 103.18 31.5569C103.18 28.6909 101.196 26.7728 97.6468 26.7728ZM98.1759 43.6605H89.4455V53.8901H98.1759C101.968 53.8901 103.776 51.5532 103.776 48.7312C103.776 45.9092 101.99 43.6605 98.1759 43.6605Z" fill="white"/>
<path d="M156.665 26.7728V61.1654H148.288V26.7728H137.11V19.5195H167.865V26.7728H156.665Z" fill="white"/>
</svg>
