<svg width="252" height="46" viewBox="0 0 252 46" fill="none" xmlns="http://www.w3.org/2000/svg">
<path d="M50.9186 13.212C41.7683 13.212 34.6187 20.1582 34.6187 29.4571C34.6187 38.756 41.5877 45.6428 50.9186 45.6428C60.2496 45.6428 67.3398 38.6371 67.3398 29.3977C67.3398 20.2177 60.3707 13.212 50.9186 13.212ZM50.9781 38.9389C45.7673 38.9389 41.949 34.892 41.949 29.4571C41.949 23.9605 45.7056 19.9158 50.9164 19.9158C56.1889 19.9158 60.0049 24.0223 60.0049 29.4571C60.0049 34.892 56.1889 38.9389 50.9781 38.9389ZM69.3381 20.2771H73.8836V45.0391H81.1544V13.8157H69.3381V20.2771ZM16.3204 19.9158C20.1387 19.9158 23.1682 22.2709 24.3183 25.7737H32.0144C30.6197 18.2856 24.4395 13.212 16.3821 13.212C7.23182 13.212 0.0821533 20.1582 0.0821533 29.4571C0.0821533 38.756 7.05119 45.6428 16.3821 45.6428C24.2589 45.6428 30.5603 40.5692 31.955 33.0194H24.3206C23.23 36.5222 20.2005 38.9389 16.3821 38.9389C11.1096 38.9389 7.41473 34.892 7.41473 29.4571C7.41245 23.9628 11.0479 19.9158 16.3204 19.9158ZM207.489 26.439L202.157 25.6548C199.612 25.2935 197.794 24.4475 197.794 22.4538C197.794 20.2794 200.159 19.1933 203.369 19.1933C206.883 19.1933 209.126 20.7024 209.611 23.1786H216.639C215.85 16.8978 211.003 13.2143 203.552 13.2143C195.855 13.2143 190.766 17.1401 190.766 22.6961C190.766 28.0098 194.099 31.0919 200.824 32.0568L206.156 32.841C208.762 33.2023 210.217 34.2312 210.217 36.1632C210.217 38.6394 207.672 39.666 204.157 39.666C199.854 39.666 197.431 37.9146 197.067 35.2578H189.918C190.585 41.358 195.371 45.645 204.096 45.645C212.034 45.645 217.304 42.021 217.304 35.7997C217.304 30.2437 213.486 27.3445 207.489 26.439ZM77.519 0.952194C74.853 0.952194 72.8524 2.88423 72.8524 5.54106C72.8524 8.19789 74.8507 10.1299 77.519 10.1299C80.1849 10.1299 82.1856 8.19789 82.1856 5.54106C82.1833 2.88423 80.1849 0.952194 77.519 0.952194ZM184.222 24.5047C184.222 17.7415 180.102 13.212 171.377 13.212C163.137 13.212 158.532 17.3802 157.622 23.7822H164.833C165.197 21.306 167.136 19.2528 171.256 19.2528C174.953 19.2528 176.771 20.883 176.771 22.8768C176.771 25.4742 173.437 26.1372 169.317 26.5602C163.743 27.1638 156.835 29.0959 156.835 36.3438C156.835 41.9616 161.017 45.5833 167.682 45.5833C172.893 45.5833 176.165 43.4089 177.802 39.9655C178.044 43.0454 180.347 45.0391 183.559 45.0391H187.8V38.5777H184.224V24.5047H184.222ZM177.07 32.3563C177.07 36.5245 173.435 39.6043 169.01 39.6043C166.283 39.6043 163.98 38.4565 163.98 36.042C163.98 32.9622 167.677 32.1162 171.071 31.755C174.342 31.4532 176.16 30.7284 177.07 29.3382V32.3563ZM138.473 13.212C134.412 13.212 131.019 14.904 128.596 17.7415V0.650391H121.325V45.0414H128.474V40.935C130.898 43.8936 134.353 45.645 138.473 45.645C147.198 45.645 153.803 38.7606 153.803 29.4594C153.803 20.1582 147.079 13.212 138.473 13.212ZM137.382 38.9389C132.172 38.9389 128.353 34.892 128.353 29.4571C128.353 24.0223 132.231 19.9158 137.442 19.9158C142.714 19.9158 146.409 23.9628 146.409 29.4571C146.411 34.8943 142.593 38.9389 137.382 38.9389ZM103.936 13.212C99.2103 13.212 96.1191 15.1441 94.3014 17.8626V13.8157H87.09V45.0391H94.3608V28.0693C94.3608 23.2975 97.3903 19.9158 101.874 19.9158C106.056 19.9158 108.66 22.8745 108.66 27.1638V45.0414H115.931V26.6219C115.933 18.7681 111.875 13.212 103.936 13.212ZM251.962 28.4305C251.962 19.4929 245.418 13.212 236.632 13.212C227.301 13.212 220.453 20.2177 220.453 29.4571C220.453 39.1813 227.785 45.6428 236.753 45.6428C244.328 45.6428 250.266 41.1728 251.779 34.8325H244.204C243.114 37.6105 240.448 39.1813 236.872 39.1813C232.205 39.1813 228.691 36.2821 227.904 31.2085H251.96V28.4305H251.962ZM228.332 26.016C229.484 21.6672 232.756 19.5546 236.513 19.5546C240.633 19.5546 243.784 21.9096 244.511 26.016H228.332Z" fill="#0052FF"/>
</svg>
