<svg width="253" height="40" viewBox="0 0 253 40" fill="none" xmlns="http://www.w3.org/2000/svg">
<path d="M24.0657 0.455706C28.4279 0.144123 32.79 1.03992 36.6848 2.98731C42.527 5.8305 47.0449 10.8548 49.3039 16.9696C50.2776 19.657 50.7839 22.5002 50.7839 25.3433V35.8592C50.8229 36.2877 50.8229 36.7551 50.7839 37.1835C50.6671 37.7288 50.3944 38.1961 50.0439 38.6245C49.6934 39.053 49.265 39.4035 48.7586 39.6372C47.0839 40.3772 45.0975 39.754 44.1628 38.1572C43.8512 37.6509 43.6954 37.0666 43.6954 36.4824V26.6676C43.8123 25.7328 43.6565 24.7981 43.2281 23.9412C42.2544 22.2275 40.0343 21.6433 38.3206 22.617C37.2301 23.2402 36.568 24.3697 36.529 25.616V35.5477C36.568 36.1708 36.529 36.794 36.3732 37.3782C36.0227 38.5467 35.088 39.4814 33.8806 39.8319C32.2837 40.2604 30.609 39.5593 29.83 38.1182C29.3626 37.2614 29.2068 36.2487 29.3626 35.275V25.3823C29.1679 23.3181 27.3763 21.7602 25.2731 21.9549C25.0005 21.9938 24.7278 22.0328 24.4942 22.1107C23.9489 22.2665 23.4426 22.5781 23.0141 22.9675C22.3131 23.6297 21.9236 24.5644 21.9236 25.5381V35.1582C22.0015 35.9761 21.9236 36.7551 21.6899 37.534C21.2225 38.8972 19.9762 39.8319 18.5351 39.8709C17.0162 39.9098 15.6141 38.9751 15.1077 37.534C14.913 36.833 14.8351 36.054 14.8741 35.314V25.3823C14.8741 24.6033 14.5625 23.8633 14.0951 23.2402C12.8488 21.6823 10.5898 21.4486 9.03188 22.6949C8.68135 22.9675 8.40871 23.3181 8.17503 23.7075C7.86345 24.2528 7.70766 24.876 7.70766 25.4991V36.2877C7.70766 38.2351 6.1108 39.8319 4.16341 39.793C3.38445 39.793 2.60549 39.5203 2.02128 39.053C1.5539 38.7414 1.16442 38.313 0.930738 37.8066C0.658103 37.3003 0.54126 36.7551 0.54126 36.2098V25.4212C0.54126 17.7875 4.04656 10.5821 10.0056 5.83051C13.9783 2.55889 18.9246 0.611502 24.0657 0.338867V0.455706Z" fill="#404296"/>
<path d="M122.18 12.8881H116.727C116.455 9.1881 118.169 5.60491 121.245 3.46278C124.634 1.47644 128.607 0.658535 132.54 1.16486C134.721 1.32065 136.863 1.82697 138.85 2.72277C142.16 4.04699 144.225 7.31861 144.03 10.8629V31.1157C144.03 33.5694 144.536 34.0368 147.029 33.8031H147.808C147.847 33.92 147.847 34.0368 147.808 34.1536V38.2432C145.899 38.9832 143.796 39.1 141.81 38.5937C140.447 38.1653 139.356 37.1137 138.928 35.7116C138.655 35.0105 138.499 34.2705 138.305 33.4526L137.72 34.1536C133.787 38.399 127.828 40.1127 122.258 38.5937C117.974 37.4253 114.975 33.6084 114.897 29.1683C114.858 27.7273 115.014 26.3251 115.325 24.923C116.182 22.0019 118.363 19.6651 121.245 18.6524C123.271 17.8735 125.374 17.3671 127.555 17.1724C130.126 16.8608 132.657 16.5492 135.228 16.1598C135.968 16.0819 136.669 15.7703 137.175 15.225C137.72 14.6797 138.032 13.9787 138.071 13.2387C138.655 10.9797 137.72 8.64284 135.773 7.39651C135.15 7.00703 134.449 6.7344 133.709 6.61755C131.683 6.11123 129.619 6.03334 127.555 6.38387C124.79 6.69545 122.609 8.87652 122.258 11.6418C122.336 12.0702 122.336 12.4987 122.258 12.9271L122.18 12.8881ZM138.266 19.5872C135.929 20.7167 133.397 21.4177 130.827 21.6514C128.684 21.924 126.581 22.3135 124.517 22.8977C122.141 23.7546 120.622 26.1304 120.817 28.662C121.012 31.1936 122.881 33.2578 125.374 33.7252C129.269 34.4652 133.28 33.141 135.929 30.2199C136.786 29.3241 137.37 28.1557 137.604 26.9093C138.11 24.5335 138.071 22.1577 138.227 19.6261V19.5872H138.266ZM216.161 26.6367C216.122 27.182 216.005 27.6883 215.811 28.1946C214.253 34.2315 209.073 38.6326 202.841 39.1C194.662 40.3463 186.989 34.8547 185.587 26.7146C184.263 21.3009 184.769 15.5755 187.028 10.4734C189.015 5.64386 193.377 2.1775 198.518 1.3596C206.502 -0.237264 214.292 4.94279 215.889 12.9271C215.928 13.1997 216.005 13.4724 216.044 13.745C216.434 16.3934 216.551 19.0808 216.823 21.8461H191.274C191.118 25.5072 192.403 29.1294 194.857 31.8947C196.025 32.9852 197.505 33.6473 199.063 33.881C203.932 34.9715 208.8 32.0894 210.202 27.3378C210.202 27.2209 210.241 27.1041 210.319 27.0262C210.358 26.9094 210.436 26.8315 210.553 26.7925C210.631 26.7146 210.747 26.6757 210.864 26.6757C210.981 26.6367 211.098 26.6367 211.215 26.6757L216.161 26.6367ZM191.468 16.9777H210.553C210.475 14.7966 209.93 12.6545 208.917 10.7071C207.982 8.87653 206.385 7.51334 204.438 6.85123C199.297 5.09858 193.688 7.86388 191.936 13.0439C191.507 14.3292 191.351 15.6534 191.468 16.9777ZM229.871 37.8926H224.107V1.90487H229.598V7.08492L230.494 5.99439C234.038 1.78802 239.764 0.074322 245.06 1.71013C248.722 2.56698 251.448 5.60491 251.915 9.30495C252.227 10.9018 252.383 12.4987 252.422 14.1345V37.9316H246.424V15.3419C246.424 13.7061 246.19 12.1092 245.684 10.5513C244.983 8.13651 242.763 6.50071 240.27 6.53965C235.83 6.15018 231.74 8.95442 230.455 13.1997C230.066 14.7576 229.871 16.3934 229.91 18.0293V37.9705L229.871 37.8926ZM153.455 1.90487H159.064V17.1724C159.375 16.8219 159.609 16.6661 159.804 16.4324C164.361 11.7587 168.956 7.00703 173.552 2.45014C173.864 2.06066 174.37 1.82697 174.877 1.86592H181.576L180.875 2.60592C176.824 6.61755 172.851 10.7071 168.762 14.6797C168.645 14.7576 168.567 14.8355 168.489 14.9134C168.411 15.0303 168.372 15.1471 168.372 15.264C168.372 15.3808 168.372 15.4976 168.411 15.6145C168.45 15.7313 168.489 15.8482 168.567 15.9261L181.731 36.9579L182.238 37.8537C182.004 37.8926 181.731 37.8926 181.498 37.8537H175.5C175.266 37.8537 175.071 37.8147 174.877 37.6979C174.682 37.5811 174.526 37.4253 174.409 37.2305L164.322 20.2882C164.166 20.0156 164.01 19.743 163.815 19.5093L159.22 24.0662C159.025 24.2999 158.947 24.6504 158.947 24.962V37.8147H155.792C155.052 37.8147 154.001 38.0484 153.572 37.62C153.183 37.1916 153.377 36.1789 153.377 35.4389V2.83961C153.494 2.52803 153.494 2.21645 153.455 1.90487ZM88.9577 1.90487L75.5597 15.225C80.3502 22.8588 85.024 30.3368 89.7367 37.9705H83.0376C82.804 37.9705 82.5703 37.9316 82.3755 37.8147C82.1808 37.6979 81.986 37.5421 81.8692 37.3084C78.5197 31.6999 75.1312 26.0525 71.7817 20.3661C71.7817 20.1324 71.4701 19.9377 71.2754 19.5872C70.4964 20.483 69.6785 21.3398 68.7438 22.1188C66.9911 23.4041 66.0953 25.5072 66.4069 27.6494C66.6406 30.8041 66.4069 33.92 66.4069 36.88V37.8926H60.8763V1.94381H66.4459V16.9387C66.5627 17.0166 66.6796 17.0945 66.7575 17.1724C66.9522 16.9387 66.9911 16.6271 67.1859 16.4324C71.7038 11.7587 76.2997 7.00703 80.8176 2.45014C80.9734 2.2554 81.2071 2.09961 81.4408 1.98276C81.6745 1.86592 81.9471 1.82697 82.2197 1.86592H87.9061L88.9577 1.90487ZM100.058 7.90283C102.862 3.77436 105.861 0.346953 111.392 1.3596V7.63019C109.951 7.63019 108.51 7.74704 107.068 7.98073C103.524 8.87653 100.876 11.9145 100.447 15.5755C100.447 16.3156 100.292 17.0945 100.292 17.8345V38.0874H94.6051V1.94381H100.058V7.90283Z" fill="#404296"/>
</svg>
