<svg width="246" height="44" viewBox="0 0 246 44" fill="none" xmlns="http://www.w3.org/2000/svg">
<path d="M191.301 22.1482C191.301 20.6947 191.301 19.2411 191.301 17.9952C191.301 16.7493 191.093 15.5034 190.885 14.4651C190.678 13.4269 190.262 12.3886 189.847 11.3504C189.432 10.3121 188.601 9.48153 187.771 8.65093C186.525 7.40503 185.279 6.57442 183.618 5.74382C181.956 5.12087 180.295 4.70557 178.426 4.70557C176.558 4.70557 174.896 4.91322 173.235 5.74382C171.782 6.36677 170.328 7.40502 169.082 8.44327C168.252 9.27387 167.629 10.1045 167.006 11.1427C166.59 12.181 166.175 13.2192 165.967 14.2575C165.76 15.5034 165.552 16.7493 165.552 17.7875C165.552 19.0334 165.552 20.487 165.552 21.9406C165.552 23.3941 165.552 24.8477 165.552 26.0936C165.552 27.3395 165.76 28.5854 165.967 29.6236C166.175 30.6619 166.59 31.7001 167.006 32.7384C167.421 33.7766 168.252 34.6072 169.082 35.4378C170.328 36.6837 171.574 37.5143 173.235 38.1373C174.896 38.7602 176.765 39.1755 178.426 39.1755C180.295 39.1755 181.956 38.9679 183.618 38.1373C185.071 37.5143 186.525 36.4761 187.771 35.4378C188.601 34.6072 189.224 33.7766 189.847 32.7384C190.262 31.7001 190.678 30.6619 190.885 29.6236C191.093 28.3777 191.301 27.1318 191.301 26.0936C191.301 25.0553 191.508 23.6018 191.301 22.1482ZM184.656 22.1482C184.656 23.8094 184.656 25.263 184.656 26.3012C184.656 27.1318 184.448 28.1701 184.448 29.0007C184.448 29.6236 184.241 30.2466 183.825 30.6619C183.618 31.0772 183.41 31.4925 182.995 31.9078C182.579 32.5307 181.956 32.946 181.126 33.1537C180.295 33.569 179.465 33.569 178.634 33.569C177.803 33.569 176.973 33.3613 176.142 33.1537C175.519 32.946 174.689 32.3231 174.273 31.9078C173.858 31.4925 173.65 31.0772 173.443 30.6619C173.235 30.0389 173.027 29.6236 173.027 29.0007C172.82 28.1701 172.82 27.1318 172.82 26.3012C172.82 25.263 172.82 23.8094 172.82 22.1482C172.82 20.487 172.82 19.0335 172.82 17.9952C172.82 17.1646 173.027 16.1263 173.027 15.2957C173.027 14.6728 173.235 14.0498 173.443 13.6345C173.65 13.2192 173.858 12.8039 174.273 12.3886C174.689 11.7657 175.519 11.3504 176.142 11.1427C176.973 10.7274 177.803 10.7274 178.634 10.7274C179.465 10.7274 180.295 10.9351 181.126 11.1427C181.749 11.3504 182.372 11.9733 182.995 12.3886C183.41 12.8039 183.618 13.2192 183.825 13.6345C184.033 14.2575 184.241 14.6728 184.448 15.2957C184.656 16.1263 184.656 17.1646 184.656 17.9952C184.656 19.2411 184.656 20.487 184.656 22.1482Z" fill="#23AF91"/>
<path d="M244.875 5.53506C244.875 5.11976 244.667 4.91211 244.252 4.91211H238.853C238.437 4.91211 238.23 5.11976 238.23 5.53506V26.0924L224.732 5.11976C224.732 4.91211 224.525 4.91211 224.317 4.91211H219.126C218.711 4.91211 218.503 5.11976 218.503 5.53506V38.7591C218.503 39.1744 218.711 39.3821 219.126 39.3821H224.732C225.148 39.3821 225.355 39.1744 225.355 38.7591V18.2017L238.853 39.1744C238.853 39.3821 239.06 39.3821 239.268 39.3821H244.459C244.875 39.3821 245.082 39.1744 245.082 38.7591L244.875 5.53506Z" fill="#23AF91"/>
<path d="M207.705 5.53506C207.705 5.11976 207.497 4.91211 207.082 4.91211H201.476C201.06 4.91211 200.853 5.11976 200.853 5.53506V38.7591C200.853 39.1744 201.06 39.3821 201.476 39.3821H207.082C207.497 39.3821 207.705 39.1744 207.705 38.7591V5.53506Z" fill="#23AF91"/>
<path d="M141.465 22.1478C141.465 20.4866 141.465 19.0331 141.465 17.9948C141.465 17.1642 141.672 16.126 141.672 15.2954C142.087 12.3883 144.372 10.5194 147.279 10.5194C149.148 10.5194 150.809 11.1424 152.055 12.8036C152.47 13.6342 152.885 14.4648 153.093 15.2954C153.093 15.2954 153.093 15.503 153.301 15.503H159.945C159.945 15.503 160.153 15.503 160.153 15.2954C159.53 11.35 157.246 7.61231 153.508 5.74346C151.639 4.91286 149.563 4.49756 147.486 4.49756C143.749 4.49756 140.634 5.74346 138.142 8.23527C136.689 9.68882 135.65 11.35 135.235 13.4265C134.82 15.2954 134.612 18.2025 134.612 21.9402C134.612 25.6779 134.82 28.585 135.235 30.4539C135.65 32.3227 136.689 34.1916 137.934 35.6451C140.426 38.1369 143.541 39.3828 147.279 39.3828C149.355 39.3828 151.432 38.9675 153.301 38.1369C157.038 36.2681 159.322 32.738 159.945 28.585C159.945 28.585 159.945 28.3774 159.738 28.3774H153.301C153.301 28.3774 153.093 28.3774 153.093 28.585C152.885 29.4156 152.47 30.2462 152.055 31.0768C151.016 32.738 149.148 33.361 147.279 33.361C144.372 33.361 142.087 31.6998 141.672 28.585C141.465 27.7544 141.465 26.7162 141.465 25.8856C141.465 25.2626 141.465 23.809 141.465 22.1478Z" fill="#23AF91"/>
<path d="M72.5246 5.53506C72.5246 5.11976 72.317 4.91211 71.9017 4.91211H66.5028C66.0875 4.91211 65.8798 5.11976 65.8798 5.53506V38.7591C65.8798 39.1744 66.0875 39.3821 66.5028 39.3821H72.1093C72.5246 39.3821 72.7323 39.1744 72.7323 38.7591V28.9996L77.0929 23.6006L86.2296 39.1744C86.2296 39.3821 86.4372 39.3821 86.6449 39.3821H93.2897C93.4973 39.3821 93.705 39.1744 93.4973 38.9668L81.4536 18.617L92.4591 5.53506C92.6667 5.32741 92.6667 4.91211 92.2514 4.91211H84.9837C84.9837 4.91211 84.776 4.91211 84.776 5.11976L72.7323 19.6553V5.53506H72.5246Z" fill="#23AF91"/>
<path d="M113.016 33.7755C109.902 33.7755 106.995 30.8684 106.995 27.546V5.53506C106.995 5.11976 106.787 4.91211 106.372 4.91211H100.765C100.35 4.91211 100.142 5.11976 100.142 5.53506V27.3384C100.142 35.0214 105.749 39.7974 112.809 39.7974C119.869 39.7974 125.476 35.0214 125.476 27.3384V5.53506C125.476 5.11976 125.268 4.91211 124.853 4.91211H119.246C118.831 4.91211 118.623 5.11976 118.623 5.53506V27.3384C118.831 30.8684 116.131 33.7755 113.016 33.7755Z" fill="#23AF91"/>
<path fill-rule="evenodd" clip-rule="evenodd" d="M12.7404 22.1476L25.488 34.8951L33.4744 26.9087C34.8567 25.68 37.1604 25.68 38.5427 27.0623C39.925 28.4445 39.925 30.5947 38.6963 32.1306L27.9453 42.5744C26.5631 43.9566 24.2593 43.9566 22.877 42.5744L7.51856 27.2159V36.431C7.51856 38.4276 5.82912 40.117 3.83252 40.117C1.83592 40.117 0.146484 38.4276 0.146484 36.431V8.01776C0.146484 6.02115 1.83592 4.33172 3.83252 4.33172C5.82912 4.33172 7.51856 6.02115 7.51856 8.01776V17.0793L22.877 1.72078C24.2593 0.338516 26.5631 0.338516 27.9453 1.72078L38.5427 12.3181C39.7714 13.7004 39.7714 16.0042 38.3891 17.3864C37.0069 18.7687 34.8567 18.7687 33.3208 17.54L25.3344 9.55361L12.7404 22.1476ZM25.488 18.6151C23.9521 18.6151 22.7235 19.5366 22.1091 20.9189C21.4948 22.3012 21.802 23.837 22.877 24.9121C23.9521 25.9872 25.488 26.2944 26.8702 25.68C28.2525 25.0657 29.174 23.837 29.174 22.3011C29.174 21.3796 28.8669 20.4581 28.0989 19.6902C27.331 18.9223 26.4095 18.6151 25.488 18.6151Z" fill="#23AF91"/>
</svg>
