<svg width="128" height="129" viewBox="0 0 128 129" fill="none" xmlns="http://www.w3.org/2000/svg">
<g clip-path="url(#clip0_1058_9825)">
<rect width="128" height="128" transform="translate(0 0.222168)" fill="#252B45"/>
<path opacity="0.4" d="M112.911 122.968C110.363 122.968 108.084 124.081 106.513 125.846C105.481 122.268 102.195 119.653 98.289 119.653C96.5268 119.653 94.8916 120.186 93.5342 121.1C91.4306 116.513 86.8107 113.333 81.4447 113.333C81.3335 113.333 81.2224 113.341 81.1113 113.349C80.6667 111.481 78.9918 110.09 76.9915 110.09C74.6498 110.09 72.7526 111.989 72.7526 114.335C72.7526 115.01 72.9113 115.646 73.1971 116.219C71.6492 117.451 70.3791 119.009 69.498 120.806C68.0295 119.232 65.9815 118.206 63.6954 118.087C63.6557 113.905 61.6871 110.193 58.6389 107.776C60.3059 106.21 61.3537 103.984 61.3537 101.512C61.3537 97.8391 59.0437 94.699 55.7971 93.4827L104.85 29.3245L98.6905 21.4385L19.973 77.8855C18.8697 77.3688 17.6393 77.0747 16.3374 77.0747C15.0356 77.0747 13.6941 77.3927 12.551 77.9571C12.3367 77.3529 12.0827 76.7646 11.781 76.2002C13.4877 75.6517 14.726 74.0459 14.726 72.1538C14.726 69.8087 12.8289 67.9087 10.4872 67.9087C10.3284 67.9087 10.1696 67.9167 10.0109 67.9405C10.0109 66.9071 9.82831 65.9213 9.49491 65.0071C16.0517 64.1803 21.124 58.5838 21.124 51.7948C21.124 44.4414 15.1706 38.4792 7.82794 38.4792C6.01808 38.4792 4.29554 38.8448 2.72383 39.4967C2.96196 38.7097 3.08897 37.8829 3.08897 37.0244C3.08897 34.3692 1.8824 32.0002 -0.00683594 30.4262V128.223H120.801C119.507 125.13 116.459 122.968 112.903 122.968H112.911Z" fill="white"/>
<path opacity="0.4" d="M17.4966 64.2275C16.3853 64.2275 15.4883 65.1258 15.4883 66.2388C15.4883 67.3517 16.3853 68.2501 17.4966 68.2501C18.6079 68.2501 19.5049 67.3517 19.5049 66.2388C19.5049 65.1258 18.6079 64.2275 17.4966 64.2275Z" fill="white"/>
<path opacity="0.4" d="M64.4736 107.259C64.4736 108.372 65.3706 109.271 66.4819 109.271C67.5933 109.271 68.4902 108.372 68.4902 107.259C68.4902 106.146 67.5933 105.248 66.4819 105.248C65.3706 105.248 64.4736 106.146 64.4736 107.259Z" fill="white"/>
<path opacity="0.4" d="M112.911 120.583C114.022 120.583 114.919 119.684 114.919 118.571C114.919 117.458 114.022 116.56 112.911 116.56C111.799 116.56 110.902 117.458 110.902 118.571C110.902 119.684 111.799 120.583 112.911 120.583Z" fill="white"/>
<path opacity="0.4" d="M22.0521 74.6359C23.6653 74.256 24.6656 72.6385 24.2864 71.0229C23.9071 69.4074 22.2919 68.4056 20.6787 68.7854C19.0656 69.1652 18.0653 70.7828 18.4445 72.3984C18.8238 74.0139 20.439 75.0157 22.0521 74.6359Z" fill="white"/>
<path opacity="0.4" d="M5.83538 21.6653C5.83538 18.4377 3.22379 15.8223 0.000976562 15.8223V27.5003C3.22379 27.5003 5.83538 24.8849 5.83538 21.6573V21.6653Z" fill="white"/>
<path opacity="0.4" d="M84.5885 110.697C86.201 110.314 87.1985 108.695 86.8164 107.08C86.4343 105.465 84.8174 104.466 83.2049 104.849C81.5924 105.231 80.5949 106.851 80.977 108.466C81.359 110.08 82.976 111.079 84.5885 110.697Z" fill="white"/>
<path opacity="0.4" d="M102.504 117.332C104.162 117.332 105.505 115.986 105.505 114.327C105.505 112.667 104.162 111.322 102.504 111.322C100.847 111.322 99.5039 112.667 99.5039 114.327C99.5039 115.986 100.847 117.332 102.504 117.332Z" fill="white"/>
<path d="M58.8529 128.223C56.7573 123.58 52.0977 120.353 46.684 120.353C46.303 120.353 45.922 120.376 45.5489 120.4C45.5489 120.384 45.5489 120.369 45.5489 120.353C45.5489 118.596 44.9298 116.982 43.9058 115.718C47.1921 114.987 49.6449 112.053 49.6449 108.547C49.6449 105.042 47.073 101.973 43.6756 101.329C43.7629 100.868 43.8105 100.399 43.8105 99.914C43.8105 98.3003 43.2866 96.8057 42.4055 95.5894L105.527 28.9452L98.6681 21.4487L30.9272 82.234C30.4906 82.1545 30.0461 82.1068 29.5936 82.1068C25.9898 82.1068 22.9971 84.7064 22.378 88.1327C22.3383 88.1327 22.2986 88.1327 22.2589 88.1327C20.9174 88.1327 19.6711 88.4904 18.5916 89.1184C18.0518 88.3235 17.1469 87.7988 16.1149 87.7988C15.1862 87.7988 14.3606 88.2201 13.8129 88.8879C11.7649 87.4808 9.31209 86.6302 6.65287 86.5507C7.09739 85.6047 7.34347 84.5553 7.34347 83.4424C7.34347 79.3881 4.05715 76.0969 0.00878906 76.0969V128.231H58.8529V128.223Z" fill="white"/>
<path d="M53.8922 101.959C54.9253 100.673 54.7216 98.7912 53.4371 97.7565C52.1526 96.7219 50.2738 96.926 49.2407 98.2123C48.2076 99.4987 48.4114 101.38 49.6959 102.415C50.9803 103.45 52.8591 103.245 53.8922 101.959Z" fill="white"/>
<path d="M19.0913 85.2152C19.9962 85.2152 20.7265 84.4838 20.7265 83.5776C20.7265 82.6713 19.9962 81.9399 19.0913 81.9399C18.1863 81.9399 17.4561 82.6713 17.4561 83.5776C17.4561 84.4838 18.1863 85.2152 19.0913 85.2152Z" fill="white"/>
<path d="M24.3707 80.9619C25.1407 80.9619 25.7678 80.3338 25.7678 79.5627C25.7678 78.7916 25.1407 78.1636 24.3707 78.1636C23.6007 78.1636 22.9736 78.7916 22.9736 79.5627C22.9736 80.3338 23.6007 80.9619 24.3707 80.9619Z" fill="white"/>
<g filter="url(#filter0_d_1058_9825)">
<path d="M101.419 18.9209C99.0108 18.5263 96.5251 19.2863 94.7301 20.9913C94.6377 21.079 94.5453 21.1715 94.4577 21.2641C94.1123 21.6246 94.0296 22.141 94.2388 22.5843C94.4528 23.0325 94.915 23.2809 95.4063 23.2176C97.0845 22.9984 98.7578 23.3881 100.159 24.3039C99.4437 25.1078 98.9184 26.0674 98.6605 27.1197C98.5827 27.4364 98.6654 27.7725 98.8892 28.0161C99.0643 28.2109 99.3075 28.3181 99.5556 28.3278C99.6188 28.3278 99.6821 28.3278 99.7502 28.3132C100.796 28.1281 101.774 27.6653 102.61 26.9979C103.398 28.4935 103.656 30.2229 103.321 31.9182C103.223 32.4151 103.433 32.9022 103.851 33.1507C104.016 33.253 104.196 33.3017 104.381 33.3066C104.653 33.3163 104.931 33.2189 105.155 33.024C105.252 32.9412 105.344 32.8535 105.442 32.7658C107.125 31.168 108.132 28.6591 107.908 26.1405C108.924 25.478 109.888 24.7229 110.778 23.885C114.071 20.7575 116.255 16.5533 116.921 12.0374C116.97 11.7207 116.873 11.4041 116.654 11.1654C116.44 10.9267 116.138 10.8098 115.822 10.8292C111.361 11.1751 107.091 13.0848 103.797 16.2123C102.927 17.0405 102.129 17.9514 101.419 18.916V18.9209Z" fill="white"/>
</g>
<path d="M109.624 22.9352C111.103 22.9839 112.513 22.4432 113.603 21.4104C115.85 19.2766 115.996 15.6961 113.929 13.421C111.925 11.2191 108.281 11.0973 106.102 13.1629C103.855 15.2966 103.709 18.8772 105.776 21.1522C106.778 22.2532 108.145 22.8865 109.619 22.9352H109.624ZM109.974 18.4728C110.699 17.786 108.909 19.34 109.896 19.3741C110.879 19.4082 109.882 15.6084 110.548 16.344C111.925 17.859 111.166 14.8484 109.668 16.2709C108.213 17.6447 109.498 19.0574 108.16 17.5911C106.783 16.076 108.476 19.9002 109.974 18.4728Z" fill="#FEC500"/>
<path d="M109.658 21.1323C110.665 21.1664 111.633 20.7961 112.372 20.0946C113.905 18.6429 114.007 16.1974 112.596 14.6482C111.229 13.1478 108.744 13.065 107.26 14.4729C105.728 15.9246 105.625 18.3701 107.036 19.9192C107.717 20.6695 108.651 21.103 109.658 21.1323ZM109.896 18.0875C110.393 17.6199 109.172 18.677 109.843 18.7014C110.514 18.7257 109.833 16.134 110.286 16.6358C111.224 17.6686 110.704 15.6177 109.687 16.5871C108.695 17.5224 109.57 18.487 108.661 17.4883C107.722 16.4556 108.875 19.0619 109.901 18.0924L109.896 18.0875Z" fill="#272E4F"/>
<path d="M97.5803 29.0196L96.5005 30.4567C96.374 30.6272 96.408 30.8659 96.5734 30.9926C96.6561 31.0559 96.7583 31.0802 96.8556 31.0656C96.9528 31.051 97.0453 31.0023 97.1085 30.9146L98.1884 29.4775C98.3149 29.307 98.2808 29.0683 98.1154 28.9416C97.95 28.815 97.7068 28.8491 97.5803 29.0196Z" fill="#FEC500"/>
<path d="M97.5225 25.2391L94.7644 28.7612C94.633 28.9268 94.6622 29.1655 94.8227 29.2971C94.9054 29.3604 95.0027 29.3847 95.1 29.375C95.1973 29.3653 95.2897 29.3165 95.3529 29.2337L98.1111 25.7116C98.2424 25.546 98.2132 25.3073 98.0527 25.1757C97.8922 25.0442 97.6538 25.0734 97.5225 25.2391Z" fill="#FEC500"/>
<path d="M98.3588 32.8634C98.4415 32.9267 98.5437 32.9511 98.6361 32.9414C98.7334 32.9316 98.8258 32.878 98.8891 32.7952L101.652 29.2633C101.783 29.0977 101.754 28.859 101.589 28.7275C101.423 28.6008 101.185 28.63 101.059 28.7957L98.2956 32.3275C98.1643 32.4932 98.1935 32.7319 98.354 32.8634H98.3588Z" fill="#FEC500"/>
<g filter="url(#filter1_d_1058_9825)">
<path d="M99.2795 93.1771C99.2795 93.4745 99.1692 93.7634 98.9485 93.9929L91.7271 101.225C91.2858 101.65 90.5306 101.65 90.0893 101.225L84.6414 95.769C83.971 95.0892 83.08 94.7407 82.1635 94.7407C81.5271 94.7407 80.8652 94.9107 80.2882 95.2676C77.7424 96.8228 75.0015 98.0041 72.1672 98.7859C66.4478 100.299 60.6095 100.214 54.8052 98.497C49.0179 96.7633 43.5275 93.3555 38.5378 88.4095L38.436 88.3075L38.2833 88.1631C33.2087 83.0471 29.7635 77.5232 28.0578 71.7018C27.8627 71.0304 27.676 70.3336 27.5147 69.6622C27.4723 69.4922 27.4299 69.3053 27.4129 69.1353C26.3013 64.1383 26.4201 59.1668 27.7693 54.3228C28.55 51.4333 29.7211 48.6544 31.24 46.0879C32.0632 44.6772 31.868 42.9095 30.7309 41.7622L25.8261 36.8502C25.6139 36.6378 25.4951 36.3403 25.4951 36.0344C25.4951 35.7284 25.6054 35.4395 25.8261 35.2185L33.0475 27.9865C33.5057 27.5276 34.227 27.5276 34.6853 27.9695L39.3355 32.6266C40.4981 33.8078 42.3904 33.9778 43.816 33.0515C47.9147 30.332 52.2595 28.6833 56.7569 28.1054C62.8752 27.2386 69.002 28.3434 74.976 31.4198C75.3579 31.6153 75.4767 31.9467 75.5022 32.1337C75.5616 32.4906 75.4343 32.8305 75.1712 33.1025L64.6488 43.6404C64.2924 43.9803 63.7238 44.0823 63.1807 43.8698C60.5756 42.884 57.9025 42.6291 55.2719 43.105C52.0473 43.5639 49.0263 45.1871 46.3109 47.9065C43.553 50.6515 41.8982 53.7874 41.3721 57.2207C41.3127 57.6031 41.2703 57.977 41.2448 58.3595C41.1769 59.3962 41.2024 60.484 41.3297 61.5463C41.8304 66.5433 44.6392 71.6423 49.7052 76.6988C50.2738 77.2682 50.8678 77.8206 51.4363 78.3645C51.4957 78.407 51.5382 78.4665 51.5891 78.509C55.9423 82.3672 60.3804 84.5938 64.827 85.0867C69.9185 85.6306 74.4669 83.9224 78.3534 80.0132C83.4279 74.9312 84.8111 69.2713 82.4605 63.161C82.2654 62.6596 82.3587 62.0902 82.6981 61.7333L93.2036 51.2124C93.4582 50.9574 93.8146 50.8299 94.171 50.8979C94.3577 50.9234 94.6971 51.0254 94.8923 51.4078C97.7944 57.2717 98.8722 63.382 98.1169 69.5687C97.5484 74.1238 95.9106 78.509 93.2376 82.6137C92.3296 84.0244 92.4993 85.8855 93.6618 87.0753L98.9061 92.3187C99.1182 92.5482 99.237 92.8286 99.237 93.1431L99.2795 93.1771Z" fill="#FEC500"/>
<path d="M78.3534 80.0132C83.4279 74.9312 84.8111 69.2713 82.4605 63.161M78.3534 80.0132C74.4669 83.9224 69.9185 85.6306 64.827 85.0867C60.3804 84.5938 55.9423 82.3672 51.5891 78.509M78.3534 80.0132L78.9665 80.6253C78.9669 80.6249 78.9674 80.6245 78.9678 80.624M78.3534 80.0132L78.9678 80.624M82.4605 63.161L25.8261 36.8502C25.6139 36.6378 25.4951 36.3403 25.4951 36.0344C25.4951 35.7284 25.6054 35.4395 25.8261 35.2185L33.0475 27.9865C33.5057 27.5276 34.227 27.5276 34.6853 27.9695M82.4605 63.161C82.2654 62.6596 82.3587 62.0902 82.6981 61.7333M82.4605 63.161L82.6981 61.7333M51.5891 78.509C51.5673 78.4908 51.5472 78.4696 51.5266 78.4479C51.4989 78.4188 51.4704 78.3889 51.4363 78.3645C51.2796 78.2146 51.121 78.064 50.9615 77.9127C50.5423 77.5148 50.1171 77.1113 49.7052 76.6988M51.5891 78.509L51.0144 79.1573C51.0167 79.1594 51.019 79.1614 51.0212 79.1634M51.5891 78.509L51.0339 79.1741C51.0296 79.1705 51.0254 79.167 51.0212 79.1634M49.7052 76.6988C44.6392 71.6423 41.8304 66.5433 41.3297 61.5463M49.7052 76.6988L49.0932 77.312C49.0928 77.3117 49.0925 77.3113 49.0921 77.311M49.7052 76.6988L49.0921 77.311M41.3297 61.5463C41.2024 60.484 41.1769 59.3962 41.2448 58.3595C41.2703 57.977 41.3127 57.6031 41.3721 57.2207M41.3297 61.5463L40.4676 61.6327C40.4679 61.6355 40.4682 61.6383 40.4685 61.641M41.3297 61.5463L40.4695 61.6494C40.4691 61.6466 40.4688 61.6438 40.4685 61.641M41.3721 57.2207C41.8982 53.7874 43.553 50.6515 46.3109 47.9065M41.3721 57.2207L40.516 57.0877C40.516 57.088 40.5159 57.0883 40.5159 57.0886M41.3721 57.2207L40.5157 57.0894C40.5158 57.0892 40.5158 57.0889 40.5159 57.0886M46.3109 47.9065C49.0263 45.1871 52.0473 43.5639 55.2719 43.105M46.3109 47.9065L45.6997 47.2925C45.6993 47.2928 45.699 47.2932 45.6986 47.2935M46.3109 47.9065L45.6978 47.2943C45.6981 47.2941 45.6983 47.2938 45.6986 47.2935M55.2719 43.105C57.9025 42.6291 60.5756 42.884 63.1807 43.8698C63.7238 44.0823 64.2924 43.9803 64.6488 43.6404M55.2719 43.105L55.1499 42.2472C55.1445 42.248 55.1391 42.2488 55.1337 42.2495M55.2719 43.105L55.1177 42.2524C55.123 42.2515 55.1284 42.2505 55.1337 42.2495M64.6488 43.6404L75.1712 33.1025M64.6488 43.6404L64.0508 43.0134C64.0492 43.0149 64.0476 43.0164 64.0459 43.018M64.6488 43.6404L64.0357 43.0282L64.0459 43.018M75.1712 33.1025C75.4343 32.8305 75.5616 32.4906 75.5022 32.1337C75.4767 31.9467 75.3579 31.6153 74.976 31.4198M75.1712 33.1025L74.5581 32.4903L74.5523 32.4962M75.1712 33.1025L74.5485 32.5001C74.5498 32.4988 74.551 32.4975 74.5523 32.4962M74.976 31.4198C69.002 28.3434 62.8752 27.2386 56.7569 28.1054C52.2595 28.6833 47.9147 30.332 43.816 33.0515C42.3904 33.9778 40.4981 33.8078 39.3355 32.6266M74.976 31.4198L74.976 31.4198L74.976 31.4198ZM39.3355 32.6266L34.6853 27.9695M39.3355 32.6266L38.718 33.2343C38.7188 33.2351 38.7196 33.2359 38.7204 33.2367M39.3355 32.6266L38.7224 33.2387L38.7204 33.2367M34.6853 27.9695L34.0722 28.5817L34.0798 28.5892M34.6853 27.9695L34.0839 28.5931C34.0825 28.5918 34.0811 28.5905 34.0798 28.5892M34.0798 28.5892C33.9591 28.4768 33.781 28.4781 33.6606 28.5986L26.4391 35.8307C26.3914 35.8785 26.3615 35.9424 26.3615 36.0344C26.3615 36.1214 26.3965 36.1954 26.4391 36.238L31.344 41.1501L31.3462 41.1523C32.7709 42.5898 33.0008 44.7894 31.9883 46.5245L31.9856 46.5292L31.9856 46.5292C30.5067 49.028 29.3661 51.7345 28.6057 54.5487L28.604 54.5552L28.6039 54.5552C27.2936 59.2594 27.1773 64.0864 28.2586 68.9472L28.2699 68.9977L28.275 69.0492C28.2853 69.1519 28.314 69.2866 28.3553 69.4524L28.3572 69.4599L28.3572 69.4599C28.5148 70.1162 28.6978 70.7994 28.8894 71.4588C30.5462 77.1127 33.9008 82.5119 38.8887 87.5432L39.0314 87.6781L39.0404 87.6866L39.0491 87.6954L39.1478 87.7942C39.1483 87.7947 39.1489 87.7953 39.1494 87.7958C44.0542 92.6572 49.4237 95.9803 55.0527 97.6667C60.7046 99.338 66.3791 99.4198 71.9413 97.9495C74.6959 97.1892 77.36 96.0409 79.8345 94.5295C80.557 94.0832 81.3778 93.8744 82.1635 93.8744C83.3007 93.8744 84.4164 94.3078 85.2566 95.159C85.2572 95.1596 85.2577 95.1601 85.2583 95.1607L90.694 100.604C90.8 100.702 91.0164 100.702 91.1224 100.604L98.3279 93.3882C98.3449 93.3701 98.3591 93.3514 98.3707 93.3322V93.1431C98.3707 93.0663 98.3476 92.9947 98.2787 92.9166L93.0493 87.6879L93.0421 87.6808C91.5898 86.1944 91.3883 83.8861 92.509 82.1447L92.5115 82.1409C95.1171 78.1398 96.7054 73.8794 97.2569 69.4637M34.0798 28.5892L38.7204 33.2367M38.7204 33.2367C40.188 34.7255 42.5377 34.9153 44.2881 33.778L44.2881 33.778L44.295 33.7734C48.2907 31.1223 52.5105 29.5246 56.8674 28.9648L56.8674 28.9648L56.8785 28.9633C62.8048 28.1236 68.7515 29.1889 74.5794 32.19L74.5813 32.191C74.6035 32.2024 74.6155 32.2123 74.6215 32.218C74.6279 32.224 74.6322 32.2296 74.6354 32.2348C74.6389 32.2405 74.6415 32.2463 74.6432 32.2513C74.6437 32.2527 74.644 32.2538 74.6442 32.2546M74.6442 32.2546L74.6454 32.2632L74.6475 32.2759C74.6546 32.3184 74.6531 32.3903 74.5523 32.4962M74.6442 32.2546C74.6444 32.2553 74.6445 32.2557 74.6445 32.2557C74.6445 32.2557 74.6442 32.2542 74.6437 32.2507L74.6442 32.2546ZM74.5523 32.4962L64.0459 43.018M64.0459 43.018C63.9621 43.0935 63.7638 43.1676 63.4964 43.063L63.4964 43.0629L63.4874 43.0595C60.7458 42.0221 57.9192 41.7486 55.1337 42.2495M55.1337 42.2495C51.6968 42.7426 48.5167 44.4716 45.6986 47.2935M45.6986 47.2935C42.8255 50.1535 41.0732 53.453 40.5159 57.0886M40.5159 57.0886C40.4529 57.494 40.4076 57.8929 40.3804 58.3019L40.3803 58.3028C40.3092 59.3888 40.3355 60.5271 40.4685 61.641M40.4685 61.641C40.9982 66.9027 43.9457 72.1739 49.0921 77.311M49.0921 77.311C49.5128 77.7323 49.951 78.1482 50.3731 78.5487C50.5307 78.6983 50.6861 78.8458 50.8374 78.9905L50.882 79.0332L50.8993 79.0456M50.8993 79.0456L50.9071 79.0538C50.9144 79.0614 50.9244 79.0718 50.9357 79.0832C50.9554 79.1033 50.9847 79.1321 51.0212 79.1634M50.8993 79.0456L50.9322 79.0691C50.9093 79.0527 50.8941 79.0391 50.8878 79.0332C50.8852 79.0307 50.8835 79.029 50.8834 79.029C50.8834 79.029 50.8853 79.0309 50.8899 79.0357L50.8993 79.0456ZM51.0212 79.1634C55.4633 83.0986 60.0598 85.4299 64.7315 85.9478L64.7349 85.9481C70.1103 86.5224 74.9126 84.7029 78.9678 80.624M78.9678 80.624C81.5899 77.9977 83.3014 75.1782 84.0331 72.178C84.7664 69.1713 84.4995 66.0482 83.2692 62.8499L83.2679 62.8467C83.1808 62.6229 83.2434 62.4222 83.3215 62.3351M83.3215 62.3351L93.8167 51.8245C93.8904 51.7507 93.9637 51.7404 94.0087 51.749L94.0311 51.7533L94.0538 51.7564C94.0556 51.7566 94.0577 51.7569 94.0601 51.7574C94.0648 51.7583 94.0704 51.7596 94.0764 51.7615C94.085 51.7642 94.0914 51.7671 94.0956 51.7695C94.0991 51.7716 94.1013 51.7733 94.1034 51.7754C94.1049 51.777 94.1109 51.7833 94.119 51.7987M83.3215 62.3351L83.3112 62.3455L82.6981 61.7333M83.3215 62.3351C83.323 62.3335 83.3245 62.3319 83.326 62.3303L82.6981 61.7333M94.119 51.7987C96.9473 57.516 97.9905 63.4546 97.2569 69.4637M94.119 51.7987C94.118 51.7965 94.1169 51.7943 94.1158 51.7921L94.8923 51.4078M94.119 51.7987C94.1196 51.7996 94.1201 51.8006 94.1206 51.8017L94.8923 51.4078M97.2569 69.4637C97.257 69.463 97.2571 69.4622 97.2572 69.4614L98.1169 69.5687M97.2569 69.4637L98.1169 69.5687M98.1169 69.5687C98.8722 63.382 97.7944 57.2717 94.8923 51.4078M98.1169 69.5687C97.5484 74.1238 95.9106 78.509 93.2376 82.6137C92.3296 84.0244 92.4993 85.8855 93.6618 87.0753L94.8923 51.4078M94.8923 51.4078C94.6971 51.0254 94.3577 50.9234 94.171 50.8979M94.8923 51.4078L94.171 50.8979M94.171 50.8979C93.8146 50.8299 93.4582 50.9574 93.2036 51.2124L82.6981 61.7333M94.171 50.8979L82.6981 61.7333M38.2833 88.1631C33.2087 83.0471 29.7635 77.5232 28.0578 71.7018L38.2833 88.1631Z" stroke="white" stroke-width="1.73277"/>
</g>
</g>
<defs>
<filter id="filter0_d_1058_9825" x="92.845" y="10.8271" width="25.3686" height="25.04" filterUnits="userSpaceOnUse" color-interpolation-filters="sRGB">
<feFlood flood-opacity="0" result="BackgroundImageFix"/>
<feColorMatrix in="SourceAlpha" type="matrix" values="0 0 0 0 0 0 0 0 0 0 0 0 0 0 0 0 0 0 127 0" result="hardAlpha"/>
<feOffset dy="1.28"/>
<feGaussianBlur stdDeviation="0.64"/>
<feComposite in2="hardAlpha" operator="out"/>
<feColorMatrix type="matrix" values="0 0 0 0 0 0 0 0 0 0 0 0 0 0 0 0 0 0 0.25 0"/>
<feBlend mode="normal" in2="BackgroundImageFix" result="effect1_dropShadow_1058_9825"/>
<feBlend mode="normal" in="SourceGraphic" in2="effect1_dropShadow_1058_9825" result="shape"/>
</filter>
<filter id="filter1_d_1058_9825" x="21.2487" y="25.7041" width="82.277" height="82.3961" filterUnits="userSpaceOnUse" color-interpolation-filters="sRGB">
<feFlood flood-opacity="0" result="BackgroundImageFix"/>
<feColorMatrix in="SourceAlpha" type="matrix" values="0 0 0 0 0 0 0 0 0 0 0 0 0 0 0 0 0 0 127 0" result="hardAlpha"/>
<feOffset dy="2.31036"/>
<feGaussianBlur stdDeviation="2.1232"/>
<feComposite in2="hardAlpha" operator="out"/>
<feColorMatrix type="matrix" values="0 0 0 0 0 0 0 0 0 0 0 0 0 0 0 0 0 0 0.52 0"/>
<feBlend mode="normal" in2="BackgroundImageFix" result="effect1_dropShadow_1058_9825"/>
<feBlend mode="normal" in="SourceGraphic" in2="effect1_dropShadow_1058_9825" result="shape"/>
</filter>
<clipPath id="clip0_1058_9825">
<rect width="128" height="128" fill="white" transform="translate(0 0.222168)"/>
</clipPath>
</defs>
</svg>
