<svg width="161" height="46" viewBox="0 0 161 46" fill="none" xmlns="http://www.w3.org/2000/svg">
<path d="M47.6344 0.0297852H1.69209C1.40872 0.0297852 1.13696 0.135114 0.936592 0.322601C0.736223 0.510087 0.623657 0.764376 0.623657 1.02952V44.0181C0.623657 44.2833 0.736223 44.5378 0.936592 44.7254C1.13696 44.9125 1.40872 45.0178 1.69209 45.0178H47.6344C47.9181 45.0178 48.1896 44.9125 48.3903 44.7254C48.5905 44.5378 48.7032 44.2833 48.7032 44.0181V1.02952C48.7032 0.764376 48.5905 0.510087 48.3903 0.322601C48.1896 0.135114 47.9181 0.0297852 47.6344 0.0297852ZM32.6766 29.0222C32.6766 29.2874 32.564 29.5416 32.3636 29.7291C32.1633 29.9166 31.8915 30.0219 31.6082 30.0219H17.7185C17.4352 30.0219 17.1634 29.9166 16.9631 29.7291C16.7627 29.5416 16.6501 29.2874 16.6501 29.0222V16.0256C16.6501 15.7604 16.7627 15.5062 16.9631 15.3187C17.1634 15.1312 17.4352 15.0259 17.7185 15.0259H31.6082C31.8915 15.0259 32.1633 15.1312 32.3636 15.3187C32.564 15.5062 32.6766 15.7604 32.6766 16.0256V29.0222Z" fill="white"/>
<path d="M143.814 15.0273H129.924C129.334 15.0273 128.855 15.4749 128.855 16.0271V29.0237C128.855 29.5758 129.334 30.0234 129.924 30.0234H143.814C144.404 30.0234 144.882 29.5758 144.882 29.0237V16.0271C144.882 15.4749 144.404 15.0273 143.814 15.0273Z" fill="white"/>
<path d="M127.79 0.0297852H113.901C113.311 0.0297852 112.833 0.477384 112.833 1.02952V14.0261C112.833 14.5783 113.311 15.0259 113.901 15.0259H127.79C128.381 15.0259 128.859 14.5783 128.859 14.0261V1.02952C128.859 0.477384 128.381 0.0297852 127.79 0.0297852Z" fill="white"/>
<path d="M159.849 0.0297852H145.959C145.369 0.0297852 144.891 0.477384 144.891 1.02952V14.0261C144.891 14.5783 145.369 15.0259 145.959 15.0259H159.849C160.439 15.0259 160.917 14.5783 160.917 14.0261V1.02952C160.917 0.477384 160.439 0.0297852 159.849 0.0297852Z" fill="white"/>
<path d="M127.79 30.0244H113.901C113.311 30.0244 112.833 30.472 112.833 31.0241V44.0209C112.833 44.5729 113.311 45.0206 113.901 45.0206H127.79C128.381 45.0206 128.859 44.5729 128.859 44.0209V31.0241C128.859 30.472 128.381 30.0244 127.79 30.0244Z" fill="white"/>
<path d="M159.849 30.0244H145.959C145.369 30.0244 144.891 30.472 144.891 31.0241V44.0209C144.891 44.5729 145.369 45.0206 145.959 45.0206H159.849C160.439 45.0206 160.917 44.5729 160.917 44.0209V31.0241C160.917 30.472 160.439 30.0244 159.849 30.0244Z" fill="white"/>
<path d="M103.732 0.0297852H89.8425C89.2523 0.0297852 88.7737 0.477384 88.7737 1.02952V14.0261C88.7737 14.5783 89.2523 15.0259 89.8425 15.0259H103.732C104.322 15.0259 104.8 14.5783 104.8 14.0261V1.02952C104.8 0.477384 104.322 0.0297852 103.732 0.0297852Z" fill="white"/>
<path d="M103.732 30.0244H89.8425C89.2523 30.0244 88.7737 30.472 88.7737 31.0241V44.0209C88.7737 44.5729 89.2523 45.0206 89.8425 45.0206H103.732C104.322 45.0206 104.8 44.5729 104.8 44.0209V31.0241C104.8 30.472 104.322 30.0244 103.732 30.0244Z" fill="white"/>
<path d="M88.7689 16.0144C88.7689 15.7492 88.6562 15.4949 88.4559 15.3074C88.2557 15.1199 87.9838 15.0146 87.7005 15.0146H72.7423V1.02952C72.7423 0.764376 72.6296 0.510087 72.4293 0.322601C72.2291 0.135114 71.9572 0.0297852 71.6739 0.0297852H57.7845C57.5008 0.0297852 57.2293 0.135114 57.0287 0.322601C56.8284 0.510087 56.7157 0.764376 56.7157 1.02952V43.9958C56.7157 44.2609 56.8284 44.5151 57.0287 44.7027C57.2293 44.8902 57.5008 44.9955 57.7845 44.9955H71.6739C71.9572 44.9955 72.2291 44.8902 72.4293 44.7027C72.6296 44.5151 72.7423 44.2609 72.7423 43.9958V30.0107H87.7005C87.9838 30.0107 88.2557 29.9053 88.4559 29.7179C88.6562 29.5304 88.7689 29.2761 88.7689 29.0109V16.0144Z" fill="white"/>
</svg>
