<svg width="96" height="29" viewBox="0 0 96 29" fill="none" xmlns="http://www.w3.org/2000/svg">
<path d="M92.3411 28.6904H4.07203C2.13013 28.6904 0.54126 27.1011 0.54126 25.1586V3.96774C0.54126 2.02523 2.1301 0.435913 4.07203 0.435913H92.3411C94.283 0.435913 95.8719 2.02523 95.8719 3.96774V25.1586C95.8719 27.1011 94.2831 28.6904 92.3411 28.6904Z" fill="black"/>
<path d="M92.3411 0.435913H4.07203C2.13013 0.435913 0.54126 2.02523 0.54126 3.96774V25.1586C0.54126 27.1011 2.1301 28.6904 4.07203 28.6904H92.3411C94.283 28.6904 95.8719 27.1011 95.8719 25.1586V3.96774C95.8719 2.02523 94.2831 0.435913 92.3411 0.435913H92.3411ZM92.3411 1.00099C93.9766 1.00099 95.3069 2.33208 95.3069 3.96774V25.1586C95.3069 26.7946 93.9765 28.1256 92.3411 28.1256H4.07203C2.43688 28.1256 1.10619 26.7946 1.10619 25.1586V3.96774C1.10619 2.33208 2.43685 1.00102 4.07203 1.00102H92.3411" fill="#A6A6A6"/>
<path d="M34.0246 7.66683C34.0246 8.25863 33.8495 8.72989 33.499 9.08144C33.1008 9.49946 32.5819 9.70863 31.944 9.70863C31.3331 9.70863 30.8137 9.49673 30.3865 9.07233C29.9586 8.64824 29.7451 8.12235 29.7451 7.4949C29.7451 6.86717 29.9586 6.34159 30.3865 5.91716C30.8137 5.4931 31.3331 5.28088 31.944 5.28088C32.2471 5.28088 32.5373 5.34025 32.8129 5.45863C33.0884 5.57729 33.3094 5.73481 33.4748 5.93208L33.1028 6.30483C32.8225 5.9696 32.4367 5.80211 31.944 5.80211C31.4985 5.80211 31.1132 5.95887 30.7881 6.27258C30.4629 6.5866 30.3003 6.99383 30.3003 7.4949C30.3003 7.996 30.4629 8.4032 30.7881 8.71726C31.1132 9.03096 31.4984 9.18769 31.944 9.18769C32.4166 9.18769 32.8107 9.03011 33.1262 8.71449C33.331 8.50888 33.4494 8.22308 33.4811 7.85607H31.944V7.347H33.995C34.0149 7.4577 34.0245 7.56392 34.0245 7.66683" fill="white"/>
<path d="M34.0207 7.67037H33.9501C33.9495 8.24868 33.7809 8.69784 33.4452 9.03504L33.4445 9.03561L33.4441 9.03618C33.0586 9.43979 32.5631 9.64067 31.94 9.64153C31.3454 9.64067 30.8477 9.43759 30.4321 9.02592C30.0174 8.61343 29.8124 8.10985 29.8116 7.49844C29.8124 6.88675 30.0174 6.38346 30.4321 5.97125C30.8477 5.55929 31.3454 5.35593 31.94 5.35507C32.2341 5.35507 32.5141 5.41253 32.7811 5.527C33.0484 5.64237 33.2595 5.79354 33.4168 5.98121L33.4709 5.93563L33.421 5.88569L33.0489 6.2587L33.0988 6.30838L33.1531 6.26317C32.8599 5.91134 32.4482 5.73398 31.94 5.73503C31.4779 5.73446 31.0715 5.89979 30.7352 6.2254C30.3958 6.55206 30.2252 6.9822 30.2258 7.49844C30.2252 8.01471 30.3958 8.44483 30.7352 8.77152C31.0715 9.09713 31.4779 9.26243 31.94 9.26185C32.4283 9.26271 32.8445 9.09684 33.1721 8.76796C33.3909 8.54829 33.515 8.24401 33.5475 7.86567L33.5541 7.78897H32.0106V7.42117H33.9911V7.35054L33.9217 7.36295C33.941 7.47006 33.9501 7.57184 33.9501 7.67037H34.0912C34.0912 7.56301 34.0812 7.45267 34.0606 7.33791L34.0501 7.27991H31.8695V7.93024H33.4772V7.85961L33.4069 7.85354C33.3758 8.20896 33.2628 8.47661 33.0724 8.66812C32.7693 8.9705 32.3972 9.11973 31.94 9.12059C31.511 9.12002 31.147 8.97212 30.8331 8.67C30.5223 8.36896 30.3676 7.98462 30.3669 7.49844C30.3676 7.01227 30.5223 6.62793 30.8331 6.32689C31.147 6.02477 31.511 5.87687 31.94 5.8763C32.4171 5.87744 32.7773 6.03524 33.0449 6.35393L33.0945 6.41298L33.5208 5.9856L33.5665 5.93982L33.5249 5.89036C33.3515 5.68348 33.1206 5.51926 32.8368 5.39736C32.5524 5.27508 32.2523 5.21381 31.94 5.21381C31.3129 5.21327 30.7717 5.43399 30.3327 5.8708C29.892 6.30676 29.6699 6.85475 29.6705 7.49844C29.6699 8.14185 29.892 8.69016 30.3329 9.12637C30.7717 9.56289 31.3129 9.78336 31.94 9.78279C32.5932 9.78336 33.135 9.56616 33.5461 9.13379L33.4951 9.08497L33.545 9.13494C33.9104 8.76933 34.0917 8.27544 34.0912 7.67037H34.0206H34.0207ZM37.2723 5.90004H35.3447V7.24381H37.0831V7.75307H35.3447V9.09684H37.2723V9.6175H34.8013V5.37939H37.2723V5.90004Z" fill="white"/>
<path d="M37.2781 5.90447V5.83384H35.2799V7.31891H37.0182V7.68672L35.2799 7.68691V9.17199H37.2075V9.55138H34.8776V5.45444H37.2075V5.90447H37.2781V5.83384V5.90447H37.3486V5.31317H34.7365V9.69265H37.3486V9.03072H35.421V7.82818H37.1593V7.17764H35.421V5.97511H37.3486V5.90447H37.2781ZM39.5717 9.62205H39.0274V5.90444H37.8452V5.38377H40.7539V5.90444H39.5717V9.62198" fill="white"/>
<path d="M39.5731 9.62193V9.55126H39.0993V5.83382H37.9172V5.45447H40.6847V5.83382H39.5025V9.62189H39.5731V9.55126V9.62189H39.6436V5.97509H40.8258V5.31317H37.7761V5.97506H38.9582V9.6925H39.6436V9.62186H39.5731V9.62193ZM42.8598 9.62193V5.38377H43.4035V9.62186H42.8598" fill="white"/>
<path d="M42.8678 9.62205H42.9384V5.45444H43.341V9.55138H42.8678V9.62202H42.9384H42.8678V9.69265H43.4821V5.31317H42.7973V9.69265H42.8678V9.62202V9.62205ZM45.8241 9.62205H45.2798V5.90444H44.0977V5.38377H47.0063V5.90444H45.8241V9.62198" fill="white"/>
<path d="M45.826 9.614V9.54333H45.3523V5.82586H44.1701V5.4465H46.9376V5.82586H45.7555V9.61397H45.826V9.54333V9.61397H45.8965V5.96712H47.0787V5.3052H44.0291V5.96709H45.2112V9.68457H45.8965V9.61394H45.826V9.614ZM49.8124 8.71148C50.1257 9.02903 50.5091 9.18766 50.9624 9.18766C51.4157 9.18766 51.7993 9.02903 52.1121 8.71148C52.4256 8.3939 52.5827 7.98794 52.5827 7.4949C52.5827 7.0019 52.4256 6.59594 52.1121 6.27835C51.7993 5.96077 51.4157 5.80211 50.9624 5.80211C50.5091 5.80211 50.1257 5.96077 49.8124 6.27835C49.4996 6.59594 49.3426 7.00186 49.3426 7.4949C49.3426 7.98794 49.4996 8.3939 49.8124 8.71148ZM52.5144 9.06627C52.0982 9.49473 51.5807 9.70863 50.9624 9.70863C50.3434 9.70863 49.8261 9.49473 49.4109 9.06627C48.9945 8.63827 48.7873 8.11438 48.7873 7.4949C48.7873 6.87542 48.9945 6.35143 49.4109 5.92354C49.8262 5.49497 50.3434 5.28088 50.9624 5.28088C51.5775 5.28088 52.0936 5.49612 52.5116 5.9263C52.9291 6.35645 53.138 6.87929 53.138 7.4949C53.138 8.11438 52.9296 8.63827 52.5144 9.06627Z" fill="white"/>
<path d="M49.8157 8.71501L49.7655 8.76466C50.0905 9.09494 50.4958 9.26271 50.9657 9.26185C51.4352 9.26271 51.8411 9.09494 52.1655 8.76466C52.4926 8.43407 52.6571 8.0064 52.6566 7.49844C52.657 6.99052 52.4926 6.56282 52.1655 6.23222C51.8411 5.90195 51.4352 5.73421 50.9657 5.73503C50.4958 5.73421 50.0905 5.90195 49.7655 6.23222C49.4393 6.56282 49.2744 6.99052 49.2753 7.49844C49.2744 8.00637 49.4393 8.43407 49.7655 8.76466L49.8157 8.71501L49.8659 8.66533C49.5666 8.36042 49.417 7.97687 49.4164 7.49844C49.417 7.02004 49.5666 6.6365 49.8658 6.33155C50.1678 6.02671 50.5286 5.87715 50.9657 5.87633C51.4024 5.87715 51.764 6.02671 52.0652 6.33155C52.365 6.6365 52.5146 7.02004 52.5152 7.49844C52.5146 7.97684 52.365 8.36042 52.0652 8.66533C51.764 8.97021 51.4024 9.11973 50.9657 9.12056C50.5286 9.11973 50.1678 8.97021 49.8658 8.66533L49.8157 8.71501ZM52.5177 9.0698L52.4672 9.02072C52.0627 9.43569 51.568 9.6407 50.9657 9.64153C50.363 9.64067 49.8683 9.43569 49.4646 9.02072L49.4627 9.0185L49.4646 9.02072C49.0609 8.60432 48.8617 8.10217 48.8611 7.49844C48.8617 6.89471 49.0609 6.39257 49.4646 5.9762C49.8683 5.56119 50.363 5.35593 50.9657 5.35511C51.5642 5.35593 52.0577 5.56205 52.4645 5.97922C52.8696 6.39752 53.0699 6.89887 53.0708 7.49844C53.0699 8.10217 52.8701 8.60432 52.4672 9.02072L52.5177 9.0698L52.5684 9.11887C52.996 8.67911 53.2123 8.1336 53.2119 7.49844C53.2124 6.8669 52.9952 6.32251 52.5656 5.88077C52.1357 5.43729 51.5973 5.21305 50.9657 5.21381C50.3308 5.21305 49.7906 5.43625 49.3635 5.87801V5.87769C48.935 6.31778 48.7195 6.86329 48.72 7.49844C48.7195 8.1336 48.935 8.67911 49.3635 9.11916L49.3654 9.12116L49.3635 9.11887C49.7906 9.56064 50.3308 9.78336 50.9657 9.78279C51.6003 9.78336 52.1404 9.56064 52.5684 9.11887L52.5177 9.0698ZM53.9046 9.61753V5.37936H54.5666L56.6237 8.67631H56.6471L56.6237 7.85958V5.37936H57.168V9.61746H56.6002L54.448 6.16073H54.4246L54.448 6.97776V9.61746H53.9046" fill="white"/>
<path d="M53.9075 9.62202H53.9782V5.45444H54.5309L56.5901 8.75146H56.7252L56.6999 7.86302V5.45447H57.1034V9.55135H56.645L54.4907 6.09456H54.3555L54.3809 6.98338V9.55135H53.9076V9.62199H53.9782H53.9076V9.69262H54.5221V6.98112L54.4987 6.16329L54.428 6.1652V6.23583H54.4515V6.1652L54.3916 6.20275L56.5666 9.69262H57.2447V5.31317H56.5587V7.86489L56.5821 8.68273L56.6527 8.68082V8.61019H56.6293V8.68082L56.6891 8.64333L54.6092 5.31317H53.837V9.69262H53.9076V9.62199L53.9075 9.62202ZM76.0529 21.6302H77.3706V12.7998H76.0529L76.0529 21.6302ZM87.9212 15.9807L86.4108 19.8091H86.3655L84.7979 15.9807H83.3785L85.7293 21.3316L84.389 24.308H85.7639L89.3865 15.9807L87.9212 15.9807ZM80.4487 20.6272C80.0165 20.6272 79.4149 20.4114 79.4149 19.8773C79.4149 19.1957 80.1648 18.9344 80.8116 18.9344C81.3914 18.9344 81.6633 19.0594 82.0157 19.23C81.9133 20.0478 81.2092 20.6272 80.4487 20.6272ZM80.6076 15.7875C79.6536 15.7875 78.6657 16.208 78.2568 17.1396L79.4262 17.6279C79.6762 17.1396 80.1415 16.9803 80.6302 16.9803C81.3116 16.9803 82.0044 17.3895 82.0157 18.1166V18.2074C81.777 18.0711 81.2664 17.8666 80.6415 17.8666C79.381 17.8666 78.0972 18.5594 78.0972 19.8546C78.0972 21.0362 79.131 21.7974 80.2891 21.7974C81.1753 21.7974 81.6633 21.3998 81.9704 20.9341H82.0157V21.6156H83.2874V18.23C83.2874 16.6625 82.118 15.7875 80.6076 15.7875ZM72.4642 17.0556H70.5901V14.0288H72.4642C73.4493 14.0288 74.0086 14.8447 74.0086 15.5422C74.0086 16.2265 73.4493 17.0556 72.4642 17.0556ZM72.4303 12.7998H69.2731V21.6302H70.5901V18.2846H72.4303C73.8907 18.2846 75.3263 17.227 75.3263 15.5422C75.3263 13.8574 73.8907 12.7998 72.4303 12.7998ZM55.2136 20.6289C54.3033 20.6289 53.5412 19.8665 53.5412 18.8194C53.5412 17.7612 54.3033 16.9873 55.2136 16.9873C56.1124 16.9873 56.8177 17.7612 56.8177 18.8194C56.8177 19.8665 56.1124 20.6289 55.2137 20.6289H55.2136ZM56.7266 16.4752H56.6811C56.3854 16.1225 55.8163 15.8038 55.0997 15.8038C53.598 15.8038 52.2216 17.1238 52.2216 18.8194C52.2216 20.5036 53.598 21.8123 55.0997 21.8123C55.8163 21.8123 56.3854 21.4936 56.6811 21.1297H56.7266V21.562C56.7266 22.7116 56.1124 23.326 55.1226 23.326C54.3149 23.326 53.8143 22.7455 53.6093 22.2563L52.4605 22.7342C52.7904 23.5307 53.6664 24.5095 55.1226 24.5095C56.6698 24.5095 57.9781 23.5989 57.9781 21.3799V15.9859H56.7266V16.4752ZM58.8881 21.6302H60.2078V12.7995H58.8881V21.6302ZM62.1532 18.717C62.119 17.5562 63.0519 16.9646 63.7231 16.9646C64.2467 16.9646 64.6902 17.2262 64.8378 17.602L62.1532 18.717ZM66.2487 17.7157C65.9987 17.044 65.236 15.8038 63.6775 15.8038C62.1303 15.8038 60.8449 17.0214 60.8449 18.8081C60.8449 20.4923 62.119 21.8123 63.8254 21.8123C65.2022 21.8123 65.9987 20.9702 66.3285 20.4809L65.3045 19.798C64.9635 20.2988 64.4967 20.6289 63.8254 20.6289C63.1543 20.6289 62.6765 20.3215 62.3692 19.7186L66.385 18.057L66.2487 17.7157ZM34.2542 16.7256V18.0001H37.303C37.212 18.717 36.9731 19.2404 36.609 19.6046C36.1655 20.0486 35.4715 20.5378 34.2542 20.5378C32.377 20.5378 30.9096 19.0243 30.9096 17.1467C30.9096 15.269 32.377 13.7554 34.2542 13.7554C35.2668 13.7554 36.006 14.1538 36.5521 14.6658L37.4509 13.7669C36.6887 13.0385 35.6761 12.4809 34.2542 12.4809C31.683 12.4809 29.5215 14.5748 29.5215 17.1467C29.5215 19.7186 31.683 21.8123 34.2542 21.8123C35.6422 21.8123 36.6887 21.3573 37.5077 20.5036C38.3496 19.6615 38.6114 18.4781 38.6114 17.5223C38.6114 17.2262 38.5887 16.9533 38.5429 16.7256H34.2542ZM42.0776 20.6289C41.1673 20.6289 40.3823 19.8778 40.3823 18.8081C40.3823 17.727 41.1673 16.9873 42.0776 16.9873C42.9875 16.9873 43.7726 17.727 43.7726 18.8081C43.7726 19.8778 42.9875 20.6289 42.0776 20.6289ZM42.0776 15.8038C40.4164 15.8038 39.0626 17.0669 39.0626 18.8081C39.0626 20.5378 40.4164 21.8123 42.0776 21.8123C43.7384 21.8123 45.0922 20.5378 45.0922 18.8081C45.0922 17.0669 43.7384 15.8038 42.0776 15.8038ZM48.6541 20.6289C47.7442 20.6289 46.9591 19.8778 46.9591 18.8081C46.9591 17.727 47.7442 16.9873 48.6541 16.9873C49.5641 16.9873 50.3492 17.727 50.3492 18.8081C50.3492 19.8778 49.5641 20.6289 48.6541 20.6289H48.6541ZM48.6541 15.8038C46.993 15.8038 45.6395 17.0669 45.6395 18.8081C45.6395 20.5378 46.993 21.8123 48.6541 21.8123C50.315 21.8123 51.6689 20.5378 51.6689 18.8081C51.6689 17.0669 50.315 15.8038 48.6541 15.8038H48.6541Z" fill="white"/>
<path d="M7.96228 5.80816C7.72535 6.02203 7.58392 6.37875 7.58392 6.85227V6.74522V22.3708V22.2678C7.58392 22.7051 7.70523 23.0428 7.91067 23.2603L7.96311 23.3106V23.3108C8.12939 23.4609 8.34261 23.5406 8.58698 23.5404C8.82576 23.5404 9.09441 23.4642 9.37793 23.3034L19.626 17.4778L23.1461 15.4765C23.5932 15.2224 23.8442 14.8946 23.8861 14.5607V14.5594C23.8442 14.2247 23.5932 13.8971 23.1461 13.643L19.6257 11.642L9.37796 5.81641C9.09383 5.6553 8.82499 5.57886 8.58558 5.57886C8.3415 5.57886 8.12856 5.65832 7.96235 5.80816H7.96228Z" fill="#00C1FF"/>
<path d="M7.96284 23.3147L7.91041 23.2645C7.70514 23.047 7.58392 22.7093 7.58392 22.272V22.3749V6.7531V6.85627C7.58392 6.38275 7.72524 6.02602 7.96198 5.81215L16.7025 14.5637L7.96284 23.3147Z" fill="url(#paint0_linear_808_2661)"/>
<path d="M19.624 17.4764L16.7101 14.5583L19.6238 11.6407L23.1413 13.6417C23.588 13.8958 23.8388 14.2233 23.8807 14.558V14.5594C23.8388 14.8933 23.588 15.2211 23.1413 15.4752L19.624 17.4764" fill="url(#paint1_linear_808_2661)"/>
<path d="M8.58474 23.5481C8.3406 23.5483 8.12754 23.4686 7.96143 23.3185V23.3183L16.7011 14.5673L19.615 17.4855L9.37506 23.3111C9.09176 23.4719 8.82333 23.5481 8.58474 23.5481Z" fill="url(#paint2_linear_808_2661)"/>
<path d="M16.7019 14.5635L7.96143 5.81187C8.12757 5.66203 8.34034 5.58257 8.5842 5.58257C8.82342 5.58257 9.09207 5.65899 9.37594 5.82013L19.6155 11.6458L16.7019 14.5635" fill="url(#paint3_linear_808_2661)"/>
<path d="M8.58523 23.6475C8.34109 23.6475 8.12775 23.5677 7.96161 23.4176L7.96132 23.4179C7.96064 23.4172 7.9599 23.4166 7.95913 23.416L7.91369 23.3715C7.91226 23.3701 7.91092 23.3685 7.90924 23.3669L7.96164 23.3144C8.12778 23.4645 8.3408 23.5443 8.585 23.544C8.82355 23.544 9.09199 23.4678 9.37528 23.307L19.615 17.4814L19.6806 17.5471L19.6142 17.5849L9.37525 23.4102C9.11707 23.5567 8.87151 23.6331 8.64969 23.6458C8.62822 23.6469 8.60672 23.6474 8.58523 23.6474" fill="url(#paint4_linear_808_2661)"/>
<path d="M7.91083 23.3718C7.70529 23.1544 7.58392 22.8169 7.58392 22.3793V22.2764C7.58392 22.7137 7.70529 23.0514 7.91083 23.2689L7.96329 23.3191L7.91083 23.3718Z" fill="url(#paint5_linear_808_2661)"/>
<path d="M19.6936 17.5434L19.628 17.4777L23.1454 15.4765C23.5921 15.2224 23.8429 14.8946 23.8848 14.5607C23.8848 14.6832 23.8575 14.8057 23.8032 14.925C23.6938 15.1653 23.4745 15.3924 23.1454 15.5797L19.6936 17.5435" fill="url(#paint6_linear_808_2661)"/>
<path d="M23.8852 14.5635C23.8432 14.2288 23.5925 13.9013 23.1458 13.6471L19.628 11.6461L19.6936 11.5804H19.6939L23.1458 13.5442C23.6383 13.8245 23.8849 14.194 23.8852 14.5635Z" fill="url(#paint7_linear_808_2661)"/>
<path d="M7.58392 6.86023V6.75229C7.58392 6.71337 7.58497 6.67531 7.58698 6.63836V6.63668C7.58698 6.63617 7.58698 6.63563 7.58717 6.63506V6.6309C7.60844 6.25424 7.72542 5.96043 7.91083 5.76424L7.96247 5.81608C7.72542 6.02998 7.58392 6.38671 7.58392 6.86023Z" fill="url(#paint8_linear_808_2661)"/>
<path d="M19.6147 11.6506L9.37528 5.82492C9.09141 5.66381 8.82279 5.5874 8.58358 5.5874C8.33969 5.5874 8.12693 5.66686 7.96081 5.8167L7.90924 5.76483C7.92535 5.74775 7.94208 5.73129 7.95941 5.71546C7.95995 5.71489 7.96081 5.71432 7.96135 5.71378C8.12616 5.56508 8.33667 5.48562 8.57837 5.48419H8.58358C8.82279 5.48419 9.09141 5.56064 9.37528 5.72181L19.6806 11.5846L19.6803 11.5849L19.6147 11.6506Z" fill="url(#paint9_linear_808_2661)"/>
<defs>
<linearGradient id="paint0_linear_808_2661" x1="13.1696" y1="6.58799" x2="5.63974" y2="14.1325" gradientUnits="userSpaceOnUse">
<stop stop-color="#00A0FF"/>
<stop offset="0.00657" stop-color="#00A1FF"/>
<stop offset="0.2601" stop-color="#00BEFF"/>
<stop offset="0.5122" stop-color="#00D2FF"/>
<stop offset="0.7604" stop-color="#00DFFF"/>
<stop offset="1" stop-color="#00E3FF"/>
</linearGradient>
<linearGradient id="paint1_linear_808_2661" x1="24.425" y1="14.5079" x2="7.35513" y2="14.5079" gradientUnits="userSpaceOnUse">
<stop stop-color="#FFE000"/>
<stop offset="0.4087" stop-color="#FFBD00"/>
<stop offset="0.7754" stop-color="#FFA500"/>
<stop offset="1" stop-color="#FF9C00"/>
</linearGradient>
<linearGradient id="paint2_linear_808_2661" x1="18.068" y1="17.3418" x2="5.30808" y2="30.0332" gradientUnits="userSpaceOnUse">
<stop stop-color="#FF3A44"/>
<stop offset="1" stop-color="#C31162"/>
</linearGradient>
<linearGradient id="paint3_linear_808_2661" x1="5.70875" y1="4.51441" x2="11.3956" y2="10.1793" gradientUnits="userSpaceOnUse">
<stop stop-color="#32A071"/>
<stop offset="0.0685" stop-color="#2DA771"/>
<stop offset="0.4762" stop-color="#15CF74"/>
<stop offset="0.8009" stop-color="#06E775"/>
<stop offset="1" stop-color="#00F076"/>
</linearGradient>
<linearGradient id="paint4_linear_808_2661" x1="18.0617" y1="19.3619" x2="7.84291" y2="29.6004" gradientUnits="userSpaceOnUse">
<stop stop-color="#CC2E36"/>
<stop offset="1" stop-color="#9C0E4E"/>
</linearGradient>
<linearGradient id="paint5_linear_808_2661" x1="8.74979" y1="6.5925" x2="2.11612" y2="13.2477" gradientUnits="userSpaceOnUse">
<stop stop-color="#008DE0"/>
<stop offset="0.00657" stop-color="#008DE0"/>
<stop offset="0.2601" stop-color="#00A7E0"/>
<stop offset="0.5122" stop-color="#00B8E0"/>
<stop offset="0.7604" stop-color="#00C4E0"/>
<stop offset="1" stop-color="#00C7E0"/>
</linearGradient>
<linearGradient id="paint6_linear_808_2661" x1="24.4291" y1="14.56" x2="7.35885" y2="14.56" gradientUnits="userSpaceOnUse">
<stop stop-color="#E0C500"/>
<stop offset="0.4087" stop-color="#E0A600"/>
<stop offset="0.7754" stop-color="#E09100"/>
<stop offset="1" stop-color="#E08900"/>
</linearGradient>
<linearGradient id="paint7_linear_808_2661" x1="24.4295" y1="14.5642" x2="7.35889" y2="14.5642" gradientUnits="userSpaceOnUse">
<stop stop-color="#FFE840"/>
<stop offset="0.4087" stop-color="#FFCE40"/>
<stop offset="0.7754" stop-color="#FFBC40"/>
<stop offset="1" stop-color="#FFB540"/>
</linearGradient>
<linearGradient id="paint8_linear_808_2661" x1="8.74257" y1="6.60395" x2="2.35272" y2="12.7368" gradientUnits="userSpaceOnUse">
<stop stop-color="#40B8FF"/>
<stop offset="0.00657" stop-color="#40B9FF"/>
<stop offset="0.2601" stop-color="#40CEFF"/>
<stop offset="0.5122" stop-color="#40DDFF"/>
<stop offset="0.7604" stop-color="#40E7FF"/>
<stop offset="1" stop-color="#40EAFF"/>
</linearGradient>
<linearGradient id="paint9_linear_808_2661" x1="5.6954" y1="6.37002" x2="10.2585" y2="10.942" gradientUnits="userSpaceOnUse">
<stop stop-color="#65B895"/>
<stop offset="0.0685" stop-color="#62BD95"/>
<stop offset="0.4762" stop-color="#50DB97"/>
<stop offset="0.8009" stop-color="#44ED98"/>
<stop offset="1" stop-color="#40F498"/>
</linearGradient>
</defs>
</svg>
