<svg width="31" height="31" viewBox="0 0 31 31" fill="none" xmlns="http://www.w3.org/2000/svg">
<g filter="url(#filter0_d_2144_10679)">
<path opacity="0.8" fill-rule="evenodd" clip-rule="evenodd" d="M9.23151 0.742432H21.181C25.5357 0.742432 27.9915 3.20966 27.9915 7.56424V19.5024C27.9915 23.857 25.5357 26.3243 21.181 26.3243H9.23151C4.8769 26.3243 2.40967 23.857 2.40967 19.5024V7.56424C2.40967 3.20966 4.8769 0.742432 9.23151 0.742432ZM16.411 16.4984C16.7023 16.2071 17.0975 16.0434 17.5095 16.0434H21.3933C22.2516 16.0434 22.9701 16.7409 22.8893 17.5954C22.859 17.9224 22.8116 18.2478 22.7409 18.5686C22.5833 19.2755 22.3106 19.8868 21.8321 20.3653C21.3536 20.8438 20.7416 21.1172 20.0347 21.2741C19.3364 21.4294 18.5014 21.4807 17.5281 21.4807H17.5095C17.0975 21.4807 16.7023 21.317 16.411 21.0257C16.1196 20.7344 15.956 20.3392 15.956 19.9272V17.5969C15.956 17.1849 16.1196 16.7898 16.411 16.4984ZM7.41162 14.4899V16.0621C7.41162 17.0353 7.46211 17.8703 7.61746 18.5686C7.77514 19.2755 8.04779 19.8868 8.52627 20.3653C9.00475 20.8438 9.61684 21.1172 10.3237 21.2741C11.022 21.4294 11.857 21.4807 12.8303 21.4807H12.8489C13.2609 21.4807 13.6561 21.317 13.9474 21.0257C14.2388 20.7344 14.4024 20.3392 14.4024 19.9272V14.4899C14.4024 14.0779 14.2388 13.6827 13.9474 13.3914C13.6561 13.1001 13.2609 12.9364 12.8489 12.9364H8.96514C8.55312 12.9364 8.15798 13.1001 7.86664 13.3914C7.57529 13.6827 7.41162 14.0779 7.41162 14.4899ZM22.4918 14.0349C22.7831 13.7435 22.9468 13.3484 22.9468 12.9364V11.3642C22.9468 10.3909 22.8963 9.55593 22.7409 8.85762C22.5833 8.15077 22.3106 7.53946 21.8321 7.06098C21.3536 6.5825 20.7416 6.30908 20.0347 6.15217C19.3364 5.99682 18.5014 5.94556 17.5281 5.94556H17.5095C17.0975 5.94556 16.7023 6.10923 16.411 6.40057C16.1196 6.69191 15.956 7.08705 15.956 7.49907V12.9364C15.956 13.3484 16.1196 13.7435 16.411 14.0349C16.7023 14.3262 17.0975 14.4899 17.5095 14.4899H21.3933C21.8053 14.4899 22.2004 14.3262 22.4918 14.0349ZM13.9474 6.40057C14.2388 6.69191 14.4024 7.08705 14.4024 7.49907V9.82935C14.4024 10.2414 14.2388 10.6365 13.9474 10.9278C13.6561 11.2192 13.2609 11.3829 12.8489 11.3829H8.96514C8.10682 11.3829 7.38832 10.6853 7.4691 9.8309C7.49827 9.5037 7.54782 9.17865 7.61746 8.85762C7.77514 8.15077 8.04779 7.53946 8.52627 7.06098C9.00475 6.5825 9.61684 6.30908 10.3237 6.15217C11.022 5.99682 11.857 5.94556 12.8303 5.94556H12.8489C13.2609 5.94556 13.6561 6.10923 13.9474 6.40057Z" fill="white"/>
</g>
<defs>
<filter id="filter0_d_2144_10679" x="-0.0303099" y="0.74231" width="30.419" height="30.4188" filterUnits="userSpaceOnUse" color-interpolation-filters="sRGB">
<feFlood flood-opacity="0" result="BackgroundImageFix"/>
<feColorMatrix in="SourceAlpha" type="matrix" values="0 0 0 0 0 0 0 0 0 0 0 0 0 0 0 0 0 0 127 0" result="hardAlpha"/>
<feOffset dy="2.23881"/>
<feGaussianBlur stdDeviation="1.1194"/>
<feComposite in2="hardAlpha" operator="out"/>
<feColorMatrix type="matrix" values="0 0 0 0 0 0 0 0 0 0 0 0 0 0 0 0 0 0 0.15 0"/>
<feBlend mode="normal" in2="BackgroundImageFix" result="effect1_dropShadow_2144_10679"/>
<feBlend mode="normal" in="SourceGraphic" in2="effect1_dropShadow_2144_10679" result="shape"/>
</filter>
</defs>
</svg>
