<svg width="22" height="20" viewBox="0 0 22 20" fill="none" xmlns="http://www.w3.org/2000/svg">
<path d="M9.59879 1.212L0.824501 16.4084C0.666006 16.6828 0.582549 16.9941 0.58252 17.311C0.58249 17.628 0.66589 17.9393 0.824334 18.2137C0.982777 18.4882 1.21068 18.7161 1.48513 18.8745C1.75959 19.033 2.07092 19.1164 2.38782 19.1164H19.935C20.2519 19.1164 20.5632 19.033 20.8377 18.8745C21.1121 18.7161 21.34 18.4882 21.4985 18.2137C21.6569 17.9393 21.7403 17.628 21.7403 17.311C21.7403 16.9941 21.6568 16.6828 21.4983 16.4084L12.725 1.212C12.5665 0.937622 12.3387 0.709782 12.0643 0.551374C11.7899 0.392965 11.4787 0.30957 11.1619 0.30957C10.8451 0.30957 10.5338 0.392965 10.2594 0.551374C9.98505 0.709782 9.75721 0.937622 9.59879 1.212Z" fill="#EE404C"/>
<path d="M11.2765 5.89905H11.0477C10.4842 5.89905 10.0273 6.35586 10.0273 6.91936V11.7963C10.0273 12.3598 10.4842 12.8166 11.0477 12.8166H11.2765C11.84 12.8166 12.2969 12.3598 12.2969 11.7963V6.91936C12.2969 6.35586 11.84 5.89905 11.2765 5.89905Z" fill="#FFF7ED"/>
<path d="M11.1621 16.6846C11.7888 16.6846 12.2969 16.1765 12.2969 15.5498C12.2969 14.9231 11.7888 14.415 11.1621 14.415C10.5354 14.415 10.0273 14.9231 10.0273 15.5498C10.0273 16.1765 10.5354 16.6846 11.1621 16.6846Z" fill="#FFF7ED"/>
</svg>
