<svg width="98" height="100" viewBox="0 0 98 100" fill="none" xmlns="http://www.w3.org/2000/svg">
<rect x="0.268555" y="0.271606" width="97.4624" height="99.1794" rx="26.4337" fill="url(#paint0_linear_827_4573)"/>
<g filter="url(#filter0_d_827_4573)">
<path opacity="0.8" fill-rule="evenodd" clip-rule="evenodd" d="M62.7069 19.2316H34.4891C24.206 19.2316 18.3799 25.0577 18.3799 35.3407V63.5317C18.3799 73.8148 24.206 79.641 34.4891 79.641H62.7069C72.9899 79.641 78.7892 73.8148 78.7892 63.5317V35.3407C78.7892 25.0577 72.9899 19.2316 62.7069 19.2316ZM63.2843 35.1079C55.4065 27.2287 42.7569 27.0077 34.5802 34.3933L34.608 33.8135C34.6166 33.6311 34.5892 33.4488 34.5273 33.277C34.4655 33.1051 34.3704 32.9472 34.2475 32.8122C34.1245 32.6771 33.9762 32.5676 33.811 32.4899C33.6457 32.4121 33.4668 32.3677 33.2844 32.3592C32.528 32.3508 31.8662 32.9153 31.8301 33.6828L31.6424 37.6523C31.6334 37.836 31.661 38.0196 31.7236 38.1925C31.7862 38.3655 31.8825 38.5242 32.0069 38.6597C32.1313 38.7951 32.2814 38.9045 32.4484 38.9814C32.6155 39.0584 32.7961 39.1014 32.9799 39.108L36.9105 39.2512L36.9619 39.2526C37.3307 39.2592 37.6869 39.1191 37.9524 38.8631C38.2178 38.607 38.3707 38.256 38.3773 37.8873C38.3839 37.5185 38.2438 37.1622 37.9878 36.8968C37.7317 36.6313 37.3807 36.4785 37.012 36.4719L36.4433 36.4524C43.53 30.0525 54.493 30.2458 61.3183 37.0725C66.6337 42.3865 68.1033 50.5479 64.9764 57.3802C64.9004 57.5462 64.8579 57.7256 64.8513 57.9081C64.8447 58.0906 64.874 58.2726 64.9377 58.4437C65.0015 58.6149 65.0983 58.7718 65.2226 58.9055C65.347 59.0392 65.4964 59.1471 65.6625 59.2231C65.8286 59.299 66.008 59.3415 66.1904 59.3482C66.3729 59.3548 66.5549 59.3254 66.7261 59.2617C66.8972 59.198 67.0541 59.1012 67.1878 58.9768C67.3216 58.8525 67.4295 58.703 67.5054 58.5369C71.1134 50.6536 69.4172 41.2394 63.2843 35.1079ZM63.9656 60.7824L60.0378 60.5933C59.6699 60.5766 59.3104 60.7062 59.0377 60.9536C58.7649 61.2011 58.6012 61.5464 58.5821 61.9141C58.5731 62.0965 58.6001 62.2789 58.6617 62.4509C58.7232 62.6228 58.818 62.781 58.9406 62.9163C59.0633 63.0516 59.2114 63.1614 59.3765 63.2395C59.5416 63.3176 59.7205 63.3623 59.9029 63.3712L60.473 63.399C53.3835 69.6515 42.5331 69.411 35.7579 62.6343C33.1246 59.9947 31.37 56.6068 30.7335 52.9331C30.097 49.2593 30.6096 45.4787 32.2013 42.107C32.3591 41.7737 32.3781 41.3913 32.254 41.044C32.1298 40.6966 31.8728 40.4129 31.5395 40.255C31.2061 40.0972 30.8238 40.0783 30.4764 40.2024C30.1291 40.3265 29.8454 40.5835 29.6875 40.9169C25.9196 48.8614 27.5686 58.3798 33.7891 64.6003C35.7245 66.5385 38.0238 68.0751 40.5549 69.1219C43.086 70.1687 45.7991 70.7049 48.5381 70.6998C53.4683 70.6998 58.3833 68.9452 62.311 65.4804L62.2763 66.0574C62.2611 66.242 62.2831 66.4278 62.3407 66.6039C62.3984 66.7799 62.4907 66.9426 62.6121 67.0825C62.7336 67.2224 62.8818 67.3366 63.048 67.4184C63.2142 67.5002 63.395 67.548 63.5799 67.5589C63.7649 67.5698 63.9501 67.5437 64.1248 67.482C64.2994 67.4204 64.46 67.3244 64.5971 67.1998C64.7342 67.0752 64.845 66.9245 64.923 66.7565C65.001 66.5885 65.0447 66.4066 65.0514 66.2215L65.2864 62.2548C65.2973 62.0712 65.2717 61.8873 65.211 61.7138C65.1503 61.5402 65.0558 61.3804 64.933 61.2436C64.8102 61.1068 64.6614 60.9957 64.4953 60.9168C64.3293 60.8378 64.1492 60.7912 63.9656 60.7824ZM34.6304 49.8604C34.6304 42.1995 40.8731 35.9568 48.534 35.9568C56.1949 35.9568 62.4376 42.1995 62.4376 49.8604C62.4376 57.5213 56.1949 63.7641 48.534 63.7641C40.8731 63.7641 34.6304 57.5213 34.6304 49.8604ZM52.7051 52.6411C52.7051 50.347 50.8281 48.4701 48.534 48.4701C47.7693 48.4701 47.1436 47.8444 47.1436 47.0797C47.1436 46.315 47.7693 45.6893 48.534 45.6893C49.2987 45.6893 49.9244 46.315 49.9244 47.0797C49.9244 47.8444 50.55 48.4701 51.3147 48.4701C52.0794 48.4701 52.7051 47.8444 52.7051 47.0797C52.7051 45.2722 51.5372 43.7428 49.9244 43.1589V42.9086C49.9244 42.1439 49.2987 41.5182 48.534 41.5182C47.7693 41.5182 47.1436 42.1439 47.1436 42.9086V43.1589C45.5308 43.7428 44.3629 45.2722 44.3629 47.0797C44.3629 49.3738 46.2399 51.2508 48.534 51.2508C49.2987 51.2508 49.9244 51.8764 49.9244 52.6411C49.9244 53.4058 49.2987 54.0315 48.534 54.0315C47.7693 54.0315 47.1436 53.4058 47.1436 52.6411C47.1436 51.8764 46.518 51.2508 45.7533 51.2508C44.9886 51.2508 44.3629 51.8764 44.3629 52.6411C44.3629 54.4486 45.5308 55.978 47.1436 56.562V56.8122C47.1436 57.5769 47.7693 58.2026 48.534 58.2026C49.2987 58.2026 49.9244 57.5769 49.9244 56.8122V56.562C51.5372 55.978 52.7051 54.4486 52.7051 52.6411Z" fill="white"/>
</g>
<defs>
<filter id="filter0_d_827_4573" x="12.6175" y="19.2316" width="71.8313" height="71.8314" filterUnits="userSpaceOnUse" color-interpolation-filters="sRGB">
<feFlood flood-opacity="0" result="BackgroundImageFix"/>
<feColorMatrix in="SourceAlpha" type="matrix" values="0 0 0 0 0 0 0 0 0 0 0 0 0 0 0 0 0 0 127 0" result="hardAlpha"/>
<feOffset dy="5.28675"/>
<feGaussianBlur stdDeviation="2.64337"/>
<feComposite in2="hardAlpha" operator="out"/>
<feColorMatrix type="matrix" values="0 0 0 0 0 0 0 0 0 0 0 0 0 0 0 0 0 0 0.15 0"/>
<feBlend mode="normal" in2="BackgroundImageFix" result="effect1_dropShadow_827_4573"/>
<feBlend mode="normal" in="SourceGraphic" in2="effect1_dropShadow_827_4573" result="shape"/>
</filter>
<linearGradient id="paint0_linear_827_4573" x1="0.517151" y1="99.451" x2="98.2623" y2="99.451" gradientUnits="userSpaceOnUse">
<stop stop-color="#C0037B"/>
<stop offset="1" stop-color="#FF1BCA"/>
</linearGradient>
</defs>
</svg>
