<svg width="64" height="65" viewBox="0 0 64 65" fill="none" xmlns="http://www.w3.org/2000/svg">
<g id="carbon:workflow-automation">
<path id="Vector" d="M32 54.0601C24.8 54.0601 17.8 50.4601 13.6 44.0601H24V40.0601H8V56.0601H12V48.6601C17 54.6601 24.2 58.0601 32 58.0601V54.0601ZM62 46.0601V42.0601H57.8C57.6 40.8601 57 39.6601 56.4 38.4601L59.4 35.4601L56.6 32.6601L53.6 35.6601C52.6 35.0601 51.4 34.4601 50 34.2601V30.0601H46V34.2601C44.8 34.4601 43.6 35.0601 42.4 35.6601L39.4 32.6601L36.6 35.4601L39.6 38.4601C39 39.4601 38.4 40.6601 38.2 42.0601H34V46.0601H38.2C38.4 47.2601 39 48.4601 39.6 49.6601L36.6 52.6601L39.4 55.4601L42.4 52.4601C43.4 53.0601 44.6 53.6601 46 53.8601V58.0601H50V53.8601C51.2 53.6601 52.4 53.0601 53.6 52.4601L56.6 55.4601L59.4 52.6601L56.4 49.6601C57 48.6601 57.6 47.4601 57.8 46.0601H62ZM48 50.0601C44.6 50.0601 42 47.4601 42 44.0601C42 40.6601 44.6 38.0601 48 38.0601C51.4 38.0601 54 40.6601 54 44.0601C54 47.4601 51.4 50.0601 48 50.0601ZM40 20.0601H50.4C43.8 9.86006 30.2 7.06006 20 13.6601C13.8 17.6601 10 24.6601 10 32.0601H6C6 17.6601 17.6 6.06006 32 6.06006C39.8 6.06006 47 9.46006 52 15.4601V8.06006H56V24.0601H40V20.0601Z" fill="url(#paint0_linear_824_138)"/>
</g>
<defs>
<linearGradient id="paint0_linear_824_138" x1="6" y1="32.0601" x2="62" y2="32.0601" gradientUnits="userSpaceOnUse">
<stop stop-color="#ED8A4C"/>
<stop offset="1" stop-color="#EA485C"/>
</linearGradient>
</defs>
</svg>
