<svg width="64" height="65" viewBox="0 0 64 65" fill="none" xmlns="http://www.w3.org/2000/svg">
<g id="carbon:chart-maximum">
<path id="Vector" d="M16 12.0601H20V16.0601H16V12.0601ZM24 12.0601H28V16.0601H24V12.0601ZM40 12.0601H44V16.0601H40V12.0601ZM48 12.0601H52V16.0601H48V12.0601ZM56 12.0601H60V16.0601H56V12.0601Z" fill="url(#paint0_linear_824_131)"/>
<path id="Vector_2" d="M55.978 56.0601L55.924 55.7341C53.02 38.2081 48.132 18.2381 36 16.2381V12.0601H32V16.2301C19.832 18.1861 14.934 38.1861 12.028 55.7341L11.974 56.0601H8V16.0601H12V12.0601H8V4.06006H4V56.0601C4 57.1209 4.42143 58.1383 5.17157 58.8885C5.92172 59.6386 6.93913 60.0601 8 60.0601H60V56.0601H55.978ZM16.03 56.0601C20.078 31.8441 25.95 20.0601 33.976 20.0601C42.002 20.0601 47.874 31.8441 51.92 56.0601H16.03Z" fill="url(#paint1_linear_824_131)"/>
</g>
<defs>
<linearGradient id="paint0_linear_824_131" x1="16" y1="14.0601" x2="60" y2="14.0601" gradientUnits="userSpaceOnUse">
<stop stop-color="#ED8A4C"/>
<stop offset="1" stop-color="#EA485C"/>
</linearGradient>
<linearGradient id="paint1_linear_824_131" x1="4" y1="32.0601" x2="60" y2="32.0601" gradientUnits="userSpaceOnUse">
<stop stop-color="#ED8A4C"/>
<stop offset="1" stop-color="#EA485C"/>
</linearGradient>
</defs>
</svg>
