<svg width="64" height="65" viewBox="0 0 64 65" fill="none" xmlns="http://www.w3.org/2000/svg">
<g id="carbon:ibm-event-automation">
<path id="Vector" d="M8 48.0601C10.2091 48.0601 12 46.2692 12 44.0601C12 41.8509 10.2091 40.0601 8 40.0601C5.79086 40.0601 4 41.8509 4 44.0601C4 46.2692 5.79086 48.0601 8 48.0601Z" fill="url(#paint0_linear_824_146)"/>
<path id="Vector_2" d="M27 60.0598C23.9769 60.0556 20.9982 59.332 18.3099 57.949C15.6217 56.5659 13.3012 54.563 11.54 52.1059L14.792 49.7778C16.1826 51.7184 18.015 53.3001 20.1377 54.3925C22.2605 55.4848 24.6127 56.0563 27 56.0598C34.938 56.0598 41.516 49.8598 41.974 41.9438L45.968 42.1758C45.388 52.2038 37.054 60.0598 27 60.0598Z" fill="url(#paint1_linear_824_146)"/>
<path id="Vector_3" d="M56 50.0601C58.2091 50.0601 60 48.2692 60 46.0601C60 43.8509 58.2091 42.0601 56 42.0601C53.7909 42.0601 52 43.8509 52 46.0601C52 48.2692 53.7909 50.0601 56 50.0601Z" fill="url(#paint2_linear_824_146)"/>
<path id="Vector_4" d="M61.282 38.2501L57.434 37.1601C57.8107 35.826 58.0012 34.4463 58 33.0601C58 24.7901 51.272 18.0601 43 18.0601C40.8701 18.0549 38.764 18.5071 36.824 19.3861L35.176 15.7421C37.6335 14.6278 40.3017 14.0543 43 14.0601C53.476 14.0601 62 22.5841 62 33.0601C62 34.8201 61.76 36.5681 61.282 38.2501ZM40.828 29.2301L34.828 23.2301C34.074 22.4781 33.068 22.0601 32 22.0601C30.932 22.0601 29.926 22.4761 29.172 23.2321L23.172 29.2321C22.392 30.0121 22 31.0361 22 32.0601C22 33.0841 22.392 34.1081 23.172 34.8881L29.172 40.8881C29.926 41.6441 30.932 42.0601 32 42.0601C33.068 42.0601 34.074 41.6441 34.828 40.8881L40.828 34.8881C41.608 34.1081 42 33.0841 42 32.0601C42 31.0361 41.608 30.0121 40.828 29.2321M32 38.0601L26 32.0601L32 26.0601L38 32.0601L32 38.0601Z" fill="url(#paint3_linear_824_146)"/>
<path id="Vector_5" d="M32 10.0601C34.2091 10.0601 36 8.2692 36 6.06006C36 3.85092 34.2091 2.06006 32 2.06006C29.7909 2.06006 28 3.85092 28 6.06006C28 8.2692 29.7909 10.0601 32 10.0601Z" fill="url(#paint4_linear_824_146)"/>
<path id="Vector_6" d="M16.05 39.8243C13.0118 38.2043 10.4715 35.7885 8.70119 32.8354C6.93083 29.8824 5.9971 26.5034 6.00001 23.0603C6.00001 13.0063 13.856 4.67429 23.884 4.09229L24.116 8.08629C20.8534 8.28108 17.7437 9.53589 15.2595 11.6599C12.7754 13.784 11.0528 16.6611 10.3536 19.8538C9.65438 23.0465 10.0168 26.3803 11.3858 29.3481C12.7548 32.316 15.0555 34.7557 17.938 36.2963L16.05 39.8243Z" fill="url(#paint5_linear_824_146)"/>
</g>
<defs>
<linearGradient id="paint0_linear_824_146" x1="4" y1="44.0601" x2="12" y2="44.0601" gradientUnits="userSpaceOnUse">
<stop stop-color="#ED8A4C"/>
<stop offset="1" stop-color="#EA485C"/>
</linearGradient>
<linearGradient id="paint1_linear_824_146" x1="11.54" y1="51.0018" x2="45.968" y2="51.0018" gradientUnits="userSpaceOnUse">
<stop stop-color="#ED8A4C"/>
<stop offset="1" stop-color="#EA485C"/>
</linearGradient>
<linearGradient id="paint2_linear_824_146" x1="52" y1="46.0601" x2="60" y2="46.0601" gradientUnits="userSpaceOnUse">
<stop stop-color="#ED8A4C"/>
<stop offset="1" stop-color="#EA485C"/>
</linearGradient>
<linearGradient id="paint3_linear_824_146" x1="22" y1="28.0601" x2="62" y2="28.0601" gradientUnits="userSpaceOnUse">
<stop stop-color="#ED8A4C"/>
<stop offset="1" stop-color="#EA485C"/>
</linearGradient>
<linearGradient id="paint4_linear_824_146" x1="28" y1="6.06006" x2="36" y2="6.06006" gradientUnits="userSpaceOnUse">
<stop stop-color="#ED8A4C"/>
<stop offset="1" stop-color="#EA485C"/>
</linearGradient>
<linearGradient id="paint5_linear_824_146" x1="6" y1="21.9583" x2="24.116" y2="21.9583" gradientUnits="userSpaceOnUse">
<stop stop-color="#ED8A4C"/>
<stop offset="1" stop-color="#EA485C"/>
</linearGradient>
</defs>
</svg>
