<svg width="64" height="65" viewBox="0 0 64 65" fill="none" xmlns="http://www.w3.org/2000/svg">
<g id="column-wave-svgrepo-com 1">
<g id="Group">
<g id="Group_2">
<path id="Vector" fill-rule="evenodd" clip-rule="evenodd" d="M52.7061 9.6563C52.7061 7.45771 54.3889 5.677 56.467 5.677C58.5451 5.677 60.2355 7.45771 60.2355 9.6563V57.5396C60.2355 59.7382 58.5451 61.5189 56.467 61.5189C54.3889 61.5189 52.7061 59.7382 52.7061 57.5396V9.6563Z" fill="#00D1E4"/>
<path id="Vector_2" fill-rule="evenodd" clip-rule="evenodd" d="M37.6472 20.9505C37.6472 18.7519 39.3376 16.9712 41.4082 16.9712C43.49 16.9712 45.1766 18.7519 45.1766 20.9505V57.5397C45.1766 59.7382 43.49 61.519 41.4082 61.519C39.3376 61.519 37.6472 59.7382 37.6472 57.5397V20.9505Z" fill="#00D1E4"/>
<path id="Vector_3" fill-rule="evenodd" clip-rule="evenodd" d="M22.5959 32.2444C22.5959 30.0458 24.2788 28.2651 26.3531 28.2651C28.4312 28.2651 30.1178 30.0458 30.1178 32.2444V57.5395C30.1178 59.7381 28.4312 61.5188 26.3531 61.5188C24.2788 61.5188 22.5959 59.7381 22.5959 57.5395V32.2444Z" fill="#00D1E4"/>
<path id="Vector_4" fill-rule="evenodd" clip-rule="evenodd" d="M7.69141 43.5386C7.69141 41.34 9.34035 39.5593 11.3733 39.5593C13.4062 39.5593 15.0589 41.34 15.0589 43.5386V57.5396C15.0589 59.7381 13.4062 61.5189 11.3733 61.5189C9.34035 61.5189 7.69141 59.7381 7.69141 57.5396V43.5386Z" fill="#00D1E4"/>
</g>
</g>
</g>
</svg>
