<svg width="64" height="65" viewBox="0 0 64 65" fill="none" xmlns="http://www.w3.org/2000/svg">
<g id="headphones-head-set-chat-live-support-svgrepo-com 1">
<path id="Vector" d="M32 4.03003C18.8 4.03003 8 14.63 8 27.83V34.83C8 35.03 8 35.03 8 35.23C8 35.43 8 35.83 8 36.03C8 41.63 12.4 46.03 18 46.03C19.2 46.03 20 45.23 20 44.03V28.03C20 26.83 19.2 26.03 18 26.03C15.8 26.03 13.6 26.83 12 28.03V27.63C12 16.83 21 8.03003 32 8.03003C43 8.03003 52 16.83 52 27.83V28.03C50.4 26.83 48.2 26.03 46 26.03C44.8 26.03 44 26.83 44 28.03V44.03C44 45.23 44.8 46.03 46 46.03C47.4 46.03 48.8 45.63 50 45.23C48 49.43 44.4 52.63 40 54.43C40 54.23 40 54.23 40 54.03C40 52.83 39.2 52.03 38 52.03H32C30.8 52.03 30 52.83 30 54.03V58.03C30 59.23 30.8 60.03 32 60.03C45.2 60.03 56 49.63 56 36.83V34.83V30.03V27.83C56 14.63 45.2 4.03003 32 4.03003Z" fill="#00D1E4"/>
</g>
</svg>
