<svg width="64" height="65" viewBox="0 0 64 65" fill="none" xmlns="http://www.w3.org/2000/svg">
<g id="insight-svgrepo-com 1" clip-path="url(#clip0_643_113)">
<g id="Group">
<g id="Group_2">
<path id="Vector" d="M48.0068 7.26538C42.8933 7.26538 38.7332 11.4255 38.7332 16.539C38.7332 21.6525 42.8933 25.8127 48.0068 25.8127C53.1203 25.8127 57.2804 21.6525 57.2804 16.539C57.2804 11.4255 53.1203 7.26538 48.0068 7.26538ZM48.0068 21.6674C45.1789 21.6674 42.8783 19.3668 42.8783 16.5389C42.8783 13.711 45.1789 11.4104 48.0068 11.4104C50.8347 11.4104 53.1353 13.711 53.1353 16.5389C53.1353 19.3668 50.8348 21.6674 48.0068 21.6674Z" fill="#00D1E4"/>
</g>
</g>
<g id="Group_3">
<g id="Group_4">
<path id="Vector_2" d="M20.6689 18.6116H32.1474C33.1668 26.4547 39.8902 32.5323 48.0066 32.5323C56.8254 32.5323 64 25.3578 64 16.5389C64 7.72004 56.8254 0.545654 48.0066 0.545654C39.89 0.545654 33.1667 6.62329 32.1474 14.4664H20.6689C19.7048 9.7003 15.4842 6.10079 10.438 6.10079C4.68251 6.10079 0 10.7833 0 16.5389C0 21.5851 3.59951 25.8057 8.36564 26.7697V42.8454C3.59951 43.8095 0 48.03 0 53.0763C0 58.8319 4.68251 63.5144 10.4381 63.5144C15.4843 63.5144 19.705 59.915 20.669 55.1488H29.6382C30.6022 59.9149 34.8228 63.5144 39.869 63.5144C45.6246 63.5144 50.3071 58.8319 50.3071 53.0763C50.3071 47.3206 45.6246 42.6381 39.869 42.6381C34.8228 42.6381 30.6022 46.2376 29.6382 51.0038H20.6689C19.8404 46.9077 16.6067 43.674 12.5105 42.8455V26.7698C16.6065 25.9413 19.8404 22.7074 20.6689 18.6116ZM48.0067 4.69066C54.5399 4.69066 59.855 10.0058 59.855 16.5389C59.855 23.0721 54.5399 28.3872 48.0067 28.3872C41.4736 28.3872 36.1584 23.0721 36.1584 16.5389C36.1584 10.0057 41.4736 4.69066 48.0067 4.69066ZM39.869 46.7831C43.339 46.7831 46.162 49.6063 46.162 53.0761C46.162 56.546 43.3388 59.3691 39.869 59.3691C36.3989 59.3691 33.5759 56.546 33.5759 53.0761C33.5759 49.6063 36.3991 46.7831 39.869 46.7831ZM16.7313 53.0763C16.7313 56.5463 13.908 59.3693 10.4381 59.3693C6.96814 59.3693 4.14513 56.5461 4.14513 53.0763C4.14513 49.6063 6.96826 46.7832 10.4381 46.7832C13.9082 46.7831 16.7313 49.6063 16.7313 53.0763ZM10.4381 22.8319C6.96814 22.8319 4.14513 20.0091 4.14513 16.5389C4.14513 13.0689 6.96826 10.2459 10.4381 10.2459C13.9082 10.2459 16.7313 13.0691 16.7313 16.5389C16.7313 20.0088 13.9082 22.8319 10.4381 22.8319Z" fill="#00D1E4"/>
</g>
</g>
</g>
<defs>
<clipPath id="clip0_643_113">
<rect width="64" height="64" fill="white" transform="translate(0 0.0300293)"/>
</clipPath>
</defs>
</svg>
