<svg width="64" height="65" viewBox="0 0 64 65" fill="none" xmlns="http://www.w3.org/2000/svg">
<g id="ph:cube-transparent-light" clip-path="url(#clip0_824_169)">
<path id="Vector" d="M62.7467 19.9766L44.0001 1.24656C43.6362 0.912773 43.1605 0.72727 42.6667 0.726562H2.66675C2.13632 0.726563 1.62761 0.937276 1.25253 1.31235C0.877462 1.68742 0.666749 2.19613 0.666749 2.72656V42.7266C0.666542 42.9897 0.718255 43.2503 0.818926 43.4934C0.919597 43.7365 1.06725 43.9573 1.25341 44.1432L19.9201 62.8099C20.2953 63.1839 20.8036 63.3937 21.3334 63.3932H61.3334C61.8638 63.3932 62.3726 63.1825 62.7476 62.8074C63.1227 62.4324 63.3334 61.9237 63.3334 61.3932V21.3932C63.3336 21.1301 63.2819 20.8695 63.1812 20.6264C63.0806 20.3833 62.9329 20.1625 62.7467 19.9766ZM44.6667 7.55323L56.5068 19.3932H44.6667V7.55323ZM19.3334 56.5532L7.49342 44.7266H19.3334V56.5532ZM19.3334 40.7266H4.66675V7.55323L19.3334 22.2199V40.7266ZM7.49342 4.72656H40.6667V19.3932H22.1601L7.49342 4.72656ZM40.6667 23.3932V40.7266H23.3334V23.3932H40.6667ZM23.3334 59.3932V44.7266H41.8401L56.5068 59.3932H23.3334ZM59.3334 56.5666L44.6667 41.8999V23.3932H59.3334V56.5666Z" fill="url(#paint0_linear_824_169)"/>
</g>
<defs>
<linearGradient id="paint0_linear_824_169" x1="0.666748" y1="32.0599" x2="63.3334" y2="32.0599" gradientUnits="userSpaceOnUse">
<stop stop-color="#ED8A4C"/>
<stop offset="1" stop-color="#EA485C"/>
</linearGradient>
<clipPath id="clip0_824_169">
<rect width="64" height="64" fill="white" transform="translate(0 0.0600586)"/>
</clipPath>
</defs>
</svg>
