<svg width="35" height="35" viewBox="0 0 35 35" fill="none" xmlns="http://www.w3.org/2000/svg">
<g filter="url(#filter0_d_616_4652)">
<path fill-rule="evenodd" clip-rule="evenodd" d="M10.8327 0.7229H25.0963C30.2942 0.7229 33.2256 3.66792 33.2256 8.86578V23.1159C33.2256 28.3138 30.2942 31.2588 25.0963 31.2588H10.8327C5.63475 31.2588 2.68973 28.3138 2.68973 23.1159V8.86578C2.68973 3.66792 5.63475 0.7229 10.8327 0.7229ZM22.6374 11.2999C22.6374 13.8906 20.5377 15.9903 17.947 15.9903C15.3563 15.9903 13.2566 13.8906 13.2566 11.2999C13.2566 8.70916 15.3563 6.60948 17.947 6.60948C20.5377 6.60948 22.6374 8.70916 22.6374 11.2999ZM11.5197 25.3713H11.4975C10.5264 25.3713 9.73861 24.5835 9.73861 23.6124V22.088C9.73861 19.3691 11.9446 17.1631 14.6635 17.1631H14.6857H15.2755H15.2977C16.108 17.5354 17.0092 17.7478 17.9579 17.7494C18.9066 17.7478 19.8078 17.5354 20.6181 17.1631H20.6403H21.2301H21.2523C23.9712 17.1631 26.1772 19.3691 26.1772 22.088V23.6124C26.1772 24.5835 25.3893 25.3713 24.4183 25.3713H24.3961H11.5197Z" fill="white"/>
</g>
<defs>
<filter id="filter0_d_616_4652" x="0.832162" y="0.593262" width="34.1026" height="34.0837" filterUnits="userSpaceOnUse" color-interpolation-filters="sRGB">
<feFlood flood-opacity="0" result="BackgroundImageFix"/>
<feColorMatrix in="SourceAlpha" type="matrix" values="0 0 0 0 0 0 0 0 0 0 0 0 0 0 0 0 0 0 127 0" result="hardAlpha"/>
<feOffset dy="1.7091"/>
<feGaussianBlur stdDeviation="0.854549"/>
<feComposite in2="hardAlpha" operator="out"/>
<feColorMatrix type="matrix" values="0 0 0 0 0 0 0 0 0 0 0 0 0 0 0 0 0 0 0.15 0"/>
<feBlend mode="normal" in2="BackgroundImageFix" result="effect1_dropShadow_616_4652"/>
<feBlend mode="normal" in="SourceGraphic" in2="effect1_dropShadow_616_4652" result="shape"/>
</filter>
</defs>
</svg>
