<svg width="35" height="35" viewBox="0 0 35 35" fill="none" xmlns="http://www.w3.org/2000/svg">
<g filter="url(#filter0_d_642_1514)">
<path fill-rule="evenodd" clip-rule="evenodd" d="M10.3697 0.434082H24.6352C29.8338 0.434082 32.7656 3.3795 32.7656 8.57806V22.8301C32.7656 28.0287 29.8338 30.9741 24.6352 30.9741H10.3697C5.17106 30.9741 2.22565 28.0287 2.22565 22.8301V8.57806C2.22565 3.3795 5.17106 0.434082 10.3697 0.434082ZM22.1874 13.3582H22.7739C23.7435 13.3582 24.5333 14.1472 24.5333 15.1176V23.3281C24.5333 24.2985 23.7435 25.0875 22.7739 25.0875H12.2175C11.2479 25.0875 10.4581 24.2985 10.4581 23.3281V15.1176C10.4588 14.6512 10.6443 14.204 10.9741 13.8742C11.3039 13.5444 11.7511 13.3588 12.2175 13.3582H12.804V11.0124C12.804 8.42488 14.9082 6.32065 17.4957 6.32065C20.0832 6.32065 22.1874 8.42488 22.1874 11.0124V13.3582ZM17.4957 7.88455C15.7707 7.88455 14.3679 9.28737 14.3679 11.0124V13.3582H20.6235V11.0124C20.6235 9.28737 19.2207 7.88455 17.4957 7.88455ZM18.2776 21.1777V19.3964C18.7429 19.1251 19.0596 18.6262 19.0596 18.0499C19.0596 17.1874 18.3582 16.486 17.4957 16.486C16.6332 16.486 15.9318 17.1874 15.9318 18.0499C15.9318 18.6262 16.2485 19.1251 16.7137 19.3964V21.1777C16.7137 21.3851 16.7961 21.584 16.9428 21.7306C17.0894 21.8773 17.2883 21.9597 17.4957 21.9597C17.7031 21.9597 17.902 21.8773 18.0486 21.7306C18.1953 21.584 18.2776 21.3851 18.2776 21.1777Z" fill="white"/>
</g>
<defs>
<filter id="filter0_d_642_1514" x="0.36782" y="0.304443" width="34.1072" height="34.0883" filterUnits="userSpaceOnUse" color-interpolation-filters="sRGB">
<feFlood flood-opacity="0" result="BackgroundImageFix"/>
<feColorMatrix in="SourceAlpha" type="matrix" values="0 0 0 0 0 0 0 0 0 0 0 0 0 0 0 0 0 0 127 0" result="hardAlpha"/>
<feOffset dy="1.70933"/>
<feGaussianBlur stdDeviation="0.854664"/>
<feComposite in2="hardAlpha" operator="out"/>
<feColorMatrix type="matrix" values="0 0 0 0 0 0 0 0 0 0 0 0 0 0 0 0 0 0 0.15 0"/>
<feBlend mode="normal" in2="BackgroundImageFix" result="effect1_dropShadow_642_1514"/>
<feBlend mode="normal" in="SourceGraphic" in2="effect1_dropShadow_642_1514" result="shape"/>
</filter>
</defs>
</svg>
