<svg width="35" height="35" viewBox="0 0 35 35" fill="none" xmlns="http://www.w3.org/2000/svg">
<g opacity="0.8" filter="url(#filter0_d_700_4515)">
<path fill-rule="evenodd" clip-rule="evenodd" d="M10.3697 0.666016H24.6352C29.8338 0.666016 32.7656 3.61143 32.7656 8.81V23.062C32.7656 28.2606 29.8338 31.206 24.6352 31.206H10.3697C5.17106 31.206 2.22565 28.2606 2.22565 23.062V8.81C2.22565 3.61143 5.17106 0.666016 10.3697 0.666016ZM22.1874 13.5901H22.7739C23.7435 13.5901 24.5333 14.3791 24.5333 15.3495V23.56C24.5333 24.5304 23.7435 25.3194 22.7739 25.3194H12.2175C11.2479 25.3194 10.4581 24.5304 10.4581 23.56V15.3495C10.4588 14.8831 10.6443 14.436 10.9741 14.1061C11.3039 13.7763 11.7511 13.5908 12.2175 13.5901H12.804V11.2443C12.804 8.65681 14.9082 6.55258 17.4957 6.55258C20.0832 6.55258 22.1874 8.65681 22.1874 11.2443V13.5901ZM17.4957 8.11648C15.7707 8.11648 14.3679 9.51931 14.3679 11.2443V13.5901H20.6235V11.2443C20.6235 9.51931 19.2207 8.11648 17.4957 8.11648ZM18.2776 21.4097V19.6284C18.7429 19.357 19.0596 18.8581 19.0596 18.2819C19.0596 17.4194 18.3582 16.7179 17.4957 16.7179C16.6332 16.7179 15.9318 17.4194 15.9318 18.2819C15.9318 18.8581 16.2485 19.357 16.7137 19.6284V21.4097C16.7137 21.617 16.7961 21.8159 16.9428 21.9626C17.0894 22.1092 17.2883 22.1916 17.4957 22.1916C17.7031 22.1916 17.902 22.1092 18.0486 21.9626C18.1953 21.8159 18.2776 21.617 18.2776 21.4097Z" fill="white" fill-opacity="0.6"/>
</g>
<defs>
<filter id="filter0_d_700_4515" x="0.36782" y="0.536377" width="34.1072" height="34.0883" filterUnits="userSpaceOnUse" color-interpolation-filters="sRGB">
<feFlood flood-opacity="0" result="BackgroundImageFix"/>
<feColorMatrix in="SourceAlpha" type="matrix" values="0 0 0 0 0 0 0 0 0 0 0 0 0 0 0 0 0 0 127 0" result="hardAlpha"/>
<feOffset dy="1.70933"/>
<feGaussianBlur stdDeviation="0.854664"/>
<feComposite in2="hardAlpha" operator="out"/>
<feColorMatrix type="matrix" values="0 0 0 0 0 0 0 0 0 0 0 0 0 0 0 0 0 0 0.15 0"/>
<feBlend mode="normal" in2="BackgroundImageFix" result="effect1_dropShadow_700_4515"/>
<feBlend mode="normal" in="SourceGraphic" in2="effect1_dropShadow_700_4515" result="shape"/>
</filter>
</defs>
</svg>
