<svg width="35" height="35" viewBox="0 0 35 35" fill="none" xmlns="http://www.w3.org/2000/svg">
<g filter="url(#filter0_d_642_2697)">
<path opacity="0.8" fill-rule="evenodd" clip-rule="evenodd" d="M10.6075 0.295532H24.873C30.0716 0.295532 33.0034 3.24095 33.0034 8.43951V22.6915C33.0034 27.8901 30.0716 30.8356 24.873 30.8356H10.6075C5.40886 30.8356 2.46344 27.8901 2.46344 22.6915V8.43951C2.46344 3.24095 5.40886 0.295532 10.6075 0.295532ZM27.3879 14.9244H12.3406V16.2066H27.3879V14.9244ZM14.0376 10.248C13.1155 10.248 12.2942 10.693 11.7771 11.3794H8.07901V10.6629C8.07901 9.7271 8.84032 8.96579 9.77609 8.96579H21.4293C22.222 8.96579 22.8893 9.51217 23.0749 10.248H14.0376ZM8.07901 12.5108H11.2661C11.2064 12.8016 11.2069 12.9652 11.2085 13.4718C11.2088 13.566 11.2092 13.6721 11.2092 13.793H8.07901V12.5108ZM8.07901 14.9244H11.2092V19.7516H9.77609C8.84032 19.7516 8.07901 18.9903 8.07901 18.0546V14.9244ZM12.3406 13.0708C12.3442 12.1334 13.1075 11.3794 14.0376 11.3794H25.6909C26.6266 11.3794 27.3879 12.1407 27.3879 13.0765V13.793H12.3406V13.0708ZM12.3406 20.4682V17.338H27.3879V20.4682C27.3879 21.4039 26.6266 22.1652 25.6909 22.1652H14.0376C13.1019 22.1652 12.3406 21.4039 12.3406 20.4682ZM15.3199 19.7516H18.6386C18.951 19.7516 19.2043 19.4984 19.2043 19.1859C19.2043 18.8735 18.951 18.6202 18.6386 18.6202H15.3199C15.0074 18.6202 14.7542 18.8735 14.7542 19.1859C14.7542 19.4984 15.0074 19.7516 15.3199 19.7516ZM23.7675 19.7516H24.3709C24.6833 19.7516 24.9366 19.4984 24.9366 19.1859C24.9366 18.8735 24.6833 18.6202 24.3709 18.6202H23.7675C23.4551 18.6202 23.2018 18.8735 23.2018 19.1859C23.2018 19.4984 23.4551 19.7516 23.7675 19.7516Z" fill="white" fill-opacity="0.6"/>
</g>
<defs>
<filter id="filter0_d_642_2697" x="0.605613" y="0.165894" width="34.1071" height="34.0883" filterUnits="userSpaceOnUse" color-interpolation-filters="sRGB">
<feFlood flood-opacity="0" result="BackgroundImageFix"/>
<feColorMatrix in="SourceAlpha" type="matrix" values="0 0 0 0 0 0 0 0 0 0 0 0 0 0 0 0 0 0 127 0" result="hardAlpha"/>
<feOffset dy="1.70933"/>
<feGaussianBlur stdDeviation="0.854664"/>
<feComposite in2="hardAlpha" operator="out"/>
<feColorMatrix type="matrix" values="0 0 0 0 0 0 0 0 0 0 0 0 0 0 0 0 0 0 0.15 0"/>
<feBlend mode="normal" in2="BackgroundImageFix" result="effect1_dropShadow_642_2697"/>
<feBlend mode="normal" in="SourceGraphic" in2="effect1_dropShadow_642_2697" result="shape"/>
</filter>
</defs>
</svg>
