<svg width="35" height="35" viewBox="0 0 35 35" fill="none" xmlns="http://www.w3.org/2000/svg">
<g filter="url(#filter0_d_700_4580)">
<path opacity="0.8" fill-rule="evenodd" clip-rule="evenodd" d="M10.6075 0.666016H24.873C30.0716 0.666016 33.0034 3.61143 33.0034 8.81V23.062C33.0034 28.2606 30.0716 31.206 24.873 31.206H10.6075C5.40886 31.206 2.46344 28.2606 2.46344 23.062V8.81C2.46344 3.61143 5.40886 0.666016 10.6075 0.666016ZM27.3879 15.2949H12.3406V16.5771H27.3879V15.2949ZM14.0376 10.6185C13.1155 10.6185 12.2942 11.0635 11.7771 11.7499H8.07901V11.0333C8.07901 10.0976 8.84032 9.33628 9.77609 9.33628H21.4293C22.222 9.33628 22.8893 9.88266 23.0749 10.6185H14.0376ZM8.07901 12.8813H11.2661C11.2064 13.1721 11.2069 13.3357 11.2085 13.8423C11.2088 13.9365 11.2092 14.0426 11.2092 14.1635H8.07901V12.8813ZM8.07901 15.2949H11.2092V20.1221H9.77609C8.84032 20.1221 8.07901 19.3608 8.07901 18.425V15.2949ZM12.3406 13.4413C12.3442 12.5039 13.1075 11.7499 14.0376 11.7499H25.6909C26.6266 11.7499 27.3879 12.5112 27.3879 13.447V14.1635H12.3406V13.4413ZM12.3406 20.8387V17.7085H27.3879V20.8387C27.3879 21.7744 26.6266 22.5357 25.6909 22.5357H14.0376C13.1019 22.5357 12.3406 21.7744 12.3406 20.8387ZM15.3199 20.1221H18.6386C18.951 20.1221 19.2043 19.8688 19.2043 19.5564C19.2043 19.244 18.951 18.9907 18.6386 18.9907H15.3199C15.0074 18.9907 14.7542 19.244 14.7542 19.5564C14.7542 19.8688 15.0074 20.1221 15.3199 20.1221ZM23.7675 20.1221H24.3709C24.6833 20.1221 24.9366 19.8688 24.9366 19.5564C24.9366 19.244 24.6833 18.9907 24.3709 18.9907H23.7675C23.4551 18.9907 23.2018 19.244 23.2018 19.5564C23.2018 19.8688 23.4551 20.1221 23.7675 20.1221Z" fill="white"/>
</g>
<defs>
<filter id="filter0_d_700_4580" x="0.605613" y="0.536377" width="34.1071" height="34.0883" filterUnits="userSpaceOnUse" color-interpolation-filters="sRGB">
<feFlood flood-opacity="0" result="BackgroundImageFix"/>
<feColorMatrix in="SourceAlpha" type="matrix" values="0 0 0 0 0 0 0 0 0 0 0 0 0 0 0 0 0 0 127 0" result="hardAlpha"/>
<feOffset dy="1.70933"/>
<feGaussianBlur stdDeviation="0.854664"/>
<feComposite in2="hardAlpha" operator="out"/>
<feColorMatrix type="matrix" values="0 0 0 0 0 0 0 0 0 0 0 0 0 0 0 0 0 0 0.15 0"/>
<feBlend mode="normal" in2="BackgroundImageFix" result="effect1_dropShadow_700_4580"/>
<feBlend mode="normal" in="SourceGraphic" in2="effect1_dropShadow_700_4580" result="shape"/>
</filter>
</defs>
</svg>
