<svg width="35" height="35" viewBox="0 0 35 35" fill="none" xmlns="http://www.w3.org/2000/svg">
<g filter="url(#filter0_d_700_4592)">
<path opacity="0.8" fill-rule="evenodd" clip-rule="evenodd" d="M24.413 0.666016H10.1474C4.94883 0.666016 2.00342 3.61143 2.00342 8.81V23.062C2.00342 28.2606 4.94883 31.206 10.1474 31.206H24.413C29.6116 31.206 32.5434 28.2606 32.5434 23.062V8.81C32.5434 3.61143 29.6116 0.666016 24.413 0.666016ZM15.7341 9.20907C15.7454 9.0255 15.8091 8.84902 15.9177 8.70059C16.0264 8.55216 16.1753 8.43801 16.3468 8.37169L20.8884 6.61714C21.1113 6.53104 21.3582 6.53104 21.5811 6.61714L26.1227 8.37169C26.2943 8.43801 26.4432 8.55216 26.5518 8.70059C26.6604 8.84902 26.7241 9.0255 26.7354 9.20907L26.9125 12.0694C27.0098 13.644 26.6746 15.2152 25.9433 16.6131C25.2119 18.0109 24.1122 19.1821 22.7631 19.9999L21.733 20.6247C21.5828 20.7157 21.4104 20.7639 21.2348 20.7639C21.0591 20.7639 20.8868 20.7157 20.7365 20.6247L19.7067 19.9999C18.3576 19.1821 17.2578 18.0109 16.5264 16.6131C15.795 15.2153 15.4597 13.644 15.557 12.0694L15.7341 9.20907ZM14.1474 11.3618L13.6587 11.1732C13.4357 11.087 13.1887 11.0872 12.9657 11.1734L8.42412 12.9279C8.25258 12.9943 8.10366 13.1084 7.99505 13.2568C7.88645 13.4053 7.82271 13.5818 7.8114 13.7653L7.63455 16.6257C7.53736 18.2002 7.87258 19.7713 8.60395 21.169C9.33532 22.5668 10.435 23.7379 11.784 24.5557L12.8141 25.1802C12.9643 25.2713 13.1366 25.3194 13.3123 25.3194C13.488 25.3194 13.6603 25.2713 13.8105 25.1802L14.8404 24.5557C16.3179 23.6604 17.4932 22.343 18.2149 20.7734C18.2709 20.6518 18.2313 20.5086 18.1255 20.4269C16.8504 19.4383 15.8362 18.1531 15.1712 16.683C14.5062 15.213 14.2106 13.6027 14.3101 11.9923L14.3312 11.6487C14.335 11.5875 14.3193 11.5268 14.2862 11.4752C14.2532 11.4236 14.2046 11.3839 14.1474 11.3618Z" fill="white" fill-opacity="0.6"/>
</g>
<defs>
<filter id="filter0_d_700_4592" x="0.145652" y="0.536377" width="34.1071" height="34.0883" filterUnits="userSpaceOnUse" color-interpolation-filters="sRGB">
<feFlood flood-opacity="0" result="BackgroundImageFix"/>
<feColorMatrix in="SourceAlpha" type="matrix" values="0 0 0 0 0 0 0 0 0 0 0 0 0 0 0 0 0 0 127 0" result="hardAlpha"/>
<feOffset dy="1.70933"/>
<feGaussianBlur stdDeviation="0.854664"/>
<feComposite in2="hardAlpha" operator="out"/>
<feColorMatrix type="matrix" values="0 0 0 0 0 0 0 0 0 0 0 0 0 0 0 0 0 0 0.15 0"/>
<feBlend mode="normal" in2="BackgroundImageFix" result="effect1_dropShadow_700_4592"/>
<feBlend mode="normal" in="SourceGraphic" in2="effect1_dropShadow_700_4592" result="shape"/>
</filter>
</defs>
</svg>
