<svg width="35" height="35" viewBox="0 0 35 35" fill="none" xmlns="http://www.w3.org/2000/svg">
<g filter="url(#filter0_d_707_2132)">
<path opacity="0.8" fill-rule="evenodd" clip-rule="evenodd" d="M24.413 0.497314H10.1474C4.94883 0.497314 2.00342 3.44273 2.00342 8.64129V22.8933C2.00342 28.0919 4.94883 31.0373 10.1474 31.0373H24.413C29.6116 31.0373 32.5434 28.0919 32.5434 22.8933V8.64129C32.5434 3.44273 29.6116 0.497314 24.413 0.497314ZM15.7341 9.04037C15.7454 8.8568 15.8091 8.68032 15.9177 8.53189C16.0264 8.38346 16.1753 8.26931 16.3468 8.20299L20.8884 6.44844C21.1113 6.36234 21.3582 6.36234 21.5811 6.44844L26.1227 8.20299C26.2943 8.26931 26.4432 8.38346 26.5518 8.53189C26.6604 8.68032 26.7241 8.8568 26.7354 9.04037L26.9125 11.9007C27.0098 13.4753 26.6746 15.0465 25.9433 16.4444C25.2119 17.8422 24.1122 19.0134 22.7631 19.8312L21.733 20.456C21.5828 20.547 21.4104 20.5952 21.2348 20.5952C21.0591 20.5952 20.8868 20.547 20.7365 20.456L19.7067 19.8312C18.3576 19.0134 17.2578 17.8422 16.5264 16.4444C15.795 15.0466 15.4597 13.4753 15.557 11.9007L15.7341 9.04037ZM14.1474 11.1931L13.6587 11.0045C13.4357 10.9183 13.1887 10.9185 12.9657 11.0047L8.42412 12.7592C8.25258 12.8256 8.10366 12.9397 7.99505 13.0881C7.88645 13.2366 7.82271 13.4131 7.8114 13.5966L7.63455 16.457C7.53736 18.0315 7.87258 19.6026 8.60395 21.0003C9.33532 22.3981 10.435 23.5692 11.784 24.387L12.8141 25.0115C12.9643 25.1026 13.1366 25.1507 13.3123 25.1507C13.488 25.1507 13.6603 25.1026 13.8105 25.0115L14.8404 24.387C16.3179 23.4917 17.4932 22.1743 18.2149 20.6047C18.2709 20.4831 18.2313 20.3399 18.1255 20.2582C16.8504 19.2696 15.8362 17.9844 15.1712 16.5143C14.5062 15.0443 14.2106 13.434 14.3101 11.8236L14.3312 11.48C14.335 11.4188 14.3193 11.3581 14.2862 11.3065C14.2532 11.2549 14.2046 11.2152 14.1474 11.1931Z" fill="white"/>
</g>
<defs>
<filter id="filter0_d_707_2132" x="0.145652" y="0.367676" width="34.1071" height="34.0883" filterUnits="userSpaceOnUse" color-interpolation-filters="sRGB">
<feFlood flood-opacity="0" result="BackgroundImageFix"/>
<feColorMatrix in="SourceAlpha" type="matrix" values="0 0 0 0 0 0 0 0 0 0 0 0 0 0 0 0 0 0 127 0" result="hardAlpha"/>
<feOffset dy="1.70933"/>
<feGaussianBlur stdDeviation="0.854664"/>
<feComposite in2="hardAlpha" operator="out"/>
<feColorMatrix type="matrix" values="0 0 0 0 0 0 0 0 0 0 0 0 0 0 0 0 0 0 0.15 0"/>
<feBlend mode="normal" in2="BackgroundImageFix" result="effect1_dropShadow_707_2132"/>
<feBlend mode="normal" in="SourceGraphic" in2="effect1_dropShadow_707_2132" result="shape"/>
</filter>
</defs>
</svg>
