<svg width="35" height="35" viewBox="0 0 35 35" fill="none" xmlns="http://www.w3.org/2000/svg">
<g filter="url(#filter0_d_730_1856)">
<path opacity="0.8" fill-rule="evenodd" clip-rule="evenodd" d="M24.1749 0.295532H9.9094C4.7108 0.295532 1.76538 3.24095 1.76538 8.43951V22.6915C1.76538 27.8901 4.7108 30.8356 9.9094 30.8356H24.1749C29.3736 30.8356 32.3054 27.8901 32.3054 22.6915V8.43951C32.3054 3.24095 29.3736 0.295532 24.1749 0.295532ZM15.496 8.83859C15.5073 8.65502 15.571 8.47854 15.6796 8.33011C15.7882 8.18168 15.9371 8.06753 16.1087 8.0012L20.6503 6.24666C20.8732 6.16055 21.1201 6.16055 21.343 6.24666L25.8846 8.0012C26.0561 8.06753 26.205 8.18168 26.3137 8.33011C26.4223 8.47854 26.486 8.65502 26.4973 8.83859L26.6744 11.6989C26.7717 13.2735 26.4365 14.8447 25.7051 16.2426C24.9737 17.6404 23.874 18.8116 22.525 19.6294L21.4949 20.2542C21.3446 20.3452 21.1723 20.3934 20.9966 20.3934C20.821 20.3934 20.6486 20.3452 20.4984 20.2542L19.4686 19.6294C18.1194 18.8116 17.0197 17.6404 16.2883 16.2426C15.5568 14.8448 15.2216 13.2735 15.3189 11.6989L15.496 8.83859ZM13.9093 10.9913L13.4206 10.8027C13.1976 10.7165 12.9505 10.7167 12.7276 10.8029L8.186 12.5575C8.01445 12.6238 7.86553 12.7379 7.75693 12.8864C7.64832 13.0348 7.58458 13.2113 7.57328 13.3948L7.39643 16.2552C7.29923 17.8297 7.63445 19.4008 8.36582 20.7986C9.0972 22.1963 10.1969 23.3674 11.5459 24.1852L12.576 24.8097C12.7262 24.9008 12.8985 24.9489 13.0742 24.9489C13.2499 24.9489 13.4222 24.9008 13.5724 24.8097L14.6023 24.1852C16.0797 23.2899 17.2551 21.9725 17.9768 20.4029C18.0328 20.2813 17.9931 20.1381 17.8874 20.0564C16.6123 19.0679 15.5981 17.7826 14.9331 16.3126C14.2681 14.8425 13.9725 13.2322 14.072 11.6218L14.0931 11.2782C14.0969 11.217 14.0812 11.1563 14.0481 11.1047C14.0151 11.0531 13.9664 11.0134 13.9093 10.9913Z" fill="white"/>
</g>
<defs>
<filter id="filter0_d_730_1856" x="-0.0923849" y="0.165894" width="34.1071" height="34.0883" filterUnits="userSpaceOnUse" color-interpolation-filters="sRGB">
<feFlood flood-opacity="0" result="BackgroundImageFix"/>
<feColorMatrix in="SourceAlpha" type="matrix" values="0 0 0 0 0 0 0 0 0 0 0 0 0 0 0 0 0 0 127 0" result="hardAlpha"/>
<feOffset dy="1.70933"/>
<feGaussianBlur stdDeviation="0.854664"/>
<feComposite in2="hardAlpha" operator="out"/>
<feColorMatrix type="matrix" values="0 0 0 0 0 0 0 0 0 0 0 0 0 0 0 0 0 0 0.15 0"/>
<feBlend mode="normal" in2="BackgroundImageFix" result="effect1_dropShadow_730_1856"/>
<feBlend mode="normal" in="SourceGraphic" in2="effect1_dropShadow_730_1856" result="shape"/>
</filter>
</defs>
</svg>
