<svg width="75" height="35" viewBox="0 0 75 35" fill="none" xmlns="http://www.w3.org/2000/svg">
<path d="M9.63346 7.30544L0.859169 22.5018C0.700674 22.7763 0.617217 23.0876 0.617188 23.4045C0.617158 23.7214 0.700558 24.0327 0.859002 24.3072C1.01745 24.5816 1.24535 24.8095 1.5198 24.968C1.79426 25.1264 2.10558 25.2098 2.42249 25.2098H19.9697C20.2866 25.2098 20.5979 25.1264 20.8723 24.968C21.1468 24.8095 21.3747 24.5816 21.5331 24.3072C21.6916 24.0327 21.775 23.7214 21.775 23.4045C21.7749 23.0876 21.6915 22.7763 21.533 22.5018L12.7596 7.30544C12.6012 7.03107 12.3734 6.80323 12.099 6.64482C11.8246 6.48641 11.5134 6.40302 11.1965 6.40302C10.8797 6.40302 10.5685 6.48641 10.2941 6.64482C10.0197 6.80323 9.79187 7.03107 9.63346 7.30544Z" fill="#EE404C"/>
<path d="M11.3111 11.9924H11.0822C10.5187 11.9924 10.0619 12.4492 10.0619 13.0127V17.8897C10.0619 18.4532 10.5187 18.91 11.0822 18.91H11.3111C11.8746 18.91 12.3314 18.4532 12.3314 17.8897V13.0127C12.3314 12.4492 11.8746 11.9924 11.3111 11.9924Z" fill="#FFF7ED"/>
<path d="M11.1965 22.7779C11.8232 22.7779 12.3313 22.2698 12.3313 21.6431C12.3313 21.0164 11.8232 20.5084 11.1965 20.5084C10.5698 20.5084 10.0618 21.0164 10.0618 21.6431C10.0618 22.2698 10.5698 22.7779 11.1965 22.7779Z" fill="#FFF7ED"/>
<g opacity="0.8" filter="url(#filter0_d_2424_14636)">
<path opacity="0.8" fill-rule="evenodd" clip-rule="evenodd" d="M64.3329 0.666016H50.0674C44.8688 0.666016 41.9233 3.61143 41.9233 8.81V23.062C41.9233 28.2606 44.8688 31.206 50.0674 31.206H64.3329C69.5315 31.206 72.4633 28.2606 72.4633 23.062V8.81C72.4633 3.61143 69.5315 0.666016 64.3329 0.666016ZM55.6539 9.20907C55.6652 9.0255 55.729 8.84902 55.8376 8.70059C55.9462 8.55216 56.0951 8.43801 56.2666 8.37169L60.8082 6.61714C61.0311 6.53104 61.2781 6.53104 61.501 6.61714L66.0425 8.37169C66.2141 8.43801 66.363 8.55216 66.4716 8.70059C66.5802 8.84902 66.644 9.0255 66.6553 9.20907L66.8324 12.0694C66.9296 13.644 66.5945 15.2152 65.8631 16.6131C65.1317 18.0109 64.032 19.1821 62.6829 19.9999L61.6528 20.6247C61.5026 20.7157 61.3303 20.7639 61.1546 20.7639C60.9789 20.7639 60.8066 20.7157 60.6564 20.6247L59.6265 19.9999C58.2774 19.1821 57.1776 18.0109 56.4462 16.6131C55.7148 15.2153 55.3796 13.644 55.4768 12.0694L55.6539 9.20907ZM54.0672 11.3618L53.5785 11.1732C53.3556 11.087 53.1085 11.0872 52.8855 11.1734L48.344 12.9279C48.1724 12.9943 48.0235 13.1084 47.9149 13.2568C47.8063 13.4053 47.7425 13.5818 47.7312 13.7653L47.5544 16.6257C47.4572 18.2002 47.7924 19.7713 48.5238 21.169C49.2552 22.5668 50.3548 23.7379 51.7038 24.5557L52.7339 25.1802C52.8841 25.2713 53.0565 25.3194 53.2321 25.3194C53.4078 25.3194 53.5801 25.2713 53.7304 25.1802L54.7602 24.5557C56.2377 23.6604 57.4131 22.343 58.1348 20.7734C58.1907 20.6518 58.1511 20.5086 58.0454 20.4269C56.7702 19.4383 55.756 18.1531 55.091 16.683C54.426 15.213 54.1304 13.6027 54.2299 11.9923L54.2511 11.6487C54.2549 11.5875 54.2391 11.5268 54.2061 11.4752C54.173 11.4236 54.1244 11.3839 54.0672 11.3618Z" fill="white" fill-opacity="0.6"/>
</g>
<defs>
<filter id="filter0_d_2424_14636" x="40.0656" y="0.536377" width="34.107" height="34.0883" filterUnits="userSpaceOnUse" color-interpolation-filters="sRGB">
<feFlood flood-opacity="0" result="BackgroundImageFix"/>
<feColorMatrix in="SourceAlpha" type="matrix" values="0 0 0 0 0 0 0 0 0 0 0 0 0 0 0 0 0 0 127 0" result="hardAlpha"/>
<feOffset dy="1.70933"/>
<feGaussianBlur stdDeviation="0.854664"/>
<feComposite in2="hardAlpha" operator="out"/>
<feColorMatrix type="matrix" values="0 0 0 0 0 0 0 0 0 0 0 0 0 0 0 0 0 0 0.15 0"/>
<feBlend mode="normal" in2="BackgroundImageFix" result="effect1_dropShadow_2424_14636"/>
<feBlend mode="normal" in="SourceGraphic" in2="effect1_dropShadow_2424_14636" result="shape"/>
</filter>
</defs>
</svg>
