<svg width="75" height="35" viewBox="0 0 75 35" fill="none" xmlns="http://www.w3.org/2000/svg">
<path d="M9.63346 6.93496L0.859169 22.1314C0.700674 22.4058 0.617217 22.7171 0.617188 23.034C0.617158 23.3509 0.700558 23.6622 0.859002 23.9367C1.01745 24.2112 1.24535 24.4391 1.5198 24.5975C1.79426 24.756 2.10558 24.8394 2.42249 24.8393H19.9697C20.2866 24.8394 20.5979 24.756 20.8723 24.5975C21.1468 24.4391 21.3747 24.2112 21.5331 23.9367C21.6916 23.6622 21.775 23.3509 21.775 23.034C21.7749 22.7171 21.6915 22.4058 21.533 22.1314L12.7596 6.93496C12.6012 6.66058 12.3734 6.43274 12.099 6.27434C11.8246 6.11593 11.5134 6.03253 11.1965 6.03253C10.8797 6.03253 10.5685 6.11593 10.2941 6.27434C10.0197 6.43274 9.79187 6.66058 9.63346 6.93496Z" fill="#EE404C"/>
<path d="M11.3111 11.6219H11.0822C10.5187 11.6219 10.0619 12.0788 10.0619 12.6423V17.5192C10.0619 18.0827 10.5187 18.5395 11.0822 18.5395H11.3111C11.8746 18.5395 12.3314 18.0827 12.3314 17.5192V12.6423C12.3314 12.0788 11.8746 11.6219 11.3111 11.6219Z" fill="#FFF7ED"/>
<path d="M11.1965 22.4074C11.8232 22.4074 12.3313 21.8993 12.3313 21.2726C12.3313 20.6459 11.8232 20.1379 11.1965 20.1379C10.5698 20.1379 10.0618 20.6459 10.0618 21.2726C10.0618 21.8993 10.5698 22.4074 11.1965 22.4074Z" fill="#FFF7ED"/>
<g filter="url(#filter0_d_2438_14637)">
<path opacity="0.8" fill-rule="evenodd" clip-rule="evenodd" d="M64.3329 0.295532H50.0674C44.8688 0.295532 41.9233 3.24095 41.9233 8.43951V22.6915C41.9233 27.8901 44.8688 30.8356 50.0674 30.8356H64.3329C69.5315 30.8356 72.4633 27.8901 72.4633 22.6915V8.43951C72.4633 3.24095 69.5315 0.295532 64.3329 0.295532ZM55.6539 8.83859C55.6652 8.65502 55.729 8.47854 55.8376 8.33011C55.9462 8.18168 56.0951 8.06753 56.2666 8.0012L60.8082 6.24666C61.0311 6.16055 61.2781 6.16055 61.501 6.24666L66.0425 8.0012C66.2141 8.06753 66.363 8.18168 66.4716 8.33011C66.5802 8.47854 66.644 8.65502 66.6553 8.83859L66.8324 11.6989C66.9296 13.2735 66.5945 14.8447 65.8631 16.2426C65.1317 17.6404 64.032 18.8116 62.6829 19.6294L61.6528 20.2542C61.5026 20.3452 61.3303 20.3934 61.1546 20.3934C60.9789 20.3934 60.8066 20.3452 60.6564 20.2542L59.6265 19.6294C58.2774 18.8116 57.1776 17.6404 56.4462 16.2426C55.7148 14.8448 55.3796 13.2735 55.4768 11.6989L55.6539 8.83859ZM54.0672 10.9913L53.5785 10.8027C53.3556 10.7165 53.1085 10.7167 52.8855 10.8029L48.344 12.5575C48.1724 12.6238 48.0235 12.7379 47.9149 12.8864C47.8063 13.0348 47.7425 13.2113 47.7312 13.3948L47.5544 16.2552C47.4572 17.8297 47.7924 19.4008 48.5238 20.7986C49.2552 22.1963 50.3548 23.3674 51.7038 24.1852L52.7339 24.8097C52.8841 24.9008 53.0565 24.9489 53.2321 24.9489C53.4078 24.9489 53.5801 24.9008 53.7304 24.8097L54.7602 24.1852C56.2377 23.2899 57.4131 21.9725 58.1348 20.4029C58.1907 20.2813 58.1511 20.1381 58.0454 20.0564C56.7702 19.0679 55.756 17.7826 55.091 16.3126C54.426 14.8425 54.1304 13.2322 54.2299 11.6218L54.2511 11.2782C54.2549 11.217 54.2391 11.1563 54.2061 11.1047C54.173 11.0531 54.1244 11.0134 54.0672 10.9913Z" fill="white"/>
</g>
<defs>
<filter id="filter0_d_2438_14637" x="40.0656" y="0.165894" width="34.107" height="34.0883" filterUnits="userSpaceOnUse" color-interpolation-filters="sRGB">
<feFlood flood-opacity="0" result="BackgroundImageFix"/>
<feColorMatrix in="SourceAlpha" type="matrix" values="0 0 0 0 0 0 0 0 0 0 0 0 0 0 0 0 0 0 127 0" result="hardAlpha"/>
<feOffset dy="1.70933"/>
<feGaussianBlur stdDeviation="0.854664"/>
<feComposite in2="hardAlpha" operator="out"/>
<feColorMatrix type="matrix" values="0 0 0 0 0 0 0 0 0 0 0 0 0 0 0 0 0 0 0.15 0"/>
<feBlend mode="normal" in2="BackgroundImageFix" result="effect1_dropShadow_2438_14637"/>
<feBlend mode="normal" in="SourceGraphic" in2="effect1_dropShadow_2438_14637" result="shape"/>
</filter>
</defs>
</svg>
