<svg width="35" height="35" viewBox="0 0 35 35" fill="none" xmlns="http://www.w3.org/2000/svg">
<g opacity="0.8" filter="url(#filter0_d_805_1978)">
<path opacity="0.8" fill-rule="evenodd" clip-rule="evenodd" d="M24.1749 0.666016H9.9094C4.7108 0.666016 1.76538 3.61143 1.76538 8.81V23.062C1.76538 28.2606 4.7108 31.206 9.9094 31.206H24.1749C29.3736 31.206 32.3054 28.2606 32.3054 23.062V8.81C32.3054 3.61143 29.3736 0.666016 24.1749 0.666016ZM15.496 9.20907C15.5073 9.0255 15.571 8.84902 15.6796 8.70059C15.7882 8.55216 15.9371 8.43801 16.1087 8.37169L20.6503 6.61714C20.8732 6.53104 21.1201 6.53104 21.343 6.61714L25.8846 8.37169C26.0561 8.43801 26.205 8.55216 26.3137 8.70059C26.4223 8.84902 26.486 9.0255 26.4973 9.20907L26.6744 12.0694C26.7717 13.644 26.4365 15.2152 25.7051 16.6131C24.9737 18.0109 23.874 19.1821 22.525 19.9999L21.4949 20.6247C21.3446 20.7157 21.1723 20.7639 20.9966 20.7639C20.821 20.7639 20.6486 20.7157 20.4984 20.6247L19.4686 19.9999C18.1194 19.1821 17.0197 18.0109 16.2883 16.6131C15.5568 15.2153 15.2216 13.644 15.3189 12.0694L15.496 9.20907ZM13.9093 11.3618L13.4206 11.1732C13.1976 11.087 12.9505 11.0872 12.7276 11.1734L8.186 12.9279C8.01445 12.9943 7.86553 13.1084 7.75693 13.2568C7.64832 13.4053 7.58458 13.5818 7.57328 13.7653L7.39643 16.6257C7.29923 18.2002 7.63445 19.7713 8.36582 21.169C9.0972 22.5668 10.1969 23.7379 11.5459 24.5557L12.576 25.1802C12.7262 25.2713 12.8985 25.3194 13.0742 25.3194C13.2499 25.3194 13.4222 25.2713 13.5724 25.1802L14.6023 24.5557C16.0797 23.6604 17.2551 22.343 17.9768 20.7734C18.0328 20.6518 17.9931 20.5086 17.8874 20.4269C16.6123 19.4383 15.5981 18.1531 14.9331 16.683C14.2681 15.213 13.9725 13.6027 14.072 11.9923L14.0931 11.6487C14.0969 11.5875 14.0812 11.5268 14.0481 11.4752C14.0151 11.4236 13.9664 11.3839 13.9093 11.3618Z" fill="white" fill-opacity="0.6"/>
</g>
<defs>
<filter id="filter0_d_805_1978" x="-0.0923849" y="0.536377" width="34.1071" height="34.0883" filterUnits="userSpaceOnUse" color-interpolation-filters="sRGB">
<feFlood flood-opacity="0" result="BackgroundImageFix"/>
<feColorMatrix in="SourceAlpha" type="matrix" values="0 0 0 0 0 0 0 0 0 0 0 0 0 0 0 0 0 0 127 0" result="hardAlpha"/>
<feOffset dy="1.70933"/>
<feGaussianBlur stdDeviation="0.854664"/>
<feComposite in2="hardAlpha" operator="out"/>
<feColorMatrix type="matrix" values="0 0 0 0 0 0 0 0 0 0 0 0 0 0 0 0 0 0 0.15 0"/>
<feBlend mode="normal" in2="BackgroundImageFix" result="effect1_dropShadow_805_1978"/>
<feBlend mode="normal" in="SourceGraphic" in2="effect1_dropShadow_805_1978" result="shape"/>
</filter>
</defs>
</svg>
