<svg width="28" height="25" viewBox="0 0 28 25" fill="none" xmlns="http://www.w3.org/2000/svg">
<g filter="url(#filter0_d_1429_27875)">
<path d="M21.8583 19.3193H6.15411C6.06921 19.3193 5.98778 19.2858 5.92775 19.2262C5.86771 19.1665 5.83398 19.0856 5.83398 19.0013V17.736C5.83398 17.6516 5.86771 17.5708 5.92775 17.5111C5.98778 17.4515 6.06921 17.418 6.15411 17.418H21.8583C21.9432 17.418 22.0247 17.4515 22.0847 17.5111C22.1447 17.5708 22.1785 17.6516 22.1785 17.736V19.0013C22.1785 19.0431 22.1702 19.0844 22.1541 19.123C22.138 19.1616 22.1144 19.1966 22.0847 19.2262C22.055 19.2557 22.0197 19.2791 21.9808 19.2951C21.942 19.3111 21.9004 19.3193 21.8583 19.3193Z" fill="#595959"/>
<path d="M20.8359 17.418V19.3194H21.8594C21.9014 19.3194 21.943 19.3111 21.9819 19.2951C22.0207 19.2792 22.056 19.2557 22.0857 19.2262C22.1154 19.1967 22.139 19.1616 22.1551 19.123C22.1712 19.0844 22.1795 19.0431 22.1795 19.0013V17.736C22.1795 17.6517 22.1458 17.5708 22.0857 17.5112C22.0257 17.4515 21.9443 17.418 21.8594 17.418H20.8359V17.418Z" fill="#454545"/>
<path d="M20.4908 15.4648H7.52325C7.43835 15.4648 7.35692 15.4983 7.29689 15.558C7.23685 15.6176 7.20312 15.6985 7.20312 15.7829V17.4172H20.811V15.7829C20.811 15.6985 20.7773 15.6176 20.7172 15.558C20.6572 15.4983 20.5757 15.4648 20.4908 15.4648Z" fill="#BEBEBE"/>
<path d="M19.4688 15.4648V17.4172H20.8123V15.7829C20.8123 15.7411 20.804 15.6998 20.7879 15.6612C20.7718 15.6226 20.7483 15.5876 20.7185 15.558C20.6888 15.5285 20.6535 15.5051 20.6147 15.4891C20.5758 15.4731 20.5342 15.4649 20.4922 15.4649H19.4688V15.4648Z" fill="#AAAAAA"/>
<path d="M19.7837 15.4643H8.22852V7.26787C8.22852 4.098 10.8152 1.52832 14.0061 1.52832C17.1969 1.52832 19.7836 4.098 19.7836 7.26787V15.4643H19.7837Z" fill="#D82E3D"/>
<path d="M14.0077 1.52832C13.7804 1.52832 13.5564 1.54178 13.3359 1.56716C16.2103 1.89784 18.4417 4.3238 18.4417 7.26787V15.4643H19.7853V7.26787C19.7853 4.098 17.1986 1.52832 14.0077 1.52832Z" fill="#C32430"/>
<path d="M14.0076 10.472C13.6311 10.472 13.3148 10.1903 13.2741 9.81839L12.6664 4.28111C12.6417 4.05598 12.8191 3.85938 13.0472 3.85938H14.9681C15.1961 3.85938 15.3736 4.05598 15.3489 4.28111L14.7412 9.81843C14.7004 10.1903 14.3842 10.472 14.0076 10.472Z" fill="#F6F6F6"/>
<path d="M14.0077 13.1334C14.4251 13.1334 14.7635 12.7973 14.7635 12.3826C14.7635 11.968 14.4251 11.6318 14.0077 11.6318C13.5903 11.6318 13.252 11.968 13.252 12.3826C13.252 12.7973 13.5903 13.1334 14.0077 13.1334Z" fill="#F6F6F6"/>
<path d="M6.88769 8.81094H3.5178C3.43382 8.81094 3.35329 8.7778 3.29391 8.71881C3.23453 8.65983 3.20117 8.57982 3.20117 8.4964C3.20117 8.41298 3.23453 8.33297 3.29391 8.27398C3.35329 8.215 3.43382 8.18186 3.5178 8.18186H6.88769C6.97166 8.18186 7.0522 8.215 7.11158 8.27398C7.17096 8.33297 7.20431 8.41298 7.20431 8.4964C7.20431 8.57982 7.17096 8.65983 7.11158 8.71881C7.0522 8.7778 6.97166 8.81094 6.88769 8.81094ZM8.02627 3.41911C7.98468 3.41917 7.9435 3.41105 7.90507 3.39524C7.86665 3.37943 7.83176 3.35623 7.8024 3.32697L5.41953 0.95977C5.36015 0.900783 5.3268 0.820784 5.3268 0.737368C5.3268 0.653953 5.36015 0.573953 5.41953 0.514966C5.4789 0.455986 5.55943 0.422852 5.6434 0.422852C5.72737 0.422852 5.8079 0.455986 5.86727 0.514966L8.25014 2.88217C8.30952 2.94115 8.34287 3.02115 8.34287 3.10457C8.34287 3.18798 8.30952 3.26798 8.25014 3.32697C8.22078 3.35623 8.18589 3.37943 8.14747 3.39524C8.10905 3.41105 8.06786 3.41917 8.02627 3.41911ZM24.4994 8.81094H21.1295C20.9546 8.81094 20.8129 8.67011 20.8129 8.4964C20.8129 8.32269 20.9546 8.18186 21.1295 8.18186H24.4994C24.6743 8.18186 24.816 8.32269 24.816 8.4964C24.816 8.67011 24.6743 8.81094 24.4994 8.81094ZM19.9909 3.41911C19.9283 3.41911 19.8671 3.40067 19.815 3.36611C19.7629 3.33155 19.7223 3.28243 19.6984 3.22495C19.6744 3.16748 19.6681 3.10424 19.6803 3.04322C19.6926 2.9822 19.7227 2.92616 19.767 2.88217L22.1499 0.514966C22.2093 0.456402 22.2897 0.423623 22.3735 0.423801C22.4572 0.423979 22.5374 0.457101 22.5967 0.515917C22.6559 0.574734 22.6892 0.654456 22.6894 0.737639C22.6896 0.820821 22.6566 0.900691 22.5977 0.95977L20.2148 3.32697C20.1854 3.35623 20.1505 3.37943 20.1121 3.39524C20.0737 3.41105 20.0325 3.41917 19.9909 3.41911Z" fill="#D82E3D"/>
</g>
<defs>
<filter id="filter0_d_1429_27875" x="0.735547" y="0.422852" width="26.5465" height="23.8277" filterUnits="userSpaceOnUse" color-interpolation-filters="sRGB">
<feFlood flood-opacity="0" result="BackgroundImageFix"/>
<feColorMatrix in="SourceAlpha" type="matrix" values="0 0 0 0 0 0 0 0 0 0 0 0 0 0 0 0 0 0 127 0" result="hardAlpha"/>
<feOffset dy="2.46563"/>
<feGaussianBlur stdDeviation="1.23281"/>
<feComposite in2="hardAlpha" operator="out"/>
<feColorMatrix type="matrix" values="0 0 0 0 0 0 0 0 0 0 0 0 0 0 0 0 0 0 0.25 0"/>
<feBlend mode="normal" in2="BackgroundImageFix" result="effect1_dropShadow_1429_27875"/>
<feBlend mode="normal" in="SourceGraphic" in2="effect1_dropShadow_1429_27875" result="shape"/>
</filter>
</defs>
</svg>
