<svg width="22" height="23" viewBox="0 0 22 23" fill="none" xmlns="http://www.w3.org/2000/svg">
<path d="M10.9498 22.1057C16.8786 22.1057 21.6848 17.2995 21.6848 11.3707C21.6848 5.44197 16.8786 0.635742 10.9498 0.635742C5.02107 0.635742 0.214844 5.44197 0.214844 11.3707C0.214844 17.2995 5.02107 22.1057 10.9498 22.1057Z" fill="#E84142"/>
<path d="M14.7362 11.6499C15.1081 11.0075 15.7083 11.0075 16.0802 11.6499L18.3962 15.7157C18.7682 16.3581 18.4639 16.8821 17.72 16.8821H13.0541C12.3187 16.8821 12.0144 16.3581 12.3779 15.7157L14.7362 11.6499ZM10.2562 3.82263C10.6282 3.18022 11.2199 3.18022 11.5918 3.82263L12.1074 4.75243L13.3246 6.89098C13.6204 7.49958 13.6204 8.21806 13.3246 8.82666L9.24191 15.9016C8.86999 16.4764 8.25293 16.8399 7.56826 16.8821H4.1787C3.43486 16.8821 3.13056 16.3665 3.50248 15.7157L10.2562 3.82263Z" fill="white"/>
</svg>
