<svg width="23" height="23" viewBox="0 0 23 23" fill="none" xmlns="http://www.w3.org/2000/svg">
<path d="M11.549 22.1038C17.4764 22.1038 22.2816 17.2987 22.2816 11.3713C22.2816 5.44381 17.4764 0.638672 11.549 0.638672C5.62154 0.638672 0.816406 5.44381 0.816406 11.3713C0.816406 17.2987 5.62154 22.1038 11.549 22.1038Z" fill="#F49B33"/>
<path d="M15.5028 9.1798C15.3979 7.83386 14.2433 7.36257 12.7821 7.20822L12.8151 5.34365L11.6811 5.32513L11.6482 7.1403C11.3498 7.13413 11.0452 7.13619 10.7406 7.13619L10.7735 5.30867L9.63955 5.28809L9.60662 7.15265C9.36171 7.15265 9.11887 7.15471 8.88425 7.14854V7.14236L7.3181 7.11561L7.29752 8.32778C7.29752 8.32778 8.13719 8.32572 8.12279 8.34219C8.58172 8.35042 8.72784 8.62002 8.76695 8.85052L8.7299 10.9744C8.76077 10.9744 8.80193 10.9765 8.84927 10.9847L8.7299 10.9826L8.67845 13.9585C8.65581 14.1026 8.56732 14.331 8.24421 14.3269C8.25862 14.3393 7.41894 14.3125 7.41894 14.3125L7.16992 15.6626L8.64758 15.6893C8.9213 15.6955 9.19296 15.7037 9.45844 15.7099L9.42551 17.595L10.5595 17.6136L10.5924 15.749C10.9032 15.7593 11.2057 15.7675 11.5 15.7737L11.4671 17.63L12.601 17.6486L12.634 15.7675C14.5438 15.6914 15.8877 15.2345 16.0853 13.444C16.2437 12.0034 15.5769 11.3469 14.4985 11.0691C15.1612 10.748 15.5831 10.1656 15.5028 9.1798ZM13.8441 13.1847C13.8214 14.5945 11.4094 14.3907 10.6397 14.3784L10.685 11.8799C11.4547 11.8923 13.8708 11.7132 13.8441 13.1847ZM13.379 9.64903C13.3563 10.9312 11.3456 10.746 10.7056 10.7357L10.7447 8.46979C11.3847 8.48008 13.4016 8.31132 13.379 9.64903Z" fill="white"/>
</svg>
