<svg width="33" height="25" viewBox="0 0 33 25" fill="none" xmlns="http://www.w3.org/2000/svg">
<path d="M27.42 2.55174C25.3944 1.61202 23.2226 0.922892 20.9673 0.526123C20.6958 1.0273 20.3617 1.71643 20.132 2.2385C17.7305 1.88349 15.329 1.88349 12.9692 2.2385C12.7395 1.69555 12.4054 1.0273 12.1339 0.526123C9.85774 0.922892 7.68595 1.61202 5.66034 2.55174C1.56735 8.73298 0.460576 14.7472 1.02441 20.6987C3.73914 22.7243 6.37035 23.9564 8.9389 24.7499C9.58626 23.8728 10.1501 22.9331 10.6304 21.9516C9.69068 21.5966 8.79272 21.1581 7.95742 20.6569C8.18713 20.4899 8.39596 20.3228 8.60478 20.1349C13.7628 22.5364 19.3593 22.5364 24.4547 20.1349C24.6635 20.3228 24.8932 20.4899 25.102 20.6569C24.2458 21.1581 23.3479 21.5966 22.429 21.9516C22.9093 22.9331 23.4941 23.8728 24.1205 24.7499C26.71 23.9355 29.3412 22.7243 32.0559 20.6778C32.7242 13.8074 30.9491 7.83503 27.42 2.55174ZM11.3404 17.0442C9.79509 17.0442 8.52125 15.6033 8.52125 13.8492C8.52125 12.0951 9.75332 10.6542 11.3404 10.6542C12.9066 10.6542 14.1804 12.0951 14.1595 13.8492C14.1595 15.6033 12.9066 17.0442 11.3404 17.0442ZM21.7399 17.0442C20.1946 17.0442 18.9208 15.6033 18.9208 13.8492C18.9208 12.0951 20.1528 10.6542 21.7399 10.6542C23.3061 10.6542 24.58 12.0951 24.5591 13.8492C24.5591 15.6033 23.327 17.0442 21.7399 17.0442Z" fill="#5865F2"/>
</svg>
