<svg width="31" height="31" viewBox="0 0 31 31" fill="none" xmlns="http://www.w3.org/2000/svg">
<path opacity="0.8" fill-rule="evenodd" clip-rule="evenodd" d="M22.3403 0.806458H8.2724C3.14582 0.806458 0.241211 3.71107 0.241211 8.8376V22.8921C0.241211 28.0187 3.14582 30.9234 8.2724 30.9234H22.3403C27.4669 30.9234 30.3581 28.0187 30.3581 22.8921V8.8376C30.3581 3.71107 27.4669 0.806458 22.3403 0.806458ZM17.8534 17.0845C17.6712 17.2662 17.4495 17.4033 17.2055 17.485L14.8613 18.2663C14.6923 18.3227 14.5153 18.3515 14.3372 18.3514C13.8944 18.3514 13.4781 18.179 13.1651 17.8659C12.7182 17.419 12.5649 16.7691 12.7647 16.1696L13.5461 13.8256C13.6277 13.5816 13.7648 13.3598 13.9465 13.1777L19.0096 8.11462H9.10354C7.98646 8.11462 7.07765 9.02343 7.07765 10.1405V21.9275C7.07765 23.0446 7.98646 23.9534 9.10354 23.9534H20.8906C22.0076 23.9534 22.9164 23.0446 22.9164 21.9275V12.0215L17.8534 17.0845ZM14.5944 14.1745C14.6216 14.0931 14.6672 14.0192 14.7279 13.9585L21.6301 7.0564L23.9742 9.4005L17.072 16.3026C17.0114 16.3633 16.9374 16.409 16.856 16.4361L14.5119 17.2175C14.4146 17.2499 14.3101 17.2546 14.2103 17.231C14.1104 17.2074 14.0191 17.1565 13.9465 17.084C13.874 17.0114 13.8231 16.9201 13.7995 16.8203C13.7759 16.7204 13.7806 16.6159 13.813 16.5186L14.5944 14.1745ZM23.323 5.36338C23.6826 5.00376 24.2657 5.00376 24.6253 5.36338L25.6672 6.40524C26.0268 6.76485 26.0268 7.3479 25.6672 7.70752L24.7556 8.61913L22.4114 6.27499L23.323 5.36338Z" fill="white"/>
</svg>
