<svg width="22" height="23" viewBox="0 0 22 23" fill="none" xmlns="http://www.w3.org/2000/svg">
<path d="M10.7506 22.1057C16.6794 22.1057 21.4856 17.2995 21.4856 11.3707C21.4856 5.44197 16.6794 0.635742 10.7506 0.635742C4.82185 0.635742 0.015625 5.44197 0.015625 11.3707C0.015625 17.2995 4.82185 22.1057 10.7506 22.1057Z" fill="#627EEA"/>
<path d="M11.0859 3.31738V9.26888L16.116 11.5168L11.0859 3.31738Z" fill="white" fill-opacity="0.602"/>
<path d="M11.0847 3.31738L6.05469 11.5168L11.0847 9.26888V3.31738Z" fill="white"/>
<path d="M11.0859 15.3741V19.4181L16.1189 12.4541L11.0859 15.3741Z" fill="white" fill-opacity="0.602"/>
<path d="M11.0847 19.4181V15.3741L6.05469 12.4541L11.0847 19.4181Z" fill="white"/>
<path d="M11.0859 14.4375L16.116 11.5175L11.0859 9.26953V14.4375Z" fill="white" fill-opacity="0.2"/>
<path d="M6.05469 11.5175L11.0847 14.4375V9.26953L6.05469 11.5175Z" fill="white" fill-opacity="0.602"/>
</svg>
