<svg width="25" height="25" viewBox="0 0 25 25" fill="none" xmlns="http://www.w3.org/2000/svg">
<path d="M24.5784 7.64476C24.5196 6.3557 24.3148 5.47536 24.0155 4.70523C23.7114 3.89715 23.2347 3.16512 22.6186 2.56023C22.0138 1.94408 21.2817 1.46728 20.4737 1.16308C19.7033 0.863879 18.8232 0.659332 17.5341 0.600769C16.2427 0.541637 15.83 0.527588 12.5412 0.527588C9.25244 0.527588 8.8398 0.541637 7.54833 0.600438C6.25927 0.659332 5.37916 0.864068 4.6088 1.16341C3.80069 1.46747 3.06865 1.94418 2.46375 2.56028C1.8476 3.16511 1.3708 3.89706 1.0666 4.70509C0.767396 5.47545 0.562849 6.35575 0.504286 7.64462C0.445202 8.93623 0.431152 9.34869 0.431152 12.6375C0.431152 15.9264 0.445202 16.3391 0.504333 17.6305C0.563086 18.9194 0.767822 19.7997 1.06717 20.5701C1.37122 21.3782 1.84791 22.1101 2.46399 22.7149C3.06884 23.331 3.80085 23.8077 4.60894 24.1117C5.37916 24.4112 6.25946 24.6158 7.54852 24.6747C8.84018 24.7337 9.25258 24.7476 12.5414 24.7476C15.8302 24.7476 16.2428 24.7337 17.5343 24.6747C18.8234 24.6158 19.7035 24.4112 20.4738 24.1117C21.2783 23.8006 22.0089 23.3249 22.6188 22.715C23.2287 22.1051 23.7044 21.3745 24.0155 20.5701C24.315 19.7997 24.5196 18.9194 24.5785 17.6306C24.6372 16.3389 24.6513 15.9264 24.6513 12.6377C24.6513 9.34869 24.6372 8.93623 24.5784 7.64476ZM22.3986 17.5314C22.3448 18.7121 22.1475 19.3534 21.9817 19.78C21.7803 20.3023 21.4717 20.7766 21.0758 21.1725C20.68 21.5683 20.2057 21.8769 19.6834 22.0784C19.2567 22.2441 18.6155 22.4415 17.4347 22.4953C16.1581 22.5536 15.775 22.5658 12.5413 22.5658C9.30736 22.5658 8.92447 22.5536 7.64757 22.4953C6.46703 22.4415 5.82586 22.2441 5.39898 22.0784C4.873 21.8842 4.39723 21.5746 4.0066 21.1724C3.60435 20.7818 3.29477 20.306 3.10062 19.78C2.93486 19.3533 2.73751 18.7121 2.68372 17.5314C2.62554 16.2545 2.61314 15.8714 2.61314 12.6379C2.61314 9.40413 2.62554 9.02129 2.68372 7.7442C2.73765 6.56346 2.93486 5.92225 3.10062 5.4956C3.29484 4.96958 3.60441 4.49375 4.0066 4.10304C4.39722 3.70078 4.87309 3.39125 5.39917 3.19724C5.82586 3.0313 6.46703 2.83413 7.64781 2.78016C8.92466 2.72197 9.30774 2.70958 12.5413 2.70958H12.5411C15.7747 2.70958 16.1577 2.72197 17.4348 2.78034C18.6155 2.83413 19.2565 3.03149 19.6834 3.19724C20.2093 3.39144 20.6851 3.70095 21.0757 4.10304C21.478 4.49365 21.7876 4.96952 21.9816 5.4956C22.1475 5.92229 22.3449 6.56346 22.3986 7.74424C22.4568 9.0211 22.4692 9.40417 22.4692 12.6377C22.4692 15.8715 22.457 16.2543 22.3986 17.5314Z" fill="url(#paint0_linear_713_2584)"/>
<path d="M12.5411 6.41895C9.10669 6.41895 6.32251 9.20322 6.32251 12.6377C6.32251 16.0721 9.10669 18.8562 12.5411 18.8562C15.9757 18.8562 18.7598 16.0721 18.7598 12.6377C18.7598 9.20322 15.9757 6.41895 12.5411 6.41895ZM12.5411 16.6743C10.3118 16.6741 8.50445 14.8669 8.50464 12.6375C8.50464 10.4082 10.3118 8.60084 12.5413 8.60084C14.7707 8.60103 16.5779 10.4082 16.5779 12.6375C16.5779 14.8669 14.7705 16.6743 12.5411 16.6743Z" fill="url(#paint1_linear_713_2584)"/>
<path d="M20.4587 6.17332C20.4587 6.97585 19.8081 7.62643 19.0056 7.62643C18.2029 7.62643 17.5522 6.9758 17.5522 6.17332C17.5522 5.37056 18.2029 4.71997 19.0056 4.71997C19.8081 4.71997 20.4588 5.3706 20.4588 6.17332H20.4587Z" fill="url(#paint2_linear_713_2584)"/>
<defs>
<linearGradient id="paint0_linear_713_2584" x1="2.46366" y1="22.715" x2="22.6188" y2="2.5599" gradientUnits="userSpaceOnUse">
<stop stop-color="#FFD600"/>
<stop offset="0.5" stop-color="#FF0100"/>
<stop offset="1" stop-color="#D800B9"/>
</linearGradient>
<linearGradient id="paint1_linear_713_2584" x1="8.14394" y1="17.0348" x2="16.9385" y2="8.24033" gradientUnits="userSpaceOnUse">
<stop stop-color="#FF6400"/>
<stop offset="0.5" stop-color="#FF0100"/>
<stop offset="1" stop-color="#FD0056"/>
</linearGradient>
<linearGradient id="paint2_linear_713_2584" x1="17.9779" y1="7.20078" x2="20.0331" y2="5.14567" gradientUnits="userSpaceOnUse">
<stop stop-color="#F30072"/>
<stop offset="1" stop-color="#E50097"/>
</linearGradient>
</defs>
</svg>
