<svg width="25" height="25" viewBox="0 0 25 25" fill="none" xmlns="http://www.w3.org/2000/svg">
<path d="M21.3485 0.527588H3.734C1.90996 0.527588 0.431274 2.00627 0.431274 3.83032V21.4449C0.431274 23.2689 1.90996 24.7476 3.734 24.7476H21.3485C23.1726 24.7476 24.6513 23.2689 24.6513 21.4449V3.83032C24.6513 2.00627 23.1726 0.527588 21.3485 0.527588Z" fill="#0077B5"/>
<path d="M9.156 7.13305C9.156 7.54131 9.03493 7.94041 8.80812 8.27986C8.5813 8.61932 8.25891 8.88389 7.88173 9.04013C7.50455 9.19636 7.0895 9.23724 6.68909 9.15759C6.28867 9.07795 5.92086 8.88135 5.63218 8.59267C5.3435 8.30398 5.1469 7.93617 5.06725 7.53576C4.9876 7.13534 5.02848 6.7203 5.18472 6.34312C5.34095 5.96593 5.60553 5.64355 5.94498 5.41673C6.28444 5.18991 6.68353 5.06885 7.09179 5.06885C7.63925 5.06885 8.16429 5.28633 8.55141 5.67344C8.93852 6.06055 9.156 6.58559 9.156 7.13305ZM8.68811 10.5734V19.693C8.68847 19.7603 8.67554 19.827 8.65004 19.8893C8.62455 19.9515 8.587 20.0081 8.53955 20.0558C8.49211 20.1035 8.4357 20.1414 8.37358 20.1672C8.31146 20.1931 8.24484 20.2063 8.17757 20.2063H6.00189C5.93462 20.2065 5.86797 20.1934 5.80577 20.1677C5.74358 20.1421 5.68708 20.1044 5.6395 20.0568C5.59193 20.0092 5.55423 19.9527 5.52857 19.8905C5.50291 19.8284 5.48979 19.7617 5.48997 19.6944V10.5734C5.48997 10.4376 5.54391 10.3074 5.63991 10.2114C5.73591 10.1154 5.86612 10.0615 6.00189 10.0615H8.17757C8.3131 10.0618 8.44295 10.1159 8.53866 10.2119C8.63437 10.3079 8.68811 10.4379 8.68811 10.5734ZM20.0605 15.3211V19.7357C20.0607 19.7976 20.0486 19.8588 20.025 19.916C20.0015 19.9732 19.9668 20.0252 19.9231 20.0689C19.8793 20.1126 19.8274 20.1473 19.7702 20.1709C19.713 20.1945 19.6517 20.2065 19.5899 20.2063H17.2504C17.1886 20.2065 17.1273 20.1945 17.0701 20.1709C17.0129 20.1473 16.961 20.1126 16.9172 20.0689C16.8735 20.0252 16.8388 19.9732 16.8152 19.916C16.7917 19.8588 16.7796 19.7976 16.7798 19.7357V15.4573C16.7798 14.8188 16.9669 12.661 15.1105 12.661C13.6725 12.661 13.3794 14.1376 13.3216 14.8009V19.7357C13.3216 19.8593 13.2729 19.978 13.1862 20.0661C13.0994 20.1542 12.9814 20.2045 12.8578 20.2063H10.5982C10.5364 20.2063 10.4753 20.1942 10.4183 20.1705C10.3613 20.1468 10.3095 20.1121 10.2659 20.0684C10.2223 20.0247 10.1878 19.9728 10.1642 19.9157C10.1407 19.8586 10.1287 19.7975 10.1289 19.7357V10.5335C10.1287 10.4717 10.1407 10.4106 10.1642 10.3535C10.1878 10.2964 10.2223 10.2445 10.2659 10.2008C10.3095 10.1571 10.3613 10.1224 10.4183 10.0987C10.4753 10.075 10.5364 10.0628 10.5982 10.0628H12.8578C12.9826 10.0628 13.1023 10.1124 13.1906 10.2007C13.2789 10.289 13.3284 10.4087 13.3284 10.5335V11.3289C13.8624 10.528 14.6537 9.9101 16.3422 9.9101C20.0825 9.9101 20.0605 13.4027 20.0605 15.3211Z" fill="white"/>
</svg>
