<svg width="22" height="23" viewBox="0 0 22 23" fill="none" xmlns="http://www.w3.org/2000/svg">
<path d="M11.1592 0.635742H11.1421C5.3749 0.635742 0.697845 5.3128 0.697845 11.08V11.6615C0.697845 17.4287 5.3749 22.1057 11.1421 22.1057H11.1592C16.9265 22.1057 21.6035 17.4287 21.6035 11.6615V11.08C21.6035 5.3128 16.9265 0.635742 11.1592 0.635742Z" fill="#232323"/>
<path d="M6.82603 8.7371C6.86042 8.77543 6.90341 8.80525 6.9507 8.82228C6.99798 8.84358 7.04957 8.8521 7.10116 8.8521H16.8379C17.1818 8.8521 17.3581 8.4262 17.1173 8.17067L15.5182 6.48839C15.4838 6.45006 15.4408 6.42025 15.3892 6.39895C15.3419 6.37766 15.2904 6.36914 15.2388 6.36914H5.46332C5.11511 6.36914 4.94316 6.79929 5.18819 7.05483L6.82603 8.7371ZM6.82603 16.2584C6.89911 16.3308 6.99798 16.3734 7.10116 16.3734H16.8379C17.1818 16.3734 17.3581 15.956 17.1173 15.709L15.5182 14.065C15.4838 14.0267 15.4365 13.9969 15.3892 13.9798C15.3419 13.9586 15.2904 13.95 15.2388 13.95H5.46332C5.11511 13.95 4.94316 14.3717 5.18819 14.6187L6.82603 16.2584ZM6.82603 10.2746C6.89911 10.2022 6.99798 10.1596 7.10116 10.1596H16.8379C17.1818 10.1596 17.3581 10.577 17.1173 10.824L15.5182 12.4679C15.4838 12.5063 15.4365 12.5361 15.3892 12.5531C15.3419 12.5744 15.2904 12.5829 15.2388 12.5829H5.46332C5.11511 12.5829 4.94316 12.1613 5.18819 11.9143L6.82603 10.2746Z" fill="url(#paint0_linear_1429_28161)"/>
<defs>
<linearGradient id="paint0_linear_1429_28161" x1="16.4852" y1="16.4982" x2="5.945" y2="6.14038" gradientUnits="userSpaceOnUse">
<stop stop-color="#CF41E8"/>
<stop offset="1" stop-color="#10F2B0"/>
</linearGradient>
</defs>
</svg>
