<svg width="25" height="25" viewBox="0 0 25 25" fill="none" xmlns="http://www.w3.org/2000/svg">
<path d="M21.5687 0.527588H3.51382C1.81138 0.527588 0.431274 1.90769 0.431274 3.61013V21.665C0.431274 23.3675 1.81138 24.7476 3.51382 24.7476H21.5687C23.2712 24.7476 24.6513 23.3675 24.6513 21.665V3.61013C24.6513 1.90769 23.2712 0.527588 21.5687 0.527588Z" fill="#3FA9F5"/>
<path d="M20.4108 6.08951C20.2374 5.78517 20.0053 5.74443 19.6819 5.86933C14.82 7.74821 9.95604 9.6216 5.0901 11.4895C4.76973 11.6126 4.67175 11.7717 4.67175 12.1052C4.8048 12.2916 9.36713 16.7579 9.54784 16.8273C9.67261 17.2265 9.79709 17.6257 9.92127 18.0249C10.0399 18.4063 16.5534 24.7111 16.5676 24.7476H21.5687C22.3863 24.7476 23.1703 24.4228 23.7484 23.8447C24.3265 23.2666 24.6513 22.4825 24.6513 21.665V10.2955C24.5291 10.201 20.4108 6.09892 20.4108 6.08951Z" fill="#1A1A1A" fill-opacity="0.129412"/>
<path d="M20.4109 6.08948C20.4109 6.18278 18.5187 15.3196 17.758 18.9701C17.6479 19.4998 17.3638 19.6144 16.9218 19.2935C15.8126 18.4881 14.7038 17.6823 13.5955 16.876C13.1293 16.5371 12.9387 16.5481 12.4855 16.9226C11.9294 17.3822 11.3704 17.8384 10.8086 18.2911C10.3564 18.6547 10.0913 18.5719 9.92124 18.0251C9.50279 16.6791 9.07811 15.3348 8.6716 13.9854C8.60725 13.7718 8.50206 13.6593 8.29867 13.5857C7.2664 13.2127 6.23859 12.8285 5.20924 12.4483C5.00557 12.3729 4.80504 12.2918 4.672 12.1053C4.672 11.7719 4.77003 11.6127 5.09034 11.4896C9.95544 9.61903 14.8194 7.74565 19.6822 5.86941C20.0055 5.7444 20.2374 5.78513 20.4109 6.08948ZM16.8595 8.60957C16.8171 8.63214 12.1036 11.5289 9.80911 12.9478C9.46354 13.1616 9.33825 13.4298 9.44031 13.8043C9.67469 14.662 9.93121 15.5138 10.1751 16.369C10.2087 16.4866 10.2416 16.6022 10.3858 16.604C10.5651 16.6064 10.5733 16.4507 10.5916 16.3318C10.6519 15.942 10.7169 15.5515 10.7468 15.1588C10.7594 14.9678 10.8097 14.7813 10.8948 14.6099C10.9799 14.4385 11.0981 14.2857 11.2427 14.1603C12.8072 12.7151 16.6077 9.17918 16.9466 8.85992C17.0578 8.75533 17.0489 8.5913 16.8595 8.60957Z" fill="white"/>
</svg>
