<svg width="23" height="25" viewBox="0 0 23 25" fill="none" xmlns="http://www.w3.org/2000/svg">
<path d="M8.08335 13.0867C6.15487 13.0867 4.59689 14.6447 4.62538 16.5542C4.64438 17.7797 5.31888 18.8437 6.31162 19.4374C5.97437 18.9197 5.77487 18.3069 5.76537 17.6467C5.73687 15.7372 7.29486 14.1792 9.22334 14.1792C9.60333 14.1792 9.96908 14.241 10.3111 14.3502V10.5265C9.95483 10.4743 9.58908 10.4458 9.22334 10.4458H9.17109V13.2577C8.82909 13.1485 8.46335 13.0867 8.08335 13.0867ZM16.4195 1.62036H15.403C15.688 3.0501 16.4908 4.29458 17.6118 5.14008C16.8755 4.16634 16.429 2.95035 16.4195 1.62036Z" fill="#F00044"/>
<path d="M22.2334 7.43897C21.8582 7.43897 21.4972 7.40097 21.1409 7.33447L15.2985 8.08497L9.17105 23.5746C8.81481 23.6268 8.44906 23.6553 8.08332 23.6553C6.45883 23.6553 4.91035 23.1281 3.65161 22.1543C3.79411 22.3253 3.94611 22.4916 4.11236 22.6531C5.48034 24.0021 7.29482 24.7478 9.22805 24.7478C9.5938 24.7478 9.95955 24.7193 10.3158 24.667C11.8358 24.4438 13.237 23.7456 14.3438 22.6531C15.7022 21.3088 16.4527 19.5276 16.4622 17.6276L16.391 9.17745C17.037 9.6762 17.7447 10.0942 18.5095 10.4124C19.6922 10.9112 20.9462 11.1677 22.2334 11.1677" fill="#F00044"/>
<path d="M4.09811 12.5498C5.45185 11.2056 7.25208 10.4598 9.17106 10.4456V9.43385C8.81481 9.3816 8.44907 9.3531 8.08332 9.3531C6.14534 9.3531 4.32611 10.0988 2.95812 11.4573C1.61389 12.7921 0.844393 14.616 0.849143 16.5113C0.849143 18.4208 1.60439 20.2115 2.96762 21.5652C3.18612 21.779 3.40937 21.9785 3.64686 22.159C2.57338 20.8812 1.98913 19.2852 1.98438 17.6038C1.98913 15.7085 2.75387 13.8846 4.09811 12.5498ZM21.1409 7.33437V6.31788H21.1314C19.8109 6.31788 18.595 5.88089 17.6165 5.13989C18.4667 6.26088 19.7112 7.05887 21.1409 7.33437Z" fill="#08FFF9"/>
<path d="M9.02862 21.0094C9.47986 21.0331 9.91211 20.9714 10.3111 20.8431C11.6886 20.3919 12.6813 19.1094 12.6813 17.5989L12.6861 11.9465V1.62008H15.4031C15.3318 1.26383 15.2938 0.902834 15.2891 0.527588H11.5461V10.8492L11.5413 16.5017C11.5413 18.0122 10.5486 19.2946 9.17112 19.7459C8.77212 19.8789 8.33987 19.9406 7.88863 19.9121C7.31389 19.8789 6.77714 19.7079 6.31165 19.4324C6.89589 20.3349 7.89338 20.9476 9.02862 21.0094Z" fill="#08FFF9"/>
<path d="M9.17108 23.5744C10.6911 23.3511 12.0923 22.6529 13.199 21.5604C14.5575 20.2162 15.308 18.4349 15.3175 16.535L15.2985 8.0848C15.9445 8.58355 16.6523 9.00154 17.417 9.31979C18.5997 9.81853 19.8537 10.075 21.141 10.075V7.33431C19.7112 7.05881 18.4667 6.26082 17.6165 5.13983C16.4955 4.29434 15.688 3.04985 15.4078 1.62012H12.686V11.9418L12.6813 17.5942C12.6813 19.1047 11.6886 20.3872 10.3111 20.8384C9.91208 20.9714 9.47983 21.0332 9.02859 21.0047C7.8886 20.9429 6.89586 20.3302 6.31161 19.4324C5.31887 18.8434 4.64438 17.7747 4.62538 16.5492C4.59688 14.6397 6.15487 13.0817 8.08335 13.0817C8.46334 13.0817 8.82909 13.1435 9.17108 13.2527V10.4408C7.2521 10.455 5.45187 11.2008 4.09814 12.545C2.7539 13.8797 1.98441 15.7037 1.98916 17.5942C1.98916 19.2757 2.5734 20.8717 3.65164 22.1494C4.91513 23.1231 6.45886 23.6504 8.08335 23.6504C8.44909 23.6551 8.81484 23.6266 9.17108 23.5744Z" fill="black"/>
</svg>
