<svg width="25" height="25" viewBox="0 0 25 25" fill="none" xmlns="http://www.w3.org/2000/svg">
<path d="M13.3512 12.2241L18.8016 20.0201H16.5647L12.1171 13.6585V13.6582L11.4641 12.7243L6.26855 5.29248H8.5054L12.6982 11.2902L13.3512 12.2241Z" fill="black"/>
<path d="M22.0343 0.527588H3.0483C1.60299 0.527588 0.431274 1.69931 0.431274 3.14461V22.1306C0.431274 23.5759 1.60299 24.7476 3.0483 24.7476H22.0343C23.4796 24.7476 24.6513 23.5759 24.6513 22.1306V3.14461C24.6513 1.69931 23.4796 0.527588 22.0343 0.527588ZM15.8796 21.0666L11.3788 14.5164L5.74388 21.0666H4.28752L10.7322 13.5756L4.28752 4.19612H9.20298L13.4649 10.3988L18.8008 4.19612H20.2571L14.1117 11.3397H14.1113L20.795 21.0666H15.8796Z" fill="black"/>
</svg>
