<svg width="42" height="42" viewBox="0 0 42 42" fill="none" xmlns="http://www.w3.org/2000/svg">
<g filter="url(#filter0_d_1351_12234)">
<path opacity="0.8" fill-rule="evenodd" clip-rule="evenodd" d="M12.5343 0.415527H28.8041C34.7331 0.415527 38.0768 3.77476 38.0768 9.7037V25.958C38.0768 31.887 34.7331 35.2463 28.8041 35.2463H12.5343C6.60533 35.2463 3.24609 31.887 3.24609 25.958V9.7037C3.24609 3.77476 6.60533 0.415527 12.5343 0.415527ZM11.5361 18.9774C10.5157 18.9774 9.68623 18.1474 9.68623 17.1275C9.68623 16.1077 10.5163 15.2776 11.5361 15.277C11.9554 15.277 12.3429 15.4179 12.6537 15.6543L16.045 12.5817C15.8652 12.291 15.7702 11.9559 15.7706 11.6142C15.7706 10.5938 16.6007 9.76425 17.6205 9.76425C18.6403 9.76425 19.4704 10.5943 19.4704 11.6142C19.4704 11.8408 19.4295 12.0579 19.3545 12.2584L22.3237 14.043C22.6629 13.6623 23.1566 13.4214 23.7054 13.4214C24.098 13.4211 24.4805 13.5463 24.7968 13.7788L28.2319 10.5534C28.0478 10.2659 27.9404 9.92447 27.9404 9.55801C27.9404 8.5376 28.7705 7.7081 29.7903 7.7081C30.8102 7.7081 31.6402 8.53817 31.6402 9.55801C31.6402 10.5784 30.8102 11.4079 29.7903 11.4079C29.3977 11.4083 29.0153 11.283 28.6989 11.0505L25.2639 14.276C25.4479 14.5634 25.5553 14.9049 25.5553 15.2714C25.5553 16.2918 24.7253 17.1213 23.7054 17.1213C22.685 17.1213 21.8555 16.2912 21.8555 15.2714C21.8552 15.0514 21.8945 14.8332 21.9714 14.6271L19.0022 12.8425C18.6631 13.2232 18.1693 13.4641 17.6205 13.4641C17.2006 13.4641 16.8137 13.3232 16.5029 13.0868L13.1116 16.1599C13.2855 16.4418 13.386 16.773 13.386 17.1275C13.386 18.1479 12.556 18.9774 11.5361 18.9774ZM13.7781 21.3898C13.7781 21.2017 13.6252 21.0489 13.4372 21.0489H9.63396C9.4459 21.0489 9.29307 21.2017 9.29307 21.3898V27.2719H7.31022C7.12216 27.2719 6.96932 27.4247 6.96932 27.6128C6.96932 27.8008 7.12216 27.9537 7.31022 27.9537H34.0134C34.202 27.9537 34.3543 27.8008 34.3543 27.6128C34.3543 27.4247 34.202 27.2719 34.0134 27.2719H32.0311V15.0072C32.0311 14.8191 31.8783 14.6663 31.6902 14.6663H27.8876C27.6995 14.6663 27.5467 14.8185 27.5467 15.0072V27.2725H25.9468V19.8308C25.9468 19.6427 25.7939 19.4899 25.6059 19.4899H21.8032C21.6152 19.4899 21.4623 19.6427 21.4623 19.8308V27.2725H19.8624V17.1485C19.8624 16.9605 19.7102 16.8076 19.5215 16.8076H15.7189C15.5308 16.8076 15.378 16.9605 15.378 17.1485V27.2725H13.7781V21.3898Z" fill="white"/>
</g>
<defs>
<filter id="filter0_d_1351_12234" x="-0.0482285" y="0.170898" width="41.4168" height="41.4163" filterUnits="userSpaceOnUse" color-interpolation-filters="sRGB">
<feFlood flood-opacity="0" result="BackgroundImageFix"/>
<feColorMatrix in="SourceAlpha" type="matrix" values="0 0 0 0 0 0 0 0 0 0 0 0 0 0 0 0 0 0 127 0" result="hardAlpha"/>
<feOffset dy="3.04823"/>
<feGaussianBlur stdDeviation="1.52411"/>
<feComposite in2="hardAlpha" operator="out"/>
<feColorMatrix type="matrix" values="0 0 0 0 0 0 0 0 0 0 0 0 0 0 0 0 0 0 0.15 0"/>
<feBlend mode="normal" in2="BackgroundImageFix" result="effect1_dropShadow_1351_12234"/>
<feBlend mode="normal" in="SourceGraphic" in2="effect1_dropShadow_1351_12234" result="shape"/>
</filter>
</defs>
</svg>
