<svg width="98" height="100" viewBox="0 0 98 100" fill="none" xmlns="http://www.w3.org/2000/svg">
<rect x="0.268555" y="0.132935" width="97.463" height="99.18" rx="26.4339" fill="url(#paint0_linear_869_10227)"/>
<rect x="0.268555" y="0.132935" width="97.463" height="99.18" rx="26.4339" fill="url(#paint1_linear_869_10227)"/>
<g filter="url(#filter0_d_869_10227)">
<path opacity="0.8" fill-rule="evenodd" clip-rule="evenodd" d="M62.7071 19.0935H34.4892C24.2061 19.0935 18.3799 24.9197 18.3799 35.2027V63.3939C18.3799 73.677 24.2061 79.5033 34.4892 79.5033H62.7071C72.9903 79.5033 78.7896 73.677 78.7896 63.3939V35.2027C78.7896 24.9197 72.9903 19.0935 62.7071 19.0935ZM63.2841 34.9699C55.4062 27.0906 42.7566 26.8696 34.5798 34.2552L34.6077 33.6754C34.6163 33.493 34.5888 33.3107 34.527 33.1389C34.4651 32.9671 34.37 32.8091 34.2471 32.6741C34.1242 32.539 33.9759 32.4295 33.8106 32.3518C33.6454 32.2741 33.4664 32.2297 33.284 32.2211C32.5277 32.2128 31.8658 32.7772 31.8297 33.5447L31.642 37.5142C31.633 37.6979 31.6606 37.8816 31.7232 38.0545C31.7858 38.2274 31.8821 38.3862 32.0065 38.5216C32.131 38.6571 32.281 38.7664 32.4481 38.8434C32.6151 38.9203 32.7957 38.9634 32.9795 38.97L36.9101 39.1132L36.9616 39.1146C37.3303 39.1212 37.6866 38.9811 37.952 38.725C38.2175 38.469 38.3703 38.118 38.377 37.7492C38.3836 37.3805 38.2435 37.0242 37.9874 36.7587C37.7314 36.4933 37.3804 36.3405 37.0116 36.3338L36.4429 36.3144C43.5297 29.9145 54.4928 30.1077 61.3181 36.9345C66.6335 42.2485 68.1031 50.4099 64.9762 57.2422C64.9002 57.4083 64.8577 57.5877 64.8511 57.7702C64.8445 57.9527 64.8738 58.1347 64.9376 58.3058C65.0013 58.4769 65.0981 58.6339 65.2224 58.7676C65.3468 58.9013 65.4963 59.0092 65.6623 59.0852C65.8284 59.1611 66.0078 59.2036 66.1903 59.2103C66.3727 59.2169 66.5548 59.1875 66.7259 59.1238C66.897 59.0601 67.0539 58.9633 67.1876 58.8389C67.3214 58.7146 67.4293 58.5651 67.5052 58.399C71.1133 50.5156 69.417 41.1014 63.2841 34.9699ZM63.9654 60.6445L60.0376 60.4554C59.6697 60.4387 59.3101 60.5683 59.0374 60.8157C58.7647 61.0632 58.6009 61.4085 58.5818 61.7762C58.5729 61.9587 58.5999 62.141 58.6614 62.313C58.7229 62.485 58.8177 62.6431 58.9404 62.7784C59.0631 62.9137 59.2112 63.0236 59.3763 63.1016C59.5414 63.1797 59.7203 63.2244 59.9027 63.2333L60.4727 63.2612C53.3832 69.5137 42.5328 69.2731 35.7575 62.4965C33.1242 59.8568 31.3696 56.4689 30.7331 52.7951C30.0966 49.1214 30.6092 45.3407 32.2009 41.969C32.3587 41.6356 32.3777 41.2533 32.2536 40.9059C32.1294 40.5586 31.8724 40.2748 31.5391 40.117C31.2057 39.9592 30.8234 39.9403 30.476 40.0644C30.1287 40.1885 29.8449 40.4455 29.6871 40.7788C25.9192 48.7234 27.5682 58.2419 33.7887 64.4624C35.7241 66.4006 38.0234 67.9373 40.5546 68.984C43.0857 70.0308 45.7987 70.5671 48.5378 70.562C53.4681 70.562 58.383 68.8074 62.3108 65.3425L62.2761 65.9195C62.2609 66.1042 62.2829 66.29 62.3405 66.466C62.3982 66.642 62.4905 66.8048 62.6119 66.9446C62.7334 67.0845 62.8816 67.1987 63.0477 67.2805C63.2139 67.3623 63.3948 67.4101 63.5797 67.421C63.7647 67.432 63.9499 67.4058 64.1246 67.3442C64.2993 67.2825 64.4599 67.1866 64.5969 67.062C64.734 66.9374 64.8448 66.7867 64.9228 66.6187C65.0009 66.4506 65.0445 66.2687 65.0512 66.0836L65.2862 62.1169C65.2971 61.9333 65.2715 61.7495 65.2108 61.5759C65.1501 61.4023 65.0556 61.2425 64.9328 61.1057C64.81 60.9689 64.6612 60.8578 64.4951 60.7789C64.3291 60.6999 64.149 60.6533 63.9654 60.6445ZM34.6294 49.7225C34.6294 42.0616 40.8722 35.8188 48.5332 35.8188C56.1941 35.8188 62.4369 42.0616 62.4369 49.7225C62.4369 57.3835 56.1941 63.6262 48.5332 63.6262C40.8722 63.6262 34.6294 57.3835 34.6294 49.7225ZM52.7043 52.5032C52.7043 50.2091 50.8273 48.3321 48.5332 48.3321C47.7685 48.3321 47.1428 47.7065 47.1428 46.9418C47.1428 46.1771 47.7685 45.5514 48.5332 45.5514C49.2979 45.5514 49.9235 46.1771 49.9235 46.9418C49.9235 47.7065 50.5492 48.3321 51.3139 48.3321C52.0786 48.3321 52.7043 47.7065 52.7043 46.9418C52.7043 45.1343 51.5364 43.6049 49.9235 43.0209V42.7706C49.9235 42.0059 49.2979 41.3803 48.5332 41.3803C47.7685 41.3803 47.1428 42.0059 47.1428 42.7706V43.0209C45.53 43.6049 44.3621 45.1343 44.3621 46.9418C44.3621 49.2359 46.2391 51.1129 48.5332 51.1129C49.2979 51.1129 49.9235 51.7385 49.9235 52.5032C49.9235 53.2679 49.2979 53.8936 48.5332 53.8936C47.7685 53.8936 47.1428 53.2679 47.1428 52.5032C47.1428 51.7385 46.5171 51.1129 45.7524 51.1129C44.9877 51.1129 44.3621 51.7385 44.3621 52.5032C44.3621 54.3107 45.53 55.8401 47.1428 56.4241V56.6744C47.1428 57.4391 47.7685 58.0647 48.5332 58.0647C49.2979 58.0647 49.9235 57.4391 49.9235 56.6744V56.4241C51.5364 55.8401 52.7043 54.3107 52.7043 52.5032Z" fill="white"/>
</g>
<defs>
<filter id="filter0_d_869_10227" x="12.6175" y="19.0934" width="71.8319" height="71.8318" filterUnits="userSpaceOnUse" color-interpolation-filters="sRGB">
<feFlood flood-opacity="0" result="BackgroundImageFix"/>
<feColorMatrix in="SourceAlpha" type="matrix" values="0 0 0 0 0 0 0 0 0 0 0 0 0 0 0 0 0 0 127 0" result="hardAlpha"/>
<feOffset dy="5.28678"/>
<feGaussianBlur stdDeviation="2.64339"/>
<feComposite in2="hardAlpha" operator="out"/>
<feColorMatrix type="matrix" values="0 0 0 0 0 0 0 0 0 0 0 0 0 0 0 0 0 0 0.15 0"/>
<feBlend mode="normal" in2="BackgroundImageFix" result="effect1_dropShadow_869_10227"/>
<feBlend mode="normal" in="SourceGraphic" in2="effect1_dropShadow_869_10227" result="shape"/>
</filter>
<linearGradient id="paint0_linear_869_10227" x1="6.9159" y1="14.48" x2="82.3977" y2="99.8704" gradientUnits="userSpaceOnUse">
<stop stop-color="#F69522"/>
<stop offset="1" stop-color="#F7BE3B"/>
</linearGradient>
<linearGradient id="paint1_linear_869_10227" x1="2.17639" y1="0.132935" x2="84.191" y2="0.132935" gradientUnits="userSpaceOnUse">
<stop stop-color="#4481EB"/>
<stop offset="1" stop-color="#04BEFE"/>
</linearGradient>
</defs>
</svg>
